<svg xmlns="http://www.w3.org/2000/svg" width="5841" viewBox="0 0 5841.2 2390" style="enable-background:new 0 0 5841.2 2390">
 <rect x="4.6" y="3.8" width="5832" height="2383" style="fill:#fbc411"/>
 <path d="m3388 1878c0 11.5 0 23 0 34.5-.1.1-.2.2-.3.3-22.6 22.6-45 45-68 68-2.1-9.3-4.9-18.3-8.1-27 18.8-18.7 37.6-37 56-56 6.6-6.6 13.2-13.2 19.7-19.8m-199 90c-7.1-4.2-14-8.4-21-12.6-50.9 50.9-102 102-153 153 0 11.4 0 22.8 0 34 30-30 61-60.7 91-91 27.8-27.7 56-55 83-83m535 77c-6.4 6.4-12.8 12.8-19 19 7 4.2 13.2 9.2 18.7 14.9 24.5-24.5 49-48.9 74-73 1.7-14.8 4.9-29.4 9.6-43.6-1 1-2.1 2.1-3.1 3.1-26.7 26.5-53 53-80 80m-625-131c-7.5-4.5-14.9-8.9-22.4-13.4-20.6 20.5-41 41-61.8 62 0 12 0 24 0 36 13.7-13.7 27.4-27.4 41-41 14.3-14.3 28.7-28.8 43-43m416 196c4.1 7.1 8.3 14.3 12.4 21.4 12-12 24-24 36-36 11.2-11.2 22.5-22.5 33.8-33.7 0-10.4 0-20.8 0-31 0-.8 0-1.7 0-2.5-22.8 22.7-45.6 45-68 67.9-4.7 4.8-9.3 9.5-14 14.2m68-249c-4.7-1.3-9.5-.7-14 1.9-4.9 2.8-9.7 5.6-14.6 8.3-13.2 7.6-26.5 15.2-39.7 22.8-26.5 26.5-53 53-79 80 4.3 7.4 8.6 14.7 12.8 22 34-34 68-68 102-102 10.9-10.8 21.8-21.7 32.7-32.6m-195 195c0-8.4 0-16.9 0-25.3 0-3.2 0-6.3 0-9.5-23.6 23.6-47 47-70.8 71-7.3 25.3-19 48.7-34 69 35-35 70-70 105-105m209 73c0-10.5 0-21 0-31.5-16.7 16.6-36 35.8-56.9 56 3.8 6.6 7.7 13.2 11.5 19.8 15-14.9 30-29.8 45-44.7m-1.7-137c.6-.6 1.1-1.2 1.7-1.7 0-11.4 0-22.8 0-34-18.5 18.5-37 37-55 56-17.7 17.7-35.4 35.4-53 53 4.1 7.1 8.2 14.2 12.4 21.3 31.4-31.4 63-63 95-94m341-55.7c13.5-13.5 27-26.9 40.6-40-3.3-2-6.7-4-10-6-3.8-2.2-7.5-4.5-11.3-6.7-11.3 11.3-22.7 22.7-34 34 0 11.2 0 22.5 0 33.7 4.9-4.9 9.8-9.8 14.7-14.6m-1034 173c-3.5-8.9-6.4-18-8.7-27.4-23 23-45.9 46-68.9 69 0 11.9 0 23.8 0 35.7 18.9-18.8 37.8-37.7 56.7-56 7-6.9 14-13.9 20.9-20.8m330-42c14.6-14.5 29-29 43.8-43.6-1.3-3.3-3.6-6.4-7-8.6-1.5-1-3-1.9-4.5-2.8-2.6-1.6-5.2-3.1-7.8-4.7-31.7 31.8-63 63.7-95 95-5.4 5.4-10.8 10.8-16 16 8-4.8 16-9.5 23.9-14.3 20.9-12.6 41.8-25 62.7-37.5m-1048-102c0-12.6 0-25.3 0-37.9-12 12-24 24-36 36-12.7 12.7-25.4 25.5-38 38 0 12.5 0 25 0 37.5 24.8-24.7 50-49 74-74m1326 38c28.7-28.7 57-57 86-86 0-11.2 0-22.5 0-33.7-33 33-66 66-99 99-11.9 11.9-23.7 23.8-35.5 35.7 4.2 7.2 8.3 14.3 12.5 21.5 12-12.2 24-24.4 36-36.6m-186 7.3c.5 6.4.8 12.9.8 19.4 0 5.2-.2 10.4-.6 15.6 20.9-20.8 41.9-41.6 62.8-62 0-11.9 0-23.8 0-35.7-3.1 3.1-6.1 6.1-9.2 9.2-17.9 17.9-35.8 35.9-53.8 53.9m-1571 97c13.7-13.7 27.4-27.5 41-41-4.2-7.5-8.3-15-12.5-22.4-6.9 6.9-13.7 13.8-20.6 20.7-21 21-42 42-64 64-1.8 1.8-3.5 3.5-5.3 5.3 0 11.7 0 23.3 0 35 20.3-20 40.5-40.5 60.8-60.8m156 132c19-19 38-38 57-57 0-12.4 0-24.8 0-37-9.2 9.2-18.3 18.4-27.5 27.5-15.7 15.7-31.4 31.5-47 47-.4 5.1-1.1 10.2-2.2 15.3-3.8 16.5-10.7 31.5-21 44.8 13.6-13.5 27-27 40.7-40.6m57-129c0-12.9 0-25.8 0-38.7-8.1 8-17.3 17.2-27.5 27.3-14 14-29.9 29.6-46.8 46 0 13 0 26 0 39 18.4-18.4 36.8-36.7 55-55 6.3-6.4 12.6-12.7 19-19m-274-14.8c2.2-2.2 4.4-4.4 6.5-6.6 23-23 47-46 69.8-69-1.5-2.7-3-5.3-4.4-8-2.8-5.1-5.7-10.2-8.5-15.3-4.8 4.8-9.6 9.6-14.3 14.4-16.4 16.4-32.7 32.7-49 49 0 2.5 0 5 0 7.5 0 9.5 0 19 0 28.5m1196-44c-.8-7.9-1.2-15.8-1.2-23.9 0-3.1.1-6.2.3-9.3-20.8 20.8-41.8 41.9-62.8 62.9 0 11 0 22 0 33.4 21-21 42.5-42 63.7-63m-560-45c0 9.9 0 19.8 0 29.7 39-39 78-77.9 117-117 2.5-2.5 5-5 7.4-7.4 0-11.3 0-22.7 0-34-13.3 13.4-26.7 26.7-40 40 0 .1.1.2.1.3 3 12.8-2.6 25.8-14 32-3.9 2.2-7.9 4.3-11.8 6.4-9.8 5.3-19.6 10.7-29.4 16-9.8 9.8-19.7 19.6-29.5 29.4.1 1.4.1 2.8.1 4.1m-218 85c0 6.6 0 13 0 19.7 24.8-24.7 50-49 74-74 0-6.8 0-13.7 0-20.5 0-5.8 0-11.7 0-17.6-24.8 24.8-49 50-74 74 0 6 0 12 0 18.2m-143-53.8c0-11.7 0-23.4 0-35-3.4 3.4-6.8 6.8-10.2 10.2-5.8 5.8-11.5 11.5-17.3 17.3-15.6 15.5-31 31-46.8 46.6 0 11.8 0 23.6 0 35 5.9-5.9 11.7-11.7 17.6-17.6 18.9-18.9 37.8-37.8 56.7-56.7m680 40c-11.3 0-22.5 0-33.8 0-11.9 12-23.8 23.9-35.7 35.8 0 11.2 0 22.5 0 33.7 1.3-1.3 2.5-2.5 3.8-3.8 22-21.8 43.9-43.7 66-66m367-185c-.2 2.2-.1 4.5-.1 6.7 0 9.3 0 18.5 0 27.8 14-14 27.9-27.6 41-40.6-3.6-2.1-7.2-4.3-10.8-6.4-2.1-1.2-4.1-2.4-6.4-3.2-2.9-.9-5.8-1.1-8.6-.6-4.9 4.9-9.9 9.9-15 15-.2.5-.2.9-.2 1.3m-190 141c0 3.2 0 6.4 0 9.5 13.8-13.8 27.7-27.6 41.5-41 9.4-9.4 18.8-18.8 28-28 5.5-21 14.2-41 25.4-59-31.7 31.8-63 64-95 95 0 8 0 16 0 24m-379-42.9c2.4-2.4 4.8-4.8 7.2-7.2 0-11.4 0-22.7 0-34-18.9 18.9-37.7 37.7-57 57-22.7 22.7-45 45-68 67.9 0 11.2 0 22.4 0 33.6 39-38.9 78-78 118-117m7.2 66c0-11.7 0-23.5 0-35-26.8 26.9-53 53.9-80 81-14.8 14.8-29.5 29.5-44 44 0 11.7 0 23.3 0 35 17.3-17.4 34.4-35 51.8-52 24-24 48.6-48 72.9-72m185-76c11.7 0 23.3 0 35 0 9.3-9.2 18.5-18.5 27.8-27.7 0-11.7 0-23.4 0-35-21 21-41.9 41.9-62.8 62.8m-48-23.7c-7.9 7.9-15.8 15.8-23.7 23.8 11.9 0 23.8 0 35.7 0 8.2-8.2 16.5-16.4 24.7-24.6 24.9-24.9 49.6-49.8 74-75 0-10 0-20 0-30 0-1.8 0-3.7.2-5.5-37 37-74 74-111 111m554-17.5c-7.4-4.4-14.7-8.8-22-13.2-9.7 9.7-19.5 19.5-29 29-25.9 25.9-51.8 51.7-78 78 0 11.8 0 23.6 0 35 8-8 16-16 24-24 35-34.9 70-69.9 105-105m144-34c4.6 6.7 8.9 13.7 12.7 20.9 5.7-5.8 11.4-11.5 17.2-17.3 20-20 40.5-40 60.7-60 4.6-4.6 9.2-9.2 13.8-13.8 2.6-4.7 6.5-8.7 11.4-11.4 20.9-20.9 41.9-41.8 63-62.9 8.3-8.4 17.8-15.8 24.4-25.8h-34c-.2 3.1-2.9 4.3-4.7 6.1-30 30.4-61 60.7-91 91-24.4 24.5-48.8 49-73 73m-16.5-21c49.8-49.8 100-100 149-149h-36c.5 2.4-1.6 3.5-2.8 4.8-5.8 5.9-11.9 11.5-17.8 17.4-36.6 36.7-73 73-110 110 6 5.3 11.6 11 17 17m-59.9-47c7.5 4.1 14.8 8.6 21.8 13.5 38.5-38.5 76.9-76.9 115-115h-36c-13.6 15.5-28.8 29.4-43 44-19.3 19-38.6 38.5-57.9 57.9m234-17c11.9 0 23.7 0 35.6 0 15-15 30-30 45-45 12.9-13.3 27-25.5 39-39.6h-36c-.4 2.1-1.9 3.4-3.3 4.8-24 24-48 48-73 72-2.6 2.6-5.2 5.2-7.8 7.8m243 5.9c.4.2.8.3 1.3.5 30.5-30.4 61-60.9 92-91h-36c.4 2.9-2 4-3.6 5.5-26.5 26.6-53 53-79 80 9 .6 17.8 2.3 26.3 5.6m-171-5.9c11.7 0 23.4 0 35 0 28-28 57-57 85-85h-36c-1.4 1.8-2.6 3.8-4.2 5.4-15.5 15.5-31 30.9-46.6 46-11 11-22 22-33 33m-937 77c-10.5 10.5-21 21-31.6 31.5-2.7 4.7-5.3 9.5-8 14.2-2 3.6-4 7.3-6.2 10.8-4.7 7.8-2.8 16.2 2.3 21.7 21-21 41.9-42 62.9-63 24.4-24.4 49-48.6 73-72.9 21.4-21.3 43-42.5 64-64 12.9-13.3 27-25.5 39-39.6h-36c-.4 2.1-1.9 3.4-3.3 4.8-24 24-48 48-73 72-28 28-55.9 56-84 85m246-29.6c0 11.2 0 22.4 0 33.7 9.7-9.7 19.4-19.4 29-29 45.6-45.5 91-91 137-136-12 0-24 0-36 0 .4 2.9-2 4-3.6 5.5-26.9 27-53.8 54-81 81-15 15-30 30-45.5 45m906-10.5c2.6-2.6 5.1-5.1 7.7-7.7 29-29 58.8-58 88-88 8.3-8.4 17.8-15.8 24.4-25.8h-34c-.7 3.6-3.8 5.3-6 7.5-32.4 32.4-65 64.8-97 97 6.5 5 12.3 10.6 17.2 16.9m-929-35.9c7.8 1.5 14.8 6.2 19 12.9 32.8-32.8 66-66 98-98-12 0-24 0-36 0-1.5 1.8-2.8 3.7-4.4 5.3-26.6 26.6-53 53-79.9 80 .8.1 1.8.2 2.8.4m-74.9-.4c.8-.1 1.6-.2 2.4-.2 1-.1 1.9 0 2.9 0 10 0 20 0 30 0 28-28 57-57 85-85-12 0-24 0-36 0-1.4 1.8-2.6 3.8-4.2 5.4-15.5 15.5-31 30.9-46.6 46-11 11-22 22-33.4 33m98 118c0 11.4 0 22.8 0 34 20.6-20.7 41-41.5 61.7-62 20.6-20.6 41-41 62-61.7 29-29 58.8-58 88-88 8.3-8.4 17.8-15.8 24.4-25.8h-34c-.7 3.6-3.8 5.3-6 7.5-65 65-131 131-196 196m283-127c8.1 0 16.2.4 24 1.2 44-43.9 74-72.9 77.9-77h-37.7c-8.9 8.9-36.6 36.7-76 76 4-.2 7.9-.2 11.8-.2m-115 31.6c17.9-10.9 37-19.3 58-24.6 16.7-16.7 33-33.4 50-50 10.7-10.8 22.4-20.7 31.8-32.8h-34c-.6 1.2-1 2.5-1.9 3.4-27.8 28-56 55.9-84 84-6.7 6.7-13.5 13.5-20.4 20.3m167-25.5c9.1 2.2 18 5 26.6 8.3 30-30 60-60 90-90h-36c-1.4 1.8-2.6 3.8-4.2 5.4-15 15-30 30-45 45-10.5 10.5-21 21-31.6 31.6m1199 130c2.2-.6 3.3-2.2 4.6-3.6 23.8-24.5 48.7-47.9 73-72 28.5-29 57.9-57 87-86 4.1-4.1 9-7.7 11.5-13.6 6.4-15.3 13.3-30.4 19.8-45.7.8-1.9 8.4-13 6-15.2l-6 6.5c-15.7 15.8-34 34-49.9 50-.1.1-.2.2-.3.3-16 16-32 32-48 48-28 28-56 57-84 85-31.9 31.9-64 64-96 96-13.8 13.9-27.7 27.7-41.5 41.6-.7 13.7-2.4 27-5.3 40 18.5-18.4 37-36.7 55-55 25-24.7 49.9-49.8 75-74.9m-180 97c7.1-5.7 10.3-17 2.5-25.9-20.6 20.6-41 41-61.8 62 18-10.8 36-21.5 54-32 1.8-1 3.6-2.1 5.2-3.4m391-411c-3.9 1.2-5.7 3.7-7.8 5.8-36.8 36.8-73 74-110 110-28 28-61 59.9-88 87-45.8 45.8-91 92-137 137 .3 1.1.6 2.2.9 3.4 2.1 8.3 3.7 16.6 4.8 25 2.1-2.1 4.2-4.1 6.2-6.2 27.4-27.4 54.6-55 82-83 16.6-16.6 33.4-33 50-49.7 2.1-.7 3.1-2.4 4.3-3.7 24-23.9 47.9-47.8 71.8-72 39.6-39.6 79-79 119-119 1.8-1.7 3.3-3.2 3.2-5.8-.4-10 2.6-19.8.9-30m-981 565c5.3-3.5 8.3-8.3 8.5-14.8.1-1.9 0-3.8 0-5.8 0-2.2 0-4.3 0-6.5-9.2 9.2-18.4 18.4-27.6 27.7 5.8 3.2 13.3 3.2 19-.6m363-17.5c20-12 40-24 61-36 4.5-2.7 9-5.4 13.4-8 27.5-27.5 54.9-55 83-83 16.6-16.6 33-33 49.9-49.8-6.7-4-13.5-8-20-12-.3-.2-.6-.4-1-.6-49 49-99 99-148 148-14.8 14.8-29.6 29.6-44 44 .9-.2 1.7-.4 2.6-.7 1.8-.7 3.5-1.7 5.2-2.7m62-247c3.3-3.3 6.7-6.7 10-10-7.4-4.4-14.9-8.9-22.3-13.3-4.4 4.4-8.9 8.8-13.3 13.3-21.9 21.9-43.7 43.8-66 66 0 11.8 0 23.6 0 35 30.4-30.4 60.8-60.7 91-91m204 11.8c7-7 14-14 21-21 42.8-42.7 86-85 128-128 36-36 75.9-74 112-110 27.4-27.4 54.6-55 82-82 7.8-7.6 14.8-14.8 15-26.6.1-3.9 2.2-7.6 3.1-11.5 1.3-5.9 4.9-11 5.2-18.5-1.9 1.6-2.9 2.4-3.8 3.3-68.9 68.9-136 134-205 203-2.7 2.6-5.4 5.2-8 7.8-53.6 53.8-107 108-161 161 4.1 7.5 7.9 15 11 22.9m-158 14.9c3.3-3.3 6.6-6.6 9.9-9.9-7.5-4.5-15-9-22.6-13.5-20.3 20-40.6 40-60.9 60.7-21 20.9-41.9 41.9-62.9 62.9 0 12 0 24 0 36 45.6-45 91-91 137-136m77-113c7 4.6 13.7 9.7 20 15 5.2-5.2 10.4-10.5 15.6-15.7 35.9-36 71.8-71.9 108-108-12 0-24 0-36 0-1.4 1.8-2.6 3.8-4.2 5.4-15 15-30 30-45 45-19.4 19.4-38.8 38.7-58 58m-147-34.6c24.6-24.6 49-49 73.9-74h-36c.5 2.4-1.5 3.5-2.8 4.8-26.3 26.3-52.7 53-79 79 14.3-4.8 29-7.9 43.9-9.7m283-29.9c-32.4 32.5-64.8 64.9-97 97 5.7 6.1 11 12.5 16 19 1.4-1.4 2.8-2.8 4.3-4.3 48.9-48.9 106-107 155-156l-34.9 1.7-33 32.9h.2c-3.6 3.5-6.9 6.7-9.7 9.5m-214 32.6c16.9-16.8 33.7-33.7 50-50.7 8.3-8.4 17.8-15.8 24.4-25.8h-34c-.2 3.1-2.9 4.3-4.7 6.1-22 22-44.5 44-67 67 10.4.5 20.6 1.8 30.6 3.8m-266 87c-16.2 16.2-32 32-48 49-1 2.5-2.1 4.9-3.3 7.4-11 22.4-28 38-51 47-12.9 12.9-25.7 25.8-38.6 38.7-.9.9-2 2-3.1 3.1 2 .8 4.3 1.3 6.9 1.4 7.3.3 14.5 1 21.5 2.6 101-100 184-181 193-190 34.4-34 117-115 121-123-12 0-24 0-36 0 .5 3.2-109 111-161 164m321-68c18.8-18.7 37.7-37 56-56 12.7-13 26.5-25 38-39h-36c-.6 1.1-1 2.5-1.9 3.4-27 27-54 54-81 81 8.3 3 16.5 6.5 24.6 10.5m-369 47c1.8 4.9 3.3 10 4.5 15.5.9 4 1.5 8.1 1.8 12 46.8-46.8 94-94 140-140 10.7-10.8 22.4-20.7 31.8-32.8h-34c-.6 1.2-1 2.5-1.9 3.4-27.8 28-56 55.9-84 84-19.6 19.6-39 39-59 59m-120-60.9c28-28 57-57 85-85h-36c-1.5 1.8-2.8 3.7-4.4 5.3-26.5 26.5-53 53-80 80 11.8 0 23.5 0 35 0m863 287c34.8-34.6 70-69 104-104 27.7-27.7 55-55.7 83-83 32.4-32 65-64 97-97 27.7-27.6 55-56 83-83 32.4-32 65-64 97-97 34-34.6 69-69 103-103 2.1-2.1 4.5-4.5 5.2-7.2 3.8-13.4 13.7-20.8 25.3-26.6 3-1.5 5.9-3.1 8.4-5.2 7.6-6.4 15-13 23-20.3-7.9-6.6-12.5-12.6-17.4-21.5-8 8.6-14.6 16.2-21.6 23-90 90-180 180-270 270-92 92-185 185-277 277-19.5 19.5-39 39-58 59-2.5 2.5-6.3 4.7-6.4 8.5-.3 9.7.1 19.5.3 31 8-7.6 14.3-13.9 20.6-20m602-822c-4.2 4.3-8.1 1.8-12 .7-9.7-2.8-17.9-1-23.8 7.8-.7 1.1-1.6 2-3.1 3.6 21.8 9.3 28 5.5 39-12m-80.9 5c4.1-1.7 8.9.1 12.3-3.1 5.3-4.9 10.8-9.6 15.2-15.8-5.4-3.8-11-5.9-17.3-7.5-5-1.3-8.1-.1-11.4 3.3-9.5 9.7-19 19-28.7 28.9-1.3 1.4-4.3 2.4-2.6 5.9 10.9-4 21.9-7.4 32.5-11.7m-426 617c-35 35-70 70-105 105-3.5 3.5-7.3 6.8-8.5 12-2.5 10.3-3.4 20.8-2.4 32 3.6-3.3 7.3-6.5 10.7-10 24-24 48-48 72-73 35.7-35.6 72-71 107-107 26.5-26.5 52.7-53 79-80 33.7-33.7 68-67 101-101 26-26 52-52.6 79-78.9 21.3-21.4 42.7-42.6 64-63.9 29.4-29 58.7-58 88-88 4.9-4.9 9.9-9.8 14.7-14.8 1.3-1.4 2.7-3.3.1-4.9-8-5-26.3-2.7-33 4.2-13.4 13.3-26.8 26.8-40 40-38 38-76 76-114 114-104 104-208 208-313 312m371-699c2.3-15.2 8.2-29 13-44-1.5 1.3-3.1 2.5-4.5 3.9-14.4 14.3-28.7 28.6-43 42.9-14.3 14.3-28.6 28.7-42.9 43-1.7 1.7-4.7 2.8-3.4 6.4 2.7 7.2 4 14.9 8.6 23.5 23-23.4 45-45.8 67-68 1.9-2 4.7-3.9 5.2-7.1m32.9 883c-10-.1-17 4.5-22.4 13 4.8 3.4 9.2 6.4 13.5 9.3 2.5 1.7 4.5 1.7 6.9-.8 6.8-7 14-13.6 22.4-21.7-8.5.1-14.4.2-20.4.1m-64-778c9.3-9.4 18.6-18.9 28-28 8.6-8.6 17.4-17 27.4-26.8-8.1-2.1-13.7-5.5-17.9-10.7-1.9-2.3-3.8-1.7-5.8.3-18 18-36 35.9-53 52.7 4.3 5.4 7.1 9.6 10.5 13 4.9 5.1 6 4.9 11-.3m259 140c-3.6 3.9-7.5 7.5-11.2 11.2-11.8 11.6-23.6 23-36.7 36 9.1 3.7 16.7 5.6 21.3 13.3 44.8-45 90-89 134-134-6.3-2.9-11.6-4.1-16-6.7-6.7-3.9-10.4-.8-14.5 3.3-12.9 12.9-25.6 25.9-38.6 38.6-4.8 4.7-7.2 9.5-6.7 16.5.6 10.4-1.4 12-11.7 12.9-8 .7-14.8 3.6-20 9.4m-106 468c22.7-.6 42.9-6.6 58-27.8-10.6 0-20 0-29.6 0-1.8 0-3.2.6-4.5 1.8-8.3 7.9-16.5 15.9-24.8 23.8.4.7.9 1.4 1.4 2.2m13-284c2 1.6 3 4.5 4.5 4.6 81.9-82 163-163 245-244-4.3-1.1-8.5-1.4-11.8-3.3-7.5-4.5-11.8-.8-16.8 4.3-26.6 27-53 53.7-80 80-47 46.8-94 94-141 140-9.8 9.8-9.8 9.8.8 18m17.7 194c12.9 5.1 13.8 4.7 22.4-5.7 2.3-2.8 1.9-4.5-.1-6.8-3.8-4.5-7.6-9-12-14.3-7.4 7.5-14.6 13.6-20.4 20.7.4 2.1 1.8 2.4 2.9 2.9 2.5 1.1 4.9 2.2 7.3 3.2m198-574c-9.6 9.6-19 19.4-28.9 28.7-3.7 3.5-3.7 6.9-1.6 10.6 1.4 2.6 3.4 5 5.6 6.9 4.6 4.1 8.4 3.9 13-.6 9.7-9.5 19.4-19 27-30.5 10.6-16 21.8-31.8 32.6-47.8 4.9-7.2 8.9-14.8 11.4-23 1.3-.9 1.7-2.3.3-3.1-.5-.3-1.4 1.1-1.3 2.2-1.4 0-2.5.7-3.5 1.7-18.2 18.5-36.4 36.8-54.6 55m-80 42c2.2-.9 2.6-2.8 2.5-4.9-.1-2.4-1-4.4-2.2-6.5-7.4-13.4-9.4-13.7-20-1.7 5.4 4.3 11.3 6.8 15.5 11.4 1.3 1.3 2.6 2.4 4.4 1.7m-75-27c-3.9.8-6.8 2.5-9.4 5-10.5 10.5-20.8 21-32.4 33 26.3-3.9 64-26 72-41-10.5-1.2-20.3 1.4-30.4 3.4m-3254 732c0 11.8 0 23.6 0 35.5 25-25 50-50 75-75 2.6-10 10.4-18 20.7-20.7 11.9-11.9 23.8-23.7 35.7-35.6-7.3-4.2-13.6-10-18.4-17-22 22-44 44-66 66-15.7 15.6-31 31-46.9 46.8m3770-314c-94 94-188 188-282 282 6.4 2.7 12 3 17 5.7 7.2 3.8 7.2 3.7 13-2.3 72-72 145-145 217-217 14-14 28-28 42-42 1.6-1.7 4.7-2.9 2.6-6.5-3.4-5.9-6.6-12-10.5-19m50.6 91c-34.4 34.5-69 69-103 104-28.6 28.6-57 57-86 86-20.6 20.6-41 41-61.9 61.8-9.3 9.1-9.5 8.9-2.1 19 6.9 9.4 7.2 9.4 15.3 1.3 64-63.9 128-128 192-192 19.5-19.5 39-39 58-59 2-2 5-3.6 4.9-6.9-1.7-5.5-5.8-9.1-8.8-13.4-3.8-5.5-4.3-5.4-8.8-.9m27 47c-65.8 65.8-132 132-197 197-17.2 17.2-34 34.4-51.6 51-3.2 3.1-5.6 6.1-2.6 10.2 3.8 5.1 5.7 11 8.5 17.5 19.9-19.7 39.5-39 59-58 29.8-29.7 60-59 89-89 34.7-34.7 69-69 104-104 10.4-10.4 10.4-10.3 3.4-23-5-9.3-5-9.3-12.7-1.6m-49.6-86c-2-2.9-4.3-2.7-6.6-.5-2.6 2.6-4.8 5.5-7.4 8-29.6 29.6-59 59-89 89-32.7 32.7-65 65-98 98-19 19-38 38-57 57-5.4 5.4-5.5 5.6-.7 12 2.4 3.1 3.8 7.1 9.7 10.4 8.5-9.1 16.5-18.3 25-27 74-74 148-148 222-223 11.3-11.3 11.4-11.3 1.9-23.4-.2-.2-.4-.5-.6-.7m-540-86c-2.4-13.5 2.6-25.4 7.9-37.5-16.5 14-31 29.7-46 45-1.6 1.6-2.3 3.3-1.6 5.4 2.5 7 5 13.9 8.4 23 10.6-11.2 19.9-21 29-30.9 1.6-1.5 2.9-2.8 2.5-5.1m-152-782c-6 1.7-10.6 2.7-14.8 4.4-19.8 7.9-39 16.5-54.6 32-28 28-56 56-84 84-9.6 9.3-14.5 20.3-17.2 32.7-1.3 5.9-3.8 11.9-1.4 18 57-56.7 114-113 172-171m504 1297c2.7-2.5 4.2-3.7 5.5-5 16-15.9 32-31.8 48-47.7 61.7-61.8 123-123 185-185 12.4-12.4 24.8-25 37-37 2.3-2.3 4.6-4.3 2.7-7.6-3.4-5.9-5.9-12.4-10.6-17.8-1.2.9-2.1 1.4-2.8 2.1-21.5 21.7-42.8 43.5-64 65-36.6 36.5-73 72.9-110 109-27 26.9-53.8 54-81 80.9-6.1 6-10.7 11.7-8.3 21 .7 2.7.8 6-.7 8.8-1.7 3.7-.9 7.6-.6 13.5m-678-1049c85-85 168-168 252-253-8.3-4.2-16-1-23-3.4-5.1-1.8-7.9.2-11.3 3.6-33 33.5-66 67-100 100-33.5 33.6-67 67-100 101-6.3 6.3-15.5 11.2-17.8 19.6-2.4 8.7-.6 18.5-.7 27.8.1.6.4 1.3 1 3.9m781 410c-1.1.8-2.3 1.5-3.2 2.4-18.2 17.9-36.4 35.8-54 53.9-39 39-78 79-118 118-23.4 23.5-47 46.8-70 70-29.4 29-58.7 59-88 88-7.3 7.3-14.2 14.8-21.5 22-2 2-3 4.4-1 6 5.4 4 8.1 10.5 14 14.2 9.6-9.5 19-18.8 28.4-28 42.9-42.7 86-85 129-128 32.9-32.9 66-65.9 99-99 28.4-28.5 56.8-56.9 85-85 4.3-4.4 11.5-7.7 11.6-14 .1-6.4-4.2-12.4-7.4-18.3-.5-.7-1.5-1.2-2.4-2m18.7 52c-4 4.6-6.6 8.1-9.6 11-97 97-194 194-291 291-15.5 15.5-31 30.9-46.6 47-2.1 2.1-6.1 3.8-4.4 8.1 2.7 6.9 3.9 14.4 8.8 20.5 1.3-.9 2.3-1.3 3-1.9 26.6-26.8 53-53.6 79.9-80 33.7-33.7 68-67 101-101 41-41.5 83-83 124-125 12.4-12.4 25-24.6 37.5-37 3.7-3.7 7.2-7.3 3.2-13.6-2.9-4.7-4-10.5-6.8-18.5m-419 378c-.1-.1-1.1.5-1.4 1-.3.5-.5.8-.5 1.1-4.6-1.8-8.2 2.1-11.3 4.1-8.9 5.6-18 9.3-28.5 10.2-4.9.4-9.2 3-12.8 6.8-9.2 9.5-18.8 18.6-28 27.9-1.2 1.2-3.2 2.5-1.9 5 11.9-2.7 23.8-5.4 35.8-8 4.1-.9 6.9-3.7 9.8-6.5 12.9-12.9 25.9-25.8 38.9-38.6h.3c-.1-.1-.2-.1-.3-.2 0-.9 1.6-1.7.1-2.8m377-476c-2.3 2-3.7 3-4.8 4.2-26.8 26.8-53 53.6-80 80-30 30-61 61-91 91-29.6 29.6-59 59-89 89-35 35-70 70-106 106-11.3 11.2-11.3 11 2.3 18 4.3 2.2 7.9 3.1 10.9-1.9 1-1.6 2.8-2.8 4.2-4.2 62.9-62.9 126-126 189-189 54.7-54.7 109-109 164-164 11.8-11.8 11.8-11.8 2.5-26-.4-.8-1-1.6-2.1-3m-336 490c1.6-2.8.7-5.1-1.6-7-2.7-2.4-4.1.1-5.6 1.7-8.6 8.6-17.2 17.3-25.7 25.9 12.3-1.4 21.9-8 30.6-16.2 1.1-1.1 1.5-2.9 2.3-4.4m398-337c-2.7.2-3.8 1.3-5 2.5-36 36.5-72 73-109 109-40 40-81 80-121 121-21 21-42 42-63 63-19 19-37.7 38-56.7 57-2.2 2.2-4.1 4.4-4.2 7.6-.2 11.4-5 21.7-8 32.5-1.8 3.1-3.3 6.4-5.9 9.1-8.4 8.6-17.6 15.3-30 17.3-11.2 1.8-21 7.1-29.9 14.7 12-.6 23-5.9 35-6 2.1 0 3.4-1.9 4.8-3.3 9.2-9.4 18.4-18.9 27.6-28 2-1.7 4.1-3.4 6-5.2 30-30 61-60 91-91 66-66 131-131 197-197 23.9-23.9 47.9-47.8 71.8-71.8 2-2.1 5.5-3.8 4.8-7.1-1.6-8.2-1.7-16.8-4.8-24.4m-431 359l.1-.7c0 0 0 0 0 0l-.2.2c0 0 0 0 .1-.1 0 0-.1.1-.1.1 0 0 .1.5.1.5m-197 13.9c5.7-6.7 13.2-11.8 18.8-20.3-7.3-3.2-14.5-5.9-18.2-12.2-14.8 14.8-29.4 29.4-44 44 5.9 5.3 13.5 3.7 20.5 4.7 4.6.6 8.1-.8 11.3-4.6 3.6-4.4 8.3-7.7 11.9-11.9m-904-33.9c-7.4-4.4-14.7-8.8-22-13.2-48 48-96 96-144 144-8.3 8.3-16.6 16.6-24.9 24.9 0 9 0 17.9 0 26.9 0 1.8 0 3.5 0 5.3 0 1 .1 2 .2 2.9 39.7-39.7 79-79 119-119 24-23.8 47.9-47.7 71.8-72m831-574c-30.7 30.9-60.8 61-91 92-41 41-82 83-124 124-34 34-68 69-103 103-3 2.9-4.9 6.2-6.4 9.9-4.9 11.3-9.5 22.6-14.6 33.8-1.6 3.5-4.4 6.5-4.5 9.8 119-119 239-239 359-359-6.3-1.7-10-7.6-16.4-12.2m-387 458c-14.7 19.3-30 38-42.8 58.8-4.4 7.2-9.3 14.6-10.3 23.4.6.5 1.1 1.1 1.7 1.6 20-19.5 40-38.8 59.8-58 32-32 64-65 96-97 42.8-42.8 86-85 129-128 32.4-32.4 65-65 97-97 35.7-35.8 71-71 107-107 6.9-6.9 6.8-6.9-1-11.8-2.2-1.4-4.6-3-6.2-5-3.3-4.2-5.6-3.9-9.3-.1-17.5 17.7-35 35-52.9 53-32 32-64 64-96 96-39 39-78 79-118 119-21.7 21.9-43.6 43.7-65 65-18.6 18.5-37 36.7-55.9 55-10.9 11-23 21-32.4 33.5m361-471c-12.9 3.8-24 7.4-35.6 10.3-6.2 1.6-11.5 3.9-16.2 8.6-65 65-130 131-196 196-4 4-6.4 8.2-7.1 13.7-1.2 10-4.6 19-9.6 27.9-2.5 4.4-6.1 8.6-5.8 14 90-90 179-180 270-270m265-514c-49.7 49.9-100 100-149 149-57 57-114 115-172 172-5 5.1-14 9-13.5 16 .4 6.5 6.8 12.5 11.2 20 118-118 235-235 353-353-7-2.5-12.7-3.7-17.3-6.5-5.6-3.6-8.6-1.7-12.5 2.3m-38.9-19c-7.9-.5-15.2 1.9-20.9 7.5-32.6 32-65 64.8-97 97-50 50.6-101 101-151 152-14 14-28 28-42 42-2 2-5 3.8-3.6 7.5 2.5 6.5 1.9 13.8 5 20.6 2.5-.1 3.7-1.3 4.9-2.4 53-53 107-107 160-160 51-50.6 101-101 152-152 3.2-3.3 10.2-6.3 8-11-1.8-4.6-8.9-1.7-13.7-1.9m-325 559c-10.9.4-20.7 4.5-31 6.6-6.7 1.4-12.2 4.5-17 9.4-29 29-58 58-87 87-1.6 1.6-3.8 3.2-4.4 5.3-4.3 14-8.3 28-12.4 42 .6.4 1.1.8 1.7 1.2 50-50 101-101 151-152m437-514c-2.3-1.9-4.8-3.6-7.2-5.3-8.3-5.9-8.3-5.9-15.5 1-.2.2-.5.4-.7.7-16.5 18.3-34.5 35-51.8 53-25.4 25.4-50.8 50.7-76 76-29.7 29.5-58.9 60-89 89-6.8 6.7-13 13.8-19.9 21 1.3.3 2 .8 2.5.6 13-5.2 26-10 39.9-12 2.8-.4 4.6-2.3 6.5-4.2 16.5-16.8 33-33.5 49.8-50 18.5-18.5 37-36.8 55.8-55 29.6-29.5 59-58.9 89-89 6.8-6.9 14.6-13 20-21.5-1.2-1.4-1.9-2.6-2.9-3.4m-3547 1036c-7.6.7-13.8 5.8-16 13.3-.3 1.1-.5 2.2-.7 3.4 5.6-5.6 11-11 16.7-16.7m2090 138c-.7-3.7-1.4-7.5-1.9-11.2-.9-6.2-1.6-12.4-1.9-18.6-13.4 13.4-26.9 26.9-40 40-5.4 5.4-10.9 10.9-16.3 16.3 1.9 3.6 3.6 7.3 5.1 11.2 1.7 4.4 3 8.9 4 13.4 8.9-8.9 17.9-17.9 26.8-26.8 8.1-8.3 16.3-16.4 24.5-24.6m-1979 39.8c-4.2-7.6-8.4-15-12.6-22.7-35.7 35.7-71 71-107 107 4.8 3.3 11 4 17.2 1.3 2.9-1.3 5.7-2.9 8.4-4.6 10.7-6.4 21.4-12.8 32-19 10.3-10.4 20.6-20.7 31-31 10.3-10.3 20.6-20.6 30.9-30.8m-104-113c8.8-8.7 17.6-17.4 26.3-26-4.3-7.7-8.5-15.3-12.8-23-2.1 2.1-4.3 4.2-6.4 6.4-10.4 10.4-20.9 20.9-31 31 0 11.8 0 23.7 0 35.5 8.1-8 16.2-16 24-24m1393 116c41-40.8 82-81 123-122-1.7-1-3.3-2-5-3-5.5-3.3-10.9-6.5-16.4-9.8-8.8 8.8-17.6 17.6-26.3 26.3-56 56-112 112-169 168 .4.6.9 1.3 1.4 1.9 6.2 7 14.8 8.6 23 4.1 2.8-1.5 5.5-3.2 8.2-4.8 20-20 40-40 61-60m-535 106c16.8-16.6 33.6-33 50-49.9 22.7-22.6 45-45.5 68-68-1.4-2.3-2.7-4.7-4.1-7-2-3.4-3.9-6.9-6.9-9.8-1-1-2.1-1.9-3.2-2.7-33.8 33.8-68 68-101 102 0 7.4 0 14.8 0 22.3 0 3-.1 6.1-.8 9.1-.4 1.5-.9 3.1-1.5 4.7m-391-148c-10 10-20 20-30 30-14.7 14.7-29.4 29.4-44 44 0 11.8 0 23.5 0 35 24.8-24.7 50-49 74-74-.1-11.8-.1-23.5-.1-35m2906 52.8c22-3.7 42-10.5 56-29.8.9-1.3 2.6-2.1 3.7-3.3.9-.9 1.9-2 .8-4.2-8.4-.3-17.3-.6-26-1-2.5-.1-4.4 1-6.1 2.7-12 11.8-24.3 23.5-37.7 36.4 4.9 1.2 6.9-.5 9.2-.8m25.5-145c1.5-1.5 4-2.5 3.3-6.2-8.2 0-16.4 0-24.6 0-3 0-4.6 2-6.5 3.9-12 12.2-24.6 24-36.5 36.5-3.5 3.7-8.5 6.4-10.5 12.7 9.7 1 18.2-1.4 26.8-1.6 3.6-.1 5.3-2.5 7.3-4.5 13.6-13.6 27-27 40.7-40.8m31.7-254c2.8 3.1 5.5 3.2 8.4.3 5.4-5.4 10.8-10.7 16.2-16 2.4-2.4 2.8-5 1.4-8.1-2.6-6-5.5-11.8-10-17-10 10-19.6 19.8-30 30.5 6.2 2.9 10.6 6.3 14.3 10.5m401-273c-3.3-2.7-5.9-2.7-9.3.9-8 8.8-16.7 17-25 25.5-21.6 21.5-43 43-65 65-28 28.4-57 56.8-85 85-28.8 28.8-57.9 57-87 86-33.7 33.7-67 68-101 101-8.1 8.1-16.8 15.7-24.3 25.3 5.5 2.2 10.4 4.1 15.2 6.1 8 3.3 8 3.3 13.9-2.6 112-112 224-224 336-336 15-15 30-29.9 45-44.7-3.2-6.9-9.6-8.4-14-12m-507 675c6-7 12.9-13.3 19.5-19.9 5.3-5.3 10.7-10.6 16-15.9-.4-.6-.7-1.2-1.1-1.9-9.9 0-20.3-1.8-29.6.6-7.5 2-12.4 10.4-18 16.5-.4.5-1.2.7-1.6 1.2-5.9 7-13.6 12.3-19 19.9 6.2 3.6 12.6 3.7 18.7 4.8 6 1.1 10.8-.4 15-5.3m-12.3-309h-.2c.2.1.3.3.5.4.1.5.1 1.4 1 .5 2 .7 3.9-.7 5.9-1.2 8-2 16-5.6 24-4.5 5.4.7 8.6-.9 12-4.4 7.8-8 15.8-16 23.6-23.9 1.3-1.4 3.6-2.8 2.4-4.9-2.8-4.6-6.7-8.4-12-9.6-4.3-.9-8.2-1.7-12.4 2.7-14.5 15.3-29.9 30-44.9 44.9m454-382c-8 8.4-16.4 16.4-24.6 24.6-25.7 25.9-51 51.8-77 78-34 34-69 68-103 103-26.5 26.5-53 52.9-79 80-10.2 10.3-21.3 19.9-30.4 31 3 4.7 7.9 6.4 12 9 7.1 4.5 7.1 4.6 12.8-.9 1-.9 1.9-1.8 2.9-2.8 30-30 60-60 90-90 62-62 125-124 187-187 14-14 28-28 42.9-43-6.8-1.9-11.9-3.1-16.9-4.8-6.4-2.2-11.4-.6-16 4.2m-484 484c-2.6 3.4-2.3 6.1 1.5 6.3 9.3.5 19.6 1.2 27.3-2.9 8.9-4.7 15.9-13.3 21.9-22.5-5.9 1.6-11.8 2.1-17.6 2.3-13.6.5-24.6 6-33 16.8m277-997c-2.5 2.7-5.3 5.1-7.9 7.7-17.7 18-35 36-53 54-37.6 37.5-75 75-113 112-4.8 4.8-9.4 9.7-14.9 15.4 10.8 0 20 0 29 0 2.5 0 4.5-.8 6.3-2.5 3.4-3.1 7-6.1 10.3-9.4 22-22 44-44 66-66 33.5-33.6 66.8-67 102-102-7.7-2.6-14-5.4-19.5-9.6-1.9-1.4-3.5-1-5.1.7m146 502c-32.9 33.4-66 67-99 100-30 30-60 60-90 90-3.9 3.9-6.5 7.9-7.1 13.6-1 8.8-2.2 17.7-6.2 25.9-.8 1.7-.8 3.9.7 7 79-79 157-157 236-235-4-4.2-9.3-3.1-13.2-5.3-8.1-4.5-13.8-1.9-20 4.4m-76-357c-24.6 24.6-49 49-74 74-13 13-25.7 26.8-39 39-2 1.9-5.3 4.2-4 7.5 2.8 6.9 4.5 14.5 9.8 20 17.9-17.7 35.6-35 53-52.8 23.8-23.7 48-47 71-71 1.8-1.8 4.9-3.3 4.9-6.1.1-9.4-.7-18.7-3.2-29-7 6.8-13 12.5-18.8 18.3m-25.7-116c-56 56-112 112-169 170 6.4 3 11.3 5 15.9 7.6 5.3 3 8.8 1.6 13-2.6 45-45.5 91-91 136-136 5.1-5.1 13.5-9.3 14-16 .5-6.5-4.7-13.4-7.5-20-.3-.5-.8-.9-1.9-2.1m24.9 50c-3.1.7-4.8 3.3-6.9 5.4-7.1 7-14 14-21 21-35.5 35.4-71 70.8-106 106-9.6 9.6-9.6 9.6-.7 19.4 1.5 1.7 2.3 4.2 4.8 4.8 1.5-.2 2.3-1.2 3.2-2.1 42-42 85-84 127-126 12.9-12.9 12.9-13 1.2-27.8-.2-.3-.5-.4-.9-.6m21.5 119c-27 27-54 55-82 82-9.6 9.6-19.4 19-28.9 28.8-1.9 2-5.6 3.9-3.8 7.3 3.5 6.7 3.2 14.8 7.8 21.4 21-20.8 41.5-41 62-61 15.3-15 30.4-30.4 45.6-45.6 2.1-2.1 5.3-4.4 5.5-6.7.6-10 2.7-20-.9-30.9-2.4 2.2-4.1 3.6-5.7 5.2m.9 286c-15 15.3-30.4 30.5-45.6 45.7-26 26.3-52 53-78 78.9-12 12.2-25 23.5-36 36.9-.7.7-2.9.8-1.2 2.4.6.6 1.8-.2 1.8-1.4 2.9.6 5.1-1.4 7.4-2.5 8.3-3.8 15.9-5.4 21 4.5 21-18.2 158-156 161-163-6.9-3.9-14.7-3.5-22-4.8-3-.5-5.5.9-7.8 3.2m-4396 764c26.7-26.7 53-53.7 80-80 33-33 66.9-66 100-99 27-26.9 53.7-54 81-81 20.6-20.6 41-41 62-61.7 29-29 58.8-58 88-88 7.7-7.8 16.4-14.7 22.9-23.6.5-.7 1-1.5 1.5-2.2h-34c-.2.8-.4 1.5-.8 2.2-1.3 2.2-3.5 3.6-5.2 5.3-89 90-179 179-269 269-90 90-180 180-270 270-35.9 35.9-71.9 71.9-108 108h34c38.9-39 78-78 117-117 33.6-33.6 67-66.8 101-100m4087 13c2.8-2.8 5.4-5.8 9-9.7-10.6 3.4-20 1.7-29 2.9-5.4.7-9.1 2.4-12.8 6.1-18.3 18.4-36.8 36.4-55 54.8-35 35-70 71-105 106-14.7 14.8-29.5 29.5-44 44h33c32.5-32.5 65-65 98-97 35.7-35.7 71-71 107-107m-67-5.8c1.9-1.9 5.1-3.3 4.6-7.2-4.9-1.2-9.7-2-14.4-3.6-8-2.7-13.6-.1-19.3 5.7-23.8 24.4-47.9 49-72 73-20.6 20.6-41.6 40.9-62 62-19.3 19.5-38.6 39-58 58-7.6 7.4-14.9 15-22.3 22.7h33.5c20-20.3 40.5-40.5 60.7-60.7 49.9-49.8 100-100 149-149m98 46c14.5-14 28-29 43-42.6 6.4-5.8 13.4-11.4 18.7-20.3-11.4 2.1-21.3 4.4-31.4 5.5-5.4.6-9.1 2.4-12.8 6.2-53 53-107 107-160 160-18.3 18.3-36.5 36.6-54.7 55h33c33-33 66-66 99-99 21.6-21.7 42.9-43.5 64.8-65m-420-10c1.4-1.4 3.3-2.8 3.4-4.8.1-10 0-20 0-30.6-4.4 1.6-6.1 4.2-8.2 6.3-52.7 52.6-105 105-158 158-15 15-30 30-44.9 45h33.4c33-33 67-66 100-100 24.8-24.8 49.7-49.6 75-74m266-53c-6.3-1.8-11.6-3.5-16.4-6.3-4-2.3-6.7-1-9.6 1.9-33.6 33.9-67 67.8-101 102-28.8 28.8-57.8 58-87 86-14.5 14.5-28.9 29-43 43.5h30c12.8-12.8 25.6-25.6 38-38 55.9-55.9 112-112 168-168 6.7-6.7 13.3-13.6 20.7-21m-226 84c1.2-1.2 2.2-2.4 1.2-4.8-2.3-.1-4.9-.4-7.5-.3-3.2.2-5.7-1.3-8.5-2.5-8.1-3.7-8.1-3.6-14.5 2.7-31 31-62 61.9-93 93-18.2 18.3-36.4 36.6-54.6 54.9h33.4c24.3-24.3 48.6-48.7 72.9-73 23.5-23.3 47-46.6 71-69.9m574-141c19.8-19.8 39.5-39.5 59-59 2.1-2.1 4.8-3.7 4.4-7.4-.9-8.4-1.4-16.9-3.3-24.9-1.9-.4-2.7-.1-3.4.7-20 20-40 40-60 60-2.7 2.7-3.7 5.3-2.6 8.9 2.3 7.4.3 14-5 19-12.5 11.8-24.9 23.6-41 30-10.7 4.4-20.9 9.7-28 19-2.6 3.4-6 6.2-9.1 9.2-23.8 23.5-47.7 47-71 71-28 28-56 56-85 85-24 24-48 48-72 73h33.8c10-9.9 19.6-20 29.6-30 35.7-35.6 72-70.9 107-106 49-48.9 98-98 147-147m-499 138c3.6-3.6 8.5-6.4 10.5-12.3-16.3-3.9-29.9-3.6-42.6 10-24 26-49.9 50-75 76-24 24-48 48-72 72h33.8c10-9.8 19.6-20 29.5-30 38.6-38.5 78-76.9 116-116m974 146h29.6c17.5-17.5 35-35 52.6-52.6v-29.9c-12.4 12.5-24.8 25-37 37-15 15-30 30-44.9 45m-50.9-22.7c-7.5 7.5-14.9 15-22 22.7h29.4c33-33 66-66 100-100 8.8-8.8 17.6-17.6 26.4-26.4v-29.4c-22.8 22.7-45.6 45-68 68-21.6 21.6-43 43-65 65m-3121-518c0 .8 0 1.6 0 2.5.5-.5 1-1 1.5-1.5 29-29 58.8-58 88-88 8.3-8.4 17.8-15.8 24.4-25.8h-34c-.2 3.1-2.9 4.3-4.7 6.1-28.5 28.6-57 57-86 86 6.3 4.9 10.2 12.4 10.6 21m2758 264c1.9-2 5-3.4 5-7-.1-8.1 0-16.3 0-26.6-10 9.6-18.6 17.3-26.7 25.4-31.9 32-63 64-95 96-34.4 34-68 69-103 103-29.4 28.6-58 57.8-87 87h30.8c.1-.1.2-.2.3-.3 75-75 149-149 224-224 17.5-17.7 35-35 52.6-52.9m82 136c-2.6-1.1-4-.1-5.6.2-6.8 1.5-7 1.2-7.4-6-.2-4 1-8.3-1-12.2-3.2.6-4.5 2.7-6.1 4.3-21.3 21.4-42 42.9-63.8 64-30 30-60.7 60-91 91h33.8c38.7-38.6 77-77 116-116 8.2-8.3 16.5-16.8 25-25.4m-112-32.6c2.4-2.4 6.6-4.5 5.2-8.9-2.4-7.6-.6-15 .1-22.6 1.5-3.5 3-6.9 4.5-10.4-.3-.2-.7-.5-1-.7-1.8 2.1-3.7 4.1-5.5 6.2-.8.5-1.5 1-2.3 1.5 0 0 .3-.4.3-.4-.6.8-1.1 1.7-1.8 2.4-21.5 21.5-43 43-64 65-20.4 20.3-41 40-61 60.8-19.5 19.8-39 39.5-58.9 58.9-7.6 7.4-14.9 15-22 22.6h33.7c3.1-3 6.3-6 9.4-9.1 32.4-32 65-64.8 97-97 22.4-22.6 45-45 67-68m56.9 15.7c-9-1.4-16.2.3-23.3-.3-7.6-.7-12.3 2.6-17.3 7.6-34.9 35-69.9 70-105 105-15.2 15.2-30.5 30.4-45.6 45.7h33.4c11.5-11.3 23-22.6 34.4-34 34-34 69-68 103-102 6.7-6.6 13-13.6 20.7-21.6m-504-71c7-7.1 14.4-13 20.3-21.3-5.5-3.1-10-6.7-14-11-2.1-2.2-4.4-3.2-6.7-.6-6.6 7.2-14.6 13-20.7 21.7 8.4 2 15.6 4.9 21 11.3m-628-20.3c28-28 56-57 84-85 31.6-31.6 64-62.9 95-95 12.2-12.2 24.3-24.4 36.4-36.6 7.4-23.4 18-45.9 31-66.8-34.8 34.7-69 70-104 104-58 59-117 117-176 176-7.9 14.2-17.2 27.3-28 39.5-16.6 18.8-35.9 34-57 46-55.8 55.7-112 111-167 167h36c8.8-8.8 17.6-17.6 26.4-26.4 39.7-39.7 79-80 119-119 34.8-34.6 69.8-69 105-104m105-33.9c1.2-.5 1.9-1.5 2.7-2.3 18-18 36-36 54-54 1.6-1.6 3.7-3.4 4.1-5.5 3.5-14.8 7.5-31.5 12.2-46-9.1 8.6-18 17.7-26.9 27-58 58-116 116-174 174-63 64-127 127-190 191h34.6c7.8-7.8 15.5-15.5 23.3-23.3 51-51 103-103 154-154 35.4-35.5 71-70.9 106-106m-282 139c-5.5 1.2-11 2.2-16.8 3-7.8 1.1-15.6 1.8-23.4 2.1-14.3 14.3-28.6 28.6-42.9 42.9-32 32-64 65-97 97h34.5c16.9-17 33.9-34 50.8-50.9 31.4-31.4 62.9-63 94-94m-105-2.6c-49 49-98 98-147 147h34c47-47 94-94 142-142-9.6-1.3-19-3.2-28-5.7m341-16.8c20.9-20.8 41.9-41.5 62.8-62 7.8-7.7 11.9-11.8 14.6-16.6.1-.1.1-.1.2-.2 2.9-5.4 4.1-11.5 6.7-24.3 1.1-5.6 6.3-16.9 5.6-23-2.8 3.4-5.6 6.7-8.4 9.8-32 32.5-65 65-97 98-32 32-65 64-97 96-27.7 27.7-54.8 56-83 83-1.3 1.3-2.6 2.5-3.9 3.8h34.9c33-33 66-65.9 99-99 21.8-21.7 43.5-43.6 65-65m-415-19c-3.6-2.7-7.2-5.6-10.7-8.5-2.9-2.5-5.7-5-8.5-7.6-13.4 13.4-26.8 26.8-40 40-43.7 43.8-87 88-131 131-9.2 9.2-18.4 18.5-27.6 27.7h34.6c14.3-14.3 28.6-28.5 42.9-42.8 46.8-46.8 94-94 140-140m-36.8-34.6c-5.5-6.5-10.6-13.3-15.3-20.5-7.2 7.2-14.3 14.3-21.5 21.5-53.6 53.6-107 107-161 161-18.7 18.7-37 37-56 56h35.5c27.3-27.3 55-54.6 82-81.9 45-45 91-91 136-136m568 82c37-36.8 73.9-74 111-111 37-37 74-74 111-111 35.6-35.6 71-72 107-107 39-39 79-79 119-118 26.6-26.5 53-53 80-79 21.8-21.8 43.7-43.6 66-65 8.1-8.2 17.3-15.8 16.4-29-.1-1.6.6-3.3 1.1-4.9 4.6-13.9 12.4-18.4 26.6-15 2.1.5 3.5 1.2 5.2-.7 8.3-9 17.9-16.8 26-27.3-10.3 2.3-19.6 4.7-24-7.8-2.5 2.2-4.3 3.7-5.9 5.3-52 51.9-104 104-156 156-65 65-130 130-195 195-54.8 54.8-110 109-164 164-67 67-135 135-202 202-30 30-60.7 60-91 91h34c45.6-45 91-91 137-136m411-131c.1 1.2.4 2.5.8 5.3 9.4-9.5 17.9-18 26.4-26.7 1.2-1.3 1.8-2.9 1.3-4.6-1.9-7.6-3.9-15-6.1-23.7-8.6 8.6-17.8 15.3-23.4 24.3-4.3 7.2.4 16.9 1 25.4m-450 95c-1.7-.2-2.4-.6-2.9-.4-1.5.6-2.9 1.5-4.4 2.2-6.1 3.1-6.5 2.8-7-4-.4-4.7 6.1-16.6 3.6-21.6-1.7 1.1-14.6 14.5-14.6 14.5-25.5 25.5-50.9 50.9-76 76-34.8 34.8-70 70-104 104h34.6c48.7-48.6 97-97 146-146 8.5-8.4 16.8-16.9 25.5-25.7m196 20c34-34 69-69 103-103 2.4-2.4 4.8-4.6 6.1-7.8 4.3-10.6 10.9-19.7 17.7-28.8 12.7-17 26-33.5 37-51.7 10-11.9 20.9-23 32.6-33.5 12.2-8 24.3-16.5 38-20.6 13.7-4.1 23.8-12.4 33-22.5 12-12.8 25.5-24 35-39 4.2-6.4 10-11.6 16.6-15.7 6.6-4.1 12.2-9.2 17.6-14.6 34-34 69-69 103-103 11.8-11.7 23.9-23 35.9-34.6-6-7.5-8.7-14.8-11-23-2.3 1.6-3.8 2.4-5 3.5-17.5 17.6-34.8 35.4-52 53-35.9 35.8-71.9 71-108 107-26 26-52 53-78 78.9-9.3 9.4-19.4 17.9-27.8 28-4.2 1.7-6.4 5.6-9.2 8.7-7.3 7.9-16 14.4-22.4 23.3-.9.4-1.9.7-2.6 1.3-30.7 30.7-61 61-92 92-36.7 36.8-73 74-110 110-20.4 20.4-41 40-61 60.9-19.6 19.8-39 39.6-59 59-7.6 7.4-14.9 15-22.3 22.7h33.5c20-20 40-40 60-60 31-30.4 61-60.9 92-91m266-195c-8.3-.9-8.4 5.6-10 10.4 4-2.8 8.9-4.6 10-10.4m-148 3.8c51-50 101-101 151-151 36.9-36.8 74-74 111-110 24.4-24.4 48.7-48.9 73-73 2.8-2.8 5-5.3 4.1-9.4-1.4-6.3-1.6-12.9-4.4-18.7-3-.2-3.8 2-5.1 3.3-40 40-81 81-121 121-59.8 59.8-120 120-179 179-60 60-120 120-180 180-56.7 56.7-113 113-170 170-17.3 17.3-34.5 34.7-51.8 52h30.5c.1-.1.2-.2.3-.3 56.7-56.9 113-114 170-171 57-57 115-115 172-172m923 343h31.9c5.6-5.6 11.2-11 16.8-16.7 59-59 119-119 178-178v-32.5c-58.9 58.9-118 118-177 177-16.7 16.9-33.5 33.8-50 50.6m-1684-157c-7.8-3.3-15.4-7.1-22.7-11.2-32.7 32.7-65 65-98 98-23.3 23.3-46 46.7-69.8 70h33.5c1.7-1.7 3.4-3.4 5.1-5.1 41-41 82-82 124-124 9.5-9.6 19-19 28.5-28.4m1656 112c-15 15-30 30-45 45h32c9.5-9.4 19-18.9 28.4-28.4 56-56 112-112 168-168 23.7-23.8 48-47 71-71v-32c-24.4 24.4-48.7 48.8-73 73-61 60.8-121 121-182 182m115-1628c-35.9 35.9-72 71-108 107-26.5 26.4-52.7 53-79 80-30.4 30.5-60.9 61-91 91-3.8 3.7-4.9 7.3-4 12.4 1.2 6.5 3.6 12.8 2.5 20 4.7-.8 6.3-3.6 8.3-5.6 14-14 28-28 42-42 90-90 180-180 270-270 33-33 66-66 99-99v-34c-7.5 7.4-14.9 14.8-22.3 22-39 39.5-78 79-118 119m-107 37c-48.8 48.7-97 98-146 146-13.8 13.8-27.7 27.6-41 41.5-2.1 2.1-6 4.1-3.9 8.1 2.8 5.7 2.3 12.3 5.6 19 4.6-3.1 7.8-6.5 11-9.7 53-52.6 105-105 158-158 42.5-42.5 85-85 127-127 40.8-40.8 82-81 123-122 4.8-4.8 9.7-9.7 14.5-14.5v-30.5c-33.8 33.9-68 67.9-101 102-48.6 49-97 97-146 145m5.5 209c-30 30-60 60.8-90 91-23.9 24-48 47.7-72 72-3.3 3.3-5.6 7.1-5 12.4.8 7.5.8 15 1.3 24.5 3.2-2.8 5.3-4.4 7.1-6.2 40-40 80-80 120-120 40-40 80-80 120-121 22.9-23 46-45.7 69-69 30.5-30.4 60.8-60.9 91-91v-34c-52 52-105 105-157 157-28 28-56 56-84 85m-136 356c3.4 2.1 6.8 4.1 10.2 6.2 8.5 5.3 8.5 5.3 15.5-1.8 24.4-24.4 48.8-48.9 73-73 42.8-42.7 86-85 129-128 32.4-32.4 65-65 97-97 17.7-17.8 35.5-35.5 53-53v-31.9c-126 126-253 252-379 379 .2.2.5.8 1 1.1m277-349c-20.5 21.3-41.7 41.9-63 62.8-42.8 42.7-86 85-129 128-39.7 39.7-79 80-119 119-8.4 8.4-8.4 8.4-.8 17.2 5.2 6.1 7 6.1 12.7.4 68-68 137-137 205-205 64.8-64.8 130-130 194-194v-30c-33.9 33.8-67.9 68-101 102m-91 18.3c-35.5 36-71.8 72-108 107-35.9 35.8-71 71.9-107 108-5.2 5.2-8.8 10.9-10.3 17.7-1.3 5.9-3.5 11.4-5.4 17-2 5.5-2.4 11-3.5 17.9 3.4-3.1 5.7-5 7.8-7.1 105-105 210-210 315-315 26-26.3 52.6-52 79-79 8.5-8.5 17-17 25.5-25.5v-34c-64 64-129 128-193 193m-540-257c4 3.2-6 14.4 54-16.9 2.6-2.1 31.8-31 33.8-33 26.4-26.6 52.7-53 79-80 33.5-33.5 67-67 101-100 41.7-41.7 83-84 125-125 35.6-35.6 72-71 107-107 31.4-31.4 63-63 94-94 28.6-28.6 57-57 86-86 17.7-17.7 35-35.4 52.9-53v-34.7l-732 730m556-481c-39 39-78 78-118 118-57 57-114 115-171 172-59 60-119 119-179 179-6.2 6.2-7.2 11.7-4.1 19.3 1.6 4 3.4 7.8 5.6 11.4 2.9-.5 4.2-2.4 5.8-3.9 71-71 141-141 212-212 65-64.8 130-129 194-194 33.8-33.8 68-67 101-101 22.5-22.5 44.9-45 67-67 20.7-20.8 41.5-41.5 62-62v-34c-6.8 6.9-13.7 13.7-20.5 20.6-52 51.9-104 104-156 156m-152 1089c-10.8 10.8-10.9 10.8 0 22 5.4 5.5 6.6 5.6 11.9.2 7-7.1 13.8-14.3 20.9-21.3 33-33 66.8-66 100-100 27-26.9 53.7-54 81-81 20.8-20.9 41.8-41.7 63-62 17.3-17.3 34.5-34.5 51.8-51.8v-33.8c-8.4 8.4-16.8 16.9-25 25.3-101 101-202 202-303 303m-82-494c-15 15-30 30-45 45-6.9 6.9-7 7-2.4 15.7 2.2 4 3.6 8.6 7.8 12 9.4-9.2 18.9-18.3 28-27.6 30.5-30.5 61-61 91-91 35.6-35.7 71-72 107-107 39-39 79-79 119-118 21.9-21.8 43.7-43.6 66-65 13-13 26-26 39-39v-33.5c-83 83-167 167-250 250-53 53-106 106-159 159m-200-66c6.3 3.8 6.3 3.8 11.7-1.6 18.6-18.5 37-37 55.8-55 70.9-70.9 142-142 213-213 58-58 116-117 175-175 52-51 103-103 155-154v-29.9c-207 207-414 414-622 621 4.1 2.4 8.2 5.2 12.5 7.7m116 85c5.2 2.8 9.4 9.8 14.8 9 5.8-.9 9.6-7.6 14-12 31-31 62-62 94-93 28.6-28.6 57-57 86-86 31.6-31.6 63-63 95-95 28.4-28.4 56.9-57 85-85 26.5-26.5 52.7-53 79-80 8.5-8.6 17-17 25.7-25.6v-32c-166 166-331 331-497 497 .9.7 2.2 1.9 3.6 2.7m-38-40.8c-11.2 11.2-11 12.3 2.3 21.3 4.1 2.8 6.9 3.2 10.9-.9 17.6-18 35.7-35.5 53.6-53 29.8-29.7 60-59 89-89 30-30 60-60 90-90 30-30 60-59.9 90-90 41-41.6 83-83 124-125 23.6-23.6 47-47 71-71v-33.8c-30.4 30.4-60.8 60.9-91 91-147 147-293 294-440 440m-34.7-15c5.9 5.1 5.9 5.1 11.7-.7 54-53 107-107 160-161 36.6-36.6 73-73 110-110 38.7-38.7 78-77 116-116 38-38 77-76 115-115 17.7-17.7 35.4-35.4 53-53v-34c-193 193-386 386-578 578 4.6 4.1 8.5 7.2 12.3 10.4m313 97c-40 39.9-80 79.9-120 120-13.4 13.4-26.8 26.8-40 40-2.6 2.6-6.1 5.1-4.7 9.2 2.7 7.8 1.3 16.2 4 23.9.9.3 1.3-.1 1.8-.6 27-27 55-54 82-81 39.6-39.6 79-79 119-119 27.4-27.4 55-54.6 83-82 24-24 48-48.6 72-72.8 19-19 38-38 57-57v-33c-54 54.6-109 109-164 164-29.8 29.8-60 60-89 89m205 877c3.1 7.5 2.2 16.5 8.3 23.6 8.8-8.9 17.4-17.6 26-26 4.6-4.6 9.1-9.1 13.7-13.7v-33.8c-14.6 14.6-29 29-43.9 43.9-1.7 1.8-5.2 3.7-4.1 6.2m19.8 52.8c3.1 7.3 3.7 15.3 5.2 23 .9.5 1.8.9 2.7 1.4 2.8-3.3 5.4-6.7 8.4-9.8 4-4 8-8 11.9-12v-34c-8.3 8.3-16.6 16.5-24.8 24.9-1.7 1.8-4.7 3.3-3.4 6.5m-49.7-167c-4.3 4.4-11.8 7.9-11.7 13.8.2 6 4.2 12.3 8.5 17.9 1-.8 2.2-1.4 3.1-2.3 23.9-23.9 47.9-47.8 71.8-71.8 2.1-2.1 4.1-4.2 6.2-6.2v-29c-25.9 25.9-51.9 51.9-77.9 77.9m12.9 78c1.1 2 2.3 3.9 4.1 6.8 3.5-3.2 5.9-5.4 8.3-7.7 17.6-17.6 35-35 52.7-52.8v-33.5c-20.4 20.4-40.8 40.8-61 61-11.2 11-11.3 12-3.9 26m-103 299c-31.8 31.9-63.8 64-96 95-28 28-56 56-84 85-27 27-54 54-82 81-21 21-42 41.9-63 63-7.5 7.5-14.9 15-22 22.7h33.5c97-97 193-193 290-290 59-59 118-118 177-177 4.8-4.8 9.6-9.7 14.5-14.5v-33.8c-22.8 22.7-45.7 45.5-68 68-33 33-66 66.8-100 100m-149 295c-17.3 17.3-34.6 34.7-51.8 52h29c20.5-20.5 41-41 62-61 44-44 89-89 133-133 45-45 91-91 136-136 3-3 6-6 8.9-8.9v-29c-53 53-106 106-159 159-52.6 52-105 105-158 158m204-1143c-35.6 35.7-71 72-107 107-24.4 24.4-49 49-73 72.9-3.4 3.5-10.3 5.8-8.9 11.6 1.2 4.9 6.9 7.8 11.3 10.9.5.4 1.1.8 1.6 1.2 2.6 2.1 4.7 1.5 6.9-.8 4.8-5 9.8-9.9 14.7-14.8 54.7-54.7 109-109 164-164 34.4-34.4 68.9-68.9 103-103v-33.8c-13.2 13.4-26.5 26.8-39.8 40-24.3 24.3-48.9 48-73 72.8m-103 969c-25.4 25.3-51 51-76 75.9-35 35-70 71-105 106-14.7 14.8-29.5 29.5-44 44h29c20.5-20.6 41-41 61.7-61.8 52.6-52 105-105 158-157 65-64 129-129 193-193v-29c-26.9 26.9-53.8 53.8-81 81-45 45-90 90-135 135m9.3-729c-11.3 11.4-9.2 6.2-1.8 20 3 5.7 3.7 7.4 10 1.1 15.4-15.6 30.9-31 46-46 50.7-50.7 102-101 152-152v-29.4c-39.8 39.8-80 80-119 119-29 29-58 58-87 87m-35.9-15.6c7.8 4 7.8 4 14-2.2 48.7-48.6 97-97 146-146 27.5-27.5 55-55 83-83v-33c-86 86-171 171-257 257 5.3 2.6 9.8 4.6 14.2 6.8m102 18.8c-14.5 14.5-29 29-43.5 43.6-5 5-5 6.5-.4 11.5 3.4 3.6 7 7 12.7 12.8 7.8-8.7 14.5-16.9 22-24.4 32-32.6 65-65 97-97 17.8-17.8 35.6-35.7 53-53v-33.9c-7.6 7.5-15 15-22.6 22.5-39.6 39.5-79 79-118 119m28.7 189c-5.7 5.1-5.3 6.2-2.1 13.8 2.1 5 5.3 9 8.9 13.3 31-31 62-62 93-93 4.3-4.3 8.5-8.5 12.8-12.8v-33.8c-29 29-58 58-87 87-8.5 8.5-16.5 17.4-25.4 25.4m-39-105c-1.5 1.5-4.2 3.2-2 5.7 4.6 5.2 6.4 12.4 12.7 17.6 8.1-8.3 16-16.6 24-24.8 21.7-21.8 43.5-43.5 65-65 17-17 34-34 51-51v-33.8c-42 42-85 85-127 127-8.2 8.3-16.4 16.6-24.6 24.9m50 21.6c-9.1 9.2-18.9 17.7-27.3 27.6-1.8 2.1-3.9 3.9-3.2 6.9 1.7 7.6 3.6 15 5.7 23.7 8.3-8.1 15.7-15 22.9-22.4 34.5-34.5 69-69 103-104v-34c-7.7 7.7-15.3 15.3-23 23-26 26-52 52-78 79m102 847v-9c-3 3-6 6-8.9 9h8.9m-5049-253c28-28 56-57 84-85 31.6-31.6 64-62.9 95-95 37.7-37.8 75-76 113-113 35-35 70-70 106-106 .7-.7 1.5-1.5 2.2-2.2-12 0-24 0-36 0-.6.7-1.1 1.5-1.6 2.2-.8 1.1-1.6 2.2-2.6 3.2-15.5 15.5-31 30.9-46.6 46-56.9 56.8-114 114-171 170-78 78-156 156-234 234-66 65.9-132 132-198 198h36c9.9-9.9 19.9-19.9 29.8-29.8 39.7-39.7 79-80 119-119 34.8-34.6 69.8-69 105-104m-135 63c23-23 45.7-46 69-69 37-37 74-74 111-111 35.7-35.7 71-72 107-107 24.4-24.4 49-48.6 73-72.9 21.4-21.3 43-42.5 64-64 12.2-12.6 25.5-24 37-37 .7-.7 1.3-1.5 2-2.2h-36c-.1.9-.5 1.6-.9 2.2-.7 1-1.6 1.8-2.4 2.6-24 24-48 48-73 72-28 28-56 57-84 85-31.9 31.9-64 64-96 96-36.8 36.8-73 73.9-110 111-62 62-124 124-186 186-33.4 33.4-67 66.8-100 100h34.5c18-18.2 36-36 54-54 45-45 91-90 136-135m270-54.9c46.7-46.7 93-93 140-140 44-44 88-88 132-132 44.8-44.8 90-89 135-134 .7-.7 1.5-1.5 2.2-2.2-12 0-24 0-36 0 .1.9 0 1.6-.3 2.2-.7 1.4-2.2 2.2-3.2 3.3-26.9 27-53.8 54-81 81-54 53.9-108 108-162 162-73 72.9-145 146-218 219-32 32-65 64-97 96-27.7 27.7-54.8 56-83 83-2.5 2.4-4.9 4.8-7.4 7.2h33.6c34.5-34.5 68.9-68.9 103-103 47-47 94-94 141-141m26.5-99c50.9-50.9 102-102 153-153 51.9-51.8 104-104 156-156 .7-.7 1.5-1.5 2.2-2.2-12 0-24 0-36 0-.6.7-1.2 1.5-1.8 2.2-.9 1.1-1.7 2.2-2.7 3.1-41 41-83 83-124 124-49 49-98 98-147 147-61 61-122 122-183 183-65 65-129 130-194 194h34.5c8.9-8.9 17.8-17.8 26.7-26.7 51-51 103-103 154-154 54-54 108-109 163-163m-287 71c41.6-41 83-83 125-124 27.4-27.4 54.6-55 82-83 20-20 40.5-40 60.7-60 29-29 58.8-58 88-88 7.7-7.8 16.4-14.7 22.9-23.6.5-.7 1-1.5 1.5-2.2h-34c-.1.9-.3 1.6-.7 2.2-.9 1.6-2.7 2.6-4 3.9-30 30.4-61 60.7-91 91-58 58-116 117-175 175-74 73-147 147-221 220-53.8 53.8-107 108-161 161h34c53.9-54 108-108 162-162 37-37 74-74 111-111m-229 14.4c58-57.9 116-116 174-174 37.7-37.8 75-76 113-113 35-35 70-70 106-106 .7-.7 1.5-1.5 2.2-2.2-12 0-24 0-36 0-.6.7-1.1 1.5-1.6 2.2-.8 1.1-1.6 2.2-2.6 3.2-15 15-30 30-45 45-70 69-139 139-209 208-58 58-117 117-175 175-53.6 53.6-107 107-161 161-19.8 19.8-39.6 39.6-59 59h35.5c28.4-28.4 56.8-56.9 85-85 57.8-57.7 116-115 174-173m113 30.7c37-37 74-74 111-111 43-43 87-86 130-129 61-61 122-122 183-183 .7-.7 1.5-1.5 2.2-2.2h-36c.2.9 0 1.6-.3 2.2-.6 1.1-1.7 1.8-2.5 2.6-5.8 5.9-11.9 11.5-17.8 17.4-55 56-110 111-166 166-71 71-141 141-212 212-60 60-120 120-180 180-24.4 24.5-48.8 49-73 74h33.5c2.9-2.9 5.7-5.7 8.6-8.6 41-41 82-82 124-124 32-31.9 64-63.7 96-96m44-116c51-51 102-102 154-153 51-51 103-103 154-154 .7-.7 1.5-1.5 2.2-2.2h-36c-.7.7-1.3 1.5-2 2.2-13 14.6-27.5 27.9-41 41.8-58.9 59-118 118-177 177-49 49-99 99-148 148-40.9 40.9-82 82-123 123-43.7 43.8-87 88-131 131-10.3 10.4-20.7 20.7-31 31h34.6c15.4-15.4 30.9-30.8 46-46 100-99 199-199 298-298m862 71c29.4-29 59-59 88-88 1.9-7.9 4.4-15.6 7.5-23 6.5-16 15.2-30.8 26-44-15.5 15.5-31 31-46.6 46.6-74 74-147 147-221 220-53.8 53.8-107 108-161 161h34c53.9-54 108-108 162-162 37-37 74-74 111-111m-116 45c37-37 74-74 111-111 43-43 87-86 130-129 14.3-14.3 28.5-28.5 42.8-42.8v1.3c8.6-8.6 17.3-17.3 25.9-25.9 39-39 78-79 118-118-.4 0-.7 0-1.1 0h-36c-.3 0-.6 0-.9 0 .2 1.9-.5 3.3-1.4 4.4-.2.1-.3.3-.5.4-.3.3-.5.5-.8.8-1.1.9-2.4 1.8-3.4 2.8-33 33-66 66-99 100v.4c-26.7 26.8-53 54-80 80-71 71-141 141-212 212-60 60-120 120-180 180-24.4 24.5-48.8 49-73 74h33.5c2.9-2.9 5.7-5.7 8.6-8.6 41-41 82-82 124-124 32-31.9 64-63.7 96-96m107 38c23-23 45.7-46 69-69 9.3-9.3 18.6-18.5 27.9-27.8-.4-1.9-.8-3.9-1.1-5.9-1.4-8.5-2.1-17-2.2-25.5-10.7 10.7-21.4 21.4-32 32-62 62-124 124-186 186-33.4 33.4-67 66.8-100 100h34.5c18-18.2 36-36 54-54 45-45 91-90 136-135m-62-154c51-51 102-102 154-153 28.6-28.6 57-57 86-86v.9c20.4-20.5 40.9-41 61-61 2.7-2.7 5.9-4.8 7.6-8.2.5-.5 1-1 1.5-1.5h-.9-35c-.3 0-.6 0-.9 0 .1.3.1.6.1.9-.4.4-.8.9-1.2 1.3-13 14.6-27.5 27.9-41 41.8-58.9 59-118 118-177 177-49 49-99 99-148 148-40.9 40.9-82 82-123 123-43.7 43.8-87 88-131 131-10.3 10.4-20.7 20.7-31 31h34.6c15.4-15.4 30.9-30.8 46-46 100-99 199-199 298-298m171-310h-37.7c-.6.6-1.4 1.4-2.2 2.2-56 56-543 543-651 652h30c136-135 618-611 659-652 .9-1 1.7-1.7 2.2-2.2m-328 395c58-57.9 116-116 174-174 37.7-37.8 75-76 113-113 35-35 70-70 106-106 .7-.7 1.5-1.5 2.2-2.2h-36c-.6.7-1.1 1.5-1.6 2.2-.8 1.1-1.6 2.2-2.6 3.2-15 15-30 30-45 45-70 69-139 139-209 208-58 58-117 117-175 175-53.6 53.6-107 107-161 161-19.8 19.8-39.6 39.6-59 59h35.5c28.4-28.4 56.8-56.9 85-85 57.8-57.7 116-115 174-173m-208 65c33.5-33.5 66.9-67 101-100 30.8-30.8 62-61 92-92 28.9-28.9 57.7-57.8 87-87 49-49 99-99 148-148 10-10 20.9-19.5 30-30.6.6-.7 1.2-1.5 1.8-2.2h-34c-.4.7-.7 1.5-1.1 2.2-.2.4-.5.9-.8 1.2-27.8 28-56 55.9-84 84-26.7 26.7-53.7 53-80 80-37 37-74 74-111 111-27.4 27.4-55 54.7-82 82-35.9 36-72 72-107 108-51 51-102 102-153 154-10.5 10.5-21 21-31.6 31.7h33.6c2.8-2.8 5.7-5.6 8.5-8.4 31.9-31.9 64-63.9 95-96 29.8-29.8 60-59 89-89m721-325c-8.6 8.6-17.2 17.2-25.8 25.8 11.8 0 23.5 0 35 0 1.2-1.2 2.4-2.4 3.5-3.5 22.6-22.6 45-45 68-67.8 16.5-16.3 32.9-32.7 49-49 2.9-2.9 5.9-5.9 8.8-8.8 7.3-7.2 14.7-14.2 21.8-21.5.3-.3.6-.6.9-.9 2.4-2.5 4.7-5 7-7.5.7-.7 1.3-1.5 2-2.2h-.9-34-1.1c-.1.8-.5 1.5-.9 2.1-1.2 1.3-2.4 2.6-3.7 3.9-23.8 23.7-47.6 47-71 71-19.6 19.6-39 39-58 58.7m398 31.4c-14.8 14.8-29.5 29.5-44 44 2.5 1.1 4.8 2.5 7 4.4 5.5 4.8 8.9 10.6 9.9 17.6 4-4 8-7.9 11.9-11.9 20.9-21 41.8-42 62.7-63 0-.2 0-.4 0-.6 0-11.2 5-19.7 14.3-25.5 9.9-6.3 20-12.3 30-18.4 2-2 3.9-3.9 5.9-5.9 35.9-36 71.8-71.9 108-108-.7 0-1.3 0-2 0h-34c0 0 0 0 0 .1-.9 1.1-1.7 2.3-2.5 3.4-1.9 0-3.8 0-5.7 0 .8 3.1-109 111-161 164m-34.4-71c25.3-25.3 50.6-50.6 76-76 6.2-6.3 13.8-11.5 17.9-19.7-.4 0-.7 0-1.1 0h-34c-.3 0-.6 0-.9 0 .2 1.2 0 2.1-.4 2.9-1.3 1.8-3.2 3.1-4.8 4.6-23 23-46 47-70 70 7.1 4.9 13 11.3 17.2 18.6m7.5 28.9c.1 27.8-22.7 56.7-57 57-9 9-18 18-26.9 27 11.8 0 23.6 0 35.5 0 70-70 139-139 209-209-1 0-2.1 0-3.1 0h-32.9-1.1c-.6 1.2-1 2.5-1.9 3.4-27.8 28-56 55.9-84 84-12.5 12.5-25 25-37.7 37.5m214-33.7c17.3-17.2 34.8-34.4 51.8-52 12.7-13 26.5-25 38-39h-36c-.6 1.1-1 2.5-1.9 3.4h-4.3c.5 2.4-1.5 3.5-2.8 4.8-22.6 22.6-45 45-68 68 9.5.8 18.2 6.6 22.8 15m3.7 30c0 5.7 0 11.4 0 17 0 1.4.1 2.9 0 4.3-.3 4.2 1.3 8.6 4.3 12 15.4-15.6 30.9-31 46-46.7 35.9-36 71.8-71.9 108-108-12 0-24 0-36 0-.9 1.1-1.7 2.3-2.6 3.4h-3.7c-.2 3.1-2.9 4.3-4.7 6.1-36.7 36.7-73 73-110 110-.5.8-1 1.3-1.5 1.8m218-36c28-28 57-57 85-85h-36c.5 2.4-1.6 3.5-2.8 4.8-5.8 5.9-11.9 11.5-17.8 17.4-20.8 20.9-41.6 41.8-62 62.7 11.4 0 22.8 0 34 0m-184 77c7.5 0 15 0 22.6 0 3.7 0 7.3.7 10.6 2 2.4-2.4 4.9-4.9 7.3-7.3 17.6-17.6 35-35 52.9-52.9 3-7.5 8.8-13.3 16.3-16.3 29-29 58-58 87-87h-36c-13.6 15.5-28.8 29.4-43 44-39 39-78 79-117 118m-422-9.4c-15.6 15.6-31 31-46.8 46.7 0 3 0 6.1 0 9.1 0 8.6 0 17 0 25.7 10.5-10.6 21-21 31.6-31.7 23.8-23.8 47.6-47.6 71-71-.3-2.2-.5-4.5-.5-6.8 1-36 30-57 57.8-57 2.1 0 4.3.2 6.4.4 20-20 40-40 60-60 1.7-1.7 3.9-3.2 5-5.4.5-.5 1-1 1.4-1.4h-.9-34-1.1c.1.5.1.9 0 1.3-1.4 1.6-2.7 3.3-4.2 4.8-4.8 4.9-9.7 9.7-14.5 14.6-24 24.3-48 49-73 72.8-19.7 19.6-39 39-58.9 59m-336 47.6c7-5.6 14.4-10.7 22.3-15.2 14.8-8.5 30.4-14.7 46.8-18.5 19.8-19.7 39.6-39.5 59-59 27.8-27.7 55.7-55 83-83 7.4-7.5 16-13.9 21.4-23.3-.4 0-.7 0-1.1 0h-34c-.3 0-.6 0-.9 0 .1 1.4-.2 2.5-.8 3.5-.9.9-2.1 1.7-3 2.6-30 30.4-61 60.7-91 91-34 34-68 68-102 103m-1193 150c52-51.9 104-104 156-155 31-30.9 61.9-62 93-93 20.9-20.9 42-41.5 63-62.7 12-12.4 25-23.8 36.4-36.8.6-.7 1.3-1.5 1.9-2.2h-36c-.4.7-.7 1.5-1.1 2.2-.2.4-.5.9-.8 1.2-27.8 28-56 55.9-84 84-32.6 32.5-65 64.8-98 97-62.8 62.8-125 126-188 188-94 94-187 187-281 281h34.5c9.4-9.4 18.8-18.9 28-28 40-40 81-80 121-120 51.6-51.6 103-103 155-155m1152 69c-1.2-2.1-2.4-4.2-3.5-6.3-3.1-5.8-5.7-11.7-8.1-17.7-20 20.3-40.5 40.5-60.7 60.8-66 65.9-132 132-198 198h36c9.9-9.9 19.9-19.9 29.8-29.8 39.7-39.7 79-80 119-119 28.5-28.5 57-56.8 86-85m-1235-60c53.9-53.9 108-108 162-162 28-28 56-55.7 84-84 29-29 58.8-58 88-88 7.7-7.8 16.4-14.7 22.9-23.6.5-.7 1-1.5 1.5-2.2h-34c-.1.9-.3 1.6-.7 2.2-1 1.6-2.7 2.6-4 3.9-36.7 36.7-73 73-110 110-76 76-153 153-229 229-103 103-206 206-309 309h33.7c31.9-31.9 63.8-63.8 96-96 66-66 133-133 199-199m1457-198c11.9 0 23.7 0 35.6 0 51-51 102-102 153-153 2.2-2.2 4.8-3.9 6.3-6.7.5-.5 1-1 1.6-1.6h-.9-34-1.1c-1.4 1.8-2.6 3.8-4.2 5.4-.6.6-1.3 1.3-1.9 1.9-14.9 14.8-29.8 29.6-44.6 44.5-36.8 36.5-73 73-110 110m155-83c-16.8 16.8-33.6 33.5-50 50-10.7 10.7-21.4 21.5-32 32 1.4 0 2.9 0 4.3 0 6.1 0 11.8 1 17 4.2 2.2 1.4 4.2 2.9 6 4.6 10.9-10.9 21.7-21.8 32.6-32.7 40-40 80-80 120-120 5.1-5.1 11.3-9.3 15-15.7.6-.6 1.2-1.2 1.9-1.9h-.9-35c-.3 0-.6 0-.9 0 .1.3.2.6.2.9-1.2 1.5-2.4 3.1-3.7 4.4-24.6 24.6-49 49-74 74m1297 393c-20.6 15.2-44 26.9-69 34-49 49-98 99-148 148h34.6c8.9-8.9 17.8-17.8 26.7-26.7 51-51 103-103 154-154 .4-.4.9-.9 1.5-1.5m-234 16.6c-7.3-3.9-14.3-8.2-21-12.9-5.7 5.7-11.5 11.4-17.2 17.2-53.8 53.8-107 108-161 161h34c53.9-54 108-108 162-162 1.2-1.2 2.5-2.4 3.7-3.7m53 20c-9.2-2.2-18.2-4.9-26.9-8.2-17.9 17.8-35.7 35.6-53 54-33.4 33.4-67 66.8-100 100h34.5c18-18.2 36-36 54-54 30.4-30.4 61-60.7 92-91m-95-49c-6-5.4-11.7-11-17-17-46 46-92 92-138 139-24.4 24.5-48.8 49-73 74h33.5c2.9-2.9 5.7-5.7 8.6-8.6 41-41 82-82 124-124 21-21 42-42 63-62.9m-33.9-38c-4.9-7-9.4-14.3-13.5-21.8-29.7 29.7-59 59-89 89-1 12.3-10.7 23.9-25 25.8-.2 0-.4 0-.6.1-36 36-72 73-109 109-10.3 10.4-20.7 20.7-31 31h34.6c15.4-15.4 30.9-30.8 46-46 62-62 125-125 187-187m179 93c-6.1 0-12.2-.3-18-.8-47 46.9-94 94-141 141h36c9.9-9.9 19.9-19.9 29.8-29.8 36.8-36.8 73-74 110-110-5.6.3-11.2.5-16.8.5m-433-53.8c15.6-15.6 31-31 46.7-46.8-4.2-7.1-8.3-14.2-12.5-21.3-25 25.4-50 50.8-76 76-51 51-102 102-153 154-10.5 10.5-21 21-31.6 31.7h33.6c2.8-2.8 5.7-5.6 8.5-8.4 31.9-31.9 64-63.9 95-96 29.8-29.8 60-59 89-89m100 42.8c-1.1-1.4-2.2-2.8-3.1-4.4-3.5-5.9-6.9-11.8-10.4-17.7-37.8 37.8-76 76-113 113-19.8 19.8-39.6 39.6-59 59h35.5c28.4-28.4 56.8-56.9 85-85 21.8-21.8 43.7-43.6 66-65m-38.9-65c-95 95-178 178-216 216h30c41-40.9 115-113 198-196-4-6.8-8-13.6-12-20.4m827 66.9c-11.2 0-22.4 0-33.5 0-22.9 22.8-45.8 45.6-69 68-26.6 26.6-53 53-80 79.9-.3.3-.6.6-.8.8h33.7c45.7-45.8 92-92 137-137 3.8-3.9 7.7-7.8 11.7-11.7m72 0c-11.2 0-22.5 0-33.7 0-49.7 49.7-99 99-149 149h33.7c30.8-30.8 62-61 92-92 18.9-18.9 37.9-37.9 56.8-56.8m-180 0c-56.8 56-113 112-151 149h30c38-37.5 92-91 152-149-10.4 0-20.8 0-31 0m-1858-45.6c-6.2-5.7-11.9-11.8-17-18.3-6.3 6.3-12.5 12.5-18.8 18.8-65 65-129 130-194 194h34.6c8.9-8.9 17.8-17.8 26.7-26.7 51-51 103-103 154-154 4.7-4.6 9.4-9.3 14-14m1777-50c5.6-5.6 11.2-11.2 16.8-16.9 0-1.2 0-2.3 0-3.5 0-10 0-20 0-30-36 36-72 72-108 109-32 32-65 64-97 96-27.7 27.7-54.8 56-83 83-2.5 2.4-4.9 4.8-7.4 7.2h33.6c34.4-34.5 68.9-68.9 103-103 47-47 94-94 142-141m447-16.6c-.3-.6-.6-1.2-.9-1.8-3.6-7.4-6.8-15-9.5-22.7-2.8 2.8-5.6 5.6-8.4 8.4-17 17-34 34-50.9 51-2.8 15-9 28.8-18.8 41-14.9 18.7-34 30-56.8 34.6-50 50-100 101-151 151h34.5c8.3-8.3 16.5-16.6 24.8-24.9 40-40 81-80 121-120 38.5-38.7 77-77 116-116m-430 71c0-11.4 0-22.7 0-34-38.8 38.8-77 78-116 116-35.9 35.9-71.9 71.9-108 108h34c38.9-39 78-78 117-117 24.4-24.3 49-48.6 74-72.9m30.6 40.9c-.2 0-.3 0-.5 0-5.8 0-11-1.3-16-4.3-2.7-1.6-5-3.6-6.8-5.8-42 42.5-85 85-127 128-10.5 10.5-21 21-31.6 31.7h33.7c2.8-2.8 5.6-5.6 8.4-8.4 31.9-31.9 64-63.9 95-96 15-15 29.9-29.9 44.9-44.9m-1365 0c-11.7 0-23.4 0-35 0-39 39-78 79-118 118-10.3 10.4-20.7 20.7-31 31h34.6c15.4-15.4 30.9-30.8 46-46 34.4-34 69-69 103-103m-69-2.3c-8.4-3.7-15-11.5-16.9-20.7-9.3 9.3-18.7 18.7-28 28-48 48-96 96-144 144h2 31.7 3.8c28.4-28.4 56.8-56.9 85-85 22-22 44-44 66-66m-253 69c-32 31.7-61 61-84 83h6.6 23.8 10c1.1-1.1 2.2-2.2 3.4-3.4h1.1c20-20 40-40 61-60.7-9.7-1.8-18.2-9.5-21.8-18.8m68 17.8c-3.7.7-7.5 1.2-11.3 1.5-20.9 20.9-41.7 41.8-62 62.7-.3.3-.6.6-.8.8h2.3 31.4 3.1c9.4-9.4 18.8-18.9 28-28 19.4-19.4 38.8-38.7 58-58-14.3 10.9-30.5 17.9-48.7 21.4m-175-86v1c4.9-4.9 9.8-9.8 14.8-14.8-.5-.2-1-.4-1.5-.7-7.2-3.4-14-7.3-20.5-11.7-29 29-59 57.9-88 87-27.7 27.7-54.8 56-83 83-2.5 2.4-4.9 4.8-7.4 7.2h33.6c34.4-34.5 68.9-68.9 103-103 16-16 32-32 48-48m936 .5c-3.2 1.2-6.6 1.9-10.2 1.9-8.5 0-16.9 0-25.4 0-13.8 13.8-27.6 27.6-41 41-35.9 35.9-71.9 71.9-108 108h34c38.9-39 78-78 117-117 11.4-11.4 22.8-22.7 34-34m-830 38c0-4.5 0-9 0-13.4 0-1.4-.1-2.9 0-4.3.3-5.1-1.5-9.4-4.5-12.6-37 37-74 74-111 112-10.5 10.5-21 21-31.6 31.7h33.7c2.6-2.6 5.3-5.2 7.9-7.9v1.1c35-35.4 71-71 106-106m-106 34.4c22-22 44-44 67-66 1.6-1.6 3.3-3.3 4.9-4.9-10.2-.9-20-2.8-30-5.6-15.9 15.9-31.7 31.7-47.6 47.6-35.9 35.9-71.9 71.9-108 108h34c26.7-26.7 53-53 79.9-80v1.9m830-110c0-11.8 0-23.6 0-35-9.7 9.7-19.5 19.5-29 29-65 65-129 130-194 194h34.5c8.9-8.9 17.8-17.8 26.7-26.7 51-51 103-103 154-154 2.5-2.5 4.9-5 7.4-7.4m-261-26.8c-2.6-7.2-4.5-14.8-5.8-22.6-.3-1.7-.5-3.5-.6-5.2-25.9 25.9-51.8 51.8-78 78-2.5 5-7 9.8-12.8 12.8-26 26-52 52-79 79-24.4 24.5-48.8 49-73 74h33.5c2.9-2.9 5.7-5.7 8.6-8.6 41-41 82-82 123-124 27.6-27.6 55-55 83-83m255-38c2.1-2.1 4.2-4.2 6.3-6.3 0-11.9 0-23.8 0-35.6-32.5 32.5-65 65-97 98-9.1 9.1-18 18-27 27 0 2.5-.1 4.9-.7 7.3-2.9 13.5-14 23-27.9 23.4-.8 0-1.5 0-2.3 0-46.7 46.6-93 93-140 140h36c9.9-9.9 19.9-19.9 29.8-29.8 39.7-39.7 79-80 119-119 34.9-34.6 69.9-69 105-104m39 104c-1.2 0-2.5 0-3.7 0-7.6 0-15.3-3.1-20.9-8.8-22.6 22.4-45 44.8-67.9 67-27.7 27.7-54.8 56-83 83-2.5 2.4-4.9 4.8-7.4 7.2h33.6c34.5-34.5 68.9-68.9 103-103 15.2-15.3 30.5-30.5 45.8-45.8m-266-22.7c-1.9-1.8-3.8-3.8-5.6-5.8-3.7-4-6.9-8.2-9.9-12.6-9.6 9.6-19 19-28.8 28.8-53.8 53.8-107 108-161 161h34c53.9-54 108-108 162-162 3.2-3.2 6.5-6.5 9.8-9.8m46 27c-8.7-2.6-16.8-6.1-24.5-10.6-18.4 18.3-36.7 36.7-55 55-33.4 33.4-67 66.8-100 100h34.5c18-18.2 36-36 54-54 30-30 60-60 91-90" style="fill:#090606"/>
</svg>
