<svg xmlns="http://www.w3.org/2000/svg" width="2757" viewBox="0 0 2756.8 2453.1" style="enable-background:new 0 0 2756.8 2453.1">
 <path d="m1317 2152c0 60 0 120 0 180 0 1.9-.1 3.8 0 5.8.4 13.3-9.7 26.6-25.3 28.6-9.7 1.3-17.9-2.2-24.7-9.1-1.8-1.8-3.3-3.9-4.6-6.1-12.6-21.4-25-42.7-37.7-64-14.3-24.4-28.7-48.8-43-73-2-3.4-3.9-6.9-6.9-9.8-5.4-5.2-11.8-8.2-19.4-8.2-22 0-44.5 0-67 0-5.8 0-10.5 2.2-14.4 6.5-2.4 2.7-3.9 5.9-4.1 9.5-.1 2.1-.1 4.2-.1 6.2 0 35.7 0 71 0 107 0 3-.1 6.1-.8 9.1-3 13.5-14.3 22.9-28 23-22 .1-44.5-.1-67 .1-13 .1-26.3-9.2-28.7-24.7-.5-3.2-.6-6.4-.6-9.6 0-65 0-131 0-196 0-51.8 0-104 0-155 0-2.9.1-5.7.5-8.6 2.3-14.2 13.5-24.3 28-25 1.1-.1 2.2 0 3.4 0 23.5 0 47 0 71 0 2.6 0 5.1.1 7.6.6 13.7 2.7 23.3 13.6 24 27.4.3 6.2-1.6 12-4.6 17.4-4.2 7.5-8.5 15-12.7 22.6-10.2 18-20.3 36-30.5 54-2 3.6-4 7.3-6.2 10.8-7.9 13 2.8 27.8 15.9 27.8 1.4 0 2.9 0 4.3 0 41.6 0 83 0 125 0 1.4 0 2.9 0 4.3 0 9.8-.3 17.2-7.2 18-17 .2-1.9.1-3.8.1-5.8 0-35.5 0-71 0-107 0-3.2 0-6.4.9-9.5 3.5-12.9 14-21.3 27.6-22 1-.1 1.9 0 2.9 0 20.8 0 41.6 0 62 0 2.4 0 4.8.2 7.2.7 12.9 2.4 23.7 14 23.5 28 0 2.6 0 5.1 0 7.7-.1 59-.1 119-.1 178zm563 89c0 27.5 0 55 0 83 0 3.2.1 6.4.7 9.6 1.6 8.4 5.9 15 13.3 19.6 4.9 3 10.2 4.3 16 4.3 30.7-.1 61 0 92 0 48 0 96 0 144 0 3.5 0 7.1.1 10.5-.3 26.5-3.3 48-15 65-35.9 11.9-14.9 18.5-32 20-51 1.3-14.2-.5-28-5.7-41.5-10.7-27.7-30-46.7-58-56.9-10.3-3.8-21-5.1-32-5.6-8.1-.3-13.5-4.4-16.6-11.7-5-12 3.3-21.7 11-24 2.2-.6 4.4-.7 6.6-.8 10.8-.5 21.3-2 31.5-5.8 24-9 42-25 53.6-48 9.6-19.5 12.5-40 7.9-61.7-7.4-34.4-28-57.9-60.8-70-11-4.2-22.6-5.9-34-5.9-78 0-155 0-233 0-1.1 0-2.2 0-3.4 0-15.8.7-26.9 12-28.6 25.6-.3 2.9-.4 5.7-.4 8.6 0 59 0 117 0 176 .3 31 .3 63 .3 94zm209 53c0 1.9 0 3.8 0 5.8-.2 6.4-3.2 11.3-8.5 14.8-8.3 5.4-20 3.1-25.6-5.1-1.6-2.4-3-4.9-4.4-7.4-15.4-26.5-30.9-53-46-80-18.3-31.5-36.6-63-54.9-95-8.4-14.5-16.9-29-25.3-43.6-1-1.8-2.1-3.6-2.9-5.5-3.8-8.7-1.1-18 6.9-23 5.1-3.2 10.5-6.1 15.8-9.1 34-19.7 69-39 103-59 4.9-2.8 9.7-5.6 14.6-8.3 5.7-3.2 11.6-3.5 17.5-.6 6.2 3 9.7 8.2 10.4 15 .2 2.1.1 4.2.1 6.2 0 49 0 98 0 147-.2 48.9-.2 98-.2 147zm-710-148c-.6 119 95 220 219 221 123 .5 219-98 220-219 .5-124-100-220-218-220-120-1.1-219 97-220 218zm127-128c0-2.2-.1-4.5.1-6.7.9-11.4 12.8-19.3 23.7-15.7 2.3.8 4.4 2 6.4 3.2 18 10.8 36 21.6 54 32.4 43 25.7 86 51 129 77 12 7.2 24 14.4 36 21.6 1.5.9 3 1.8 4.5 2.8 10.9 7.2 10.6 22 .6 29.8-1.1.9-2.4 1.6-3.6 2.3-32 19-64 38-96 58-39.8 23.8-80 47.6-119 71-2.9 1.7-5.7 3.5-8.7 5.1-8.2 4.4-16.8 2.9-23-4.1-2.4-2.7-3.9-5.9-4.1-9.5-.1-2.2-.1-4.5-.1-6.7 0-43.7 0-87 0-131 0-43 0-86 0-130zm978-88c-17.9 1.9-35 5.8-52 11.9-35.6 13-65.9 33.6-91 62-14.5 16.7-26 35-35 55-12.4 28-18.2 58-18.8 88-.1 3.3.5 6.7.5 10 .1 7.5.9 15 2 22.4 3.2 22.3 9.8 43.7 19.7 63.9 13.5 27.7 32 52 56 71 17.5 14.8 36.8 26.6 57.9 35.4 23.6 9.8 48 15 74 16.5 13.6.8 27 0 40.7-1.9 21.7-3 42.5-9.1 62-18.4 27-12.8 50.7-30 71-52.7 14.2-16 25.9-33.7 35-53 12.8-27 19-55.8 20.6-86 .5-9.8-.2-19.5-1-29-1-10.7-2.9-21-5.5-31.6-6.4-25.9-17.3-49.8-32.5-72-9.4-13.4-20-25.7-32-36.7-13-11.8-27-22-42.5-30-32.9-17.8-67.9-26.9-105-26.6-8 0-15.5 0-23 .8zm-70 87c0-2.7.1-5.4.7-8.1 2.6-11.6 16.3-18.2 26.8-12.2 6 3.4 11.9 7 17.8 10.5 25.3 15 51 30 76 45 31.6 18.8 63 37.7 95 57 12.2 7.3 24.4 14.6 36.7 21.8 1.9 1.1 3.8 2.4 5.4 4 9.1 9 6 21-1.4 27-1.6 1.3-3.4 2.4-5.2 3.5-30.9 18.5-61.8 36.9-93 55-22.8 13.6-45.6 27.3-68 40.9-20 12-40 24-60 36-1.6 1-3.3 1.9-5.1 2.5-10 3.5-20.5-1.9-23.6-12-.6-2-1-4-1-6.1 0-1.8 0-3.5 0-5.3 0-42.9 0-86 0-129-.2-43.5-.2-87-.2-131zm-2029 43.6c0-5.8 0-11.5 0-17.3 0-1.9-.1-3.9-.4-5.7-1.7-8.5-6.6-14.8-13.9-19-5.2-3.2-10.9-4.2-17-4.2-50 .1-100 .1-151 0-8.2 0-16.3.7-24.4 1.9-21.4 3.2-41.5 10.2-60 21-18.3 10.6-34 24-47.6 40.5-11 13.6-19.9 28.6-26.5 44.9-6.5 16-10.5 32.9-11.8 50-1 13.7-.6 27.5 1.7 41 3.1 18.3 8.8 35.7 17.5 52 9.7 18.3 22 34 37.6 48 12 10.7 25 19.7 39.7 26.6 22.8 10.8 46.9 16.8 72 16.8 1.1 0 2.2 0 3.4.1 9.8 1 17.5 8.2 17 18.5-.1 1.4 0 2.9 0 4.3 0 9.6 0 19 0 28.8 0 3.1.2 6.1.7 9.1 1.7 11.7 11.9 22.3 23.5 24.4 3 .6 6 .9 9.1.9 4.8-.1 9.6.1 14.4 0 7.4-.1 14.7-.7 21.9-2.1 26.5-5.1 48.8-17.7 67-38 12.5-14.5 20.7-31 24.9-49.7 1.9-8.5 2.6-17 2.6-25.7-.1-46 0-92 0-138-.2-43-.2-86-.2-129zm-200 14.9c0-3 .1-6.1.9-9 2.5-8.3 9.8-13.6 18.3-13.4 5.5.1 9.8 2.8 13 6.9 1.4 1.7 2.5 3.7 3.6 5.6 12 21.5 23.9 43 35.9 65 12 21.5 24 43 35.9 65 6.8 12.2 13.5 24.3 20.3 36.5.6 1.1 1.2 2.3 1.8 3.4 4.6 9.4 0 19.7-6.7 23.6-7.1 4.1-14 8.4-21 12.6-22.8 13.6-45.6 27-68 40.8-2.7 1.6-5.5 3.3-8.4 4.6-10.8 4.8-22-1.2-24.7-12.8-.6-2.7-.6-5.4-.6-8.1 0-36.5 0-72.9 0-109 0-36.9 0-74 0-110zm492 175c0 6.1.1 12 1 18.2 3.5 22.8 12.8 42.8 28 59.9 17.2 19 38.5 30.9 63.7 35.8 7.2 1.4 14.5 2.3 21.9 2.1 13.9-.4 25-9.9 27.9-23.4.6-3 .7-6 .7-9.1 0-69.8 0-139 0-209 0-2.1-.1-4.2 0-6.2.3-6.7 3.2-11.9 8.8-15.7 1.3-.9 2.7-1.7 4.1-2.5 15.3-8.4 30.6-16.7 45.9-25 3.9-2.1 7.9-4.2 11.8-6.4 11.5-6.5 17-19.5 14-32-3.2-13.4-14.7-22.6-28.5-22.7-11.2-.1-22.4 0-33.6 0-1.6 0-3.2.1-4.8-.1-11.3-1.1-18.4-10.4-17.9-19 .1-1.4 0-2.9 0-4.3 0-10.6 0-21 0-31.7 0-2.7-.2-5.4-.8-8.1-3.1-13-15-22.7-28-22.4-6.3.2-11.9 2.1-17.2 5.4-17.4 10.7-34.9 21.4-52 32-10.2 6.3-20.5 12.4-30.7 18.8-9.3 5.9-14.4 14.3-14.3 25.5 0 1.8 0 3.5 0 5.3 0 39.7 0 79 0 119 .2 38.8.2 78 .2 116zm-74-156c0-1.9.1-3.8-.1-5.8-.6-8.2-4-15-10.2-20.4-6-5.2-13.2-7-20.9-7-27 0-54 0-81 0-2.6 0-5.1.3-7.6.7-13.4 2.5-23 14-23.6 27.7 0 1.6 0 3.2 0 4.8 0 77 0 153 0 230 0 1.6 0 3.2 0 4.8 0 15.2 13.4 28 28 28 5 0 9.9 0 14.9 0 24 0 48 0 72 0 13.8 0 24-10.4 26.9-19.7 1.1-3.6 1.5-7.2 1.5-10.9 0-39 0-78 0-117-.1-38-.1-77-.1-115zm-57.7-175c-27.6-.2-56.8 21.3-57.8 57 .9 33 26 58 57.7 58 35-.2 58-29.8 57.7-57.9.4-31.6-26.8-57-58-57z" style="fill:none;stroke-miterlimit:10;stroke:#090606;stroke-width:20"/>
 <g style="fill:#090606">
  <path d="m284 193c-1.2 20.3-2.3 42.8-2.3 77v163c0 64-12.7 104-40 128-27 25.5-67 33.6-102 33.6-33.6 0-71-8.1-93-23l12.7-38.8c18.5 11.6 48 22 82 22 52 0 90-27 90-98v-31h-1.2c-15.6 26-45.7 46.9-89 46.9-69 0-119-59-119-137 0-95 62-149 126-149 48.6 0 75 25.5 87 48.6h1.2l2.3-42h44.6zm-52.7 111c0-8.7-.6-16.2-2.9-23-9.3-29.5-34-53.8-71-53.8-48.6 0-83 41-83 106 0 55 27.8 101 83 101 31 0 60-19.7 71-52 2.9-8.7 4.1-18.5 4.1-27v-50"/>
  <path d="m419 114c.6 17.4-12.2 31-32.4 31-17.9 0-30.7-13.9-30.7-31 0-17.9 13.3-31.8 31.8-31.8 19-.1 31 13.8 31 31.8m-56.8 359v-280h51v280h-51"/>
  <path d="m559 112v81h73v38.8h-73v151c0 34.7 9.8 54 38 54 13.3 0 23-1.7 29.5-3.5l2.3 38c-9.8 4.1-25.5 6.9-45 6.9-23.7 0-42.8-7.5-55-21.4-14.5-15-19.7-40-19.7-73v-153h-43v-38.8h43v-67l49.9-13.3"/>
  <path d="m742 83v163h189v-163h51v390h-51v-183h-189v183h-50v-390h50"/>
  <path d="m1402 274c0 134-82 206-181 206-103 0-175-79.9-175-198 0-124 77-205 181-205 107 0 175 82 175 198m-303 6.3c0 83 45 158 125 158 79.9 0 125-73 125-162 0-78-40.5-159-124-159-83-.1-125 76.9-125 163"/>
  <path d="m1468 88c22-4.6 56.7-8.1 92-8.1 50 0 83 8.7 107 28.4 20.3 15 32.4 38 32.4 68.9 0 37.6-24.9 71-66 86v1.2c37 9.3 81 40 81 98 0 33.6-13.3 59-33 78-27 24.9-71 36.5-135 36.5-34.7 0-61-2.3-78-4.6v-384m50 160h45.7c53 0 85-27.8 85-65 0-45.7-34.7-63.7-86-63.7-23 0-36.5 1.7-44.6 3.5v126m.1 187c9.8 1.7 24.3 2.3 42 2.3 52 0 100-19 100-76 0-53-45.7-75-101-75h-41.7v149"/>
  <path d="m2115 274c0 134-82 206-181 206-103 0-175-79.9-175-198 0-124 77-205 181-205 107 0 175 82 175 198m-303 6.3c0 83 45 158 125 158 79.9 0 125-73 125-162 0-78-40.5-159-124-159-83-.1-125 76.9-125 163"/>
  <path d="m1317 1241c0 60 0 120 0 180 0 1.9-.1 3.8 0 5.8.4 13.3-9.7 26.6-25.3 28.6-9.7 1.3-17.9-2.2-24.7-9.1-1.8-1.8-3.3-3.9-4.6-6.1-12.6-21.4-25-42.7-37.7-64-14.3-24.4-28.7-48.8-43-73-2-3.4-3.9-6.9-6.9-9.8-5.4-5.2-11.8-8.2-19.4-8.2-22 0-44.5 0-67 0-5.8 0-10.5 2.2-14.4 6.5-2.4 2.7-3.9 5.9-4.1 9.5-.1 2.1-.1 4.2-.1 6.2 0 35.7 0 71 0 107 0 3-.1 6.1-.8 9.1-3 13.5-14.3 22.9-28 23-22 .1-44.5-.1-67 .1-13 .1-26.3-9.2-28.7-24.7-.5-3.2-.6-6.4-.6-9.6 0-65 0-131 0-196 0-51.8 0-104 0-155 0-2.9.1-5.7.5-8.6 2.3-14.2 13.5-24.3 28-25 1.1-.1 2.2 0 3.4 0 23.5 0 47 0 71 0 2.6 0 5.1.1 7.6.6 13.7 2.7 23.3 13.6 24 27.4.3 6.2-1.6 12-4.6 17.4-4.2 7.5-8.5 15-12.7 22.6-10.2 18-20.3 36-30.5 54-2 3.6-4 7.3-6.2 10.8-7.9 13 2.8 27.8 15.9 27.8 1.4 0 2.9 0 4.3 0 41.6 0 83 0 125 0 1.4 0 2.9 0 4.3 0 9.8-.3 17.2-7.2 18-17 .2-1.9.1-3.8.1-5.8 0-35.5 0-71 0-107 0-3.2 0-6.4.9-9.5 3.5-12.9 14-21.3 27.6-22 1-.1 1.9 0 2.9 0 20.8 0 41.6 0 62 0 2.4 0 4.8.2 7.2.7 12.9 2.4 23.7 14 23.5 28 0 2.6 0 5.1 0 7.7-.1 59-.1 119-.1 178zm563 89c0 27.5 0 55 0 83 0 3.2.1 6.4.7 9.5 1.6 8.4 5.9 15 13.3 19.6 4.9 3 10.2 4.3 16 4.3 30.7-.1 61 0 92 0 48 0 96 0 144 0 3.5 0 7.1.1 10.5-.3 26.5-3.3 48-15 65-35.9 11.9-14.9 18.5-32 20-51 1.3-14.2-.5-28-5.7-41.5-10.7-27.7-30-46.7-58-56.9-10.3-3.8-21-5.1-32-5.6-8.1-.3-13.5-4.4-16.6-11.7-5-12 3.3-21.7 11-24 2.2-.6 4.4-.7 6.6-.8 10.8-.5 21.3-2 31.5-5.8 24-9 42-25 53.6-48 9.6-19.5 12.5-40 7.9-61.7-7.4-34.4-28-57.9-60.8-70-11-4.2-22.6-5.9-34-5.9-78 0-155 0-233 0-1.1 0-2.2 0-3.4 0-15.8.7-26.9 12-28.6 25.6-.3 2.9-.4 5.7-.4 8.6 0 59 0 117 0 176 .3 31.4.3 62.7.3 94zm209 53c0 1.9 0 3.8 0 5.8-.2 6.4-3.2 11.3-8.5 14.8-8.3 5.4-20 3.1-25.6-5.1-1.6-2.4-3-4.9-4.4-7.4-15.4-26.5-30.9-53-46-80-18.3-31.5-36.6-63-54.9-95-8.4-14.5-16.9-29-25.3-43.6-1-1.8-2.1-3.6-2.9-5.5-3.8-8.7-1.1-18 6.9-23 5.1-3.2 10.5-6.1 15.8-9.1 34-19.7 69-39 103-59 4.9-2.8 9.7-5.6 14.6-8.3 5.7-3.2 11.6-3.5 17.5-.6 6.2 3 9.7 8.2 10.4 15 .2 2.1.1 4.2.1 6.2 0 49 0 98 0 147-.2 48.9-.2 98-.2 147zm-710-148c-.6 119 95 220 219 221 123 .5 219-98 220-219 .5-124-100-220-218-220-120-1.1-219 97-220 218zm127-128c0-2.2-.1-4.5.1-6.7.9-11.4 12.8-19.3 23.7-15.7 2.3.8 4.4 2 6.4 3.2 18 10.8 36 21.6 54 32.4 43 25.7 86 51 129 77 12 7.2 24 14.4 36 21.6 1.5.9 3 1.8 4.5 2.8 10.9 7.2 10.6 22 .6 29.8-1.1.9-2.4 1.6-3.6 2.3-32 19-64 38-96 58-39.8 23.8-80 47.6-119 71-2.9 1.7-5.7 3.5-8.7 5.1-8.2 4.4-16.8 2.9-23-4.1-2.4-2.7-3.9-5.9-4.1-9.5-.1-2.2-.1-4.5-.1-6.7 0-43.7 0-87 0-131 0-43 0-86 0-130zm978-88c-17.9 1.9-35 5.8-52 11.9-35.6 13-65.9 33.6-91 62-14.5 16.7-26 35-35 55-12.4 28-18.2 58-18.8 88-.1 3.3.5 6.7.5 10 .1 7.5.9 15 2 22.4 3.2 22.3 9.8 43.7 19.7 63.9 13.5 27.7 32 52 56 71 17.5 14.8 36.8 26.6 57.9 35.4 23.6 9.8 48 15 74 16.5 13.6.8 27 0 40.7-1.9 21.7-3 42.5-9.1 62-18.4 27-12.8 50.7-30 71-52.7 14.2-16 25.9-33.7 35-53 12.8-27 19-55.8 20.6-86 .5-9.8-.2-19.5-1-29-1-10.7-2.9-21-5.5-31.6-6.4-25.9-17.3-49.8-32.5-72-9.4-13.4-20-25.7-32-36.7-13-11.8-27-22-42.5-30-32.9-17.8-67.9-26.9-105-26.6-8 .1-15.5 0-23 .8zm-70 87c0-2.7.1-5.4.7-8.1 2.6-11.6 16.3-18.2 26.8-12.2 6 3.4 11.9 7 17.8 10.5 25.3 15 51 30 76 45 31.6 18.8 63 37.7 95 57 12.2 7.3 24.4 14.6 36.7 21.8 1.9 1.1 3.8 2.4 5.4 4 9.1 9 6 21-1.4 27-1.6 1.3-3.4 2.4-5.2 3.5-30.9 18.5-61.8 36.9-93 55-22.8 13.6-45.6 27.3-68 40.9-20 12-40 24-60 36-1.6 1-3.3 1.9-5.1 2.5-10 3.5-20.5-1.9-23.6-12-.6-2-1-4-1-6.1 0-1.8 0-3.5 0-5.3 0-42.9 0-86 0-129-.2-43.6-.2-87-.2-131zm-2029 43.6c0-5.8 0-11.5 0-17.3 0-1.9-.1-3.9-.4-5.7-1.7-8.5-6.6-14.8-13.9-19-5.2-3.2-10.9-4.2-17-4.2-50 .1-100 .1-151 0-8.2 0-16.3.7-24.4 1.9-21.4 3.2-41.5 10.2-60 21-18.3 10.6-34 24-47.6 40.5-11 13.6-19.9 28.6-26.5 44.9-6.5 16-10.5 32.9-11.8 50-1 13.7-.6 27.5 1.7 41 3.1 18.3 8.8 35.7 17.5 52 9.7 18.3 22 34 37.6 48 12 10.7 25 19.7 39.7 26.6 22.8 10.8 46.9 16.8 72 16.8 1.1 0 2.2 0 3.4.1 9.8 1 17.5 8.2 17 18.5-.1 1.4 0 2.9 0 4.3 0 9.6 0 19 0 28.8 0 3.1.2 6.1.7 9.1 1.7 11.7 11.9 22.3 23.5 24.4 3 .6 6 .9 9.1.9 4.8-.1 9.6.1 14.4 0 7.4-.1 14.7-.7 21.9-2.1 26.5-5.1 48.8-17.7 67-38 12.5-14.5 20.7-31 24.9-49.7 1.9-8.5 2.6-17 2.6-25.7-.1-46 0-92 0-138-.2-43-.2-86-.2-129zm-200 14.9c0-3 .1-6.1.9-9 2.5-8.3 9.8-13.6 18.3-13.4 5.5.1 9.8 2.8 13 6.9 1.4 1.7 2.5 3.7 3.6 5.6 12 21.5 23.9 43 35.9 65 12 21.5 24 43 35.9 65 6.8 12.2 13.5 24.3 20.3 36.5.6 1.1 1.2 2.3 1.8 3.4 4.6 9.4 0 19.7-6.7 23.6-7.1 4.1-14 8.4-21 12.6-22.8 13.6-45.6 27-68 40.8-2.7 1.6-5.5 3.3-8.4 4.6-10.8 4.8-22-1.2-24.7-12.8-.6-2.7-.6-5.4-.6-8.1 0-36.5 0-72.9 0-109 0-36.9 0-74 0-110zm492 175c0 6.1.1 12 1 18.2 3.5 22.8 12.8 42.8 28 59.9 17.2 19 38.5 30.9 63.7 35.8 7.2 1.4 14.5 2.3 21.9 2.1 13.9-.4 25-9.9 27.9-23.4.6-3 .7-6 .7-9.1 0-69.8 0-139 0-209 0-2.1-.1-4.2 0-6.2.3-6.7 3.2-11.9 8.8-15.7 1.3-.9 2.7-1.7 4.1-2.5 15.3-8.4 30.6-16.7 45.9-25 3.9-2.1 7.9-4.2 11.8-6.4 11.5-6.5 17-19.5 14-32-3.2-13.4-14.7-22.6-28.5-22.7-11.2-.1-22.4 0-33.6 0-1.6 0-3.2.1-4.8-.1-11.3-1.1-18.4-10.4-17.9-19 .1-1.4 0-2.9 0-4.3 0-10.6 0-21 0-31.7 0-2.7-.2-5.4-.8-8.1-3.1-13-15-22.7-28-22.4-6.3.2-11.9 2.1-17.2 5.4-17.4 10.7-34.9 21.4-52 32-10.2 6.3-20.5 12.4-30.7 18.8-9.3 5.9-14.4 14.3-14.3 25.5 0 1.8 0 3.5 0 5.3 0 39.7 0 79 0 119 .2 38.8.2 78 .2 116zm-74-156c0-1.9.1-3.8-.1-5.8-.6-8.2-4-15-10.2-20.4-6-5.2-13.2-7-20.9-7-27 0-54 0-81 0-2.6 0-5.1.3-7.6.7-13.4 2.5-23 14-23.6 27.7 0 1.6 0 3.2 0 4.8 0 77 0 153 0 230 0 1.6 0 3.2 0 4.8 0 15.2 13.4 28 28 28 5 0 9.9 0 14.9 0 24 0 48 0 72 0 13.8 0 24-10.4 26.9-19.7 1.1-3.6 1.5-7.2 1.5-10.9 0-39 0-78 0-117-.1-38-.1-77-.1-115zm-57.7-175c-27.6-.2-56.8 21.3-57.8 57 .9 33 26 58 57.7 58 35-.2 58-29.8 57.7-57.9.4-31.6-26.8-57-58-57z" style="stroke-miterlimit:10;stroke:#fbc411;stroke-width:20"/>
 </g>
</svg>
