<svg xmlns="http://www.w3.org/2000/svg" viewBox="0 0 964 926.5" style="enable-background:new 0 0 964 926.5">
 <path d="m147 757c21-20.9 42-41.7 63-63 16.7-16.7 33-33.6 49.9-50 19.5-19.5 39-38.9 58.8-58 16.7-16.7 33-33.6 49.9-50 19.5-19.5 39-38.8 58.7-58 20.7-20.9 41-41.8 62-62 1.3-1.2 2.7-2.7 3.2-4.3 2.3-8.1 8.2-12.5 15.3-16 1.8-.9 3.6-1.9 5.1-3.2 4.6-3.9 9.1-7.9 14-12.3-4.8-4-7.6-7.6-10.5-13-4.8 5.2-8.8 9.8-13 14-54 54-109 109-163 163-55.7 55.7-111 112-167 167-11.8 11.8-23.5 23.5-35 35-1.5 1.5-3.8 2.8-3.9 5.1-.2 5.9.1 11.8.2 18.8 4.8-4.6 8.6-8.4 12.4-12.2m363-496c-2.5 2.6-4.9 1.1-7.3.4-5.9-1.7-10.8-.6-14.4 4.7-.4.6-1 1.2-1.8 2.2 13 5.6 16.9 3.3 23.5-7.3m-48.8 2.9c2.5-1 5.4 0 7.4-1.9 3.2-3 6.5-5.8 9.2-9.6-3.3-2.3-6.7-3.5-10.4-4.5-3-.8-4.9 0-6.9 2-5.7 5.9-11.6 11.6-17.3 17.4-.8.8-2.6 1.4-1.6 3.5 6.5-2.2 13.2-4.2 19.6-6.9m-257 373c-21 21-42 42-63 64-2.1 2.1-4.4 4.1-5.2 7.2-1.5 6.2-2.1 12.5-1.4 19.4 2.2-2 4.4-3.9 6.5-6 14.6-14.6 29-29 43.6-43.8 21.5-21.5 43-42.9 65-64 16-16 31.8-32 47.8-48 20.4-20.4 40.8-40.6 61-61 15.8-15.8 31.6-31.8 47-47.6 12.9-12.9 25.8-25.7 38.7-38.6 17.7-17.7 35.5-35 53-53 3-3 6-5.9 8.8-9 .8-.8 1.6-2 .1-3-4.8-3-15.9-1.7-20 2.5-8.1 8.1-16.2 16-24.3 24-23 23-45.9 46-68.9 69-62.8 62.9-126 126-189 189m224-422c1.4-9.2 4.9-17.7 7.9-26.8-.9.8-1.9 1.5-2.7 2.3-8.7 8.6-17.3 17.3-26 25.9-8.7 8.7-17.3 17.3-25.9 26-1 1-2.8 1.7-2 3.9 1.6 4.4 2.4 9 5.2 14.2 13.9-14.2 27-27.7 40-41 1.2-1.1 2.8-2.2 3.1-4.2m19.9 533c-6-.1-10.3 2.7-13.5 7.9 2.9 2 5.5 3.8 8.2 5.6 1.5 1 2.7 1 4.2-.5 4.1-4.2 8.5-8.2 13.5-13-5.2.1-8.8.2-12.4.1m-38.9-470c5.6-5.7 11.2-11.4 16.9-17 5.2-5.2 10.5-10.3 16.5-16.2-4.9-1.3-8.2-3.3-10.8-6.5-1.2-1.4-2.3-1-3.5.2-10.9 10.9-21.9 21.7-32 31.8 2.6 3.2 4.3 5.8 6.4 7.9 2.9 3.1 3.6 3 6.7-.1m157 85c-2.2 2.3-4.5 4.5-6.8 6.8-7.1 7-14.2 14-22 21.7 5.5 2.2 10 3.4 12.9 8.1 27-27 54-53.8 81-81-3.8-1.7-7-2.5-9.6-4-4-2.3-6.3-.5-8.7 2-7.8 7.8-15.5 15.6-23.3 23.3-2.9 2.8-4.3 5.7-4.1 9.9.4 6.3-.8 7.2-7.1 7.8-4.8.4-8.9 2.1-12.2 5.6m-64 283c13.7-.4 25.9-4 34.7-16.8-6.4 0-12.2 0-17.9 0-1.1 0-1.9.4-2.7 1.1-5 4.8-10 9.6-15 14.4.4.4.7.9.9 1.3m7.9-171c1.2.9 1.8 2.7 2.7 2.8 50-49 99-98 148-148-2.6-.7-5.2-.8-7.1-2-4.5-2.7-7.1-.5-10.2 2.6-16 16.3-32 32.4-48 48.6-28.4 28-56.8 57-85 85-5.9 5.9-5.9 5.9.5 10.9m10.7 117c7.8 3.1 8.3 2.8 13.5-3.4 1.4-1.7 1.1-2.7 0-4.1-2.3-2.7-4.6-5.4-7.3-8.6-4.5 4.5-8.8 8.2-12.3 12.5.3 1.2 1.1 1.4 1.8 1.8 1.4.6 2.9 1.3 4.3 1.8m119-346c-5.8 5.8-11.5 11.7-17.4 17.3-2.2 2.1-2.2 4.2-1 6.4.9 1.6 2.1 3 3.4 4.2 2.8 2.5 5.1 2.4 7.9-.3 5.8-5.8 11.7-11.4 16.3-18.4 6.4-9.7 13.2-19 19.7-28.8 2.9-4.3 5.4-8.9 6.9-14 .8-.6 1-1.4.2-1.9-.3-.2-.8.7-.8 1.3-.9 0-1.5.4-2.1 1-11 11-22 22-33 33m-48 25.4c1.3-.5 1.6-1.7 1.5-3 0-1.4-.6-2.6-1.3-3.9-4.5-8.1-5.7-8.3-12.2-1 3.3 2.6 6.8 4.1 9.4 6.9.7.7 1.6 1.4 2.6 1m-45.5-16.5c-2.4.5-4.1 1.5-5.7 3-6.3 6.3-12.5 12.7-19.6 19.9 15.9-2.3 38.9-15.7 43.6-25-6.3-.7-12.3.9-18.3 2.1m312 252c-56.9 56.9-113 113-170 170 3.8 1.6 7.3 1.8 10.3 3.5 4.3 2.3 4.3 2.2 7.9-1.4 43.7-43.7 87-87 131-131 8.5-8.5 17-17 25.5-25.6 1-1 2.8-1.8 1.6-3.9-2.2-3.6-4.1-7.3-6.4-11.5m30.5 55c-20.8 20.8-41.5 41.7-62 63-17.2 17.3-34.5 34.5-51.8 51.8-12.4 12.4-24.8 25-37 37-5.6 5.5-5.7 5.4-1.3 11.5 4.2 5.7 4.3 5.7 9.2.8 38.6-38.6 77-77 116-116 11.8-11.8 23.6-23.5 35-35.4 1.2-1.2 3-2.1 3-4.2-1-3.3-3.5-5.5-5.3-8.1-2.3-3.3-2.6-3.2-5.3-.5m16.4 28c-39.7 39.7-79 79-119 119-10.4 10.4-20.7 20.8-31 31-1.9 1.9-3.4 3.7-1.5 6.1 2.3 3.1 3.5 6.7 5.1 10.6 12-11.9 23.9-23.6 35.6-35 18-17.9 36-35.9 54-53.9 20.9-20.9 41.9-41.9 62.8-62.8 6.3-6.2 6.3-6.2 2.1-14-3.2-5.5-3.2-5.5-7.8-.9m-30-51.9c-1.2-1.8-2.6-1.7-4-.3-1.6 1.6-2.9 3.3-4.5 4.9-17.9 17.9-35.7 35.8-53.6 53.6-19.7 19.7-39 39-59 59-11.5 11.5-23 23-34.5 34.5-3.3 3.3-3.3 3.4-.4 7.2 1.4 1.9 2.3 4.3 5.9 6.3 5.1-5.5 10-11 15.2-16.3 44.7-44.9 90-90 134-134 6.8-6.8 6.9-6.8 1.2-14-.1-.2-.3-.3-.4-.5m-326-52c-1.4-8.2 1.5-15.4 4.8-22.6-9.9 8.5-18.9 17.9-28 27-.9.9-1.4 2-.9 3.3 1.5 4.2 3 8.4 5.1 14 6.4-6.7 12-12.7 17.7-18.6.9-1.1 1.7-1.9 1.4-3.3m-92-472c-3.6 1.1-6.4 1.6-8.9 2.6-11.9 4.8-23.7 10-33 19.3-16.9 16.9-33.6 34-50.8 50.7-5.8 5.6-8.7 12.3-10.4 19.8-.8 3.6-2.3 7.2-.8 10.9 34.5-34 68.9-68 104-103m305 783c1.6-1.5 2.5-2.2 3.3-3 9.7-9.6 19.4-19 29-28.8 37-37 75-75 112-112 7.5-7.5 15-15 22.5-22.5 1.4-1.4 2.8-2.6 1.6-4.6-2.1-3.6-3.5-7.5-6.4-10.8-.8.6-1.3.9-1.7 1.3-13 13-25.9 26-38.9 39-22 22-44 44-66 66-16.3 16.2-32.5 32.6-48.9 48.8-3.7 3.6-6.5 7.1-5 12.7.4 1.6.5 3.6-.4 5.3-1 2.3-.5 4.7-.3 8.2m-409-633c51-51 101-102 152-152-5-2.5-9.7-.6-13.9-2-3.1-1.1-4.8.1-6.8 2.2-20 20-40 40-60 61-20 20.3-40.5 40-60.7 60.8-3.8 3.8-9.3 6.7-10.7 11.8-1.4 5.2-.4 11.2-.4 16.8.1.4.2.7.6 2.3m471 247c-.7.5-1.4.9-1.9 1.4-11 10.8-22 21.6-32.9 32.5-23.7 23.8-47 47.7-71 72-14 14.2-28.4 28-42.6 42-17.7 17.7-35.5 35-53 53-4.4 4.4-8.6 8.9-13 13.3-1.2 1.2-1.8 2.7-.6 3.6 3.2 2.4 4.9 6.4 8.4 8.6 5.8-5.7 11.5-11.3 17-17 25.9-25.8 51.8-51 78-77 19.9-19.8 39.7-39.8 60-59.7 17-17.2 34-34 51-51.6 2.6-2.6 7-4.6 7-8.5 0-3.8-2.6-7.5-4.5-11-.1-.4-.7-.7-1.2-1.2m11.3 31.4c-2.4 2.8-4 4.9-5.8 6.7-58 59-117 117-175 176-9.4 9.4-18.8 18.7-28 28-1.3 1.3-3.7 2.3-2.7 4.9 1.6 4.1 2.3 8.7 5.3 12.4.8-.5 1.4-.8 1.8-1.2 16-16.2 32-32.4 48-48 20.4-20.4 40.9-40.6 61-61 25-25 50-50 75-75 7.5-7.5 15-14.8 22.6-22.3 2.3-2.2 4.3-4.4 2-8.2-1.8-2.9-2.4-6.4-4.1-11.2m-253 228c-.1-.1-.7.3-.8.6-.2.3-.3.5-.3.7-2.7-1.1-4.9 1.3-6.8 2.5-5.4 3.4-10.9 5.6-17.2 6.2-3 .3-5.5 1.8-7.8 4.1-5.6 5.7-11.4 11.2-17 16.9-.8.7-1.9 1.5-1.2 3 7.2-1.6 14.4-3.2 21.6-4.8 2.5-.5 4.2-2.2 5.9-3.9 7.8-7.8 15.6-15.5 23.5-23.3h.2c-.1 0-.1-.1-.2-.1 0-.7 1-1.2.1-1.9m228-288c-1.4 1.2-2.2 1.8-2.9 2.5-16.2 16.2-32 32.4-48 49-18.3 18.3-36.6 36.6-54.9 54.9-17.9 17.9-35.7 35.8-53.6 53.6-21.3 21.3-42.6 42.5-63.9 63.8-6.8 6.8-6.8 6.7 1.4 10.9 2.6 1.3 4.7 1.9 6.6-1.1.6-1 1.7-1.7 2.6-2.5 38-37.9 75.9-75.9 114-114 33-33 66-66 99-99 7.1-7.1 7.1-7.1 1.5-15.8-.4-.6-.7-1.1-1.3-2m-203 296c.9-1.7.4-3.1-1-4.2-1.7-1.4-2.5.1-3.4 1-5.2 5.2-10.4 10.4-15.5 15.6 7.4-.8 13.2-4.8 18.5-9.8.7-.6.9-1.7 1.4-2.6m241-204c-1.6.1-2.3.8-3 1.5-21.9 22-43.7 44-66 66-24.3 24.3-48.8 49-73 72.8-12.8 12.7-25.5 25.4-38 38-11.4 11.5-22.8 23-34 34.5-1.3 1.3-2.5 2.7-2.5 4.6-.1 6.9-3 13-4.8 19.6-1.1 1.9-2 3.9-3.6 5.5-5.1 5.2-10.6 9.3-18.2 10.5-6.8 1.1-12.8 4.3-18 8.9 7.3-.4 14-3.6 21-3.6 1.3 0 2.1-1.1 2.9-2 5.5-5.7 11-11.4 16.7-17 1.2-1 2.5-2 3.6-3.2 18.3-18.2 36.6-36.5 54.8-54.8 39.6-39.7 79-79 119-119 14.4-14.4 28.9-28.9 43-43 1.2-1.2 3.3-2.3 2.9-4.3-1.1-5-1.2-10.2-3-14.8m-260 216v-.4c0 0 0 0 0 0l-.1.1c0 0 0 0 0 0l.1.3m-119 8.4c3.5-4 7.9-7.1 11.3-12.2-4.4-2-8.8-3.6-11-7.4-8.9 8.9-17.8 17.8-26.7 26.7 3.6 3.2 8.2 2.2 12.4 2.8 2.8.4 4.9-.5 6.8-2.8 2.1-2.6 5-4.6 7.2-7.1m-44-367c-18.5 18.6-36.7 36.9-54.9 55-24.9 24.9-49.8 49.8-75 75-20.6 20.7-41 41-61.9 62-1.8 1.8-2.9 3.8-3.9 5.9-2.9 6.8-5.7 13.6-8.8 20.4-1 2.1-2.6 3.9-2.7 5.9 72-72 144-144 217-217-3.9-.9-6.1-4.4-9.9-7.2m-234 276c-8.9 11.6-18.2 23-25.8 35.5-2.7 4.4-5.6 8.8-6.2 14 .3.3.7.6 1 1 12-11.8 24-23.4 36-35 19.4-19.4 38.7-39 58-58 25.8-25.8 51.8-51 78-77 19.6-19.6 39-39 59-58.9 21.5-21.6 43-43 65-64.8 4.2-4.2 4.1-4.2-.6-7.1-1.3-.8-2.8-1.8-3.7-3-2-2.5-3.4-2.4-5.6-.1-10.5 10.7-21.3 21-32 31.7-19.4 19.3-38.8 38.7-58 58-23.7 23.8-47 47.7-71 71-13 13.2-26.3 26.4-39.5 39.5-11.2 11-22.5 22-33.7 33-6.7 6.8-14 12.9-19.7 20.3m218-285c-7.8 2.3-14.6 4.5-21.5 6.2-3.8.9-6.9 2.3-9.8 5.2-39 39.5-79 78.9-118 118-2.4 2.4-3.9 4.9-4.3 8.3-.7 6-2.8 11.5-5.8 16.9-1.5 2.6-3.7 5.2-3.5 8.5 54-54 109-109 163-163m160-310c-30 30-60 60-90 90-34.6 34.6-69 69-104 104-3 3.1-8.4 5.5-8.2 9.6.2 3.9 4.1 7.6 6.8 12 71-71 142-142 213-213-4.2-1.5-7.7-2.2-10.4-3.9-3.3-2.2-5-1-7.5 1.4m-23.4-11.6c-4.8-.3-9.2 1.2-12.6 4.5-19.7 19.5-39 39-58.8 58.7-30.5 30.5-60.9 61-91 92-8.5 8.5-17 17-25.5 25.5-1.2 1.2-3 2.3-2.1 4.5 1.5 3.9 1.1 8.3 3 12.4 1.5-.1 2.2-.8 3-1.5 32-32 64-64 96-96 30.5-30.5 61-61 92-92 2-2 6.2-3.8 4.8-6.6-1.3-2.6-5.5-.8-8.4-1m-196 337c-6.6.3-12.5 2.7-18.7 4-4.1.8-7.4 2.7-10.3 5.7-17.5 17.6-35 35-52.8 52.6-1 1-2.3 2-2.7 3.2-2.6 8.5-5 17-7.5 25.6.3.2.7.5 1 .7 30.6-30 60.9-60.8 91-92m264-310c-1.4-1.1-2.9-2.2-4.4-3.2-5-3.5-5-3.5-9.3.6-.1.1-.3.3-.4.4-9.9 11-20.8 21-31 31.7-15.3 15.3-30.7 30.6-46 45.9-17.9 17.8-35.6 35.9-53.6 53.6-4.1 4-7.9 8.3-12 12.7.8.2 1.2.5 1.5.4 7.8-3.1 15.7-6 24-7.2 1.7-.2 2.8-1.4 3.9-2.6 10-10 20-20 30-30 11.2-11.2 22.5-22 33.7-33.4 17.8-17.8 35.7-35.6 53-53 4.1-4.2 8.8-7.9 12.2-13-.8-1-1.2-1.7-1.8-2.2m-100 741c13.3-2.2 25.6-6.3 33.9-18 .6-.8 1.5-1.3 2.2-2 .5-.6 1.1-1.2.5-2.5-5.1-.2-10.4-.4-15.8-.6-1.5-.1-2.6.6-3.7 1.6-7.3 7.1-14.7 14.2-22.8 22 3.2.7 4.4-.2 5.7-.5m15.4-88c.9-.9 2.4-1.5 2-3.8-4.9 0-9.9 0-14.8 0-1.8 0-2.8 1.2-3.9 2.4-7.3 7.3-14.8 14.5-22 22-2.1 2.2-5.1 3.8-6.3 7.7 5.9.6 11-.8 16.2-.9 2.1 0 3.2-1.5 4.4-2.7 8.1-8.3 16.2-16.5 24.4-24.7m19-153c1.7 1.9 3.3 1.9 5.1.2 3.3-3.2 6.5-6.5 9.8-9.7 1.5-1.4 1.7-3 .9-4.9-1.6-3.6-3.3-7.1-6.1-10.3-6 6.1-11.8 11.9-18.2 18.4 3.5 1.7 6.2 3.7 8.5 6.3m242-165c-2-1.6-3.6-1.7-5.6.5-4.9 5.3-10 10.3-15.2 15.4-13 13-26 26-39 39-17 17-34 34-51 51-17.4 17.4-34.9 34.6-52 52-20.4 20.4-40.7 40.8-61 61-4.9 4.9-10.2 9.4-14.7 15.3 3.3 1.3 6.3 2.5 9.2 3.7 4.8 2 4.8 2 8.4-1.6 68-68 135-135 203-203 9.1-9.1 18.2-18 27.3-27-1.8-4.1-5.7-5-8.4-7.3m-306 407c3.6-4.2 7.8-8 11.8-12 3.2-3.2 6.5-6.4 9.7-9.6-.2-.4-.4-.7-.6-1.1-6 0-12.3-1.1-17.9.3-4.5 1.2-7.5 6.3-10.9 9.9-.3.3-.7.4-1 .7-3.6 4.2-8.2 7.4-11.4 12 3.7 2.2 7.6 2.2 11.3 2.9 3.6.8 6.5-.1 9-3.1m-7.4-186h-.1c.1.1.2.2.3.2.1.3.1.8.6.3 1.2.4 2.4-.4 3.6-.7 4.8-1.2 9.6-3.4 14.6-2.7 3.3.4 5.2-.5 7.2-2.6 4.7-4.9 9.5-9.6 14.3-14.5.8-.8 2.2-1.7 1.4-3-1.7-2.8-4-5.1-7.3-5.8-2.6-.6-4.9-1-7.5 1.6-8.7 9.3-18 18.2-27 27m274-231c-4.9 5-9.9 9.9-14.8 14.9-15.5 15.6-31 31-46.6 46.9-20.7 20.7-41 41-62 61.9-16 16-32 31.9-47.9 48-6.2 6.2-12.9 12-18.4 18.9 1.8 2.8 4.8 3.8 7.3 5.4 4.3 2.7 4.3 2.8 7.8-.5.6-.6 1.2-1.1 1.7-1.7 18-18 36-36 54-54 37.6-37.6 75-75 113-113 8.5-8.5 16.9-17 25.9-26-4.1-1.2-7.2-1.9-10.2-2.9-3.9-1.4-7-.5-9.8 2.4m-292 292c-1.6 2-1.4 3.7.9 3.8 5.6.3 11.8.7 16.5-1.7 5.4-2.8 9.6-8 13.2-13.6-3.6.9-7.1 1.3-10.6 1.4-8.2.3-14.9 3.6-20 10m167-602c-1.5 1.6-3.2 3.1-4.7 4.6-10.7 10.9-21.3 21.8-32 32.6-22.7 22.6-45.5 45-68 68-2.9 2.9-5.7 5.9-9 9.3 6.5 0 12 0 17.6 0 1.5 0 2.7-.5 3.8-1.5 2.1-1.9 4.2-3.7 6.2-5.7 13.4-13.3 26.7-26.6 40-40 20-20.3 40-40.6 61-61.8-4.6-1.6-8.5-3.3-11.8-5.8-1-.8-2-.5-3 .6m88 303c-19.9 20-40 40-60 60-18.2 18.2-36 36.4-54.6 55-2.3 2.3-3.9 4.7-4.3 8.2-.6 5.3-1.3 10.7-3.7 15.6-.5 1-.5 2.4.4 4.2 48-47 95-95 142-142-2.4-2.6-5.6-1.9-7.9-3.2-5-2.7-8.4-1.1-12 2.7m-45.8-216c-14.9 14.8-29.7 29.7-44.6 44.5-7.9 7.9-15.5 16.2-23.8 23.8-1.2 1.1-3.2 2.5-2.4 4.5 1.7 4.2 2.7 8.8 5.9 12.2 10.8-10.7 21.5-21.3 32-31.9 14.3-14.3 28.7-28.6 43-43 1.1-1.1 2.9-2 3-3.7.1-5.7-.5-11.3-2-17.6-4.1 4.2-7.7 7.7-11.2 11.2m-15.5-70c-33.8 33.9-68 68-102 102 3.8 1.8 6.8 3 9.6 4.6 3.2 1.8 5.3 1 7.8-1.6 27.3-27.5 54.7-54.8 82-82 3.1-3.1 8.1-5.6 8.4-9.7.3-3.9-2.8-8.1-4.5-12.2-.1-.2-.5-.4-1.1-1.2m15 30c-1.9.4-2.9 2-4.2 3.2-4.3 4.2-8.5 8.5-12.7 12.8-21.4 21.4-42.9 42.7-64 64-5.8 5.8-5.8 5.8-.5 11.7.9 1 1.4 2.5 2.9 2.9.9-.1 1.4-.7 2-1.3 25.5-25.4 51-50.9 77-76 7.8-7.8 7.8-7.9.7-16.8 0-.1-.3-.2-.5-.3m13 71.8c-16.4 16.4-32.8 32.9-49 49-5.8 5.8-11.7 11.5-17.4 17.4-1.2 1.2-3.4 2.3-2.3 4.4 2.1 4.1 2 9 4.7 12.9 12.7-12.6 25-24.8 37-37 9.2-9.1 18.4-18.3 27.5-27.5 1.3-1.3 3.2-2.6 3.3-4.1.4-6 1.6-12-.5-18.6-1.5 1.3-2.5 2.1-3.5 3.1m.6 172c-9.1 9.2-18.3 18.4-27.5 27.6-15.8 15.9-31.6 31.7-47 47.6-7.3 7.4-15.2 14.2-21.8 22.3-.4.4-1.7.5-.7 1.4.4.3 1.1-.1 1.1-.8 1.8.3 3.1-.8 4.5-1.5 5-2.3 9.6-3.2 12.8 2.7 12.7-11 95-94 97-98-4.1-2.3-8.8-2.1-13.3-2.9-2-.3-3.6.6-4.9 2m-187 469c1.7-1.7 3.3-3.5 5.5-5.9-6.4 2.1-12 1-17.6 1.8-3.3.4-5.5 1.5-7.7 3.7-11 11-22 22-33 33-21.3 21.3-42.5 42.6-63.7 63.9-8.9 8.9-17.8 17.8-26.7 26.8h20c19.6-19.6 39-39 58.9-58.8 21.5-21.6 43-43 65-65m-40.7-3.5c1.2-1.2 3.1-2 2.8-4.4-2.9-.7-5.9-1.2-8.7-2.1-4.8-1.6-8.2-.1-11.6 3.5-14.4 14.7-28.9 29-43.5 43.8-12.4 12.4-25 24.7-37.5 37-11.7 11.8-23.3 23.6-35 35-4.6 4.5-9 9.1-13.5 13.7h20c12.2-12.2 24.4-24.4 36.6-36.7 30-30 60-60 90-90m59 28c8.8-8.5 17-17.5 26-25.7 3.9-3.5 8.1-6.9 11.3-12.2-6.9 1.2-12.9 2.7-19 3.3-3.3.3-5.5 1.5-7.7 3.7-32 32-64 64-97 97-11 11-22 22-33 33h20c19.9-20 39.9-39.9 59.8-59.8 13-13 26-26.3 39-39m-254-6.1c.9-.9 2-1.7 2-2.9.1-6.1 0-12 0-18.5-2.6 1-3.7 2.5-5 3.8-31.8 31.8-64 64-95 95-9.1 9.1-18 18-27 27h20c20-20 40-40 60-60 15-14.9 30-29.9 45-44.8m161-32c-3.8-1.1-7-2.1-9.9-3.8-2.4-1.4-4-.6-5.8 1.2-20.3 20.5-40.6 40.9-61 61-17.4 17.4-34.9 34.7-52 52-8.7 8.7-17.4 17.5-26 26.3h18.3c7.7-7.7 15.5-15.4 23-23 33.7-33.7 67-67 101-101 4-4.1 8-8.2 12.4-12.7m-136 50.7c.7-.7 1.3-1.5.7-2.9-1.4-.1-3-.3-4.5-.2-1.9.1-3.5-.8-5.1-1.5-4.9-2.2-4.9-2.2-8.7 1.6-18.7 18.7-37 37-56 56-11 11-22 22-33 33h20c14.7-14.7 29-29.4 44-44 14.2-14 28.4-28 42.6-42m347-85c11.9-11.9 23.8-23.9 35.8-35.8 1.2-1.2 2.9-2.3 2.6-4.4-.6-5.1-.8-10.2-2-15-1.1-.2-1.6 0-2.1.4-12.2 12.2-24.3 24.4-36.5 36.5-1.6 1.6-2.2 3.2-1.6 5.4 1.4 4.5.2 8.5-3 11.6-7.5 7.1-15 14.2-24.9 18.3-6.4 2.7-12.6 5.8-17 11.6-1.6 2-3.6 3.7-5.5 5.6-14.4 14.2-28.8 28.4-43 42.6-17 17-34 34-51 51-14.6 14.6-29 29-43.7 43.8h20.4c6.1-5.9 11.8-12.2 17.8-18.2 21.6-21.5 43-42.8 64.8-64 30-29.7 60-59 89-89m-301 83c2.2-2.2 5.1-3.9 6.3-7.4-9.8-2.3-18-2.2-25.7 6.1-14.5 15.7-30 30.4-45 45.6-14.6 14.6-29 29-43.6 43.7h20.4c6-5.9 11.8-12 17.8-18 23.4-23.3 46.8-47 70-69.9m588 88h17.8c10.6-10.6 21-21 31.7-31.8v-18c-7.5 7.5-15 15-22.5 22.6-9 9.1-18 18-27 27m-30.7-13.7c-4.5 4.5-9 9.1-13.4 13.7h17.7c20-20 40-40 60-60 5.3-5.3 10.6-10.6 16-15.9v-17.7c-13.8 13.7-27.5 27.4-41 41-13 13-26 26-39 39m-219-153c1.2-1.2 3-2.1 3-4.2 0-4.9 0-9.8 0-16-6.1 5.8-11.2 10.4-16 15.3-19 19.3-38 38.8-58 58-20.7 20.6-41 41.5-62 61.9-17.7 17.2-35 34.9-52.6 52h18.6c.1-.1.1-.1.2-.2 45-45 90-90 135-135 10.6-10.6 21.3-21 31.8-31.9m49.6 82c-1.5-.7-2.4-.1-3.4.1-4.1.9-4.2.7-4.5-3.6-.1-2.4.6-5-.6-7.3-1.9.4-2.7 1.6-3.7 2.6-12.8 12.9-25.6 25.9-38.5 38.8-18.3 18.3-36.7 36.4-55 54.7h20.4c23.4-23.3 46.7-46.6 70-69.9 5.1-5.1 10-10.2 15.2-15.4m-68-19.7c1.5-1.5 4-2.7 3.2-5.4-1.4-4.6-.4-9.1.1-13.7.9-2.1 1.8-4.2 2.7-6.3-.2-.1-.4-.3-.6-.4-1.1 1.2-2.2 2.5-3.3 3.7-.5.3-.9.6-1.4.9 0 0 .2-.2.2-.2-.4.5-.7 1-1.1 1.4-13 13-25.9 26-39 38.9-12.3 12.3-24.8 24.3-37 36.7-11.8 11.9-23.5 23.8-35.5 35.6-4.6 4.5-9 9-13.4 13.6h20.4c1.9-1.8 3.8-3.6 5.7-5.5 19.5-19.5 39-39 59-58.7 13.3-13.4 26.9-27 40.5-40.6m34 9.5c-5.4-.8-9.8.2-14-.2-4.6-.4-7.4 1.6-10.4 4.6-21 21-42 42-63 63-9.2 9.2-18.4 18.3-27.5 27.6h20c6.9-6.8 13.9-13.7 20.7-20.5 20.7-20.6 41-41 62-61.9 3.9-4 7.7-8.2 12.3-13m-304-43c4.2-4.3 8.7-7.9 12.3-12.8-3.3-1.9-6.1-4.1-8.5-6.7-1.2-1.4-2.6-1.9-4.1-.4-4 4.4-8.8 7.9-12.5 13 5 1.2 9.4 2.9 12.8 6.8m-273 56c22.5-22 44.6-44.9 67-67 22.4-22.4 44.9-44.6 67-66.9 21.5-21.5 42.9-43 64-65 23.8-23.8 47.7-47 72-71 16-16 32-32 48-48 13.2-13.2 26.4-26.3 39.6-39.5 4.9-4.9 10.4-9.5 9.9-17.6-.1-1 .3-2 .7-2.9 2.7-8.4 7.5-11 16-9 1.3.3 2.1.7 3.1-.4 5-5.4 10.8-10.2 15.7-16.5-6.2 1.4-11.8 2.9-14.6-4.7-1.5 1.4-2.6 2.2-3.6 3.2-31.4 31-62.7 62.7-94 94-39 39-78 79-118 118-33 33-66 66-99 99-40.7 40.7-81 81-122 122-18.2 18.3-36.6 36.5-54.9 54.7h20.6c27.5-27.4 54.8-55 82-82m248-78.9c.1.7.2 1.5.5 3.2 5.7-5.7 10.8-10.9 16-16 .7-.8 1.1-1.7.8-2.8-1.2-4.6-2.4-9.1-3.7-14.3-5.2 5.2-10.8 9.2-14 14.7-2.7 4.3.2 10 .5 15.3m-153 70c20.7-20.7 41-41 62-62 1.4-1.4 2.9-2.8 3.7-4.7 2.6-6.4 6.6-11.9 10.7-17.4 7.7-10.3 15.7-20.3 22.4-31 6.1-7.2 12.6-14 19.7-20 7.4-4.8 14.7-10 23-12.5 8.3-2.4 14.4-7.5 20-13.6 7.2-7.8 15.4-14.6 21.3-23.7 2.5-3.9 6.1-7 10-9.5 4-2.5 7.4-5.5 10.6-8.8 20.7-20.7 41-41.5 62-62 7.1-7.1 14.4-13.9 21.7-20.9-3.6-4.5-5.2-8.9-6.7-13.9-1.4 1-2.3 1.5-3 2.1-10.6 10.6-21 21.4-31.6 32-21.6 21.6-43 43-65 64.8-15.8 15.8-31.6 31.7-47 47.6-5.6 5.7-11.7 10.8-16.8 17-2.5 1-3.9 3.4-5.5 5.2-4.4 4.8-9.7 8.7-13.5 14-.5.3-1.2.4-1.6.8-18.5 18.5-37 37-55 56-22 22-44 44.5-66 67-12.3 12.3-24.8 24.4-37 36.8-11.8 11.9-23.6 23.9-35.6 35.6-4.6 4.5-9 9.1-13.4 13.7h20c12-12 24-24 36-36 18.4-18.4 36.8-36.8 55-55m160-118c-5-.5-5 3.4-6.1 6.3 2.4-1.7 5.4-2.8 6.1-6.3m-89 2.3c30.5-30.5 60.9-61 91-91 22-22 44.5-44.5 66.8-67 14.7-14.7 29.4-29.5 44-44 1.7-1.7 3-3.2 2.5-5.7-.8-3.8-1-7.8-2.7-11.3-1.8-.1-2.3 1.2-3.1 2-24.4 24.3-48.8 48.6-73 73-36 36-72 72-108 108-36 36-72 73-109 109-34 34-68 69-103 103-10.4 10.5-20.8 21-31 31.5h18.5c.1-.1.1-.1.2-.2 34-34.4 68-69 103-103 34.5-34.6 69-69 104-104m557 207h19.3c3.4-3.4 6.8-6.7 10.2-10 35.9-35.8 72-72 108-107v-19.6c-35.5 35.6-71 71-107 107-10.3 10.2-20.4 20.4-30.5 30.5m-17-27c-9.1 9.1-18.2 18-27 27h19.5c5.7-5.7 11.4-11.4 17.2-17 33.9-33.9 68-67.8 102-102 14.3-14.3 28.7-28.7 43-43v-19.4c-14.7 14.7-29.4 29.4-44 44-36.7 36.7-73 73-110 110m52.6-182c-19 19-38.5 38-57.8 58-17 17-33.9 34-50.9 51-16.4 16.4-32.8 32.8-49 49-12.8 12.7-25.6 25.3-38 38-4.5 4.5-9 9.1-13.4 13.7h20c58-58 117-117 175-175 35.6-35.6 71-71 107-107 2.9-2.9 5.8-5.8 8.7-8.7v-20.4c-13.8 13.7-27.6 27.5-41 41-19.8 20-39.8 40-59.9 60m-90 178c-10.4 10.5-20.9 20.9-31 31.4h17.6c12.4-12.4 24.8-24.7 37-37 26.8-26.8 53.6-53.6 80-80 27.4-27.4 54.8-54.8 82-82 1.8-1.8 3.6-3.6 5.4-5.4v-17.6c-32 32-64 64-96 96-31.5 31.9-63 63.7-95 95m61-105c-15.3 15.3-30.8 30.5-46 45.8-21.3 21.3-42.5 42.6-63.7 63.9-8.9 8.9-17.8 17.8-26.7 26.8h17.7c12.4-12.5 24.8-24.9 37-37 31.8-31.7 64-63 95-95 38.9-38.9 78-77.9 117-117v-17.7c-16.2 16.2-32.5 32.5-48.7 48.7-27.3 27.3-54 55-82 82m130 137v-5.4c-1.8 1.8-3.6 3.6-5.4 5.4h5.4" style="fill:#090606"/>
</svg>
