<svg xmlns="http://www.w3.org/2000/svg" width="1663" height="757" viewBox="0 0 1663.3 756.7" style="enable-background:new 0 0 1663.3 756.7">
 <rect x="1.3" y="1.1" width="1660" height="756" style="fill:#fbc411"/>
 <path d="m965 535c0 3.3 0 6.6 0 9.8 0 0-.1.1-.1.1-6.4 6.4-12.8 12.9-19.3 19.4-.6-2.6-1.4-5.2-2.3-7.7 5.3-5.3 10.7-10.6 16-15.9 2-2 3.9-3.9 5.7-5.7m-56.7 25.5c-2-1.2-4-2.4-6-3.6-14.5 14.5-29 28.9-43.5 43 0 3.2 0 6.5 0 9.7 8.6-8.6 17.2-17.3 25.9-25.9 7.7-7.8 15.6-15.7 23.6-23.6m152 22c-1.8 1.8-3.6 3.6-5.5 5.5 2 1.2 3.8 2.6 5.3 4.2 7-7 13.9-13.9 20.9-20.9.5-4.2 1.4-8.4 2.7-12.4-.3.3-.6.6-.9.9-7.4 7.5-14.9 15-22.5 22.7m-178-37c-2.1-1.3-4.3-2.5-6.4-3.8-5.9 5.8-11.7 11.7-17.6 17.5 0 3.4 0 6.9 0 10.3 3.9-3.9 7.8-7.8 11.7-11.7 4.1-4.1 8.2-8.2 12.3-12.3m118 55.9c1.2 2 2.4 4.1 3.5 6.1 3.4-3.4 6.8-6.9 10.3-10.3 3.2-3.2 6.4-6.4 9.6-9.6 0-3 0-5.9 0-8.9 0-.2 0-.5 0-.7-6.5 6.4-13 12.9-19.4 19.3-1.3 1.5-2.6 2.8-4 4.1m19.5-71c-1.3-.4-2.7-.2-4 .6-1.4.8-2.8 1.6-4.2 2.4-3.8 2.2-7.5 4.3-11.3 6.5-7.5 7.6-15 15-22.6 22.7 1.2 2.1 2.4 4.2 3.7 6.3 9.7-9.7 19.4-19.4 29-29 3.1-3.2 6.2-6.3 9.3-9.4m-56 56c0-2.4 0-4.8 0-7.2 0-.9 0-1.8 0-2.7-6.7 6.7-13.4 13.4-20 20-2.1 7.2-5.4 13.9-9.7 19.7 10-9.9 19.9-19.9 29.9-29.9m60 20.9c0-3 0-6 0-9-4.8 4.7-10.3 10.2-16.2 16 1.1 1.9 2.2 3.8 3.3 5.6 4.2-4.1 8.6-8.4 12.9-12.6m-.5-38.9c.2-.2.3-.3.5-.5 0-3.3 0-6.5 0-9.8-5.3 5.3-10.5 10.5-15.8 15.8-5 5-10 10-15 15 1.2 2 2.3 4 3.5 6.1 8.9-8.9 17.9-17.8 26.9-26.7m97-15.9c3.8-3.8 7.7-7.7 11.6-11.5-1-.6-1.9-1.1-2.9-1.7-1.1-.6-2.1-1.3-3.2-1.9-3.2 3.2-6.5 6.5-9.7 9.7 0 3.2 0 6.4 0 9.6 1.5-1.4 2.9-2.8 4.2-4.2m-294 49c-1-2.5-1.8-5.1-2.5-7.8-6.5 6.6-13 13-19.6 19.7 0 3.4 0 6.8 0 10.2 5.4-5.4 10.8-10.7 16-16 2-2.1 4-4 6-6m94-12c4.2-4.1 8.3-8.3 12.5-12.4-.4-.9-1-1.8-2-2.5-.4-.3-.8-.5-1.3-.8-.7-.4-1.5-.9-2.2-1.3-9 9-18 18-27 27-1.5 1.5-3.1 3.1-4.6 4.6 2.3-1.4 4.5-2.7 6.8-4.1 5.9-3.6 11.8-7.2 17.8-10.7m-298-28.9c0-3.6 0-7.2 0-10.8-3.4 3.4-6.9 6.8-10.3 10.3-3.6 3.6-7.2 7.3-10.9 10.9 0 3.6 0 7.1 0 10.7 7.1-7.1 14.2-14 21-21m378 10.9c8.2-8.2 16.3-16.3 24.5-24.5 0-3.2 0-6.4 0-9.6-9.4 9.4-18.9 18.8-28 28-3.4 3.4-6.7 6.8-10 10.2 1.2 2 2.4 4.1 3.5 6.1 3.5-3.5 6.9-7 10.4-10.4m-53 2c.2 1.8.2 3.7.2 5.5 0 1.5-.1 3-.2 4.4 5.9-5.9 11.9-11.8 17.9-17.8 0-3.4 0-6.8 0-10.2-.9.9-1.7 1.7-2.6 2.6-5.1 5.3-10.2 10.4-15.3 15.5m-447 27.6c3.9-3.9 7.8-7.8 11.7-11.8-1.2-2.1-2.4-4.3-3.6-6.4-2 2-3.9 3.9-5.9 5.9-6 6-12 12-18 18-.5.5-1 1-1.5 1.5 0 3.3 0 6.6 0 10 5.9-5.8 11.7-11.6 17.4-17.3m44.5 37.6c5.4-5.4 10.8-10.8 16.3-16.3 0-3.5 0-7 0-10.6-2.6 2.6-5.2 5.2-7.8 7.8-4.5 4.5-8.9 9-13.4 13.4-.1 1.5-.3 2.9-.6 4.3-1.1 4.7-3 9-6 12.8 3.7-3.7 7.6-7.5 11.5-11.4m16.2-36.7c0-3.7 0-7.3 0-11-2.3 2.3-4.9 4.9-7.8 7.8-4 4-8.5 8.4-13.3 13.2 0 3.7 0 7.4 0 11 5.2-5.2 10.5-10.5 15.7-15.7 1.8-1.8 3.6-3.6 5.4-5.4m-78-4.2c.6-.6 1.2-1.2 1.9-1.9 6.6-6.6 13.2-13.2 19.9-19.8-.4-.8-.8-1.5-1.3-2.3-.8-1.4-1.6-2.9-2.4-4.3-1.4 1.4-2.7 2.7-4.1 4.1-4.7 4.7-9.3 9.3-14 14 0 .7 0 1.4 0 2.1 0 2.7 0 5.4 0 8.1m340-12.5c-.2-2.2-.4-4.5-.3-6.8 0-.9 0-1.8.1-2.6-5.9 5.9-11.9 11.9-17.9 17.9 0 3.2 0 6.3 0 9.5 6-6 12-12 18-18m-159-12.8c0 2.8 0 5.6 0 8.5 11-11 22.3-22 33.4-33 .7-.7 1.4-1.4 2.1-2.1 0-3.2 0-6.5 0-9.7-3.8 3.8-7.6 7.6-11.4 11.4 0 0 0 .1 0 .1.9 3.6-.7 7.4-4 9.2-1.1.6-2.2 1.2-3.4 1.8-2.8 1.5-5.6 3-8.4 4.6-2.8 2.8-5.6 5.6-8.4 8.4.1.3.1.7.1 1.1m-62 24c0 1.9 0 3.7 0 5.6 7-7 14-14 21-21 0-2 0-3.9 0-5.9 0-1.7 0-3.3 0-5-7 7-14 14-21 21 0 1.8 0 3.5 0 5.3m-40.9-15.4c0-3.3 0-6.7 0-10-1 1-1.9 1.9-2.9 2.9-1.6 1.6-3.3 3.3-4.9 4.9-4.4 4.4-8.9 8.8-13.3 13.3 0 3.4 0 6.7 0 10 1.7-1.7 3.3-3.3 5-5 5.4-5.4 10.7-10.8 16-16.2m194 11.5c-3.2 0-6.4 0-9.6 0-3.4 3.4-6.8 6.8-10.2 10.2 0 3.2 0 6.4 0 9.6.4-.4.7-.7 1.1-1.1 6.3-6.3 12.5-12.5 18.7-18.7m105-52.7c0 .6 0 1.3 0 1.9 0 2.6 0 5.3 0 7.9 4-4 7.9-7.9 11.7-11.6-1-.6-2.1-1.2-3.1-1.8-.6-.3-1.2-.7-1.8-.9-.8-.3-1.6-.3-2.4-.2-1.4 1.4-2.8 2.8-4.3 4.3-.1.1-.1.3-.1.4m-54 40c0 .9 0 1.8 0 2.7 3.9-3.9 7.9-7.9 11.8-11.8 2.7-2.7 5.3-5.4 8-8 1.6-6 4-11.7 7.2-16.9-9 9-18 18-27 27 .1 2.3.1 4.6.1 6.9m-108-12.2c.7-.7 1.4-1.4 2-2 0-3.2 0-6.5 0-9.7-5.4 5.4-10.7 10.7-16 16-6.5 6.4-12.9 12.9-19.4 19.3 0 3.2 0 6.4 0 9.6 11.2-11 22.3-22 33.5-33m2 18.6c0-3.3 0-6.7 0-10-7.6 7.7-15.2 15.3-22.9 23-4.2 4.2-8.4 8.4-12.6 12.6 0 3.3 0 6.6 0 10 4.9-5 9.8-10 14.7-14.9 7-6.9 13.9-13.8 20.8-20.7m52.6-21.7c3.3 0 6.6 0 10 0 2.6-2.6 5.3-5.3 7.9-7.9 0-3.3 0-6.7 0-10-6 6-12 12-17.9 17.9m-13.8-6.7c-2.3 2.3-4.5 4.5-6.8 6.8 3.4 0 6.8 0 10.2 0 2.3-2.3 4.7-4.7 7-7 7.1-7.1 14-14.2 21-21.3 0-2.9 0-5.7 0-8.6 0-.5 0-1 .1-1.6-10.6 10.6-21 21-31.7 31.7m158-5c-2.1-1.2-4.2-2.5-6.3-3.7-2.8 2.8-5.5 5.5-8.3 8.3-7.4 7.4-14.7 14.7-22 22 0 3.4 0 6.7 0 10 2.3-2.3 4.6-4.6 6.8-6.8 10-10 20-20 29.9-30m41-9.8c1.3 1.9 2.5 3.9 3.6 6 1.6-1.6 3.3-3.3 4.9-4.9 5.7-5.7 11.5-11.4 17.3-17.2 1.3-1.3 2.6-2.6 3.9-3.9.7-1.3 1.9-2.5 3.3-3.2 6-5.9 11.9-11.9 17.8-17.9 2.4-2.4 5.1-4.5 7-7.4h-9.7c-.1.9-.8 1.2-1.3 1.7-8.6 8.6-17.2 17.3-25.9 25.9-7 7-14 14-20.9 20.9m-4.7-6c14.2-14.2 28-28.4 42.5-42.5h-10.2c.1.7-.4 1-.8 1.4-1.7 1.7-3.4 3.3-5.1 5-10.4 10.4-20.8 20.9-31 31 1.7 1.5 3.3 3.1 4.8 4.8m-17-13.5c2.1 1.2 4.2 2.4 6.2 3.8 11-11 21.9-21.9 32.9-32.9h-10.2c-3.9 4.4-8.2 8.4-12.3 12.5-5.7 5.6-11.2 11-16.6 16.6m66-4.8c3.4 0 6.8 0 10 0 4.3-4.3 8.6-8.5 12.8-12.9 3.7-3.8 7.7-7.3 11-11.3h-10.2c-.1.6-.6 1-1 1.4-6.9 6.9-13.8 13.7-20.7 20.6-.6.7-1.3 1.4-2.1 2.2m69 1.6c.1 0 .2.1.4.1 8.7-8.7 17.4-17.3 26-26h-10.2c.1.8-.6 1.1-1 1.6-7.5 7.6-15 15-22.6 22.7 2.4.2 4.9.7 7.3 1.6m-48.7-1.6c3.3 0 6.7 0 10 0 8-8.1 16-16 24-24h-10.2c-.4.5-.8 1.1-1.2 1.5-4.4 4.4-8.8 8.8-13.3 13.2-3.3 3.2-6.4 6.3-9.5 9.5m-267 21.8c-3 3-6 6-9 9-.8 1.4-1.5 2.7-2.3 4.1-.6 1-1.1 2.1-1.8 3.1-1.3 2.2-.8 4.6.7 6.2 6-6 11.9-12 17.9-18 6.9-6.9 13.9-13.8 20.9-20.7 6.1-6.1 12.2-12 18.2-18.3 3.7-3.8 7.7-7.3 11-11.3h-10.2c-.1.6-.6 1-1 1.4-6.9 6.9-13.8 13.7-20.7 20.6-7.8 7.8-15.8 15.9-23.8 23.9m70-8.4c0 3.2 0 6.4 0 9.6 2.8-2.8 5.5-5.5 8.3-8.3 13-13 26-25.9 39-38.9-3.4 0-6.8 0-10.2 0 .1.8-.6 1.1-1 1.6-7.7 7.7-15.3 15.4-23 23-4.5 4.2-8.8 8.5-13 12.9m258-3c.7-.7 1.5-1.5 2.2-2.2 8.3-8.3 16.7-16.6 25-25 2.4-2.4 5.1-4.5 7-7.3h-9.7c-.2 1-1.1 1.5-1.7 2.1-9.2 9.2-18.4 18.4-27.6 27.7 1.8 1.4 3.4 3 4.8 4.8m-264-10.2c2.2.4 4.2 1.8 5.4 3.7 9.3-9.3 18.7-18.7 28-28-3.4 0-6.8 0-10.2 0-.4.5-.8 1.1-1.3 1.5-7.6 7.6-15.2 15-22.7 22.7.2 0 .5 0 .8.1m-21.3-.2c.2 0 .4-.1.7-.1.3 0 .5 0 .8 0 2.9 0 5.7 0 8.6 0 8-8.1 16-16 24-24-3.4 0-6.8 0-10.2 0-.4.5-.8 1.1-1.2 1.5-4.4 4.4-8.8 8.8-13.3 13.2-3.3 3.3-6.4 6.5-9.6 9.6m28 33.7c0 3.2 0 6.5 0 9.7 5.9-5.9 11.7-11.8 17.6-17.7 5.9-5.9 11.8-11.7 17.7-17.6 8.3-8.3 16.7-16.6 25-25 2.4-2.4 5.1-4.5 7-7.3h-9.7c-.2 1-1.1 1.5-1.7 2.1-18.7 18.7-37 37-55.9 55.9m80-36c2.3 0 4.6.1 6.9.3 12.6-12.5 21-20.7 22-22h-10.7c-2.5 2.5-10.4 10.4-21.7 21.7 1.1 0 2.2 0 3.3 0m-32.6 9c5.1-3.1 10.7-5.5 16.5-7 4.7-4.8 9.5-9.5 14.2-14.3 3.1-3.1 6.4-5.9 9.1-9.3h-9.7c-.2.3-.3.7-.5 1-7.9 8-15.8 15.9-23.8 23.9-1.9 1.9-3.8 3.8-5.8 5.7m47-7.3c2.6.6 5.1 1.4 7.6 2.4 8.6-8.6 17-17 25.7-25.7h-10.2c-.4.5-.8 1.1-1.2 1.5-4.3 4.3-8.5 8.6-12.8 12.8-3.1 3.1-6.1 6.1-9.1 9m341 37c.6-.2.9-.6 1.3-1 6.8-7 13.9-13.6 20.7-20.6 8.1-8.3 16.5-16.3 24.7-24.6 1.2-1.2 2.6-2.2 3.3-3.9 1.8-4.4 3.8-8.7 5.6-13 .2-.5 2.4-3.7 1.7-4.3l-1.7 1.9c-4.5 4.5-9.7 9.8-14.2 14.2 0 0-.1.1-.1.1-4.6 4.6-9.2 9.1-13.8 13.7-8 8-15.9 16-23.9 24-9.1 9.1-18.2 18-27.3 27-3.9 3.9-7.9 7.9-11.8 11.9-.2 3.9-.7 7.7-1.5 11.5 5.3-5.2 10.5-10.5 15.8-15.7 7-7.2 14-14.4 21-21.5m-51 27.6c2-1.6 2.9-4.8.7-7.4-5.9 5.9-11.7 11.7-17.6 17.6 5.1-3.1 10.3-6.1 15.4-9.2.5-.3 1-.6 1.5-1m111-117c-1.1.3-1.6 1.1-2.2 1.6-10.5 10.5-20.9 20.9-31.4 31.4-8 8-17.4 17-25 24.7-13 13-26 26-39 39 .1.3.2.6.2 1 .6 2.4 1.1 4.7 1.4 7.1.6-.6 1.2-1.2 1.8-1.8 7.8-7.8 15.5-15.7 23.3-23.5 4.7-4.7 9.5-9.4 14.3-14 .6-.2.9-.7 1.2-1 6.8-6.8 13.6-13.6 20.4-20.4 11.3-11.3 22.6-22.5 33.9-33.8.5-.5.9-.9.9-1.7-.1-2.8.8-5.6.3-8.6m-279 161c1.5-1 2.4-2.4 2.4-4.2 0-.5 0-1.1 0-1.6 0-.6 0-1.2 0-1.9-2.6 2.6-5.2 5.3-7.9 7.9 1.8.9 3.9.9 5.5-.2m103-4.9c5.7-3.4 11.5-6.9 17.2-10.3 1.3-.8 2.5-1.5 3.8-2.3 7.8-7.8 15.6-15.7 23.5-23.5 4.7-4.7 9.5-9.4 14.2-14.2-1.9-1.1-3.8-2.3-5.8-3.4-.1-.1-.2-.1-.3-.2-14 14-28 28-42 42-4.2 4.2-8.4 8.4-12.6 12.6.2 0 .5-.1.7-.2.7-.2 1.2-.5 1.6-.7m17.6-70c1-1 1.9-1.9 2.9-2.9-2.1-1.3-4.2-2.5-6.4-3.8-1.3 1.3-2.5 2.5-3.8 3.8-6.2 6.2-12.5 12.5-18.7 18.7 0 3.4 0 6.7 0 10 8.6-8.7 17.3-17.3 26-25.9m57.9 3.3c2-2 4-4 6-6 12.2-12.2 24.3-24.3 36.5-36.5 10.3-10.3 21.6-21 31.8-31.4 7.8-7.8 15.6-15.7 23.4-23.4 2.2-2.2 4.2-4.2 4.3-7.6 0-1.1.6-2.2.9-3.3.4-1.7 1.4-3.2 1.5-5.3-.5.5-.8.7-1.1 1-19.6 19.6-38.8 38-58 57.8-.8.7-1.5 1.5-2.3 2.2-15.3 15.3-30.5 30.7-45.8 46 1.2 2.2 2.3 4.3 3.2 6.5m-45 4.3c.9-.9 1.9-1.9 2.8-2.8-2.1-1.3-4.3-2.6-6.4-3.8-5.8 5.8-11.6 11.5-17.3 17.3-6 6-11.9 11.9-17.9 17.9 0 3.4 0 6.9 0 10.3 12.9-13 25.9-26 38.8-38.9m22-32c2 1.3 3.9 2.8 5.7 4.3 1.5-1.5 3-3 4.4-4.5 10.2-10.2 20.5-20.5 30.7-30.7-3.4 0-6.8 0-10.2 0-.4.5-.8 1.1-1.2 1.5-4.3 4.3-8.5 8.6-12.8 12.8-5.6 5.6-11 11-16.6 16.6m-41.7-9.9c7-7 14-14 21-21h-10.2c.1.7-.4 1-.8 1.4-7.5 7.5-15 14.9-22.5 22.4 4-1.4 8.1-2.3 12.4-2.8m81-8.5c-9.2 9.2-18.5 18.5-27.7 27.7 1.6 1.7 3.1 3.6 4.6 5.5.4-.4.8-.8 1.2-1.2 13.9-13.9 30-30.6 44-44.5l-10 .5-9.5 9.4c-.9.9-1.8 1.8-2.6 2.6m-60.8 9.3c4.8-4.8 9.6-9.6 14.4-14.4 2.4-2.4 5.1-4.5 7-7.4h-9.7c-.1.9-.8 1.2-1.3 1.7-6.3 6.3-12.7 12.7-19 19 2.8.1 5.7.5 8.6 1.1m-76 24.8c-4.6 4.6-9.2 9.2-13.8 13.8-.3.7-.6 1.4-.9 2.1-3.1 6.4-8 10.9-14.6 13.5-3.7 3.7-7.3 7.3-11 11-.3.3-.6.6-.9.9.6.2 1.2.4 2 .4 2.1.1 4.1.3 6.1.7 28.9-28.4 53-51.7 54.8-54 9.8-9.8 33-32.6 34.4-35-3.4 0-6.8 0-10.2 0 .1.9-31 31.6-45.9 46.6m91-19.5c5.3-5.3 10.7-10.6 16-16 3.6-3.7 7.6-7.1 10.9-11h-10.2c-.2.3-.3.7-.5 1-7.7 7.7-15.4 15.5-23 23 2.3.8 4.6 1.8 6.9 2.9m-105 13.4c.5 1.4.9 2.9 1.3 4.4.2 1.1.4 2.3.5 3.4 13.3-13.3 26.7-26.6 40-40 3.1-3.1 6.4-5.9 9.1-9.3h-9.7c-.2.3-.3.7-.5 1-7.9 8-15.8 15.9-23.8 23.9-5.7 5.5-11.3 11-16.9 16.6m-34-17.3c8.1-8.1 16-16 24-24h-10.2c-.4.5-.8 1.1-1.3 1.5-7.6 7.6-15 15-22.7 22.7 3.3 0 6.6 0 10 0m246 82c9.9-9.8 19.8-19.7 29.7-29.5 7.9-7.9 15.7-15.8 23.5-23.7 9.2-9.2 18.5-18.3 27.7-27.5 7.9-7.9 15.7-15.8 23.5-23.7 9.2-9.2 18.5-18.3 27.7-27.5 9.8-9.9 19.5-19.7 29.4-29.4.6-.6 1.3-1.3 1.5-2 1.1-3.8 3.9-5.9 7.2-7.6.8-.4 1.7-.9 2.4-1.5 2.2-1.8 4.3-3.7 6.6-5.8-2.3-1.9-3.6-3.6-4.9-6.1-2.3 2.5-4.1 4.6-6.1 6.6-25.6 25.6-51 51-76.9 76.9-26.3 26.3-52.6 52.6-78.9 79-5.6 5.6-11 11-16.6 16.7-.7.7-1.8 1.3-1.8 2.4-.1 2.8 0 5.5.1 8.8 2.3-2.4 4.1-4.1 5.9-5.9m171-234c-1.2 1.2-2.3.5-3.4.2-2.8-.8-5.1-.3-6.8 2.2-.2.3-.5.6-.9 1 6.2 2.7 8 1.6 11-3.4m-23 1.4c1.2-.5 2.5 0 3.5-.9 1.5-1.4 3.1-2.7 4.3-4.5-1.5-1.1-3.2-1.7-4.9-2.1-1.4-.4-2.3 0-3.3.9-2.7 2.8-5.5 5.5-8.2 8.2-.4.4-1.2.7-.7 1.7 3.1-1.1 6.3-2.1 9.3-3.3m-121 176c-10 10-19.9 19.9-29.9 29.9-1 1-2.1 1.9-2.4 3.4-.7 2.9-1 5.9-.7 9.1 1-.9 2.1-1.9 3.1-2.8 6.9-6.9 13.7-13.8 20.6-20.7 10.2-10 20.3-20 30.5-30.4 7.5-7.5 15-15 22.5-22.7 9.6-9.6 19.3-19 28.9-28.8 7.5-7.5 14.9-15 22.4-22.5 6.1-6.1 12.2-12 18.3-18.2 8.4-8.3 16.7-16.6 25-25 1.4-1.4 2.8-2.8 4.2-4.2.4-.4.8-.9 0-1.4-2.3-1.4-7.5-.8-9.5 1.2-3.8 3.8-7.6 7.6-11.4 11.4-10.8 10.8-21.7 21.7-32.5 32.5-29.8 29.9-59 59-89 89m106-199c.7-4.3 2.3-8.3 3.7-12.6-.4.4-.9.7-1.3 1.1-4.1 4.1-8.2 8.1-12.3 12.2-4.1 4.1-8.2 8.2-12.2 12.3-.5.5-1.3.8-1 1.8.8 2.1 1.2 4.2 2.4 6.7 6.5-6.7 12.8-13 19-19.5.7-.6 1.5-1.1 1.6-2m9.4 251c-2.8 0-4.9 1.3-6.4 3.7 1.4 1 2.6 1.8 3.8 2.7.7.5 1.3.5 2-.2 1.9-2 4-3.9 6.4-6.2-2.4.1-4.1.1-5.8 0m-18.3-221c2.7-2.7 5.3-5.4 8-8.1 2.5-2.4 4.9-4.9 7.8-7.6-2.3-.6-3.9-1.6-5.1-3.1-.5-.7-1.1-.5-1.7.1-5.2 5.1-10.3 10.2-15.2 15 1.2 1.5 2 2.7 3 3.7 1.4 1.5 1.7 1.5 3.2 0m74 39.9c-1 1.1-2.1 2.1-3.2 3.2-3.4 3.3-6.7 6.6-10.5 10.2 2.6 1 4.7 1.6 6.1 3.8 12.8-12.8 25.5-25.4 38-38-1.8-.8-3.3-1.2-4.5-1.9-1.9-1.1-3-.2-4.1.9-3.7 3.7-7.3 7.4-11 11-1.4 1.3-2 2.7-1.9 4.7.2 3-.4 3.4-3.3 3.7-2.3.3-4.3 1.1-5.8 2.7m-30 133c6.5-.2 12.2-1.9 16.4-7.9-3 0-5.7 0-8.4 0-.5 0-.9.2-1.3.5-2.4 2.3-4.7 4.5-7.1 6.8.1.2.2.4.4.6m3.7-81c.6.4.9 1.3 1.3 1.3 23.3-23.3 46-46 70-70-1.2-.3-2.4-.4-3.4-.9-2.1-1.3-3.4-.2-4.8 1.2-7.6 7.7-15.2 15.3-22.8 22.9-13.4 13.3-26.8 26.6-40 40-2.7 2.7-2.8 2.7.3 5.1m5 55c3.7 1.5 3.9 1.3 6.4-1.6.7-.8.5-1.3 0-1.9-1.1-1.3-2.2-2.6-3.5-4.1-2.1 2.1-4.2 3.9-5.8 5.9.1.6.5.7.8.8.8.3 1.4.6 2.1.9m56-163c-2.7 2.7-5.4 5.5-8.2 8.2-1 1-1.1 2-.5 3 .4.7 1 1.4 1.6 2 1.3 1.2 2.4 1.1 3.7-.2 2.8-2.7 5.5-5.4 7.7-8.7 3-4.6 6.2-9.1 9.3-13.6 1.4-2 2.5-4.2 3.2-6.6.4-.3.5-.6.1-.9-.1-.1-.4.3-.4.6-.4 0-.7.2-1 .5-5.1 5.2-10.3 10.4-15.5 15.7m-22.7 11.9c.6-.2.7-.8.7-1.4 0-.7-.3-1.2-.6-1.8-2.1-3.8-2.7-3.9-5.7-.5 1.5 1.2 3.2 1.9 4.4 3.2.3.4.7.7 1.2.5m-21.5-7.7c-1.1.2-1.9.7-2.7 1.4-3 3-5.9 6-9.2 9.4 7.5-1.1 18.3-7.4 20.5-11.8-3-.3-5.8.4-8.6 1m-926 208c0 3.4 0 6.7 0 10 7.1-7.1 14.3-14.3 21.4-21.5.7-2.9 3-5.1 5.9-5.9 3.4-3.4 6.8-6.8 10.2-10-2.1-1.2-3.9-2.8-5.3-4.8-6.3 6.3-12.6 12.6-18.9 18.9-4.4 4.4-8.9 8.9-13.3 13.3m1073-89c-26.8 26.8-53 53-80 80 1.8.8 3.4.9 4.9 1.6 2 1.1 2 1 3.7-.6 20.6-20.6 41-41 61.8-61.8 4-4 8-8 12-12 .5-.5 1.3-.8.7-1.9-.9-1.7-1.8-3.4-2.9-5.4m14.4 25.9c-9.8 9.8-19.6 19.7-29.4 29.5-8.1 8.1-16.3 16.3-24.4 24.4-5.9 5.9-11.7 11.8-17.6 17.6-2.6 2.6-2.7 2.5-.6 5.4 2 2.7 2 2.7 4.3.4 18.2-18.2 36.4-36.4 54.6-54.6 5.6-5.6 11-11 16.6-16.7.6-.6 1.4-1 1.4-2-.5-1.6-1.7-2.6-2.5-3.8-1-1.5-1.1-1.5-2.4-.2m7.7 13.3c-18.7 18.7-37.5 37.5-56 56-4.9 4.9-9.8 9.8-14.7 14.6-.9.9-1.6 1.7-.7 2.9 1.1 1.5 1.6 3.2 2.4 5 5.7-5.6 11.3-11 16.8-16.6 8.5-8.5 17-16.9 25.4-25.4 9.9-9.9 19.7-19.7 29.6-29.6 2.9-2.9 3-2.9 1-6.6-1.4-2.7-1.4-2.7-3.6-.5m-14-24.5c-.6-.8-1.2-.8-1.9-.1-.7.7-1.4 1.6-2.1 2.3-8.4 8.4-16.9 16.9-25.3 25.3-9.3 9.3-18.6 18.6-27.9 27.9-5.4 5.4-10.8 10.8-16.3 16.3-1.5 1.6-1.6 1.6-.2 3.4.7.9 1.1 2 2.8 3 2.4-2.6 4.7-5.2 7.2-7.7 21-21 42-42 63-63 3.2-3.2 3.2-3.2.5-6.7 0-.2-.1-.3-.1-.3m-154-24.6c-.7-3.9.7-7.2 2.3-10.7-4.7 4-8.9 8.5-13.2 12.8-.4.4-.7 1-.4 1.5.7 2 1.4 4 2.4 6.6 3-3.2 5.7-6 8.4-8.8.2-.4.6-.8.5-1.4m-43-223c-1.7.5-3 .8-4.2 1.2-5.6 2.3-11.2 4.7-15.5 9.1-8 8-15.8 16-23.9 23.9-2.7 2.7-4.1 5.8-4.9 9.3-.4 1.7-1.1 3.4-.4 5.2 16.2-16 32.4-32 48.9-48.7m144 369c.8-.7 1.2-1.1 1.6-1.4 4.6-4.5 9.1-9 13.7-13.6 17.6-17.6 35-35 52.7-52.8 3.5-3.5 7.1-7.1 10.6-10.6.7-.6 1.3-1.2.8-2.2-1-1.7-1.7-3.5-3-5.1-.4.3-.6.4-.8.6-6.1 6.2-12.2 12.4-18.3 18.5-10.4 10.4-20.9 20.8-31.4 31-7.7 7.7-15.3 15.4-23 23-1.7 1.7-3.1 3.3-2.4 6 .2.8.2 1.7-.2 2.5-.5 1.2-.3 2.3-.2 4m-193-299c24-24 47.8-47.9 72-71.9-2.4-1.2-4.6-.3-6.5-1-1.4-.5-2.3.1-3.2 1-9.4 9.5-18.9 19-28.4 28.6-9.5 9.6-19 19-28.6 28.7-1.8 1.8-4.4 3.2-5.1 5.6-.7 2.5-.2 5.3-.2 7.9.1.2.1.4.3 1.1m222 117c-.3.2-.7.4-.9.7-5.2 5.1-10.4 10.2-15.5 15.3-11.2 11.2-22.3 22.5-33.5 33.7-6.7 6.7-13.4 13.3-20 20-8.4 8.3-16.7 16.7-25 25-2.1 2.1-4.1 4.2-6.1 6.3-.6.6-.9 1.3-.3 1.7 1.5 1.1 2.3 3 4 4.1 2.7-2.7 5.4-5.4 8.1-8 12.2-12 24.4-24.3 36.6-36.5 9.4-9.4 18.7-18.8 28-28 8.1-8.1 16.2-16.2 24-24.3 1.2-1.2 3.3-2.2 3.3-4 0-1.8-1.2-3.5-2.1-5.2-.1-.4-.4-.5-.7-.7m5.3 14.8c-1.1 1.3-1.9 2.3-2.7 3.2-27.6 27.6-55 55-83 83-4.4 4.4-8.9 8.8-13.3 13.2-.6.6-1.7 1.1-1.3 2.3.8 2 1.1 4.1 2.5 5.8.4-.2.7-.4.8-.6 7.6-7.6 15-15.3 22.7-22.9 9.6-9.6 19.3-19 28.9-28.8 11.8-11.8 23.6-23.7 35.4-35.5 3.5-3.5 7.1-7 10.7-10.5 1.1-1.1 2-2.1.9-3.9-.8-1.2-1.1-2.9-1.9-5.1m-119 108c0 0-.3.1-.4.3-.1.1-.1.2-.1.3-1.3-.5-2.3.6-3.2 1.2-2.5 1.6-5.1 2.7-8.1 2.9-1.4.1-2.6.9-3.7 1.9-2.6 2.7-5.4 5.3-8 7.9-.4.4-.9.7-.5 1.4 3.4-.8 6.8-1.5 10.2-2.3 1.2-.3 2-1 2.8-1.9 3.7-3.7 7.4-7.3 11-11 .1 0 0 0 0-.1-.1-.1.3-.3-.1-.6m107-136c-.7.6-1 .9-1.4 1.2-7.6 7.6-15.2 15.3-22.8 22.9-8.6 8.6-17.3 17.2-25.9 25.9-8.4 8.4-16.8 16.9-25.3 25.3-10 10-20 20-30 30-3.2 3.2-3.2 3.2.7 5.1 1.2.6 2.2.9 3.1-.5.3-.5.8-.8 1.2-1.2 17.9-17.9 35.8-35.8 53.7-53.7 15.6-15.6 31-31 46.7-46.7 3.4-3.4 3.4-3.4.7-7.5-.1-.2-.3-.4-.6-.9m-95 140c.4-.8.2-1.4-.5-2-.8-.7-1.2 0-1.6.5-2.4 2.5-4.9 4.9-7.3 7.4 3.5-.4 6.2-2.3 8.7-4.6.3-.4.5-.9.7-1.3m113-96c-.8 0-1.1.4-1.4.7-10.3 10.4-20.6 20.8-30.9 31-11.5 11.5-23 22.9-34.5 34-6 6-12 12-18 18-5.4 5.4-10.7 10.9-16.2 16.3-.6.6-1.2 1.3-1.2 2.2-.1 3.3-1.4 6.2-2.3 9.2-.5.9-.9 1.8-1.7 2.6-2.4 2.5-5 4.4-8.6 4.9-3.2.5-6 2-8.5 4.2 3.4-.2 6.6-1.7 10-1.7.6 0 1-.5 1.4-.9 2.6-2.7 5.2-5.4 7.9-8.1.6-.5 1.2-1 1.7-1.5 8.6-8.6 17.2-17.2 25.9-25.8 18.7-18.7 37-37 56-56 6.8-6.8 13.6-13.6 20.4-20.4.6-.6 1.6-1.1 1.4-2-.6-2.4-.6-4.9-1.5-7m-123 102v-.2c0 0 0 0 0 0-.1.1 0 .2 0 .2m-56 4c1.6-1.9 3.7-3.4 5.3-5.8-2.1-.9-4.1-1.7-5.2-3.5-4.2 4.2-8.4 8.4-12.6 12.6 1.7 1.5 3.9 1.1 5.8 1.3 1.3.2 2.3-.2 3.2-1.3 1.2-1.2 2.5-2.1 3.5-3.3m-257-9.6c-2.1-1.2-4.2-2.5-6.3-3.7-13.7 13.7-27.4 27.3-41 40.9-2.4 2.4-4.7 4.7-7.1 7.1 0 2.6 0 5.1 0 7.7 0 .5 0 1 0 1.5 0 .3 0 .6.1.8 11.3-11.3 22.6-22.6 33.9-33.9 6.8-6.8 13.6-13.6 20.4-20.4m237-164c-8.7 8.8-17.3 17.4-25.9 26-11.7 11.8-23.5 23.5-35 35-9.7 9.8-19.4 19.5-29 29-.8.8-1.4 1.8-1.8 2.8-1.4 3.2-2.7 6.4-4.1 9.6-.5 1-1.2 1.9-1.3 2.8 34-34 68-68 102-102-1.9-.4-3-2.1-4.8-3.4m-110 130c-4.2 5.5-8.6 10.8-12.2 16.7-1.3 2.1-2.6 4.1-2.9 6.7.2.2.3.3.5.5 5.7-5.6 11.4-11 17-16.7 9.2-9.2 18.2-18.4 27.4-27.6 12.2-12.2 24.4-24.3 36.6-36.5 9.2-9.2 18.4-18.5 27.6-27.8 10.2-10.2 20.3-20.4 30.5-30.5 2-2 1.9-2-.3-3.4-.6-.4-1.3-.8-1.8-1.4-.9-1.2-1.6-1.1-2.7 0-5 5-10 10-15 14.9-9.2 9.1-18.3 18.3-27.4 27.4-11.2 11.2-22.3 22.5-33.5 33.7-6.2 6.2-12.4 12.4-18.6 18.6-5.3 5.3-10.6 10.5-15.9 15.7-3.1 3.3-6.5 6.2-9.2 9.7m103-134c-3.7 1.1-6.9 2.1-10 2.9-1.8.4-3.3 1.1-4.6 2.4-18.6 18.6-37 37-55.8 55.8-1.1 1.1-1.8 2.3-2 3.9-.3 2.8-1.3 5.4-2.7 8-.7 1.2-1.7 2.5-1.7 4 25.5-25.6 51-51 76.9-77m75-146c-14.2 14.2-28.4 28-42.6 42.5-16.3 16.3-32.6 32.7-48.9 49-1.4 1.4-4 2.6-3.9 4.5.1 1.8 1.9 3.6 3.2 5.7 33.6-33.6 67-67 101-101-2-.7-3.6-1-4.9-1.9-1.5-.9-2.4-.4-3.5.8m-11-5.5c-2.3-.1-4.3.5-5.9 2.1-9.3 9.2-18.5 18.4-27.7 27.7-14.4 14.4-28.7 28.8-43 43-4 4-8 8-12 12-.6.6-1.4 1.1-1 2.1.7 1.9.5 3.9 1.4 5.9.7 0 1.1-.4 1.4-.7 15.2-15.2 30-30.4 45.5-45.5 14.4-14.4 28.8-28.8 43-43 .9-.9 2.9-1.8 2.3-3.1-.7-1.3-2.7-.4-4.1-.5m-92 159c-3.1.1-5.9 1.3-8.8 1.9-1.9.4-3.5 1.3-4.9 2.7-8.3 8.3-16.6 16.6-24.9 24.8-.5.5-1.1.9-1.3 1.5-1.2 4-2.4 8-3.5 12 .2.1.3.2.5.4 14.4-14.4 28.7-28.8 42.9-43m125-146c-.7-.5-1.4-1-2.1-1.5-2.4-1.7-2.4-1.7-4.4.3-.1.1-.1.1-.2.2-4.7 5.2-9.8 10-14.8 14.9-7.2 7.2-14.5 14.4-21.7 21.6-8.4 8.4-16.8 16.9-25.3 25.3-1.9 1.9-3.7 3.9-5.7 6 .4.1.6.2.7.2 3.7-1.5 7.4-2.8 11.4-3.4.8-.1 1.3-.7 1.8-1.2 4.7-4.8 9.4-9.5 14.2-14.3 5.3-5.3 10.6-10.5 15.9-15.7 8.4-8.4 16.8-16.8 25-25 1.9-2 4.2-3.7 5.8-6.1-.3-.6-.5-.9-.8-1.1m-1010 295c-2.1.2-3.9 1.7-4.6 3.8-.1.3-.2.6-.2 1 1.7-1.7 3.3-3.2 4.8-4.8m595 39c-.2-1.1-.4-2.1-.6-3.2-.3-1.8-.5-3.5-.5-5.3-3.8 3.8-7.7 7.7-11.5 11.5-1.5 1.5-3.1 3.1-4.6 4.6.5 1 1 2.1 1.4 3.2.5 1.3.9 2.5 1.1 3.8 2.5-2.5 5.1-5.1 7.6-7.6 2.4-2.3 4.8-4.6 7.1-7m-563 11.4c-1.2-2.2-2.4-4.3-3.6-6.5-10.2 10.2-20.3 20.3-30.5 30.5 1.4.9 3.2 1.2 4.9.4.8-.4 1.6-.8 2.4-1.3 3.1-1.8 6.1-3.6 9.2-5.5 2.9-2.9 5.9-5.9 8.8-8.8 2.9-3 5.8-5.9 8.8-8.8m-29.5-32c2.5-2.5 5-5 7.5-7.4-1.2-2.2-2.4-4.4-3.6-6.6-.6.6-1.2 1.2-1.8 1.8-3 3-5.9 5.9-8.9 8.9 0 3.4 0 6.7 0 10 2.2-2.2 4.5-4.5 6.8-6.8m397 33c11.7-11.6 23.4-23 35-34.9-.5-.3-.9-.6-1.4-.8-1.6-.9-3.1-1.9-4.7-2.8-2.5 2.5-5 5-7.5 7.5-16 16-32 31.9-48 47.9.1.2.3.4.4.5 1.8 2 4.2 2.4 6.5 1.2.8-.4 1.6-.9 2.3-1.4 5.9-5.7 11.7-11.4 17.4-17.2m-152 30c4.8-4.7 9.6-9.5 14.3-14.2 6.5-6.4 12.8-13 19.3-19.4-.4-.7-.8-1.3-1.2-2-.6-1-1.1-2-2-2.8-.3-.3-.6-.5-.9-.8-9.6 9.6-19.3 19.3-28.9 28.9 0 2.1 0 4.2 0 6.3 0 .9 0 1.7-.2 2.6-.1.5-.2 1-.4 1.4m-111-42c-2.9 2.9-5.7 5.7-8.6 8.6-4.2 4.2-8.4 8.4-12.5 12.5 0 3.4 0 6.7 0 10 7-7 14-14 21-21 0-3.4 0-6.8 0-10m827 15c6.3-1 12-3 16-8.5.3-.4.7-.6 1.1-.9.3-.3.5-.6.2-1.2-2.4-.1-4.9-.2-7.4-.3-.7 0-1.2.3-1.7.8-3.5 3.3-6.9 6.7-10.7 10.4 1.3.3 1.8-.2 2.5-.3m7.2-41c.4-.4 1.1-.7.9-1.8-2.3 0-4.7 0-7 0-.9 0-1.3.6-1.9 1.1-3.5 3.5-7 6.8-10.4 10.4-1 1-2.4 1.8-3 3.6 2.8.3 5.2-.4 7.6-.4 1 0 1.5-.7 2.1-1.3 4-3.8 7.9-7.7 11.7-11.6m9.1-72c.8.9 1.6.9 2.4.1 1.5-1.5 3.1-3.1 4.6-4.6.7-.7.8-1.4.4-2.3-.7-1.7-1.6-3.4-2.9-4.9-2.8 2.9-5.6 5.6-8.6 8.7 1.7.8 3 1.8 4.1 3m114-78c-.9-.8-1.7-.8-2.6.3-2.3 2.5-4.7 4.9-7.2 7.2-6.1 6.1-12.3 12.3-18.4 18.4-8.1 8.1-16 16.2-24 24-8.2 8.2-16.5 16.3-24.7 24.5-9.6 9.6-19 19-28.8 28.9-2.3 2.3-4.8 4.5-6.9 7.2 1.6.6 3 1.2 4.3 1.7 2.3.9 2.3.9 4-.7 31.9-31.9 63.7-63.7 96-96 4.3-4.3 8.6-8.5 12.9-12.7-.9-1.9-2.7-2.4-4-3.4m-144 192c1.7-2 3.7-3.8 5.6-5.7 1.5-1.5 3-3 4.6-4.5-.1-.2-.2-.4-.3-.5-2.8 0-5.8-.5-8.4.2-2.1.6-3.5 3-5.1 4.7-.1.1-.3.2-.4.3-1.7 2-3.9 3.5-5.4 5.7 1.8 1 3.6 1 5.3 1.4 1.5.2 2.9-.2 4.1-1.6m-3.5-88c0 0 0 .1.1.1 0 .2 0 .4.3.1.6.2 1.1-.2 1.7-.3 2.3-.6 4.5-1.6 6.9-1.3 1.5.2 2.5-.3 3.4-1.2 2.2-2.3 4.5-4.5 6.7-6.8.4-.4 1-.8.7-1.4-.8-1.3-1.9-2.4-3.4-2.7-1.2-.3-2.3-.5-3.5.8-4.3 4.3-8.6 8.4-12.9 12.7m129-109c-2.3 2.4-4.7 4.7-7 7-7.3 7.4-14.6 14.8-22 22-9.7 9.7-19.5 19.4-29 29-7.6 7.5-15 15-22.6 22.6-2.9 2.9-6.1 5.7-8.7 8.9.9 1.3 2.2 1.8 3.4 2.6 2 1.3 2 1.3 3.7-.2.3-.3.5-.5.8-.8 8.6-8.6 17-17 25.7-25.7 17.7-17.7 35.4-35.4 53-53 4-4 8-8 12.2-12.3-1.9-.5-3.4-.9-4.8-1.4-1.8-.7-3.2-.3-4.5 1.1m-138 138c-.8 1-.6 1.7.4 1.8 2.6.1 5.6.3 7.8-.8 2.5-1.3 4.5-3.8 6.2-6.4-1.7.4-3.4.6-5 .7-3.8 0-7 1.6-9.4 4.7m78.9-284c-.7.8-1.5 1.4-2.2 2.2-5 5.1-10 10.3-15 15.4-10.7 10.7-21.5 21.3-32 31.9-1.4 1.4-2.7 2.8-4.2 4.4 3.1 0 5.7 0 8.3 0 .7 0 1.3-.2 1.8-.7 1-.9 2-1.7 2.9-2.7 6.3-6.3 12.6-12.5 18.9-18.8 9.5-9.6 19-19 28.9-29-2.2-.7-4-1.5-5.6-2.7-.6-.5-1.1-.4-1.5.1m41.6 143c-9.4 9.5-18.8 18.9-28 28.4-8.6 8.6-17 17-25.7 25.7-1.1 1.1-1.8 2.2-2 3.9-.3 2.5-.6 5-1.8 7.4-.2.5-.2 1.1.2 2 22.4-22.4 44.7-44.7 67-67-1.1-1.2-2.6-.9-3.7-1.5-2.4-1.4-4-.7-5.8 1.1m-21.6-102c-7 7-14 14-21 21-3.7 3.7-7.3 7.6-11.2 11.2-.6.5-1.5 1.2-1.1 2.1.8 2 1.3 4.1 2.8 5.7 5.1-5 10-10 15-15 6.8-6.7 13.5-13.5 20.3-20.3.5-.5 1.4-.9 1.4-1.7 0-2.7-.2-5.3-.9-8.3-2 2-3.7 3.6-5.4 5.3m-7.3-33c-16 16-31.9 31.9-48 48 1.8.9 3.2 1.4 4.5 2.2 1.5.8 2.5.5 3.7-.7 12.9-12.9 25.8-25.8 38.7-38.8 1.5-1.5 3.8-2.7 4-4.6.1-1.9-1.3-3.8-2.1-5.7-.1-.2-.3-.3-.6-.7m7.1 14.2c-.9.2-1.4.9-2 1.5-2 2-4 4-6 6-10 10-20 20-30 30-2.7 2.7-2.7 2.7-.2 5.5.4.5.6 1.2 1.4 1.4.4-.1.7-.3.9-.6 12-12 24-24 36-36 3.7-3.7 3.7-3.7.3-7.9 0 0-.1 0-.2-.1m6.1 33.9c-7.7 7.8-15.5 15.5-23 23.3-2.7 2.7-5.5 5.4-8.2 8.2-.6.6-1.6 1.1-1.1 2.1 1 1.9.9 4.2 2.2 6.1 6-5.9 11.8-11.7 17.6-17.4 4.3-4.3 8.7-8.6 13-13 .6-.6 1.5-1.2 1.6-1.9.2-2.8.8-5.7-.2-8.8-.7.5-1.2 1-1.7 1.4m.3 81c-4.3 4.4-8.7 8.7-13 13-7.5 7.5-14.9 15-22.3 22.5-3.4 3.5-7.2 6.7-10.3 10.5-.2.2-.8.2-.3.7.2.2.5 0 .5-.4.8.2 1.5-.4 2.1-.7 2.4-1.1 4.5-1.5 6 1.3 6-5.2 44.9-44.6 45.8-46-2-1.1-4.2-1-6.3-1.4-.8-.2-1.6.2-2.2.9m-1252 217c7.6-7.6 15-15.3 22.7-22.9 9.5-9.5 19-18.9 28.5-28 7.7-7.7 15.3-15.4 22.9-23 5.9-5.9 11.8-11.7 17.7-17.6 8.3-8.3 16.7-16.6 25-25 2.2-2.2 4.7-4.2 6.5-6.7.1-.2.3-.4.4-.6h-9.7c0 .2-.1.4-.2.6-.4.6-1 1-1.5 1.5-25.5 25.5-51 51-76 77-25.6 25.6-51 51-76.9 76.9-10.2 10.2-20.5 20.5-30.7 30.7h9.7c11-11 22-22 33-33 9.7-9.6 19.3-19 28.9-28.6m1164 3.7c.8-.8 1.5-1.7 2.6-2.8-3 1-5.7.5-8.3.8-1.5.2-2.6.7-3.6 1.7-5.2 5.2-10.5 10.4-15.7 15.6-10 10-20 20-30 30-4.2 4.2-8.4 8.4-12.6 12.6h9.5c9.3-9.3 18.5-18.5 27.8-27.7 10-10 20-20 30-30m-19-1.7c.6-.6 1.4-.9 1.3-2.1-1.4-.3-2.8-.6-4.1-1-2.3-.8-3.9 0-5.5 1.6-6.8 7-13.6 13.8-20.5 20.7-5.9 5.9-11.8 11.6-17.7 17.5-5.5 5.6-11 11-16.6 16.6-2.2 2.1-4.3 4.3-6.3 6.5h9.5c5.8-5.8 11.5-11.5 17.3-17.3 14.3-14 28.4-28 42.6-42.5m27.9 13.2c4.1-4 8-8.3 12.3-12 1.8-1.6 3.8-3.2 5.3-5.8-3.2.6-6.1 1.3-9 1.6-1.5.2-2.6.7-3.7 1.8-15.2 15.2-30.4 30.4-45.5 45.5-5.2 5.2-10.4 10.4-15.6 15.7h9.4c9.4-9.4 18.8-18.8 28-28 6.3-6.2 12.3-12.4 18.6-18.5m-120-2.8c.4-.4 1-.8 1-1.4 0-2.9 0-5.7 0-8.7-1.2.5-1.7 1.2-2.3 1.8-15 15-30 30-45 45-4.3 4.3-8.6 8.5-12.8 12.8h9.5c9.5-9.5 18.9-18.9 28.4-28 7-7.1 14-14.2 21-21m76-15.2c-1.8-.5-3.3-1-4.7-1.8-1.1-.7-1.9-.3-2.7.5-9.6 9.7-19 19.3-28.8 28.9-8.2 8.2-16.5 16.4-24.7 24.6-4.1 4.1-8.2 8.3-12.3 12.4h8.6c3.6-3.6 7.3-7.3 10.9-10.9 15.9-15.9 31.8-31.8 47.7-47.7 2-1.9 3.9-3.9 6-6m-64 24c.3-.3.6-.7.3-1.4-.7 0-1.4-.1-2.1-.1-.9.1-1.6-.4-2.4-.7-2.3-1-2.3-1-4.1.8-8.8 8.8-17.6 17.6-26.5 26.5-5.2 5.2-10.4 10.4-15.6 15.6h9.5c6.9-6.9 13.8-13.9 20.8-20.8 6.7-6.7 13.4-13.3 20-19.9m164-40c5.6-5.6 11.2-11.3 16.9-16.9.6-.6 1.4-1.1 1.2-2.1-.3-2.4-.4-4.8-.9-7.1-.5-.1-.8 0-1 .2-5.7 5.7-11.5 11.5-17.2 17.2-.8.8-1 1.5-.7 2.5.7 2.1.1 4-1.4 5.5-3.5 3.4-7.1 6.7-11.7 8.6-3 1.3-6 2.8-8.1 5.4-.7 1-1.7 1.8-2.6 2.6-6.8 6.7-13.6 13.4-20.3 20-8 8-16 16-24 24-6.9 6.9-13.8 13.8-20.6 20.7h9.6c2.9-2.8 5.6-5.7 8.4-8.6 10.2-10 20.4-20 30.6-30 14-13.9 27.9-27.9 41.9-41.9m-142 39c1-1 2.4-1.8 3-3.5-4.6-1.1-8.5-1-12 2.9-6.9 7.4-14.2 14.4-21.4 21.5-6.9 6.9-13.7 13.7-20.6 20.6h9.6c2.9-2.8 5.6-5.7 8.4-8.5 11-11 22-22 33-33m278 41.5h8.4c5-5 10-10 15-15v-8.5c-3.5 3.6-7.1 7.1-10.6 10.7-4.3 4.2-8.6 8.5-12.8 12.8m-14.5-6.5c-2.1 2.1-4.2 4.3-6.3 6.5h8.4c9.4-9.5 18.9-18.9 28-28.4 2.5-2.5 5-5 7.5-7.5v-8.4c-6.5 6.5-13 12.9-19.5 19.4-6.2 6.1-12.3 12.2-18.4 18.4m-888-148c0 .2 0 .5 0 .7.1-.1.3-.3.4-.4 8.4-8.3 16.7-16.6 25-25 2.4-2.4 5.1-4.5 7-7.4h-9.7c-.1.9-.8 1.2-1.3 1.7-8.1 8.1-16.2 16.3-24.4 24.4 1.7 1.6 2.8 3.7 3 6.1m785 75c.6-.6 1.4-1 1.4-2 0-2.3 0-4.6 0-7.6-2.9 2.7-5.3 4.9-7.6 7.2-9.1 9.1-18 18.3-27 27.3-9.8 9.7-19.5 19.6-29.4 29-8.4 8.1-16.6 16.4-24.8 24.7h8.8c0 0 .1-.1.1-.1 21-21.3 42-42.5 63.7-63.8 5-4.9 10-9.9 15-14.9m23.3 38.6c-.7-.3-1.2 0-1.6.1-1.9.4-2 .4-2.1-1.7-.1-1.2.3-2.4-.3-3.5-.9.2-1.3.8-1.7 1.2-6.1 6.1-12 12.2-18.2 18.3-8.6 8.6-17.3 17.2-25.9 25.8h9.6c11-11 22-22 33-33 2.4-2.3 4.7-4.7 7.1-7.2m-31.9-9.2c.7-.7 1.9-1.3 1.5-2.5-.7-2.2-.2-4.3 0-6.4.4-1 .9-2 1.3-3-.1-.1-.2-.1-.3-.2-.5.6-1 1.2-1.6 1.8-.2.1-.4.3-.7.4 0 0 .1-.1.1-.1-.2.2-.3.5-.5.7-6.1 6.1-12.2 12.3-18.4 18.4-5.8 5.8-11.7 11.5-17.4 17.3-5.6 5.6-11 11.2-16.8 16.8-2.2 2.1-4.2 4.3-6.3 6.4h9.6c.9-.9 1.8-1.7 2.7-2.6 9.2-9.2 18.4-18.5 27.6-27.7 6.4-6.5 12.8-12.9 19-19.3m16.2 4.5c-2.6-.4-4.6.1-6.6-.1-2.2-.2-3.5.7-4.9 2.2-9.9 10-19.9 20-29.9 29.9-4.3 4.3-8.7 8.7-13 13h9.5c3.3-3.2 6.5-6.4 9.8-9.7 9.8-9.7 19.5-19.4 29-29 1.9-1.9 3.7-3.9 5.9-6.1m-143-20.4c2-2 4.1-3.7 5.8-6.1-1.6-.9-2.9-1.9-4-3.2-.6-.6-1.2-.9-1.9-.2-1.9 2.1-4.1 3.7-5.9 6.2 2.3.7 4.4 1.5 6 3.3m-179-5.7c8-8 15.9-16 24-24 9-9 18-17.9 27-26.9 3.5-3.5 6.9-6.9 10.4-10.4 2.1-6.7 5.1-13 8.9-19-9.9 9.9-19.8 19.8-29.7 29.7-16.7 16.7-33 33.4-50 50-2.2 4-4.9 7.8-8 11.3-4.7 5.3-10.2 9.7-16.4 13-15.9 15.8-31.8 31.7-47.7 48h10.3c2.5-2.5 5-5 7.5-7.5 11.3-11.3 22.5-22.7 33.8-34 10-10 19.9-19.9 29.8-29.7m29.9-9.7c.3-.1.5-.4.8-.7 5.2-5.1 10.3-10.3 15.5-15.5.5-.5 1-1 1.2-1.6 1-4.2 2.1-9 3.5-13.2-2.6 2.5-5.1 5-7.7 7.7-16.6 16.5-33 33-49.7 49.6-18 18-36 36-54 54h9.8c2.2-2.2 4.4-4.4 6.6-6.6 14.6-14.6 29-29 44-43.8 10-10 20-20 30-30m-80 39.5c-1.6.3-3.2.6-4.8.9-2.2.3-4.4.5-6.7.6-4.1 4.1-8.2 8.1-12.2 12.2-9.2 9.2-18.3 18.4-27.5 27.6h9.8c4.8-4.8 9.6-9.7 14.5-14.5 9-9 17.9-17.9 26.9-26.8m-29.8-.7c-14 14-27.9 28-41.9 42h9.7c13.4-13.4 26.8-26.9 40-40-2.8-.4-5.5-1-8.1-1.7m97-4.8c5.9-5.9 11.9-11.8 17.9-17.7 2.2-2.2 3.4-3.4 4.2-4.7.8-1.5 1.2-3.2 1.9-6.9.3-1.6 1.8-4.8 1.6-6.6-.8 1-1.6 1.9-2.4 2.8-9.2 9.3-18.4 18.5-27.6 27.8-9.2 9.2-18.4 18.2-27.6 27.4-7.9 7.9-15.6 16-23.6 23.7-.4.4-.7.7-1.1 1.1h9.9c9.4-9.4 18.8-18.8 28-28 6.2-6.4 12.4-12.6 18.6-18.8m-118-5.4c-1-.8-2.1-1.6-3.1-2.4-.8-.7-1.6-1.4-2.4-2.2-3.8 3.8-7.6 7.6-11.5 11.5-12.4 12.5-24.9 24.9-37 37-2.6 2.6-5.2 5.3-7.8 7.9h9.9c4.1-4.1 8.1-8.1 12.2-12.2 13.4-13.3 26.7-26.7 40-40m-10.4-9.9c-1.6-1.9-3-3.8-4.4-5.8-2 2-4.1 4.1-6.1 6.1-15.3 15.3-30.5 30.5-45.8 45.8-5.3 5.3-10.6 10.6-15.9 15.9h10c7.8-7.8 15.5-15.5 23.3-23.3 12.9-12.9 25.8-25.8 38.8-38.7m162 23.3c10.6-10.5 21-21 31.6-31.7 10.5-10.6 21-21 31.7-31.6 10-10 20-20.4 30.4-30.5 11.2-11.2 22.5-22.4 33.7-33.6 7.6-7.5 15-15 22.6-22.6 6.2-6.2 12.4-12.4 18.7-18.6 2.3-2.3 4.9-4.5 4.7-8.3 0-.5.2-.9.3-1.4 1.3-4 3.5-5.2 7.6-4.3.6.1 1 .3 1.5-.2 2.4-2.6 5.1-4.8 7.4-7.8-2.9.7-5.6 1.3-6.9-2.2-.7.6-1.2 1-1.7 1.5-14.8 14.8-29.6 29.6-44 44-18.5 18.5-37 37-56 56-15.6 15.6-31 31-46.8 46.7-19 19-38 38-58 58-8.6 8.6-17.3 17.2-25.9 25.8h9.7c13-12.8 26-25.8 39-38.6m117-37c0 .4.1.7.2 1.5 2.7-2.7 5.1-5.1 7.5-7.6.4-.4.5-.8.4-1.3-.5-2.2-1.1-4.3-1.7-6.8-2.4 2.4-5.1 4.4-6.7 6.9-1.2 2.1.1 4.8.3 7.3m-128 27c-.5-.1-.7-.2-.8-.1-.4.2-.8.4-1.2.6-1.7.9-1.8.8-2-1.1-.1-1.3 1.7-4.7 1-6.1-.5.3-4.1 4.1-4.1 4.1-7.2 7.3-14.5 14.5-21.7 21.8-9.9 9.9-19.8 19.8-29.7 29.7h9.9c13.9-13.8 27.7-27.7 41.6-41.5 2.1-2.4 4.5-4.9 7-7.4m55.9 5.7c9.8-9.8 19.5-19.5 29-29 .7-.7 1.4-1.3 1.7-2.2 1.2-3 3.1-5.6 5-8.2 3.6-4.8 7.4-9.6 10.6-14.7 2.9-3.4 6-6.6 9.3-9.5 3.5-2.3 6.9-4.7 10.9-5.9 3.9-1.2 6.8-3.5 9.5-6.4 3.4-3.7 7.3-6.9 10-11.2 1.2-1.8 2.9-3.3 4.7-4.5 1.9-1.2 3.5-2.6 5-4.2 9.8-9.8 19.5-19.6 29-29 3.3-3.3 6.8-6.6 10.2-9.8-1.7-2.1-2.5-4.2-3.2-6.5-.7.5-1.1.7-1.4 1-5 5-9.9 10-14.9 15-10.2 10.2-20.5 20.3-30.7 30.5-7.5 7.5-14.9 15-22.3 22.5-2.6 2.7-5.5 5.1-7.9 8-1.2.5-1.8 1.6-2.6 2.5-2.1 2.3-4.6 4.1-6.4 6.6-.2.1-.6.2-.7.4-8.7 8.7-17.5 17.5-26 26-10.5 10.5-20.9 21-31 31.4-5.8 5.8-11.7 11.5-17.5 17.3-5.6 5.6-11 11.3-16.8 16.8-2.2 2.1-4.3 4.3-6.3 6.5h9.5c5.7-5.7 11.4-11.4 17-17 8.7-8.6 17.4-17.3 26-26m76-55c-2.4-.2-2.4 1.6-2.9 2.9 1.1-.7 2.5-1.2 2.9-2.9m-42 1.1c14.4-14.4 28.7-28.7 43-43 10.5-10.5 21-21 31.5-31.5 6.9-6.9 13.9-13.9 20.8-20.8.8-.8 1.4-1.5 1.2-2.7-.4-1.8-.5-3.7-1.3-5.3-.8-.1-1.1.6-1.5.9-11.5 11.5-23 22.9-34.5 34.4-17 17-34 34-51 51-17 17-34 34-51 51-16.2 16.2-32 32-48 49-4.9 4.9-9.8 9.9-14.7 14.8h8.7c0 0 .1-.1.1-.1 16-16.2 32-32.4 49-48.6 16.4-16.3 32.7-32.6 49-48.9m263 98h9.1c1.6-1.6 3.2-3.2 4.8-4.8 16.9-16.9 33.8-33.8 50.7-50.7v-9.3c-16.8 16.8-33.5 33.5-50 50-4.7 4.9-9.5 9.7-14.3 14.5m-480-44.7c-2.2-.9-4.4-2-6.5-3.2-9.3 9.3-18.6 18.6-27.9 27.9-6.6 6.6-13.2 13.3-19.9 20h9.5c.5-.5 1-1 1.5-1.5 11.7-11.7 23.4-23.5 35-35 2.7-2.7 5.4-5.4 8.1-8m472 31.8c-4.3 4.3-8.6 8.5-12.8 12.8h9.2c2.7-2.7 5.4-5.4 8.1-8.1 16-16 31.9-32 47.9-47.9 6.8-6.8 13.5-13.5 20.3-20.3v-9.1c-6.9 6.9-13.9 13.9-20.8 20.8-17.3 17.3-34.6 34.6-51.9 51.8m32.7-463c-10.2 10.2-20.5 20.3-30.7 30.5-7.5 7.5-15 15-22.5 22.7-8.7 8.7-17.3 17.4-26 26-1.1 1.1-1.4 2.1-1.1 3.5.3 1.8 1 3.6.7 5.7 1.3-.2 1.8-1 2.4-1.6 4-4 8-8 12-12 25.6-25.6 51-51 76.9-76.9 9.4-9.4 18.9-18.8 28-28v-9.8c-2.1 2.1-4.2 4.2-6.4 6.3-11 11.4-22 22.7-33.5 33.9m-30.4 10.6c-13.9 13.9-27.8 27.8-41.6 41.6-3.9 3.9-7.9 7.9-11.8 11.8-.6.6-1.7 1.2-1.1 2.3.8 1.6.7 3.5 1.6 5.4 1.3-.9 2.2-1.8 3.1-2.8 15-15 29.9-29.9 44.9-44.9 12-12 24-24 36-36 11.6-11.6 23.3-23 34.9-34.8 1.4-1.4 2.8-2.8 4.1-4.1v-8.7c-9.6 9.7-19 19.3-28.9 29-13.9 13.9-27.7 27.7-41.5 41.5m1.5 59c-8.6 8.6-17 17.3-25.7 25.9-6.8 6.8-13.7 13.6-20.5 20.4-.9.9-1.6 2-1.4 3.5.2 2.1.2 4.3.4 7 .9-.8 1.5-1.2 2-1.8 11.4-11.4 22.9-22.8 34-34 11.4-11.4 22.7-22.9 34-34 6.5-6.5 13.2-13 19.7-19.5 8.7-8.7 17.3-17.3 26-26v-9.7c-14.9 14.9-29.8 29.8-44.7 44.7-8.1 8.1-16.2 16-24 24m-38.7 101c1 .6 1.9 1.2 2.9 1.8 2.4 1.5 2.4 1.5 4.4-.5 7-7 13.9-13.9 20.9-20.9 12.2-12.2 24.4-24.3 36.6-36.5 9.2-9.2 18.4-18.5 27.6-27.8 5-5.1 10-10 15.2-15.2v-9.1c-36 36-71.9 71.9-108 108-.1.1 0 .3.2.4m79-99c-5.8 6.1-11.9 11.9-17.8 17.9-12.2 12.2-24.4 24.3-36.6 36.5-11.3 11.3-22.6 22.6-33.9 34-2.4 2.4-2.4 2.4-.2 4.9 1.5 1.7 2 1.7 3.6.1 19.5-19.4 38.9-38.9 58-58 18.5-18.5 36.9-36.9 55-55v-8.6c-9.8 9.6-19.5 19-28.9 28.9m-26 5.3c-10 10.3-20.5 20.4-30.7 30.6-10.2 10.2-20.3 20.5-30.6 30.6-1.5 1.5-2.5 3.1-2.9 5-.4 1.7-1 3.3-1.5 4.8-.6 1.6-.7 3.1-1 5.1 1-.9 1.6-1.4 2.2-2 29.9-29.9 59.8-59.9 90-90 7.5-7.5 15-14.9 22.4-22.4 2.4-2.4 4.8-4.8 7.3-7.3v-9.7c-18.2 18.4-36.7 36.6-54.8 55m-154-73c1.1.9-1.7 4.1 15.2-4.8.8-.6 9.1-8.8 9.6-9.4 7.5-7.6 15-15.2 22.5-22.7 9.5-9.5 19-19 28.7-28.5 11.9-11.9 23.7-23.8 35.6-35.7 10-10 20.4-20 30.5-30.4 8.9-8.9 17.8-17.9 26.8-26.9 8.1-8.1 16.3-16.2 24.5-24.4 5-5 10-10 15-15v-9.9l-208 208m158-137c-11.2 11.2-22.3 22.3-33.5 33.5-16.3 16.3-32.5 32.6-48.8 49-17 17-33.9 34-50.9 50.9-1.8 1.8-2.1 3.3-1.2 5.5.5 1.1 1 2.2 1.6 3.2.8-.1 1.2-.7 1.7-1.1 20-20 40-40 60-60 18.4-18.4 36.9-36.9 55-55 9.6-9.6 19-19 28.9-28.8 6.4-6.4 12.8-12.8 19-19 5.9-5.9 11.8-11.8 17.7-17.7v-9.7c-1.9 2-3.9 3.9-5.8 5.9-15 14.6-29.7 29.4-44.5 44m-43 310c-3.1 3.1-3.1 3.1 0 6.3 1.5 1.6 1.9 1.6 3.4.1 2-2 3.9-4.1 5.9-6.1 9.5-9.5 19-18.9 28.5-28.4 7.7-7.7 15.3-15.4 23-23 5.9-5.9 11.9-11.9 17.8-17.8 4.9-4.9 9.8-9.8 14.8-14.7v-9.6c-2.4 2.4-4.8 4.8-7.2 7.2-28.8 28.6-57 57-86 86m-23.3-141c-4.3 4.3-8.6 8.6-12.8 12.8-2 2-2 2-.7 4.5.6 1.1 1 2.5 2.2 3.4 2.7-2.6 5.4-5.2 8-7.8 8.7-8.7 17.4-17.4 26-26 10-10.2 20-20.4 30.4-30.5 11.2-11.2 22.5-22.4 33.7-33.6 6.2-6.2 12.4-12.4 18.6-18.6 3.7-3.7 7.4-7.5 11-11.2v-9.5c-23.8 23.7-47 48-71 71-15 15-30 30-45 45m-56.9-18.9c1.8 1.1 1.8 1.1 3.3-.5 5.3-5.3 10.6-10.5 15.9-15.8 20-20 40-40 61-61 16.6-16.6 33-33 49.7-49.8 14.7-14.7 29-29 44-43.9v-8.5c-59 59-118 118-177 177 1.2.8 2.4 1.5 3.6 2.3m33 24c1.5.8 2.7 2.8 4.2 2.6 1.6-.3 2.7-2.2 4-3.4 8.9-8.9 17.7-17.8 26.6-26.6 8.1-8.1 16.3-16.2 24.5-24.4 9-9 18-18 27-27 8.1-8.1 16.2-16 24.3-24 7.5-7.5 15-15 22.5-22.7 2.4-2.4 4.9-4.9 7.3-7.3v-9.1c-47 47-94 94-141 142 .3 0 .6.4 1 .6m-10.8-11.6c-3.2 3.2-3.2 3.5.7 6.1 1.2.8 2 .9 3.1-.3 5-5.1 10.2-10 15.3-15.2 8.5-8.5 17-16.9 25.4-25.4 8.5-8.5 17-17 25.6-25.6 8.5-8.5 17-17 25.6-25.6 11.8-11.8 23.5-23.7 35-35.5 6.7-6.7 13.5-13.4 20-20v-9.6c-8.7 8.7-17.3 17.3-26 26-41.7 41.7-83 83-125 125m-9.9-4.3c1.7 1.5 1.7 1.5 3.3-.2 15.2-15.2 30.4-30.5 45.7-45.7 10.4-10.4 20.9-20.8 31-31 11-11 22-22 33-33 10.9-10.9 21.8-21.8 32.7-32.6 5-5 10-10 15-15v-9.7c-54.9 54.9-110 110-165 165 1.3 1 2.4 1.9 3.5 2.8m89 27.6c-11.4 11.4-22.8 22.7-34 34-3.8 3.8-7.6 7.6-11.4 11.5-.7.7-1.7 1.4-1.3 2.6.8 2.2.4 4.6 1.2 6.8.3.1.4 0 .5-.2 7.7-7.7 15.5-15.4 23.3-23 11.3-11.3 22.5-22.6 33.8-33.9 7.8-7.8 15.7-15.5 23.5-23.4 6.9-6.9 13.7-13.8 20.5-20.7 5.4-5.4 10.9-10.9 16.3-16.3v-9.4c-15.5 15.5-31 31-46.6 46.6-8.6 8.5-17 17-25.6 25.5m58 250c.9 2.1.6 4.7 2.4 6.7 2.5-2.5 4.9-5 7.4-7.5 1.3-1.3 2.6-2.6 3.9-3.9v-9.6c-4.2 4.2-8.3 8.3-12.5 12.5-.6.5-1.6 1-1.2 1.8m5.6 15c.9 2.1 1.1 4.3 1.5 6.5.3.1.5.3.8.4.8-.9 1.5-1.9 2.4-2.8 1.1-1.1 2.3-2.3 3.4-3.4v-9.7c-2.4 2.4-4.7 4.7-7.1 7.1-.5.6-1.4 1-1 1.9m-14.2-47c-1.2 1.2-3.4 2.3-3.3 3.9 0 1.7 1.2 3.5 2.4 5.1.3-.2.6-.4.9-.7 6.8-6.8 13.6-13.6 20.4-20.4.6-.6 1.2-1.2 1.8-1.8v-8.3c-7.4 7.4-14.8 14.8-22 22m3.7 22c.3.6.7 1.1 1.2 1.9 1-.9 1.7-1.5 2.4-2.2 5-5 10-10 15-15v-9.5c-5.8 5.8-11.6 11.6-17.4 17.4-3.3 3.2-3.3 3.5-1.2 7.4m-29 85c-9.1 9.1-18.2 18-27 27-8 8-16 16-24 24-7.7 7.7-15.5 15.4-23 23-6 6-12 11.9-18 17.9-2.1 2.1-4.2 4.3-6.3 6.5h9.5c27.5-27.5 55-55 83-83 16.8-16.8 33.6-33.6 50-50 1.4-1.4 2.7-2.8 4.1-4.1v-9.6c-6.5 6.5-13 12.9-19.5 19.4-9.4 9.3-18.8 18.9-28 28.4m-42 84c-4.9 4.9-9.8 9.9-14.8 14.8h8.3c5.8-5.8 11.7-11.7 17.5-17.5 12.6-12.6 25.3-25.3 37.9-37.9 12.9-12.9 25.8-25.8 38.7-38.7.8-.8 1.7-1.7 2.5-2.5v-8.3c-15 15-30 30-45 45-14.8 14.8-29.8 29.8-44.7 44.8m58-326c-10 10.2-20 20.4-30.4 30.5-6.9 6.9-13.9 13.8-20.9 20.8-1 1-2.9 1.7-2.5 3.3.4 1.4 2 2.2 3.2 3.1.2.1.3.2.4.3.7.6 1.3.4 2-.2 1.4-1.4 2.8-2.8 4.2-4.2 15.6-15.6 31-31 46.7-46.7 9.8-9.8 19.6-19.6 29.4-29.4v-9.6c-3.8 3.8-7.5 7.6-11.3 11.4-6.8 6.9-13.8 13.7-20.8 20.7m-29 276c-7.2 7.2-14.5 14.4-21.7 21.6-10 10-20 20-30 30-4.2 4.2-8.4 8.4-12.6 12.6h8.3c5.8-5.9 11.7-11.8 17.6-17.6 15-15 30-29.9 45-44.8 18.4-18.3 36.7-36.7 55-55v-8.3c-7.7 7.7-15.3 15.3-23 23-12.9 12.8-25.7 25.7-38.6 38.5m2.7-208c-3.2 3.2-2.6 1.8-.5 5.7.9 1.6 1.1 2.1 2.8.3 4.4-4.4 8.8-8.8 13.2-13.2 14.4-14.4 28.9-28.9 43-43v-8.4c-11.3 11.3-22.7 22.7-34 34-8.3 8.3-16.6 16.5-24.8 24.9m-10.2-4.5c2.2 1.1 2.2 1.1 4-.6 13.9-13.8 27.7-27.7 41.6-41.5 7.8-7.8 15.7-15.7 23.5-23.5v-9.4c-24.5 24.5-48.7 48.8-73 73 1.4.6 2.7 1.2 4 1.8m28.9 5.3c-4.1 4.1-8.3 8.3-12.4 12.4-1.4 1.4-1.4 1.8-.1 3.3 1 1 2 2 3.6 3.6 2.2-2.5 4.1-4.8 6.3-7 9.2-9.3 18.4-18.5 27.6-27.8 5.1-5.1 10-10.2 15.2-15.2v-9.7c-2.2 2.1-4.3 4.3-6.4 6.4-11.4 11.5-22.6 22.8-33.8 34m8.2 53.8c-1.6 1.5-1.5 1.8-.6 3.9.6 1.4 1.5 2.6 2.5 3.8 8.9-8.9 17.6-17.6 26.4-26.4 1.2-1.2 2.4-2.4 3.6-3.6v-9.6c-8.3 8.2-16.5 16.5-24.8 24.7-2.3 2.4-4.6 5-7.1 7.2m-11.2-29.9c-.4.4-1.2.9-.6 1.6 1.3 1.5 1.8 3.5 3.6 5 2.3-2.4 4.6-4.7 6.9-7.1 6.2-6.2 12.4-12.4 18.6-18.6 4.9-4.9 9.7-9.7 14.6-14.5v-9.6c-12 12-24 24-36 36-2.3 2.4-4.7 4.7-7 7.1m14.2 6.1c-2.6 2.6-5.4 5-7.8 7.9-.5.6-1.1 1.1-.9 2 .5 2.2 1 4.3 1.6 6.7 2.3-2.3 4.5-4.3 6.5-6.4 9.8-9.8 19.6-19.7 29.4-29.5v-9.7c-2.2 2.2-4.4 4.4-6.5 6.6-7.4 7.5-14.9 14.9-22.3 22.4m28.9 241v-2.6c-.8.9-1.7 1.7-2.5 2.6h2.5m-1437-72c8-8 15.9-16 24-24 9-9 18-17.9 27-26.9 10.7-10.7 21.4-21.6 32-32 10-10 20-20 30-30 .2-.2.4-.4.6-.6-3.4 0-6.8 0-10.2 0-.2.2-.3.4-.5.6-.2.3-.5.6-.7.9-4.4 4.4-8.8 8.8-13.3 13.2-16.2 16.2-32.4 32-48.6 48-22 22-44 44-67 67-18.8 18.8-37.6 37.5-56 56h10.3c2.8-2.8 5.7-5.7 8.5-8.5 11.3-11.3 22.5-22.7 33.8-34 9.9-9.9 19.8-19.7 29.7-29.6m-38.5 18c6.6-6.5 13-13.2 19.6-19.7 10.6-10.5 21-21 31.7-31.6 10.2-10.2 20-20.4 30.4-30.5 6.9-6.9 13.9-13.8 20.9-20.7 6.1-6.1 12.2-12 18.2-18.3 3.5-3.6 7.3-6.9 10.6-10.7.2-.2.4-.4.6-.6h-10.2c0 .2-.1.4-.3.6-.2.3-.4.5-.7.7-6.9 6.9-13.8 13.7-20.7 20.6-8 8-15.9 16-23.9 24-9.1 9.1-18.2 18-27.3 27-10.5 10.5-20.9 21-31.4 31.5-17.7 17.7-35 35-53 52.9-9.5 9.5-19 19-28.5 28.5h9.8c5.1-5.2 10.3-10.3 15.4-15.5 12.9-12.8 25.9-25.6 38.8-38.5m77-15.6c13.3-13.3 26.5-26.6 39.8-39.9 12.6-12.6 25-25 37.7-37.7 12.8-12.8 25.6-25.5 38-38 .2-.2.4-.4.6-.6-3.4 0-6.8 0-10.2 0 0 .3 0 .5-.1.6-.2.4-.6.6-.9.9-7.7 7.7-15.3 15.4-23 23-15.4 15.4-30.8 30.7-46 46-20.7 20.7-41 41.6-62 62-9.2 9.2-18.4 18.2-27.6 27.4-7.9 7.9-15.6 16-23.6 23.7-.7.7-1.4 1.4-2.1 2.1h9.6c9.8-9.8 19.6-19.6 29.4-29.4 13.3-13.6 26.7-27 40-40m7.5-28c14.5-14.5 29-29 43.5-43.5 14.8-14.8 29.5-29.5 44-44 .2-.2.4-.4.6-.6-3.4 0-6.8 0-10.2 0-.2.2-.3.4-.5.6-.2.3-.5.6-.8.9-11.8 11.8-23.6 23.5-35 35-14 14-27.9 28-41.9 42-17.4 17.4-34.8 34.7-52 52-18.4 18.4-36.8 36.9-55 55h9.8c2.5-2.5 5.1-5.1 7.6-7.6 14.6-14.6 29-29 44-43.8 15.5-15.5 30.9-31 46-46m-82 20c11.8-11.8 23.7-23.5 35.5-35 7.8-7.8 15.5-15.7 23.3-23.5 5.7-5.7 11.5-11.4 17.3-17.2 8.4-8.3 16.7-16.6 25-25 2.2-2.2 4.7-4.2 6.5-6.7.2-.2.3-.4.4-.6h-9.7c0 .2-.1.4-.2.6-.3.5-.8.7-1.1 1.1-8.6 8.6-17.2 17.3-25.9 25.9-16.6 16.6-33 33-49.8 49.8-21 20.9-42 41.8-62.9 62.8-15.3 15.3-30.6 30.6-45.9 46h9.7c15.4-15.4 30.7-30.7 46-46 10.7-10.6 21.3-21 31.8-31.7m-65 4.1c16.5-16.5 33-33 49.6-49 10.7-10.7 21.4-21.6 32-32 10-10 20-20 30-30 .2-.2.4-.4.6-.6-3.4 0-6.8 0-10.2 0-.2.2-.3.4-.5.6-.2.3-.5.6-.7.9-4.3 4.3-8.5 8.6-12.8 12.8-19.8 19.8-39.7 39.5-59 59-16.6 16.6-33 33-49.8 49.8-15.3 15.3-30.5 30.6-45.8 45.8-5.6 5.6-11.3 11.3-16.9 16.9h10c8.1-8.1 16.2-16.2 24.3-24.3 16.4-16.4 32.9-32.8 49-49m32 8.8c10.6-10.5 21-21 31.6-31.7 12.3-12.3 24.6-24.5 36.9-36.8 17.4-17.4 34.7-34.8 52-52 .2-.2.4-.4.6-.6h-10.2c.1.3 0 .5-.1.6-.2.3-.5.5-.7.7-1.7 1.7-3.4 3.3-5.1 5-15.7 15.8-31.5 31.6-47 47-20 20-40 40-60 60-17 17-34 34-51 51-7 7-13.9 14-20.8 20.9h9.5c.8-.8 1.6-1.6 2.4-2.4 11.7-11.7 23.4-23.5 35-35 9.2-9.3 18.4-18.3 27.5-27.4m12.6-33c14.6-14.6 29-29 43.7-43.7 14.6-14.6 29-29 43.9-43.9.2-.2.4-.4.6-.6h-10.2c-.2.2-.4.4-.6.6-3.7 4.2-7.8 7.9-11.8 11.9-16.8 16.8-33.5 33.6-50 50-14 14-28 28-42 42-11.6 11.6-23.3 23.3-34.9 34.9-12.4 12.5-24.9 24.9-37 37-2.9 3-5.9 5.9-8.8 8.9h9.8c4.4-4.4 8.8-8.8 13.2-13.2 28-28 57-56 85-85m245 20c8.4-8.4 16.8-16.7 25-25 .5-2.2 1.3-4.4 2.1-6.6 1.8-4.6 4.3-8.8 7.4-12.6-4.4 4.4-8.8 8.8-13.3 13.3-21 20.9-42 41.8-62.9 62.8-15.3 15.3-30.6 30.6-45.9 46h9.7c15.4-15.4 30.7-30.7 46-46 10.6-10.7 21-21.3 31.7-31.8m-33 12.9c10.6-10.5 21-21 31.6-31.7 12.3-12.3 24.6-24.5 36.9-36.8 4.1-4.1 8.1-8.1 12.2-12.2v.4c2.5-2.5 4.9-4.9 7.4-7.4 11.2-11.2 22.3-22.4 33.5-33.6-.1 0-.2 0-.3 0h-10.2c-.1 0-.2 0-.3 0 0 .5-.1.9-.4 1.2 0 0-.1.1-.1.1-.1.1-.2.2-.2.2-.3.3-.7.5-1 .8-9.4 9.5-18.9 18.9-28 28.4v.1c-7.6 7.6-15.2 15.2-22.8 22.8-20 20-40 40-60 60-17 17-34 34-51 51-7 7-13.9 14-20.8 20.9h9.5c.8-.8 1.6-1.6 2.4-2.4 11.7-11.7 23.4-23.5 35-35 9.1-9.1 18.3-18 27.4-27m30.4 10.8c6.6-6.5 13-13.2 19.6-19.7 2.6-2.6 5.3-5.3 7.9-7.9-.1-.6-.2-1.1-.3-1.7-.4-2.4-.6-4.8-.6-7.3-3 3.1-6.1 6.1-9.1 9.2-17.7 17.7-35 35-53 52.9-9.5 9.5-19 19-28.5 28.5h9.8c5.1-5.2 10.3-10.3 15.4-15.5 12.9-12.8 25.9-25.6 38.8-38.5m-17.8-43.9c14.6-14.6 29-29 43.7-43.7 8.1-8.1 16.3-16.3 24.4-24.4v.2c5.8-5.8 11.6-11.7 17.4-17.5.8-.8 1.7-1.4 2.2-2.3.1-.1.3-.3.4-.4h-.3-10c-.1 0-.2 0-.3 0 0 .1 0 .2 0 .3-.1.1-.2.2-.3.4-3.7 4.2-7.8 7.9-11.8 11.9-16.8 16.8-33.5 33.6-50 50-14 14-28 28-42 42-11.6 11.6-23.3 23.3-34.9 34.9-12.4 12.5-24.9 24.9-37 37-2.9 3-5.9 5.9-8.8 8.9h9.8c4.4-4.4 8.8-8.8 13.2-13.2 28.5-28.4 56.8-57 85-85m48.7-88h-10.7c-.2.2-.4.4-.6.6-15.9 16-154 155-185 186h8.6c38.7-38 176-174 188-185 .3-.3.5-.5.6-.6m-93 112c16.5-16.5 33-33 49.6-49 10.7-10.7 21.4-21.6 32-32 10-10 20-20 30-30 .2-.2.4-.4.6-.6h-10.2c-.2.2-.3.4-.5.6-.2.3-.5.6-.7.9-4.3 4.3-8.5 8.6-12.8 12.8-19.8 19.8-39.7 39.5-59 59-16.6 16.6-33 33-49.8 49.8-15.3 15.3-30.5 30.5-45.8 45.8-5.6 5.6-11.3 11.3-16.9 16.9h10c8.1-8.1 16.2-16.2 24.3-24.3 16.4-16.4 32.9-32.8 49-49m-59 18.6c9.5-9.5 19-19 28.6-28.6 8.8-8.8 17.5-17.5 26.3-26.3 8.2-8.2 16.4-16.5 24.7-24.7 14-14 28-28 42-42 2.9-2.9 6-5.5 8.6-8.7.2-.2.3-.4.5-.6h-9.7c-.1.2-.2.4-.3.6-.1.1-.1.2-.2.3-7.9 8-15.8 15.9-23.8 23.9-7.6 7.6-15.3 15-22.9 22.7-10.6 10.5-21 21-31.6 31.7-7.8 7.8-15.7 15.6-23.5 23.4-10.2 10.2-20.4 20.5-30.6 30.8-14.6 14.6-29 29-43.7 43.8-3 3-6 6-9 9h9.6c.8-.8 1.6-1.6 2.4-2.4 9.1-9.1 18-18.2 27-27.3 8.4-8.5 16.9-17 25.4-25.4m205-92c-2.5 2.5-4.9 4.9-7.4 7.4 3.3 0 6.7 0 10 0 .3-.3.7-.7 1-1 6.4-6.4 12.9-12.9 19.3-19.3 4.7-4.7 9.4-9.3 14-14 .8-.8 1.7-1.7 2.5-2.5 2.1-2 4.2-4 6.2-6.1.1-.1.2-.2.2-.3.7-.7 1.3-1.4 2-2.1.2-.2.4-.4.6-.6h-.3-9.7-.3c0 .2-.1.4-.3.6-.3.4-.7.7-1.1 1.1-6.8 6.7-13.6 13.5-20.3 20-5.4 5.5-10.9 11-16.4 16.6m113 9c-4.2 4.2-8.4 8.4-12.6 12.6.7.3 1.4.7 2 1.2 1.6 1.4 2.5 3 2.8 5 1.1-1.1 2.3-2.3 3.4-3.4 6-6 11.9-12 17.9-17.9 0-.1 0-.1 0-.2 0-3.2 1.4-5.6 4.1-7.3 2.8-1.8 5.7-3.5 8.5-5.2.6-.6 1.1-1.1 1.7-1.7 10.2-10.2 20.5-20.5 30.7-30.7-.2 0-.4 0-.6 0h-9.7c0 0 0 0 0 0-.2.3-.5.6-.7 1-.5 0-1.1 0-1.6 0 .1.9-31 31.6-45.9 46.6m-9.8-20.3c7.2-7.2 14.4-14.4 21.6-21.7 1.8-1.8 3.9-3.3 5.1-5.6-.1 0-.2 0-.3 0h-9.7c-.1 0-.2 0-.3 0 .1.3 0 .6-.1.8-.4.5-.9.9-1.4 1.3-6.6 6.6-13.2 13.2-19.8 19.8 2 1.5 3.7 3.3 4.9 5.4m2.1 8.2c0 7.9-6.5 16.2-16.3 16.3-2.6 2.6-5.1 5.1-7.7 7.7 3.4 0 6.7 0 10 0 19.8-19.8 39.7-39.6 60-59-.3 0-.6 0-.9 0h-9.4-.3c-.2.3-.3.7-.5 1-7.9 8-15.8 15.9-23.8 23.9-3.5 3.4-7.1 6.9-10.7 10.5m61-9.6c4.9-4.9 9.9-9.8 14.7-14.8 3.6-3.7 7.6-7.1 10.9-11h-10.2c-.2.3-.3.7-.5 1h-1.2c.1.7-.4 1-.8 1.4-6.4 6.4-12.9 12.9-19.4 19.3 2.7.1 5.1 1.8 6.5 4.2m1 8.5c0 1.6 0 3.2 0 4.9 0 .4 0 .8 0 1.2-.1 1.2.4 2.5 1.2 3.5 4.4-4.4 8.8-8.9 13.2-13.3 10.2-10.2 20.5-20.5 30.7-30.7-3.4 0-6.8 0-10.2 0-.2.3-.5.7-.7 1h-1c-.1.9-.8 1.2-1.3 1.7-10.4 10.4-20.9 20.9-31 31-.3.2-.4.3-.6.4m62-10.2c8-8.1 16-16 24-24h-10.2c.1.7-.4 1-.8 1.4-1.7 1.7-3.4 3.3-5.1 5-5.9 5.9-11.9 11.9-17.8 17.8 3.3 0 6.5 0 9.8 0m-52 21.8c2.1 0 4.3 0 6.4 0 1.1 0 2.1.2 3 .6.7-.7 1.4-1.4 2.1-2.1 5-5 10-10 15-15 .9-2.1 2.5-3.8 4.6-4.6 8.3-8.3 16.5-16.5 24.8-24.8h-10.2c-3.9 4.4-8.2 8.4-12.3 12.5-11.2 11.2-22.3 22.3-33.5 33.5m-120-2.7c-4.4 4.4-8.9 8.9-13.3 13.3 0 .9 0 1.7 0 2.6 0 2.4 0 4.9 0 7.3 3-3 6-6 9-9 6.8-6.8 13.5-13.6 20.3-20.3-.1-.6-.1-1.3-.2-1.9.3-10.3 8.6-16.4 16.5-16.3.6 0 1.2 0 1.8.1 5.7-5.7 11.4-11.4 17-17 .5-.5 1.1-.9 1.4-1.5.1-.1.3-.3.4-.4h-.3-9.7-.3c0 .1 0 .3 0 .4-.4.5-.8.9-1.2 1.4-1.4 1.4-2.8 2.8-4.1 4.2-6.9 6.9-13.8 13.8-20.7 20.7-5.5 5.4-11 10.9-16.7 16.5m-96 13.5c2-1.6 4.1-3 6.3-4.3 4.2-2.4 8.6-4.2 13.3-5.3 5.6-5.6 11.3-11.2 16.9-16.9 7.9-7.9 15.9-15.8 23.7-23.7 2.1-2.1 4.6-3.9 6.1-6.6-.1 0-.2 0-.3 0h-9.7c-.1 0-.2 0-.3 0 0 .4-.1.7-.2 1-.3.3-.6.5-.8.8-8.6 8.6-17.2 17.3-25.9 25.9-9.7 9.7-19.4 19.4-29 29m-340 42.9c14.8-14.8 29.6-29.5 44-44 8.8-8.8 17.6-17.6 26.4-26.5 5.9-5.9 12-11.8 17.8-17.9 3.4-3.5 7.1-6.8 10.4-10.5.2-.2.4-.4.6-.6h-10.2c-.1.2-.2.4-.3.6-.1.1-.1.2-.2.3-7.9 8-15.8 15.9-23.8 23.9-9.3 9.3-18.6 18.4-27.9 27.7-17.9 17.9-35.7 35.8-53.6 53.7-26.6 26.7-53 53-79.9 80h9.8c2.7-2.7 5.4-5.4 8-8.1 11.4-11.4 22.9-22.8 34.4-34 14.7-14.6 29.4-29 44-44m328 19.7c-.3-.6-.7-1.2-1-1.8-.9-1.6-1.6-3.3-2.3-5-5.8 5.8-11.5 11.5-17.3 17.3-18.8 18.8-37.6 37.5-56 56h10.3c2.8-2.8 5.7-5.7 8.5-8.5 11.3-11.3 22.5-22.7 33.8-34 8.1-8.1 16.3-16.2 24.4-24.3m-351-17c15.3-15.3 30.7-30.7 46-46 8-8 16-15.9 24-23.8 8.4-8.3 16.7-16.6 25-25 2.2-2.2 4.7-4.2 6.5-6.7.1-.2.3-.4.4-.6h-9.7c0 .2-.1.4-.2.6-.3.5-.8.7-1.1 1.1-10.4 10.4-20.9 20.9-31 31-21.7 21.7-43.5 43.5-65 65-29 29-59 59-88 88h9.6c9.1-9.1 18.2-18.2 27-27 18.9-19 37.8-37.9 56.7-56.7m415-56c3.4 0 6.8 0 10 0 14.5-14.5 29-29 43.6-43.6.6-.6 1.4-1.1 1.8-1.9.1-.1.3-.3.4-.4h-.3-9.7-.3c-.4.5-.8 1.1-1.2 1.5-.2.2-.4.4-.6.6-4.2 4.2-8.5 8.4-12.7 12.7-10.2 10.3-20.7 20.7-31 31m44-23.5c-4.8 4.8-9.6 9.5-14.3 14.3-3.1 3.1-6.1 6.1-9.2 9.2.4 0 .8 0 1.2 0 1.7 0 3.4.3 4.8 1.2.6.4 1.2.8 1.7 1.3 3.1-3.1 6.2-6.2 9.3-9.3 11.4-11.4 22.8-22.7 34-34 1.4-1.5 3.2-2.6 4.3-4.5.2-.2.4-.4.5-.5h-.3-10c-.1 0-.2 0-.3 0 0 .1 0 .2 0 .3-.3.4-.7.9-1.1 1.3-6.7 6.9-13.7 13.9-20.7 20.9m369 112c-5.9 4.3-12.5 7.7-19.8 9.7-14 14-28 28-42 42h9.8c2.5-2.5 5.1-5.1 7.6-7.6 14.6-14.6 29-29 44-43.8.2-.2.3-.4.5-.5m-67 4.7c-2.1-1.1-4.1-2.3-6-3.7-1.6 1.6-3.3 3.3-4.9 4.9-15.3 15.3-30.6 30.6-45.9 46h9.7c15.4-15.4 30.7-30.7 46-46 .4-.4.8-.8 1.1-1.1m15.2 5.7c-2.6-.6-5.2-1.4-7.7-2.3-5.1 5.1-10.2 10-15.2 15.2-9.5 9.5-19 19-28.5 28.5h9.8c5.1-5.2 10.3-10.3 15.4-15.5 8.8-8.6 17.5-17.2 26-25.9m-27-14c-1.7-1.5-3.3-3.1-4.9-4.9-13.2 13-26.3 26.3-39 39-7 7-13.9 14-20.8 20.9h9.5c.8-.8 1.6-1.6 2.4-2.4 11.7-11.7 23.4-23.5 35-35 6-5.8 12-11.8 18-17.8m-9.6-10.8c-1.4-2-2.7-4.1-3.8-6.2-8.5 8.5-16.9 16.9-25.4 25.4-.3 3.5-3.1 6.8-7.2 7.3-.1 0-.1 0-.2 0-10.3 10.3-20.6 20.6-30.9 31-2.9 3-5.9 5.9-8.8 8.9h9.8c4.4-4.4 8.8-8.8 13.2-13.2 17.7-17.7 35.5-35.5 53-53m50.8 26.6c-1.7 0-3.5-.1-5.2-.2-13.4 13.3-26.8 26.7-40 40h10.3c2.8-2.8 5.7-5.7 8.5-8.5 10.5-10.5 20.9-21 31-31.5-1.6.1-3.2.2-4.8.2m-123-15.3c4.4-4.4 8.9-8.9 13.3-13.3-1.2-2-2.4-4-3.6-6.1-7.2 7.2-14.4 14.5-21.6 21.7-14.6 14.6-29 29-43.7 43.8-3 3-6 6-9 9h9.6c.8-.8 1.6-1.6 2.4-2.4 9.1-9.1 18-18.2 27-27.3 8.5-8.5 17-17 25.5-25.4m28.4 12c-.3-.4-.6-.8-.9-1.3-1-1.7-2-3.4-3-5-10.8 10.8-21.5 21.5-32 32-5.6 5.6-11.3 11.3-16.9 16.9h10c8.1-8.1 16.2-16.2 24.3-24.3 6.2-6.1 12.5-12.3 18.7-18.6m-11-18.6c-27 27-50.7 50.8-61 62h8.6c11.8-11.6 32.6-32 56-55.7-1.1-1.9-2.2-3.8-3.4-5.8m236 19c-3.2 0-6.4 0-9.6 0-6.5 6.5-13 13-19.5 19.5-7.6 7.6-15 15.2-22.7 22.7-.1.1-.2.2-.2.2h9.6c13-13 26-26 39-39 1-1.1 2.2-2.2 3.3-3.3m20.3 0c-3.2 0-6.4 0-9.6 0-14.2 14.2-28 28-42.5 42.5h9.6c8.8-8.8 17.5-17.5 26.3-26.3 5.4-5.4 10.8-10.8 16.2-16.2m-51 0c-16.2 16-32 31.9-42.9 42.5h8.6c10.8-10.7 26-25.8 43-42.5-2.9 0-5.9 0-8.8 0m-529-13c-1.8-1.6-3.4-3.4-4.9-5.2-1.8 1.8-3.6 3.6-5.3 5.3-18.4 18.4-36.8 36.9-55 55h9.8c2.5-2.5 5.1-5.1 7.6-7.6 14.6-14.6 29-29 44-43.8 1.3-1.3 2.7-2.6 4-4m506-14.2c1.6-1.6 3.2-3.2 4.8-4.8 0-.3 0-.7 0-1 0-2.9 0-5.8 0-8.6-10.3 10.3-20.5 20.6-30.8 30.9-9.2 9.2-18.4 18.2-27.6 27.4-7.9 7.9-15.6 16-23.6 23.7-.7.7-1.4 1.4-2.1 2.1h9.6c9.8-9.8 19.6-19.6 29.4-29.4 13.5-13.5 26.9-26.9 40-40m127-4.7c-.1-.2-.2-.3-.3-.5-1-2.1-1.9-4.3-2.7-6.5-.8.8-1.6 1.6-2.4 2.4-4.8 4.8-9.7 9.7-14.5 14.5-.8 4.3-2.6 8.2-5.3 11.7-4.3 5.3-9.7 8.6-16.2 9.8-14.3 14.3-28.6 28.6-42.9 42.9h9.8c2.4-2.4 4.7-4.7 7.1-7.1 11.4-11.4 22.9-22.8 34.4-34 11-10.9 22-21.9 33-32.9m-122 20.3c0-3.2 0-6.5 0-9.7-11 11-22 22-33 33-10.2 10.2-20.5 20.5-30.7 30.7h9.7c11-11 22-22 33-33 6.9-7 13.9-13.9 20.9-20.8m8.7 11.6c0 0-.1 0-.1 0-1.6 0-3.2-.4-4.6-1.2-.8-.5-1.4-1-2-1.6-12 12-24 24-36 36-3 3-6 6-9 9h9.6c.8-.8 1.6-1.6 2.4-2.4 9.1-9.1 18-18.2 27-27.3 4.4-4.3 8.7-8.5 12.9-12.8m-389 0c-3.3 0-6.7 0-10 0-11.2 11.2-22.4 22.4-33.5 33.6-2.9 3-5.9 5.9-8.8 8.9h9.8c4.4-4.4 8.8-8.8 13.2-13.2 9.8-9.8 19.6-19.5 29-29m-19.7-.7c-2.4-1.1-4.3-3.3-4.8-5.9-2.7 2.7-5.3 5.3-8 8-13.7 13.7-27.3 27.3-41 41h.6 9 1.1c8.1-8.1 16.2-16.2 24.3-24.3 6.2-6.2 12.5-12.5 18.8-18.8m-72 19.6c-9.1 9-17.4 17.3-23.8 23.6h1.9 6.8 2.8c.3-.3.6-.6 1-1h.3c5.8-5.8 11.5-11.5 17.3-17.3-2.8-.5-5.3-2.7-6.3-5.3m19 5c-1.1.2-2.1.3-3.2.4-5.9 5.9-11.9 11.9-17.8 17.9-.1.1-.2.2-.2.2h.7 8.9.9c2.7-2.7 5.4-5.4 8-8.1 5.5-5.5 11-11 16.6-16.5-4.1 3.1-8.7 5.1-13.9 6.1m-49.9-24.6v.3c1.4-1.4 2.8-2.8 4.2-4.2-.1-.1-.3-.1-.4-.2-2-1-4-2.1-5.8-3.3-8.3 8.3-16.7 16.5-25 24.8-7.9 7.9-15.6 16-23.6 23.7-.7.7-1.4 1.4-2.1 2.1h9.6c9.8-9.8 19.6-19.6 29.4-29.4 4.5-4.6 9.1-9.2 13.7-13.8m266 .2c-.9.3-1.9.5-2.9.5-2.4 0-4.8 0-7.2 0-3.9 3.9-7.9 7.9-11.8 11.8-10.2 10.2-20.5 20.5-30.7 30.7h9.7c11-11 22-22 33-33 3.2-3.3 6.5-6.5 9.7-9.7m-236 10.9c0-1.3 0-2.6 0-3.8 0-.4 0-.8 0-1.2.1-1.4-.4-2.7-1.3-3.6-10.6 10.6-21 21-31.7 31.7-3 3-6 6-9 9h9.6c.8-.7 1.5-1.5 2.2-2.2v.3c10-10 20-20 30-30m-30 9.7c6.3-6.3 12.6-12.6 18.9-18.9.5-.5.9-.9 1.4-1.4-2.9-.3-5.8-.8-8.5-1.6-4.5 4.5-9 9-13.5 13.5-10.2 10.2-20.5 20.5-30.7 30.7h9.7c7.6-7.6 15.2-15.2 22.8-22.9v.6m236-31c0-3.4 0-6.7 0-10-2.8 2.8-5.5 5.5-8.3 8.3-18.4 18.4-36.8 36.9-55 55h9.8c2.5-2.5 5.1-5.1 7.6-7.6 14.6-14.6 29-29 44-43.8.7-.7 1.4-1.4 2.1-2.1m-74-7.6c-.7-2.1-1.3-4.2-1.6-6.4-.1-.5-.1-1-.2-1.5-7.4 7.4-14.8 14.7-22 22-.7 1.4-2 2.8-3.7 3.7-7.5 7.5-14.9 14.9-22.4 22.4-7 7-13.9 14-20.8 20.9h9.5c.8-.8 1.6-1.6 2.4-2.4 11.7-11.7 23.4-23.5 35-35 7.9-7.9 15.8-15.7 23.7-23.6m73-10.9c.6-.6 1.2-1.2 1.8-1.8 0-3.4 0-6.8 0-10-9.2 9.3-18.5 18.5-27.8 27.8-2.6 2.6-5.2 5.2-7.7 7.7 0 .7 0 1.4-.2 2.1-.8 3.9-4 6.5-7.9 6.7-.2 0-.4 0-.6 0-13.3 13.3-26.6 26.5-39.9 39.8h10.3c2.8-2.8 5.7-5.7 8.5-8.5 11.3-11.3 22.5-22.7 33.8-34 9.8-10 19.8-19.8 29.7-29.7m11.2 29.6c-.4 0-.7 0-1.1 0-2.2 0-4.4-.9-5.9-2.5-6.4 6.4-12.9 12.8-19.3 19-7.9 7.9-15.6 16-23.6 23.7-.7.7-1.4 1.4-2.1 2.1h9.6c9.8-9.8 19.6-19.6 29.4-29.4 4.3-4.4 8.6-8.7 13-13m-76-6.5c-.5-.5-1.1-1.1-1.6-1.6-1-1.1-2-2.3-2.8-3.6-2.7 2.7-5.5 5.5-8.2 8.2-15.3 15.3-30.6 30.6-45.9 46h9.7c15.4-15.4 30.7-30.7 46-46 .9-1 1.9-1.9 2.8-2.9m13.2 7.8c-2.5-.7-4.8-1.7-7-3-5.2 5.2-10.5 10.4-15.7 15.7-9.5 9.5-19 19-28.5 28.5h9.8c5.1-5.2 10.3-10.3 15.4-15.5 8.7-8.6 17.3-17.2 26-25.7m304 41h-8.6c9.4 9.4 37 36.9 37 36.9 10 9.9 24.6 24.4 39.7 39h8.9c-14.6-14-67-66-77-76m714 23.5v-8.5c-5-5-10-10-15-15h-8.4c4.2 4.3 8.5 8.5 12.8 12.8 3.5 3.6 7 7.1 10.6 10.7m0-23.5h-2.5c.8.9 1.7 1.7 2.5 2.6v-2.6m-1408 0h-8.6c7.6 7.7 60.7 61 76 76h9c-15.2-15-67.9-67-77-76m471 0h-8.6c7.6 7.7 60.7 61 76 76h9c-15.2-15-67.9-67-77-76m437 6.6c-2.2-2.2-4.4-4.4-6.6-6.6h-9.8c13 13 64 63.9 76 76h10c-11-10.9-59.9-60-70-70m-19.4.9c-2.5-2.5-5-5-7.5-7.5h-10.3c13 13 64 63.9 77 76h10c-10.5-10.6-59-59-68.8-68.8m-13.6 7c-4.8-4.8-9.7-9.7-14.5-14.5h-9.8c9.2 9.2 18.3 18.4 27.5 27.6 3.9 3.9 28.8 28.6 37 36.9 3.9 3.9 7.8 7.8 11.8 11.8h10c-8.3-8.3-16.6-16.5-25-24.8-4.9-4.9-29.7-29.5-37-37m-35-14.5h-9.7c13 13 64 63.9 76 76h9.7c-13-13-64-64-76-76m-19 1.5c-.5-.5-1-1-1.5-1.5h-9.5c6.6 6.7 13.2 13.3 19.9 20 6.4 6.5 31 31 37 36.9 6.4 6.5 12.9 12.9 19.3 19.4h9.6c-.9-.9-1.8-1.8-2.7-2.7-11.7-11.7-61-60-72-72m-9.8 10.7c-4.1-4.1-8.1-8.1-12.2-12.2h-9.9c2.6 2.6 5.2 5.3 7.8 7.9 10.4 10.5 58 57.9 69 68h10c-9.1-9-18-18-27-27-3.9-4.1-28.7-28.8-37-37m152-12.2h-9.7c8.6 8.6 17.3 17.2 25.9 25.8 4.5 4.5 29 29 37 36.9 4.5 4.5 9 9 13.5 13.5h9.7c-.2-.2-.4-.4-.5-.5-13-12.8-63.8-63-76-76m20 .1c0 0 0-.1 0 0l-8.8-.1c4.9 5 9.8 9.9 14.7 14.8 8.2 8.2 33 32.8 37 36.9 8.2 8.2 16.3 16.3 24.5 24.5h8.7c-13-13-64-63.8-76-76m-32.9 28c-9.4-9.4-18.8-18.8-28-28h-9.9c.4.4.7.7 1.1 1.1 8 7.8 15.7 15.9 23.6 23.7 4.9 4.8 29.7 29.5 37 36.9 4.9 4.8 9.7 9.7 14.6 14.5h10c-3.7-3.7-7.5-7.4-11.2-11.2-9.4-9.3-34-33.9-37-36.9m-8-28h-9.9c9.9 9.9 19.8 19.8 29.7 29.7 3.2 3.2 28 27.8 37 36.9 3.2 3.2 6.4 6.4 9.6 9.6h9.9c-13-13-64-63.9-76-76m-179 26.3c-8.8-8.8-17.5-17.5-26.3-26.3h-9.6c13 13 64 63.9 77 76h9.6c-4.4-4.4-8.7-8.7-13-13-8.8-8.7-33.7-33.4-37-36.9m-108-26.3h-9.7c10.2 10.2 20.5 20.5 30.7 30.7 2.9 2.9 27.7 27.5 37 36.9 2.9 2.9 5.8 5.8 8.6 8.6h9.6c-2-2-4-4-6-6-11-11-59-59-70-70m9.1 29.4c-9.8-9.8-19.6-19.6-29.4-29.4h-9.6c.7.7 1.4 1.4 2.1 2.1 8 7.8 15.7 15.9 23.6 23.7 4.5 4.5 29.4 29 37 36.9 4.5 4.5 9.1 9 13.6 13.5h9.6c-3.3-3.3-6.6-6.6-9.9-9.9-9.9-9.7-34.7-34.4-37-36.9m13.8-27c-.8-.8-1.6-1.6-2.4-2.4h-9.6c3 3 6 6 9 9 10 10 34.9 34.7 37 36.9 10 10 20 20 30 30h9.5c-3.2-3.2-6.4-6.4-9.6-9.6-9.1-9.1-55-55-64-64m-56 5.2c-2.5-2.5-5.1-5.1-7.6-7.6h-9.8c13 13 64 63.9 76 76h10c-10.7-10.6-59-58.9-69-69m179 15.7c-7.8-7.8-15.5-15.5-23.3-23.3h-10c5.3 5.3 10.6 10.6 15.9 15.9 7.8 7.8 32.6 32.4 37 36.9 7.8 7.8 15.6 15.6 23.4 23.4h10c-5.3-5.3-10.7-10.7-16-16-7.8-7.7-32.7-32-37-36.9m-36.8-16.2c-2.4-2.4-4.7-4.7-7.1-7.1h-9.8c13 13 64 63.9 76 76h9.9c-10.7-10.8-59-59-69-69m256 10c-5.7-5.7-11.4-11.4-17-17h-9.5c2.1 2.2 4.2 4.3 6.3 6.5 5.7 5.5 11.2 11.2 16.8 16.8 5.3 5.4 31.6 31 37 36.9 5.3 5.4 10.8 10.7 16.2 16h9.6c-7.4-7.4-14.8-14.8-22.3-22-5.7-5.8-30.6-30.4-37-37m-304-17h-9.6c.1.1.2.2.2.2 7.6 7.6 15 15.2 22.7 22.7 5.5 5.5 30 30 37 36.9 5.5 5.5 10.9 10.9 16.4 16.3h9.6c-.1-.1-.1-.1-.2-.2-13-12.9-64-64-76-75.9m641 4.8c-1.6-1.6-3.2-3.2-4.8-4.8h-9.1c4.8 4.8 9.5 9.6 14.3 14.4 8.3 8.3 33 32.9 37 36.9 8.3 8.3 5 5 13.3 13.3v-9.1c-11.5-11.5-40-40-50.9-50.7m-17.4 3.3c-2.7-2.7-5.4-5.4-8.1-8.1h-9.2c4.2 4.3 8.5 8.6 12.8 12.8 8.8 8.8 33.7 33.5 37 36.9 8.8 8.8 17.7 17.6 26.5 26.5h9.2c-10.4-10.4-20.8-20.8-31-31-2.7-2.7-27.6-27.3-37-36.9m-11 9.4c-5.8-5.8-11.7-11.7-17.5-17.5h-8.3c4.9 4.9 9.8 9.9 14.8 14.8 8.2 8.2 33 32.8 37 36.9 8.2 8.2 16.3 16.3 24.5 24.5h8.4c-7.3-7.3-14.5-14.5-21.8-21.8-5.9-5.8-30.8-30.4-37-36.9m-20.7.1c-5.9-5.9-11.7-11.7-17.6-17.6h-8.3c4.2 4.2 8.4 8.4 12.6 12.6 8.9 8.9 33.7 33.5 37 36.9 8.9 8.9 17.7 17.8 26.6 26.7h8.5c-7.3-7.2-14.5-14.5-21.8-21.7-5.9-5.8-30.8-30.4-37-36.9m-37-17.6h-9.5c2.1 2.2 4.2 4.3 6.3 6.5 6 6 12 12 18 17.9 5 5 31 31 37 36.9 5 5 10 9.9 14.9 14.9h9.5c-13-13-64-63.9-76-76m-20.9 0h-9.6c8.6 8.6 17.3 17.2 25.9 25.8 4.5 4.5 29 29 37 36.9 4.5 4.5 9 9 13.4 13.5h9.6c-2.1-2.1-4.2-4.3-6.3-6.3-11-11-59-58.9-70-69.9m-197 28c-9.5-9.4-18.9-18.9-28.4-28h-9.5c4.2 4.3 8.5 8.6 12.8 12.8 8.8 8.8 54.8 54.6 64 63h9.6c-3.7-3.7-7.4-7.3-11-11-9.4-9.4-34-34-37-36.9m224 18.3c-3.2-3.2-28-27.9-37-36.9-3.2-3.2-6.5-6.5-9.8-9.7h-9.5c4.3 4.4 8.7 8.7 13 13 8.8 8.8 33.6 33.4 37 36.9 8.8 8.8 17.5 17.5 26.3 26.3h9.7c-.2-.2-.3-.3-.5-.5-9.7-9.6-19.5-19.4-29-29m-674-38c-2.8-2.8-5.7-5.7-8.5-8.5h-10.3c13 13 64 63.9 77 76h10c-10.2-10.3-20.4-20.6-30.7-30.8-2.8-2.9-27.6-27.6-37-37m494 2.4c-3.6-3.6-7.3-7.3-10.9-10.9h-8.6c4.1 4.1 8.2 8.3 12.3 12.4 8.2 8.2 53.6 53 61.8 62 .8.8 1.6 1.6 2.3 2.3h8.6c-9.5-9.5-18.9-18.9-28.4-28.4-3.6-3.6-28.4-28-37-36.9m-22.3-2.3c-2.8-2.8-5.5-5.8-8.4-8.5h-9.6c6.8 6.9 13.7 13.8 20.6 20.6 6.2 6.2 31 30.9 37 36.9 6.2 6.2 12.6 12.3 18.7 18.7h9.6c-10.3-10.3-20.6-20.5-30.9-30.8-2.9-2.8-27.7-27.5-37-36.9m-8.5 12.2c-6.9-6.9-13.8-13.8-20.8-20.8h-9.5c5.2 5.2 10.4 10.4 15.6 15.6 7.9 7.9 32.8 32.5 37 36.9 7.9 7.9 15.8 15.8 23.7 23.7h9.7c-6.2-6.2-12.5-12.3-18.7-18.5-7-6.9-31.8-31.5-37-36.9m57.9-3.5c-5.8-5.8-11.5-11.5-17.3-17.3h-9.5c2.1 2.2 4.2 4.3 6.3 6.5 5.6 5.5 11 11 16.6 16.6 5.4 5.5 31.7 31.4 37 36.9 5.4 5.5 10.9 10.8 16.4 16.3h9.5c-7.3-7.3-14.7-14.7-22-22-5.8-5.8-30.6-30.5-37-37m125 22c-.9-.9-7.4-7-9.6-9.3-9.2-9.2-18.4-18.5-27.6-27.7-.9-.9-1.8-1.7-2.7-2.6h-9.6c2.1 2.2 4.2 4.3 6.3 6.4 5.7 5.5 11.2 11 16.8 16.8 5.4 5.4 31.6 31 37 36.9 5.4 5.4 10.8 10.7 16.2 16h9.6c-3-3-6-6-9.1-9.1-9.1-9-18.3-18.3-27.5-27.5m-23.4-2.6c0 0-24.8-24.6-37-36.9 0 0-.1-.1-.1-.1h-8.8c8.2 8.3 16.4 16.6 24.8 24.7 4.2 4 12.3 12.2 12.3 12.2 8.2 8.3 16.4 16.6 24.8 24.7 5 4.8 9.9 9.7 14.8 14.6h8.4c-12.9-12.9-39-39-39-39m-70-9.2c-9.3-9.2-18.5-18.5-27.8-27.7h-9.5c4.2 4.2 8.4 8.4 12.6 12.6 8.9 8.9 33.7 33.5 37 36.9 8.9 8.9 17.7 17.8 26.6 26.7h9.7c-3.9-3.9-7.7-7.7-11.6-11.6-9.3-9.2-34-33.8-37-36.9m21.8-19c-2.8-2.8-5.6-5.8-8.4-8.6h-9.6c6.9 6.9 13.7 13.8 20.6 20.7 6.2 6.2 31 30.9 37 36.9 6.2 6.2 12.4 12.4 18.7 18.7h9.8c-.1-.1-.3-.3-.4-.4-10.3-10.2-58-57.9-67.9-67m-1.1 19.6c-9.4-9.4-18.8-18.8-28-28h-9.4c5.2 5.2 10.4 10.4 15.6 15.7 7.9 7.9 32.7 32.5 37 36.9 7.9 7.9 15.8 15.8 23.7 23.7h9.5c-3.7-3.7-7.4-7.4-11-11-9.6-9.4-34.4-34-37-37m225 .2c-9.5-9.4-18.9-18.9-28-28.4h-8.4c2.1 2.2 4.2 4.3 6.3 6.5 6.1 6.2 12.3 12.3 18.4 18.4 4.8 4.8 13.5 13.5 19.7 19.6l-.2-8.7c-9.4-9.4-5-4.9-7.5-7.4m-790 8.5c0 0-14.5-14.3-21.7-21.5-5.2-5.2-10.3-10.3-15.5-15.5h-9.7c9.5 9.5 19 19 28.5 28.5 3.6 3.6 28.4 28 37 36.9 3.6 3.6 7.2 7.2 10.8 10.8h10c-8-7.9-16-15.9-24-23.8-5.3-5-10.4-10.2-15.6-15.4m-557-23.7c-4.4-4.4-8.8-8.8-13.2-13.2h-9.8c2.9 3 5.9 5.9 8.8 8.9 10 10.2 35 34.8 37 36.9 10 10.2 20.3 20.3 30.4 30.5h10c-8.7-8.7-17.5-17.4-26-26-4.4-4.5-29-29-37-37m-9.2 11c-8.1-8.1-16.2-16.2-24.3-24.3h-10c5.6 5.6 11.3 11.3 16.9 16.9 7.5 7.5 32 32 37 36.9 7.5 7.5 14.9 14.9 22.4 22.4h10c-5-5-10-10-15-15-8.1-8.1-32.9-32.7-37-36.9m-85-24.3h-9.8c10.2 10.2 58 58 67.9 68 2.9 2.9 5.8 5.8 8.6 8.6h9.6c-2-2-4-4-6-6-11-11-59-59-70-70m9 29.4c-9.8-9.8-19.6-19.6-29.4-29.4h-9.6c.7.7 1.4 1.4 2.1 2.1 8 7.8 15.7 15.9 23.6 23.7 4.5 4.5 29.4 29 37 36.9 4.5 4.5 9.1 9 13.6 13.5h9.6c-3.3-3.3-6.6-6.6-9.9-9.9-9.9-9.7-34.7-34.4-37-36.9m13.9-27c-.8-.8-1.6-1.6-2.4-2.4h-9.6c3 3 6 6 9 9 10 10 57 57 67 67h9.5c-3.2-3.2-6.4-6.4-9.6-9.6-9.1-9.1-55-55-64-64m81 0c-.8-.8-1.6-1.6-2.4-2.4h-9.6c6.9 7 13.9 14 20.8 20.9 6.1 6.1 31 30.8 37 36.9 6.1 6.1 12.3 12.3 18.4 18.4h9.6c-.6-.6-1.1-1.1-1.7-1.7-11.7-11.6-60.8-61-72-72m54 13c-5.2-5.2-10.3-10.3-15.5-15.5h-9.8c9.5 9.5 19 19 28.5 28.5 3.6 3.6 28.4 28 37 36.9 3.6 3.6 7.2 7.2 10.8 10.8h10c-8-7.9-16-15.9-24-23.8-5.2-5.1-30-29.8-37-36.9m13.7-7c-2.8-2.8-5.7-5.7-8.5-8.5h-10.3c13 13 64 63.9 77 76h10c-10.2-10.3-58-58-67.8-67.8m-49.8-8.5h-9.7c13 13 64 63.9 76 76h9.7c-13-13-64-64-76-76m-189 15.5c-5.2-5.1-10.3-10.3-15.4-15.5h-9.8c9.5 9.5 19 19 28.5 28.5 3.6 3.6 28.4 28 37 36.9 3.6 3.6 7.2 7.2 10.8 10.8h10c-8-7.9-16-15.9-24-23.8-5.4-5.1-30-29.8-37-36.9m-110-7.4c-2.7-2.7-5.4-5.4-8-8.1h-9.8c13 13 64 63.9 76 76h9.9c-10.4-10.4-20.9-20.8-31-31-2.7-2.7-27.5-27.3-37-36.9m36.8 16.2c-8.1-8.1-16.2-16.2-24.3-24.3h-10c5.6 5.6 11.3 11.3 16.9 16.9 7.5 7.5 32 32 37 36.9 7.5 7.5 14.9 14.9 22.4 22.4h10c-5-5-10-10-15-15-8.1-8.1-32.9-32.7-37-36.9m-38 2.9c-9.1-9.1-18.2-18.2-27-27h-9.7c13 13 64 63.9 77 76h9.6c-4-4-8-8-12-12-9.1-9.1-33.9-33.7-37-37m48-14c-4.4-4.4-8.8-8.8-13.2-13.2h-9.8c2.9 3 5.9 5.9 8.8 8.9 10 10.2 35 34.8 37 36.9 10 10.2 20.3 20.3 30.4 30.5h10c-8.7-8.7-17.5-17.4-26-26-4.4-4.5-29-29-37-37m97-5.6c-2.5-2.5-5.1-5.1-7.6-7.6h-9.8c13 13 64 63.9 76 76h10c-10.6-10.6-59-58.9-69-69m225 0c-2.5-2.5-5.1-5.1-7.6-7.6h-9.8c13 13 64 63.9 76 76h10c-10.6-10.6-21-21-31.8-31.7-2.6-2.6-27.4-27-37-37m-312-5.2c-.8-.8-1.6-1.6-2.4-2.4h-9.5c6.9 7 13.9 14 20.8 20.9 6.1 6.1 31 30.8 37 36.9 6.1 6.1 12.3 12.3 18.4 18.4h9.6c-.6-.6-1.1-1.1-1.7-1.7-11.8-11.6-60.9-61-72-72m67.8 6.1c-2.8-2.8-5.7-5.7-8.5-8.5h-10.3c13 13 64 63.9 77 76h10c-10.2-10.3-58-58-67.8-67.8m-49.8-8.5h-9.7c13 13 64 63.9 76 76h9.7c-13-13-64-64-76-76m634 39c-.8-.8-7.6-7.2-10-9.7-9.1-9.1-18-18.2-27-27.3-.8-.8-1.6-1.6-2.4-2.4h-9.6c3 3 6 6 9 9 10 10 57 57 67 67h9.5c-3.2-3.2-6.4-6.4-9.6-9.6-9.1-9-18-18-27-27m-60-39h-9.7c10.2 10.2 58 58 67.9 68 2.9 2.9 5.8 5.8 8.6 8.6h9.6c-2-2-4-4-6-6-11-11-59-59-70-70m-33 7.6c-2.5-2.5-5.1-5.1-7.6-7.6h-9.9c13 13 64 63.9 76 76h10c-10.6-10.6-59-58.9-68.9-69m12.9-7.6h-9.6c.7.7 1.4 1.4 2.1 2.1 8 7.8 15.7 15.9 23.6 23.7 4.5 4.5 29.4 29 37 36.9 4.5 4.5 9.1 9 13.6 13.5h9.6c-3.3-3.3-6.6-6.6-9.9-9.9-9.8-9.7-56.8-56-67-66m115 13.2c-4.4-4.4-8.8-8.8-13.2-13.2h-9.8c2.9 3 5.9 5.9 8.8 8.9 10 10.2 57 57 68 67h10c-8.7-8.7-17.5-17.4-26-26-4.3-4.5-29-29-37-37m9.8-10.8c-.8-.8-1.6-1.6-2.4-2.4h-9.5c6.9 7 13.9 14 20.8 20.9 6.1 6.1 31 30.8 37 36.9 6.1 6.1 12.2 12.3 18.4 18.4h9.6c-.6-.6-1.1-1.1-1.7-1.7-11.9-11.6-60.9-61-72-72m17.9-2.4h-9.7c13 13 64 63.9 76 76h9.7c-13-13-64-64-76-76m-36.9 24.3c-8.1-8.1-16.2-16.2-24.3-24.3h-10c5.6 5.6 11.3 11.3 16.9 16.9 7.5 7.5 32 32 37 36.9 7.5 7.5 14.9 14.9 22.4 22.4h10c-5-5-10-10-15-15-8.1-8.1-32.9-32.7-37-36.9m-138-15.8c-2.8-2.8-5.7-5.7-8.5-8.5h-10.3c13 13 64 63.9 77 76h10c-10.2-10.3-58-58-67.8-67.8m-78 4.7c-4.4-4.4-8.8-8.8-13.2-13.2h-9.8c2.9 3 5.9 5.9 8.8 8.9 10 10.2 57 57 68 67h10c-8.7-8.7-17.5-17.4-26-26-4.3-4.5-29-29-37-37m-93-11.3v.3c-.7-.7-1.5-1.5-2.2-2.2h-9.6c3 3 6 6 9 9 10 10 34.9 34.7 37 36.9 10 10 20 20 30 30h9.5c-.1.1-65.9-66-74-74m19.7-.9h-.3c-.3-.3-.6-.6-1-1h-2.8-6.8-1.9c1.9 0 77 76 77 76h10c0 0-68.9-70-74-75m-42.5-1h-9.7c10.2 10.2 74 73 77 76h10c-5.6-5.7-69-69-76.9-76m70 8.1c-2.7-2.7-5.4-5.4-8-8.1h-.9-8.9-.7c.1.1.2.2.2.2 5 5 78 76 78 76h9.1c0 0-25.8-25.7-31.4-31-2.6-2.6-32.6-32-37-36.8m49 28.8c-4.2-4.2-8.5-8.4-12.7-12.7-8.1-8.1-16.2-16.2-24.3-24.3h-1.1-9-.6c13 13 64 63.9 77 76h10.7c-5-5-10-10-15-15-8-8.1-24.4-24.3-24.4-24.3m6.4-34.5c-.8-.8-1.6-1.6-2.4-2.4h-9.5c6.9 7 13.9 14 20.8 20.9 6.1 6.1 31 30.8 37 36.9 6.1 6.1 12.2 12.3 18.4 18.4h9.6c-.6-.6-1.1-1.1-1.7-1.7-11.8-11.6-60.9-61-72-72m18-2.4h-9.7c13 13 64 63.9 76 76h9.7c-13-13-64-64-76-76m-135 29.4c-9.8-9.8-19.6-19.6-29.4-29.4h-9.6c.7.7 1.4 1.4 2.1 2.1 8 7.8 15.7 15.9 23.6 23.7 4.5 4.5 29.4 29 37 36.9 4.5 4.5 9.1 9 13.6 13.5h9.6c-3.3-3.3-6.6-6.6-9.9-9.9-9.9-9.7-34.7-34.4-37-36.9m171-13.9c-5.2-5.1-10.3-10.3-15.4-15.5h-9.8c9.5 9.5 56.9 56.8 66 66 3.6 3.6 7.2 7.2 10.8 10.8h10c-8-7.9-16-15.9-24-23.8-5.2-5.2-30-29.9-37-37" style="fill:#090606"/>
</svg>
