<?xml version="1.0" encoding="utf-8"?>
<!-- Generator: Adobe Illustrator 18.0.0, SVG Export Plug-In . SVG Version: 6.00 Build 0)  -->
<!DOCTYPE svg PUBLIC "-//W3C//DTD SVG 1.1//EN" "http://www.w3.org/Graphics/SVG/1.1/DTD/svg11.dtd">
<svg version="1.1" id="Layer_1" xmlns="http://www.w3.org/2000/svg" xmlns:xlink="http://www.w3.org/1999/xlink" x="0px" y="0px"
	 viewBox="0 0 766.5 942.9" style="enable-background:new 0 0 766.5 942.9;" xml:space="preserve">
<style type="text/css">
	.st0{fill:#FBC411;}
	.st1{fill:#090606;}
</style>
<rect x="0" y="0" class="st0" width="766.5" height="942.9"/>
<path class="st1" d="M263.3,264.3c8.6-8.6,17.3-17.3,26-25.9c0.8-0.8,1.8-1.6,2.7-2.3c-2.9,9.1-6.5,17.6-7.9,26.8
	c-0.3,1.9-1.9,3.1-3.1,4.3c-13.2,13.6-26.5,27.1-40.4,41.3c-2.7-5.2-3.6-9.8-5.2-14.2c-0.8-2.2,1-2.8,2-3.9
	C246,281.6,254.7,273,263.3,264.3z M340.2,207.9c10-10.1,20-20.2,30.1-30.2c11.2-11.2,22.5-22.2,33.7-33.4
	c17.8-17.8,35.7-35.6,53.4-53.5c4.1-4.2,8.8-7.9,12.2-13c-0.7-0.8-1.2-1.5-1.8-2c-1.4-1.1-2.9-2.2-4.4-3.2c-5-3.5-5-3.5-9.3,0.6
	c-0.1,0.1-0.3,0.3-0.4,0.4c-9.9,11-20.8,21.2-31.3,31.7c-15.3,15.3-30.7,30.6-46.1,45.9c-17.9,17.8-35.6,35.9-53.6,53.6
	c-4.1,4-7.9,8.3-12,12.7c0.8,0.2,1.2,0.5,1.5,0.4c7.8-3.1,15.7-6,24.1-7.2C338,210.2,339.1,209.1,340.2,207.9z M376.1,639.2
	c7.8,3.1,8.3,2.8,13.5-3.4c1.4-1.7,1.1-2.7,0-4.1c-2.3-2.7-4.6-5.4-7.3-8.6c-4.5,4.5-8.8,8.2-12.3,12.5c0.3,1.2,1.1,1.4,1.8,1.8
	C373.2,638,374.6,638.7,376.1,639.2z M403.8,533.2c-1.4-8.2,1.5-15.4,4.8-22.6c-9.9,8.5-18.9,17.9-28.1,27.2c-0.9,0.9-1.4,2-0.9,3.3
	c1.5,4.2,3,8.4,5.1,14c6.4-6.7,12-12.7,17.7-18.6C403.2,535.4,404.1,534.6,403.8,533.2z M399.9,48.9c-4.8-0.3-9.2,1.2-12.6,4.5
	c-19.7,19.5-39.2,39.1-58.8,58.7c-30.5,30.5-60.9,61.1-91.3,91.6c-8.5,8.5-17,17-25.5,25.5c-1.2,1.2-3,2.3-2.1,4.5
	c1.5,3.9,1.1,8.3,3,12.4c1.5-0.1,2.2-0.8,3-1.5c32.1-32.2,64.3-64.4,96.4-96.5c30.5-30.5,61.1-61,91.5-91.6c2-2,6.2-3.8,4.8-6.6
	C407,47.3,402.8,49.1,399.9,48.9z M402.1,575.6c1.7,1.9,3.3,1.9,5.1,0.2c3.3-3.2,6.5-6.5,9.8-9.7c1.5-1.4,1.7-3,0.9-4.9
	c-1.6-3.6-3.3-7.1-6.1-10.3c-6,6.1-11.8,11.9-18.2,18.4C397.1,571,399.8,573,402.1,575.6z M522,178.7
	c-14.9,14.8-29.7,29.7-44.6,44.5c-7.9,7.9-15.5,16.2-23.8,23.8c-1.2,1.1-3.2,2.5-2.4,4.5c1.7,4.2,2.7,8.8,5.9,12.2
	c10.8-10.7,21.5-21.3,32.1-31.9c14.3-14.3,28.7-28.6,43-43c1.1-1.1,2.9-2,3-3.7c0.1-5.7-0.5-11.3-2-17.6
	C529.1,171.7,525.5,175.2,522,178.7z M317.5,311.8c2.5-1,5.4,0,7.4-1.9c3.2-3,6.5-5.8,9.2-9.6c-3.3-2.3-6.7-3.5-10.4-4.5
	c-3-0.8-4.9,0-6.9,2c-5.7,5.9-11.6,11.6-17.3,17.4c-0.8,0.8-2.6,1.4-1.6,3.5C304.4,316.5,311.1,314.5,317.5,311.8z M287.6,286.2
	c-1.2-1.4-2.3-1-3.5,0.2c-10.9,10.9-21.9,21.7-32.2,31.8c2.6,3.2,4.3,5.8,6.4,7.9c3,3.1,3.6,3,6.7-0.2c5.6-5.7,11.2-11.4,16.9-17.1
	c5.2-5.2,10.5-10.3,16.5-16.2C293.6,291.4,290.2,289.4,287.6,286.2z M357.5,693.5c13.7-0.4,25.9-4,34.7-16.8c-6.4,0-12.2,0-17.9,0
	c-1.1,0-1.9,0.4-2.7,1.1c-5,4.8-10,9.6-15,14.4C357,692.6,357.2,693,357.5,693.5z M447,318.3c1.3-0.5,1.6-1.7,1.5-3
	c0-1.4-0.6-2.6-1.3-3.9c-4.5-8.1-5.7-8.3-12.2-1c3.3,2.6,6.8,4.1,9.4,6.9C445.1,318,445.9,318.7,447,318.3z M419.8,299.8
	c-6.3-0.8-12.3,0.8-18.3,2c-2.4,0.5-4.1,1.5-5.7,3c-6.3,6.3-12.5,12.7-19.6,19.9C392.1,322.4,415.1,309.1,419.8,299.8z M504.4,302.1
	c6.4-9.7,13.2-19.2,19.7-28.8c2.9-4.3,5.4-8.9,6.9-14l0,0c0.8-0.6,1-1.4,0.2-1.9c-0.3-0.2-0.8,0.7-0.8,1.3c-0.9,0-1.5,0.4-2.1,1
	c-11,11.1-22,22.1-33,33.2c-5.8,5.8-11.5,11.7-17.4,17.3c-2.2,2.1-2.2,4.2-1,6.4c0.9,1.6,2.1,3,3.4,4.2c2.8,2.5,5.1,2.4,7.9-0.3
	C494,314.7,499.9,309,504.4,302.1z M534.5,210.5c-16.4,16.4-32.8,32.9-49.2,49.4c-5.8,5.8-11.7,11.5-17.4,17.4
	c-1.2,1.2-3.4,2.3-2.3,4.4c2.1,4.1,2,9,4.7,12.9c12.7-12.6,25.1-24.8,37.4-37c9.2-9.1,18.4-18.3,27.5-27.5c1.3-1.3,3.2-2.6,3.3-4.1
	c0.4-6,1.6-12.1-0.5-18.6C536.5,208.7,535.4,209.5,534.5,210.5z M535,382.9c-9.1,9.2-18.3,18.4-27.5,27.6
	c-15.8,15.9-31.6,31.7-47.4,47.6c-7.3,7.4-15.2,14.2-21.8,22.3c0,0,0,0,0,0c-0.4,0.4-1.7,0.5-0.7,1.4c0.4,0.3,1.1-0.1,1.1-0.8
	c1.8,0.3,3.1-0.8,4.5-1.5c5-2.3,9.6-3.2,12.8,2.7c12.7-11,95.2-94.5,97.2-98.4c-4.1-2.3-8.8-2.1-13.3-2.9
	C538,380.6,536.4,381.5,535,382.9z M567.7,394.4c-19.9,20.2-40,40.1-60,60.2c-18.2,18.2-36.3,36.4-54.6,54.5
	c-2.3,2.3-3.9,4.7-4.3,8.2c-0.6,5.3-1.3,10.7-3.7,15.6c-0.5,1-0.5,2.4,0.4,4.2c47.5-47.5,94.8-94.8,142.2-142.2
	c-2.4-2.6-5.6-1.9-7.9-3.2C574.9,389,571.5,390.6,567.7,394.4z M604.6,400.9c-4.9,5-9.9,9.9-14.8,14.9c-15.5,15.6-31,31.3-46.6,46.9
	c-20.7,20.7-41.4,41.2-62.1,61.9c-16,16-32,31.9-47.9,48c-6.2,6.2-12.9,12-18.4,18.9c1.8,2.8,4.8,3.8,7.3,5.4
	c4.3,2.7,4.3,2.8,7.8-0.5c0.6-0.6,1.2-1.1,1.7-1.7c18.1-18.1,36.3-36.3,54.4-54.4c37.6-37.6,75.1-75.1,112.7-112.7
	c8.5-8.5,16.9-17.1,25.9-26.2c-4.1-1.2-7.2-1.9-10.2-2.9C610.4,397.1,607.4,398,604.6,400.9z M405.5,447.3
	c27.1-27.2,54-53.8,81.1-81.2c-3.8-1.7-7-2.5-9.6-4c-4-2.3-6.3-0.5-8.7,2c-7.8,7.8-15.5,15.6-23.3,23.3c-2.9,2.8-4.3,5.7-4.1,9.9
	c0.4,6.3-0.8,7.2-7.1,7.8c-4.7,0.4-8.8,2.2-12.1,5.7c-2.2,2.3-4.5,4.5-6.8,6.8c-7.1,7-14.2,14-22.2,21.7
	C398.1,441.4,402.7,442.6,405.5,447.3z M422.5,647.5c67.6-67.6,135.1-135.1,202.7-202.6c9.1-9.1,18.2-18,27.3-27
	c-1.9-4.1-5.7-5-8.5-7.2c-2-1.6-3.6-1.7-5.6,0.5c-4.9,5.3-10.1,10.3-15.2,15.4c-13,13-26.1,26-39.1,39
	c-17.1,17.1-34.2,34.3-51.3,51.4c-17.4,17.4-34.9,34.6-52.3,52c-20.4,20.4-40.7,40.8-61,61.2c-4.9,4.9-10.2,9.4-14.7,15.3
	c3.3,1.3,6.3,2.5,9.2,3.7C419,651.1,419,651.1,422.5,647.5z M83.7,577.2c-2.9,6.8-5.7,13.6-8.8,20.4c-1,2.1-2.7,3.9-2.7,5.9
	c72.1-72.1,144.4-144.4,216.9-216.9c-3.9-0.9-6.1-4.5-9.9-7.3c-18.5,18.6-36.7,36.9-54.9,55.2c-24.9,24.9-49.8,49.8-74.7,74.7
	c-20.6,20.7-41.2,41.4-61.9,62C85.8,573,84.6,575,83.7,577.2z M690.1,838.5c-15.3,15.3-30.8,30.5-46.1,45.8
	c-19.5,19.5-38.9,39-58.4,58.6h17.7c1.7-1.7,3.4-3.5,5.2-5.2c31.8-31.7,63.6-63.3,95.3-95.1c20.9-20.9,41.8-41.8,62.7-62.7v-17.8
	C741.1,787.6,715.6,813.1,690.1,838.5z M759.8,637.2c-39.7,39.7-79.5,79.4-119.2,119.2c-10.4,10.4-20.7,20.8-31.1,31
	c-1.9,1.9-3.4,3.7-1.5,6.1c2.3,3.1,3.5,6.7,5.1,10.6c12-11.9,23.9-23.6,35.6-35.3c18-17.9,36-35.9,54-53.9
	c20.9-20.9,41.9-41.9,62.8-62.8c0.4-0.4,0.7-0.7,1.1-1.1v-14.7C764.4,632.7,763.9,633.2,759.8,637.2z M430.9,59
	c-3.4-2.1-5.1-1-7.5,1.4c-30,30.1-60.2,60.1-90.3,90.1c-34.6,34.6-69.1,69.3-103.7,104c-3,3.1-8.4,5.5-8.2,9.6
	c0.2,3.9,4.1,7.6,6.8,12.1C299.3,205,370,134.3,441.3,63C437.1,61.4,433.6,60.8,430.9,59z M437.1,717.2c-0.1-0.1-0.7,0.3-0.8,0.6
	c-0.2,0.3-0.3,0.5-0.3,0.7c-2.7-1.1-4.9,1.3-6.8,2.5c-5.4,3.4-10.9,5.6-17.2,6.2c-3,0.3-5.5,1.8-7.8,4.1c-5.6,5.7-11.4,11.2-17,16.9
	c-0.8,0.7-1.9,1.5-1.2,3c7.2-1.6,14.4-3.2,21.6-4.8c2.5-0.5,4.2-2.2,5.9-3.9c7.8-7.8,15.6-15.5,23.5-23.3l0.2,0
	c-0.1,0-0.1-0.1-0.2-0.1C437.1,718.4,438,717.9,437.1,717.2z M629.9,942.9h17.8c1.6-1.6,3.3-3.3,4.9-4.9
	c26.8-26.8,53.6-53.6,80.4-80.5c11.2-11.2,22.3-22.3,33.5-33.5v-17.7c-14.1,14-28.2,28.1-42.2,42.1
	C692.8,879.8,661.3,911.4,629.9,942.9z M758.6,942.9h7.9V935C763.9,937.6,761.3,940.3,758.6,942.9z M207.9,813.9
	c0.1,0.7,0.2,1.5,0.5,3.2c5.7-5.7,10.8-10.9,16-16.1c0.7-0.8,1.1-1.7,0.8-2.8c-1.2-4.6-2.4-9.1-3.7-14.3
	c-5.2,5.2-10.8,9.2-14.1,14.7C204.7,802.9,207.5,808.7,207.9,813.9z M715.6,942.9h19.5c10.5-10.5,21-21,31.5-31.4v-19.5
	C749.5,908.9,732.6,925.9,715.6,942.9z M671.4,942.9H691c25.2-25.2,50.3-50.4,75.5-75.6v-19.4C734.8,879.6,703.1,911.2,671.4,942.9z
	 M671.4,768.6c-16.3,16.2-32.5,32.6-48.9,48.8c-3.7,3.6-6.5,7.1-5,12.7c0.4,1.6,0.5,3.6-0.4,5.3c-1.2,2.3-0.7,4.7-0.5,8.2
	c1.6-1.5,2.5-2.2,3.3-3c9.7-9.6,19.4-19.2,29-28.8c37.3-37.3,74.5-74.6,111.7-111.9c1.9-1.9,3.9-3.9,5.8-5.8v-20.3
	c-9.5,9.6-19,19.3-28.6,28.8C715.8,724.6,693.6,746.6,671.4,768.6z M103.8,525.8c-1.5,2.6-3.7,5.2-3.5,8.5
	C154.4,480,208.6,425.8,263.4,371c-7.8,2.3-14.6,4.5-21.5,6.2c-3.8,0.9-6.9,2.3-9.8,5.2c-39.3,39.5-78.8,78.9-118.3,118.3
	c-2.4,2.4-3.9,4.9-4.3,8.3C108.9,515,106.8,520.5,103.8,525.8z M206.7,207.8c0,0.4,0.2,0.8,0.5,2.4c51-51.1,101.4-101.7,152.1-152.5
	c-5-2.5-9.7-0.6-13.9-2c-3.1-1.1-4.8,0.1-6.8,2.2c-20,20.2-40.1,40.4-60.2,60.6c-20.2,20.3-40.5,40.4-60.7,60.8
	c-3.8,3.8-9.3,6.7-10.7,11.8C205.7,196.2,206.7,202.1,206.7,207.8z M215.5,765.9c-5-0.5-5,3.4-6.1,6.3
	C211.8,770.5,214.7,769.4,215.5,765.9z M303.3,63.4c-11.9,4.8-23.7,10-33,19.3c-16.9,16.9-33.6,34-50.8,50.7
	c-5.8,5.6-8.7,12.3-10.4,19.8c-0.8,3.6-2.3,7.2-0.8,10.9c34.5-34.3,68.8-68.4,103.8-103.3C308.6,61.8,305.8,62.4,303.3,63.4z
	 M203.8,386.2c-6.6,0.3-12.5,2.7-18.7,4c-4.1,0.8-7.4,2.7-10.3,5.7c-17.5,17.6-35.2,35.1-52.8,52.6c-1,1-2.3,2-2.7,3.2
	c-2.6,8.5-5,17-7.5,25.6c0.3,0.2,0.7,0.5,1,0.7C143.3,447.7,173.7,417.2,203.8,386.2z M233,836.5c4.2-4.3,8.7-7.9,12.3-12.8
	c-3.3-1.9-6.1-4.1-8.5-6.7c-1.2-1.4-2.6-1.9-4.1-0.4c-4,4.4-8.8,7.9-12.5,13.1C225.3,830.9,229.7,832.6,233,836.5z M258.6,680
	c20.7-20.7,41.4-41.5,62.1-62.1c7.1-7.1,14.4-13.9,21.7-20.9c-3.6-4.5-5.2-8.9-6.7-13.9c-1.4,1-2.3,1.5-3,2.1
	c-10.6,10.6-21,21.4-31.6,32c-21.6,21.6-43.4,43.1-65,64.8c-15.8,15.8-31.6,31.7-47.4,47.6c-5.6,5.7-11.7,10.8-16.8,17
	c-2.5,1-3.9,3.4-5.5,5.2c-4.4,4.8-9.7,8.7-13.5,14.1c-0.5,0.3-1.2,0.4-1.6,0.8c-18.5,18.5-37,37-55.5,55.6
	c-22.2,22.2-44.3,44.5-66.5,66.7c-9.7,9.7-19.5,19.3-29.3,29v20.5c18.3-18.3,36.6-36.5,54.9-54.8c20.7-20.7,41.4-41.4,62.1-62.1
	c1.4-1.4,2.9-2.8,3.7-4.7c2.6-6.4,6.6-11.9,10.7-17.4c7.7-10.3,15.7-20.3,22.4-31.2c6.1-7.2,12.6-14,19.7-20.2
	c7.4-4.8,14.7-10,23.1-12.5c8.3-2.4,14.4-7.5,20-13.6c7.2-7.8,15.4-14.6,21.3-23.7c2.5-3.9,6.1-7,10-9.5
	C251.9,686.3,255.3,683.2,258.6,680z M66.1,742.3c16.7-16.7,33.2-33.6,49.9-50.3c19.5-19.5,39.2-38.9,58.8-58.4
	c16.7-16.7,33.2-33.6,49.9-50.3c19.5-19.5,39.3-38.8,58.7-58.4c20.7-20.9,41.4-41.8,62.4-62.4c1.3-1.2,2.7-2.7,3.2-4.3
	c2.3-8.1,8.2-12.5,15.3-16c1.8-0.9,3.6-1.9,5.1-3.2c4.6-3.9,9.1-7.9,14-12.3c-4.8-4-7.6-7.6-10.5-13c-4.8,5.2-8.8,9.8-13,14
	c-54.3,54.4-108.6,108.7-163,163C141.2,646.6,85.5,702.3,29.7,758.1C19.8,768,9.9,777.9,0,787.8v20.2c1-1,2.1-2,3.1-3.1
	C24.1,784.1,45.2,763.3,66.1,742.3z M307.6,848.2c1.2-1.2,3.1-2,2.8-4.4c-2.9-0.7-5.9-1.2-8.7-2.1c-4.8-1.6-8.2-0.1-11.6,3.5
	c-14.4,14.7-28.9,29.3-43.5,43.8c-12.4,12.4-25.1,24.7-37.5,37.2c-5.5,5.6-11,11.2-16.6,16.7h20.3c1.5-1.5,3-3,4.5-4.5
	C247.5,908.3,277.5,878.3,307.6,848.2z M112.8,870.1c0.9-0.9,2-1.7,2-2.9c0.1-6.1,0-12.1,0-18.5c-2.6,1-3.7,2.5-5,3.8
	c-30.2,30.1-60.3,60.3-90.4,90.4h20.3c9.3-9.3,18.7-18.6,28-28C82.7,900,97.8,885,112.8,870.1z M126.2,768.2
	c30.5-30.5,60.9-61,91.4-91.4c22.2-22.2,44.5-44.5,66.8-66.7c14.7-14.7,29.4-29.5,44.2-44.2c1.7-1.7,3-3.2,2.5-5.7
	c-0.8-3.8-1-7.8-2.7-11.3c-1.8-0.1-2.3,1.2-3.1,2c-24.4,24.3-48.8,48.6-73.1,73C216.1,659.9,180,696,143.9,732.1
	c-36.2,36.2-72.5,72.5-108.7,108.7C23.4,852.5,11.7,864.2,0,876v18.4c7.5-7.5,15-15,22.4-22.5C57,837.3,91.6,802.7,126.2,768.2z
	 M94.5,931c14.2-14.1,28.4-28.2,42.6-42.3c0.7-0.7,1.3-1.5,0.7-2.9c-1.4-0.1-3-0.3-4.5-0.2c-1.9,0.1-3.5-0.8-5.1-1.5
	c-4.9-2.2-4.9-2.2-8.7,1.6c-18.7,18.7-37.4,37.4-56.1,56.1c-0.3,0.3-0.7,0.7-1,1h20.3C86.6,938.9,90.5,934.9,94.5,931z M261.1,850.7
	c4.1-4.1,8.1-8.2,12.5-12.7c-3.8-1.1-7-2.1-9.9-3.8c-2.4-1.4-4-0.6-5.8,1.2c-20.3,20.5-40.6,40.9-61,61.3
	c-15.4,15.4-30.9,30.8-46.4,46.2h18.4C199.7,912.1,230.4,881.4,261.1,850.7z M521.5,138.7c-1.9,0.4-2.9,2-4.2,3.2
	c-4.3,4.2-8.5,8.5-12.7,12.8c-21.4,21.4-42.9,42.7-64.3,64.1c-5.8,5.8-5.8,5.8-0.5,11.7c0.9,1,1.4,2.5,2.9,2.9
	c0.9-0.1,1.4-0.7,2-1.3c25.5-25.4,51-50.9,76.6-76.3c7.8-7.8,7.8-7.9,0.7-16.8C521.9,138.9,521.7,138.8,521.5,138.7z M50.6,670.9
	c19.4-19.4,38.7-39.1,58.1-58.5c25.8-25.8,51.8-51.5,77.6-77.3c19.6-19.6,39-39.3,58.6-58.9c21.5-21.6,43.1-43.2,64.7-64.8
	c4.2-4.2,4.1-4.2-0.6-7.1c-1.4-0.8-2.8-1.8-3.7-3c-2-2.5-3.4-2.4-5.6-0.1c-10.5,10.7-21.3,21.1-32,31.7
	c-19.4,19.3-38.8,38.7-58.2,58.1c-23.7,23.8-47.4,47.7-71.1,71.5c-13.1,13.2-26.3,26.4-39.5,39.5c-11.2,11.1-22.5,22.2-33.7,33.3
	c-6.7,6.6-14,12.8-19.7,20.2c-8.9,11.6-18.2,23-25.8,35.5c-2.7,4.4-5.6,8.8-6.2,14.1c0.3,0.3,0.7,0.6,1,1
	C26.5,694.5,38.7,682.8,50.6,670.9z M600.1,773c38.6-38.6,77.2-77.1,115.9-115.7c11.8-11.8,23.6-23.5,35.3-35.4c1.2-1.2,3-2.1,3-4.2
	c-1-3.3-3.5-5.5-5.3-8.1c-2.3-3.3-2.6-3.3-5.3-0.5c-20.8,20.8-41.5,41.7-62.3,62.5c-17.2,17.3-34.5,34.5-51.8,51.8
	c-12.4,12.4-24.8,25-37.4,37.3c-5.6,5.5-5.7,5.4-1.3,11.5C595,777.9,595.2,777.9,600.1,773z M26.6,825.5
	c22.4-22.4,44.9-44.6,67.3-66.9c21.5-21.5,42.9-43.2,64.4-64.7c23.8-23.8,47.7-47.4,71.5-71.2c16-16,32-32,48-48
	c13.2-13.2,26.4-26.3,39.6-39.5c4.9-4.9,10.4-9.5,9.9-17.6c-0.1-1,0.3-2,0.7-2.9c2.7-8.4,7.5-11.1,16.1-9c1.3,0.3,2.1,0.7,3.1-0.4
	c5-5.4,10.8-10.2,15.7-16.5c-6.2,1.4-11.8,2.9-14.6-4.7c-1.5,1.4-2.6,2.2-3.6,3.2c-31.4,31.3-62.7,62.7-94.1,94
	c-39.3,39.3-78.5,78.6-117.8,117.9c-33.1,33.1-66.2,66.1-99.2,99.1C22.4,809.5,11.2,820.7,0,831.9v20.4
	C8.8,843.4,17.7,834.4,26.6,825.5z M0,765.5c13.5-13.6,27-27.2,40.5-40.7c21.5-21.5,43.1-42.9,64.7-64.4c16-16,31.8-32.1,47.8-48.1
	c20.4-20.4,40.8-40.6,61.2-61c15.8-15.8,31.6-31.8,47.4-47.6c12.9-12.9,25.8-25.7,38.7-38.6c17.7-17.7,35.5-35.3,53.2-53
	c3-3,6-5.9,8.8-9c0.8-0.8,1.6-2,0.1-3c-4.8-3-15.9-1.7-20.1,2.5c-8.1,8.1-16.2,16.1-24.3,24.2c-23,23-45.9,46-68.9,69
	c-62.9,62.9-125.8,125.8-188.7,188.6C40.3,704.7,20.1,724.8,0,745V765.5z M182.7,887c2.2-2.2,5.1-3.9,6.3-7.4
	c-9.8-2.3-18.1-2.2-25.7,6.1c-14.5,15.7-30.1,30.4-45.3,45.6c-3.9,3.9-7.7,7.7-11.5,11.6h20.2C145.4,924.3,164.1,905.7,182.7,887z
	 M503,870.1c1.5-1.5,4-2.7,3.2-5.4c-1.4-4.6-0.4-9.1,0.1-13.7c0.9-2.1,1.8-4.2,2.7-6.3c-0.2-0.1-0.4-0.3-0.6-0.4
	c-1.1,1.2-2.2,2.5-3.3,3.7c-0.5,0.3-0.9,0.6-1.4,0.9c0,0,0.2-0.2,0.2-0.2c-0.4,0.5-0.7,1-1.1,1.4c-13,13-25.9,26-39,38.9
	c-12.3,12.3-24.8,24.3-37,36.7c-5.6,5.7-11.2,11.4-16.9,17.1h20.5c10.6-10.7,21.2-21.4,31.9-32C475.9,897.3,489.5,883.7,503,870.1z
	 M348.3,851.7c1.7-1.7,3.3-3.5,5.5-5.9c-6.4,2.1-12.1,1-17.6,1.8c-3.3,0.4-5.5,1.5-7.7,3.7c-11,11.1-22.2,22-33.3,33.1
	c-19.5,19.5-38.9,39-58.4,58.6H257c8.9-8.9,17.8-17.8,26.7-26.7C305.3,894.7,326.8,873.2,348.3,851.7z M524.9,892.7
	c4-4,7.8-8.2,12.4-13.1c-5.4-0.8-9.8,0.2-14-0.2c-4.6-0.4-7.4,1.6-10.4,4.6c-19.5,19.7-39.2,39.3-58.8,58.9h20.5
	C491.4,926.1,508.2,909.4,524.9,892.7z M704.9,799.9c20.5-20.5,41.1-41.1,61.6-61.6v-20.4c-15.8,15.9-31.6,31.8-47.4,47.6
	c-19.2,19.2-38.5,38.4-57.8,57.6c-17,17-33.9,34-50.9,51c-16.4,16.4-32.8,32.8-49.3,49.1c-6.6,6.6-13.2,13.1-19.8,19.6h20.4
	C609.5,895.2,657.2,847.5,704.9,799.9z M555.6,905.1c5.1-5,10-10.2,15.2-15.4c-1.5-0.7-2.4-0.1-3.4,0.1c-4.1,0.9-4.2,0.7-4.5-3.6
	c-0.1-2.4,0.6-5-0.6-7.3c-1.9,0.4-2.7,1.6-3.7,2.6c-12.8,12.9-25.6,25.9-38.5,38.8c-7.5,7.5-15.1,15-22.6,22.5h20.3
	C530.3,930.3,543,917.7,555.6,905.1z M521.2,807.8c1.2-1.2,3-2.1,3-4.2c0-4.9,0-9.8,0-16.1c-6.1,5.8-11.2,10.4-16.1,15.3
	c-19.2,19.3-38.3,38.8-57.6,58c-20.7,20.6-41.3,41.5-62.3,61.9c-6.9,6.7-13.7,13.5-20.5,20.2h18.6c34.4-34.4,68.7-68.8,103.1-103.2
	C500,829.1,510.7,818.5,521.2,807.8z M327.5,915.2c13-13,25.9-26.2,39.1-39c8.8-8.5,17-17.5,26-25.7c3.9-3.5,8.1-6.9,11.3-12.2
	c-6.9,1.2-12.9,2.7-19,3.3c-3.3,0.3-5.5,1.5-7.7,3.7c-32.1,32.2-64.4,64.4-96.6,96.6c-0.3,0.3-0.7,0.7-1,1h20.2
	C309.1,933.6,318.3,924.4,327.5,915.2z M394.8,892.6c29.7-29.6,59.3-59.3,89-89c11.9-11.9,23.8-23.9,35.8-35.8
	c1.2-1.2,2.9-2.3,2.6-4.4c-0.6-5.1-0.8-10.2-2-15c-1.1-0.2-1.6,0-2.1,0.4c-12.2,12.2-24.3,24.4-36.5,36.5c-1.6,1.6-2.2,3.2-1.6,5.4
	c1.4,4.5,0.2,8.5-3,11.6c-7.5,7.1-15.1,14.2-24.9,18.3c-6.4,2.7-12.6,5.8-17.1,11.6c-1.6,2-3.6,3.7-5.5,5.6
	c-14.4,14.2-28.8,28.4-43.1,42.6c-17.1,17-34.1,34-51.1,51c-3.9,3.9-7.7,7.8-11.6,11.6h20.3C361,926.1,377.9,909.4,394.8,892.6z
	 M579.6,750.7c5.1-5.5,10-11.1,15.2-16.3c44.7-44.9,89.5-89.7,134.3-134.5c6.8-6.8,6.9-6.8,1.2-14.1c-0.1-0.2-0.3-0.3-0.4-0.5
	c-1.2-1.8-2.6-1.7-4-0.3c-1.6,1.6-2.9,3.3-4.5,4.9c-17.9,17.9-35.7,35.8-53.6,53.6c-19.7,19.7-39.4,39.4-59.2,59.2
	c-11.5,11.5-23,23-34.5,34.5c-3.3,3.3-3.3,3.4-0.4,7.2C575.2,746.3,576.1,748.7,579.6,750.7z M302.8,808.9
	c4.1-4.2,8.5-8.2,13.5-13.1c-5.1,0-8.7,0-12.3,0c-6-0.1-10.3,2.7-13.5,7.9c2.9,2,5.5,3.8,8.2,5.6
	C300.1,810.4,301.3,810.4,302.8,808.9z M312.3,692.8c-1.6,2-1.4,3.7,0.9,3.8c5.6,0.3,11.8,0.7,16.5-1.7c5.4-2.8,9.6-8,13.2-13.6
	c-3.6,0.9-7.1,1.3-10.6,1.4C324,683,317.4,686.3,312.3,692.8z M338,817.9c3.6-4.2,7.8-8,11.8-12c3.2-3.2,6.5-6.4,9.7-9.6
	c-0.2-0.4-0.4-0.7-0.6-1.1c-6,0-12.3-1.1-17.9,0.3c-4.5,1.2-7.5,6.3-10.9,9.9c-0.3,0.3-0.7,0.4-1,0.7c-3.6,4.2-8.2,7.4-11.4,12
	c3.7,2.2,7.6,2.2,11.3,2.9C332.6,821.8,335.5,820.9,338,817.9z M330.6,631.6l-0.1,0c0.1,0.1,0.2,0.2,0.3,0.2
	c0.1,0.3,0.1,0.8,0.6,0.3c1.2,0.4,2.4-0.4,3.6-0.7c4.8-1.2,9.6-3.4,14.6-2.7c3.3,0.4,5.2-0.5,7.2-2.6c4.7-4.9,9.5-9.6,14.3-14.5
	c0.8-0.8,2.2-1.7,1.4-3c-1.7-2.8-4-5.1-7.3-5.8c-2.6-0.6-4.9-1-7.5,1.6C349,613.7,339.7,622.6,330.6,631.6z M323.3,746.5
	c3.5-4,7.9-7.1,11.3-12.2c-4.4-2-8.8-3.6-11-7.4c-8.9,8.9-17.8,17.8-26.7,26.7c3.6,3.2,8.2,2.2,12.4,2.8c2.8,0.4,4.9-0.5,6.8-2.8
	C318.3,751,321.1,749,323.3,746.5z M561.2,726.2c43.7-43.7,87.4-87.4,131.1-131.1c8.5-8.5,17-17,25.5-25.6c1-1,2.8-1.8,1.6-3.9
	c-2.1-3.6-4-7.3-6.4-11.5c-56.9,56.9-113.3,113.3-170,170c3.8,1.6,7.3,1.8,10.3,3.5C557.6,729.9,557.6,729.8,561.2,726.2z
	 M506.5,108.5c-33.8,33.9-67.6,67.7-102.2,102.3c3.8,1.8,6.8,3,9.6,4.6c3.2,1.8,5.3,1,7.8-1.6c27.3-27.5,54.7-54.8,82-82.2
	c3.1-3.1,8.1-5.6,8.4-9.7c0.3-3.9-2.8-8.1-4.5-12.2C507.5,109.5,507.1,109.2,506.5,108.5z M479.5,91.2c-1.5,1.6-3.2,3.1-4.7,4.6
	c-10.7,10.9-21.3,21.8-32.1,32.6c-22.7,22.6-45.5,45.1-68.3,67.7c-2.9,2.9-5.7,5.9-9,9.3c6.5,0,12.1,0,17.6,0c1.5,0,2.7-0.5,3.8-1.5
	c2.1-1.9,4.2-3.7,6.2-5.7c13.4-13.3,26.7-26.6,40-40c20.2-20.3,40.4-40.6,61.3-61.8c-4.6-1.6-8.5-3.3-11.8-5.8
	C481.4,89.8,480.5,90.1,479.5,91.2z M366.3,308.8c-2.5,2.6-4.9,1.1-7.3,0.4c-5.9-1.7-10.8-0.6-14.4,4.7c-0.4,0.6-1,1.2-1.8,2.2
	C355.9,321.8,359.7,319.5,366.3,308.8z M365.4,522.2c1.2,0.9,1.8,2.7,2.7,2.8c49.4-49.4,98.4-98.3,147.6-147.5
	c-2.6-0.7-5.2-0.8-7.1-2c-4.5-2.7-7.1-0.5-10.2,2.6c-16,16.3-32.2,32.4-48.4,48.6c-28.4,28.3-56.8,56.5-85.2,84.7
	C359,517.2,359,517.2,365.4,522.2z M382.9,728.8c0.9-0.9,2.4-1.5,2-3.8c-4.9,0-9.9,0-14.8,0c-1.8,0-2.8,1.2-3.9,2.4
	c-7.3,7.3-14.8,14.5-22,22c-2.1,2.2-5.1,3.8-6.3,7.7c5.9,0.6,11-0.8,16.2-0.9c2.1,0,3.2-1.5,4.4-2.7
	C366.5,745.2,374.7,737,382.9,728.8z M442.1,738.1l0-0.4c0,0,0,0,0,0c0,0,0,0,0,0l-0.1,0.1c0,0,0,0,0,0c0,0,0,0,0,0
	C442.1,737.8,442.1,738.1,442.1,738.1z M480.6,699.1c-1.3,1.3-3.7,2.3-2.7,4.9c1.6,4.1,2.3,8.7,5.3,12.4c0.8-0.5,1.4-0.8,1.8-1.2
	c16.1-16.2,32.1-32.4,48.2-48.5c20.4-20.4,40.9-40.6,61.2-61c25-25,50-50.2,75-75.2c7.5-7.5,15.1-14.8,22.6-22.3
	c2.3-2.2,4.3-4.4,2-8.2c-1.8-2.8-2.4-6.3-4.1-11.1c-2.4,2.8-4,4.9-5.8,6.7C625.7,554,567.2,612.5,508.7,671
	C499.4,680.4,489.9,689.7,480.6,699.1z M465.3,778c5.5-5.7,11.1-11.4,16.7-17.1c1.2-1,2.5-2,3.6-3.2c18.3-18.2,36.6-36.5,54.8-54.8
	c39.6-39.7,79.3-79.4,118.9-119c14.4-14.4,28.9-28.9,43.3-43.3c1.2-1.2,3.3-2.3,2.9-4.3c-1-4.9-1.1-10.1-2.9-14.7
	c-1.6,0.1-2.3,0.8-3,1.5c-21.9,22-43.7,44.1-65.6,66c-24.3,24.3-48.8,48.5-73.1,72.8c-12.8,12.7-25.5,25.4-38.3,38.2
	c-11.4,11.5-22.8,23-34.2,34.5c-1.3,1.3-2.5,2.7-2.5,4.6c-0.1,6.9-3,13.1-4.8,19.6c-1.1,1.9-2,3.9-3.6,5.5
	c-5.1,5.2-10.6,9.3-18.2,10.5c-6.8,1.1-12.8,4.3-18,8.9c7.3-0.4,14-3.6,21.2-3.6C463.7,780,464.5,778.9,465.3,778z M462.1,725.3
	c0.9-1.7,0.4-3.1-1-4.2c-1.7-1.4-2.5,0.1-3.4,1c-5.2,5.2-10.4,10.4-15.5,15.6c7.4-0.8,13.2-4.8,18.5-9.8
	C461.4,727.3,461.6,726.2,462.1,725.3z M367.5,816.5c13.3-2.2,25.6-6.3,33.9-18c0.6-0.8,1.5-1.3,2.2-2c0.5-0.6,1.1-1.2,0.5-2.5
	c-5.1-0.2-10.4-0.4-15.8-0.6c-1.5-0.1-2.6,0.6-3.7,1.6c-7.3,7.1-14.7,14.2-22.8,22C364.9,817.7,366.1,816.8,367.5,816.5z M449,662.6
	c0.6-1,1.7-1.7,2.6-2.5c38-37.9,75.9-75.9,113.9-113.8c33-33,66-66,99-99c7.1-7.1,7.1-7.1,1.5-15.8c-0.3-0.5-0.7-1-1.3-1.8
	c-1.4,1.2-2.2,1.8-2.9,2.5c-16.2,16.2-32.3,32.4-48.4,48.5c-18.3,18.3-36.6,36.6-54.9,54.9c-17.9,17.9-35.7,35.8-53.6,53.6
	c-21.3,21.3-42.6,42.5-63.9,63.8c-6.8,6.8-6.8,6.7,1.4,10.9C445,665.1,447.2,665.6,449,662.6z M678.7,457.4
	c-0.7,0.5-1.4,0.9-1.9,1.4c-11,10.8-22,21.6-32.9,32.5c-23.7,23.8-47.4,47.7-71.1,71.5c-14.1,14.2-28.4,28.2-42.6,42.4
	c-17.7,17.7-35.5,35.3-53.2,53c-4.4,4.4-8.6,8.9-13,13.3c-1.2,1.2-1.8,2.7-0.6,3.6c3.2,2.4,4.9,6.4,8.4,8.6
	c5.8-5.7,11.5-11.3,17.1-17c25.9-25.8,51.8-51.5,77.6-77.3c19.9-19.8,39.7-39.8,59.5-59.7c17.1-17.2,34.3-34.3,51.4-51.6
	c2.6-2.6,7-4.6,7-8.5c0-3.8-2.6-7.5-4.5-11C679.8,458.2,679.2,457.9,678.7,457.4z"/>
<g>
</g>
<g>
</g>
<g>
</g>
<g>
</g>
<g>
</g>
<g>
</g>
<g>
</g>
<g>
</g>
<g>
</g>
<g>
</g>
<g>
</g>
<g>
</g>
<g>
</g>
<g>
</g>
<g>
</g>
</svg>
