<?xml version="1.0" encoding="utf-8"?>
<!-- Generator: Adobe Illustrator 17.0.0, SVG Export Plug-In . SVG Version: 6.00 Build 0)  -->
<!DOCTYPE svg PUBLIC "-//W3C//DTD SVG 1.1//EN" "http://www.w3.org/Graphics/SVG/1.1/DTD/svg11.dtd">
<svg version="1.1" id="Layer_1" xmlns="http://www.w3.org/2000/svg" xmlns:xlink="http://www.w3.org/1999/xlink" x="0px" y="0px"
	 width="5841.2px" height="2390px" viewBox="0 0 5841.2 2390" style="enable-background:new 0 0 5841.2 2390;" xml:space="preserve"
	>
<path style="fill:#090606;" d="M3388.4,1877.9c0,11.5,0,23,0,34.5c-0.1,0.1-0.2,0.2-0.3,0.3c-22.6,22.6-45.1,45.3-67.6,68
	c-2.1-9.3-4.9-18.3-8.1-27c18.8-18.7,37.6-37.3,56.3-56C3375.3,1891.1,3381.9,1884.5,3388.4,1877.9z M3189,1967.7
	c-7.1-4.2-14.1-8.4-21.2-12.6c-50.9,50.9-101.9,101.7-152.9,152.5c0,11.4,0,22.8,0,34.2c30.3-30.3,60.5-60.7,90.8-91
	C3133.5,2023.1,3161.3,1995.4,3189,1967.7z M3724.2,2044.8c-6.4,6.4-12.8,12.8-19.1,19.2c7,4.2,13.2,9.2,18.7,14.9
	c24.5-24.5,49-48.9,73.5-73.4c1.7-14.8,4.9-29.4,9.6-43.6c-1,1-2.1,2.1-3.1,3.1C3777.1,1991.5,3750.7,2018.2,3724.2,2044.8z
	 M3099.2,1914.2c-7.5-4.5-14.9-8.9-22.4-13.4c-20.6,20.5-41.2,41.1-61.8,61.6c0,12,0,24.1,0,36.1c13.7-13.7,27.4-27.4,41.1-41.1
	C3070.4,1943.1,3084.8,1928.6,3099.2,1914.2z M3515.3,2110.7c4.1,7.1,8.3,14.3,12.4,21.4c12-12,24.1-24.1,36.1-36.1
	c11.2-11.2,22.5-22.5,33.8-33.7c0-10.4,0-20.8,0-31.2c0-0.8,0-1.7,0-2.5c-22.8,22.7-45.6,45.2-68.3,67.9
	C3524.6,2101.3,3520,2106,3515.3,2110.7z M3583.7,1861.2c-4.7-1.3-9.5-0.7-14,1.9c-4.9,2.8-9.7,5.6-14.6,8.3
	c-13.2,7.6-26.5,15.2-39.7,22.8c-26.5,26.5-53,53.1-79.5,79.6c4.3,7.4,8.6,14.7,12.8,22.1c34.1-34,68.3-68.1,102.3-102.1
	C3561.9,1883,3572.8,1872.1,3583.7,1861.2z M3388.4,2056.2c0-8.4,0-16.9,0-25.3c0-3.2,0-6.3,0-9.5c-23.6,23.6-47.2,47.1-70.8,70.7
	c-7.3,25.3-19,48.7-34.2,69.4C3318.4,2126.3,3353.4,2091.2,3388.4,2056.2z M3597.6,2129.5c0-10.5,0-21,0-31.5
	c-16.7,16.6-36.1,35.8-56.9,56.4c3.8,6.6,7.7,13.2,11.5,19.8C3567.3,2159.3,3582.5,2144.4,3597.6,2129.5z M3595.9,1992.8
	c0.6-0.6,1.1-1.2,1.7-1.7c0-11.4,0-22.8,0-34.3c-18.5,18.5-37,37-55.5,55.5c-17.7,17.7-35.4,35.4-53.1,53.1
	c4.1,7.1,8.2,14.2,12.4,21.3C3532.8,2055.3,3564.4,2024.1,3595.9,1992.8z M3937.2,1937.1c13.5-13.5,27.1-26.9,40.6-40.4
	c-3.3-2-6.7-4-10-6c-3.8-2.2-7.5-4.5-11.3-6.7c-11.3,11.3-22.7,22.7-34,34c0,11.2,0,22.5,0,33.7
	C3927.4,1946.8,3932.3,1941.9,3937.2,1937.1z M2902.8,2110.5c-3.5-8.9-6.4-18-8.7-27.4c-23,23-45.9,46-68.9,69c0,11.9,0,23.8,0,35.7
	c18.9-18.8,37.8-37.7,56.7-56.5C2888.9,2124.4,2895.9,2117.4,2902.8,2110.5z M3233,2068.3c14.6-14.5,29.3-29.1,43.8-43.6
	c-1.3-3.3-3.6-6.4-7-8.6c-1.5-1-3-1.9-4.5-2.8c-2.6-1.6-5.2-3.1-7.8-4.7c-31.7,31.8-63.3,63.7-95,95.4c-5.4,5.4-10.8,10.8-16.1,16.1
	c8-4.8,16-9.5,23.9-14.3C3191.2,2093.2,3212.1,2080.8,3233,2068.3z M2185.2,1966.8c0-12.6,0-25.3,0-37.9c-12,12-24.1,24.1-36.1,36.1
	c-12.7,12.7-25.4,25.5-38.2,38.3c0,12.5,0,25,0,37.5C2135.7,2016.1,2160.4,1991.4,2185.2,1966.8z M3511.5,2005
	c28.7-28.7,57.4-57.4,86.1-86.1c0-11.2,0-22.5,0-33.7c-33.2,33-66.3,66.1-99.4,99.2c-11.9,11.9-23.7,23.8-35.5,35.7
	c4.2,7.2,8.3,14.3,12.5,21.5C3487.3,2029.4,3499.4,2017.2,3511.5,2005z M3325.4,2012.3c0.5,6.4,0.8,12.9,0.8,19.4
	c0,5.2-0.2,10.4-0.6,15.6c20.9-20.8,41.9-41.6,62.8-62.4c0-11.9,0-23.8,0-35.7c-3.1,3.1-6.1,6.1-9.2,9.2
	C3361.3,1976.3,3343.4,1994.3,3325.4,2012.3z M1754.2,2109c13.7-13.7,27.4-27.5,41.2-41.3c-4.2-7.5-8.3-15-12.5-22.4
	c-6.9,6.9-13.7,13.8-20.6,20.7c-21.2,21.2-42.4,42.3-63.6,63.5c-1.8,1.8-3.5,3.5-5.3,5.3c0,11.7,0,23.3,0,35
	C1713.7,2149.6,1733.9,2129.3,1754.2,2109z M1910.2,2241.3c19.1-19,38.1-38.1,57.1-57.1c0-12.4,0-24.8,0-37.1
	c-9.2,9.2-18.3,18.4-27.5,27.5c-15.7,15.7-31.4,31.5-47.1,47.2c-0.4,5.1-1.1,10.2-2.2,15.3c-3.8,16.5-10.7,31.5-21,44.8
	C1883.1,2268.4,1896.7,2254.9,1910.2,2241.3z M1967.4,2112.5c0-12.9,0-25.8,0-38.7c-8.1,8-17.3,17.2-27.5,27.3
	c-14.1,14-29.9,29.6-46.8,46.4c0,13,0,26.1,0,39.1c18.4-18.4,36.8-36.7,55.3-55.1C1954.7,2125.1,1961,2118.8,1967.4,2112.5z
	 M1693.4,2097.7c2.2-2.2,4.4-4.4,6.5-6.6c23.2-23.2,46.5-46.4,69.8-69.5c-1.5-2.7-3-5.3-4.4-8c-2.8-5.1-5.7-10.2-8.5-15.3
	c-4.8,4.8-9.6,9.6-14.3,14.4c-16.4,16.4-32.7,32.7-49.1,49c0,2.5,0,5,0,7.5C1693.4,2078.7,1693.4,2088.2,1693.4,2097.7z
	 M2889,2053.7c-0.8-7.9-1.2-15.8-1.2-23.9c0-3.1,0.1-6.2,0.3-9.3c-20.8,20.8-41.8,41.9-62.8,62.9c0,11.1,0,22.2,0,33.4
	C2846.4,2095.8,2867.8,2074.7,2889,2053.7z M2328.7,2008.6c0,9.9,0,19.8,0,29.7c39.1-39,78.2-77.9,117.2-116.9c2.5-2.5,5-5,7.4-7.4
	c0-11.3,0-22.7,0-34c-13.3,13.4-26.7,26.7-40,40.1c0,0.1,0.1,0.2,0.1,0.3c3,12.8-2.6,25.8-14.1,32.3c-3.9,2.2-7.9,4.3-11.8,6.4
	c-9.8,5.3-19.6,10.7-29.4,16c-9.8,9.8-19.7,19.6-29.5,29.4C2328.7,2005.9,2328.7,2007.3,2328.7,2008.6z M2110.9,2093.2
	c0,6.6,0,13.1,0,19.7c24.8-24.7,49.5-49.4,74.3-74.1c0-6.8,0-13.7,0-20.5c0-5.8,0-11.7,0-17.6c-24.8,24.8-49.5,49.5-74.3,74.3
	C2110.9,2081,2110.9,2087.1,2110.9,2093.2z M1967.4,2039.4c0-11.7,0-23.4,0-35.1c-3.4,3.4-6.8,6.8-10.2,10.2
	c-5.8,5.8-11.5,11.5-17.3,17.3c-15.6,15.5-31.2,31-46.8,46.6c0,11.8,0,23.6,0,35.3c5.9-5.9,11.7-11.7,17.6-17.6
	C1929.6,2077.2,1948.5,2058.3,1967.4,2039.4z M2647.7,2079.5c-11.3,0-22.5,0-33.8,0c-11.9,12-23.8,23.9-35.7,35.8
	c0,11.2,0,22.5,0,33.7c1.3-1.3,2.5-2.5,3.8-3.8C2604,2123.4,2625.9,2101.5,2647.7,2079.5z M3015.1,1894.5c-0.2,2.2-0.1,4.5-0.1,6.7
	c0,9.3,0,18.5,0,27.8c14.1-14,27.9-27.6,41.1-40.6c-3.6-2.1-7.2-4.3-10.8-6.4c-2.1-1.2-4.1-2.4-6.4-3.2c-2.9-0.9-5.8-1.1-8.6-0.6
	c-4.9,4.9-9.9,9.9-15,15C3015.1,1893.7,3015.1,1894.1,3015.1,1894.5z M2825.2,2035.7c0,3.2,0,6.4,0,9.5
	c13.8-13.8,27.7-27.6,41.5-41.4c9.4-9.4,18.8-18.8,28.2-28.2c5.5-21.2,14.2-41.2,25.4-59.4c-31.7,31.8-63.3,63.6-95.1,95.4
	C2825.2,2019.6,2825.2,2027.6,2825.2,2035.7z M2446.2,1992.8c2.4-2.4,4.8-4.8,7.2-7.2c0-11.4,0-22.7,0-34.1
	c-18.9,18.9-37.7,37.7-56.6,56.6c-22.7,22.7-45.4,45.3-68.1,67.9c0,11.2,0,22.4,0,33.6C2367.9,2070.7,2407.1,2031.9,2446.2,1992.8z
	 M2453.4,2058.4c0-11.7,0-23.5,0-35.2c-26.8,26.9-53.5,53.9-80.4,80.7c-14.8,14.8-29.5,29.5-44.3,44.2c0,11.7,0,23.3,0,35
	c17.3-17.4,34.4-35,51.8-52.3C2404.7,2106.7,2429.1,2082.5,2453.4,2058.4z M2638.1,1982.1c11.7,0,23.3,0,35,0
	c9.3-9.2,18.5-18.5,27.8-27.7c0-11.7,0-23.4,0-35.1C2679.9,1940.3,2659,1961.2,2638.1,1982.1z M2589.8,1958.4
	c-7.9,7.9-15.8,15.8-23.7,23.8c11.9,0,23.8,0,35.7,0c8.2-8.2,16.5-16.4,24.7-24.6c24.9-24.9,49.6-49.8,74.4-74.8c0-10,0-20.1,0-30.1
	c0-1.8,0-3.7,0.2-5.5C2663.9,1884.2,2626.8,1921.3,2589.8,1958.4z M3143.9,1940.9c-7.4-4.4-14.7-8.8-22.1-13.2
	c-9.7,9.7-19.5,19.5-29.2,29.2c-25.9,25.9-51.8,51.7-77.7,77.6c0,11.8,0,23.6,0,35.3c8-8,16-16,24-24
	C3074,2010.9,3108.9,1975.9,3143.9,1940.9z M3287.9,1906.6c4.6,6.7,8.9,13.7,12.7,20.9c5.7-5.8,11.4-11.5,17.2-17.3
	c20.1-20.2,40.5-40.1,60.7-60.2c4.6-4.6,9.2-9.2,13.8-13.8c2.6-4.7,6.5-8.7,11.4-11.4c20.9-20.9,41.9-41.8,62.6-62.9
	c8.3-8.4,17.8-15.8,24.4-25.8h-34c-0.2,3.1-2.9,4.3-4.7,6.1c-30.3,30.4-60.6,60.7-90.9,91
	C3336.7,1857.7,3312.3,1882.2,3287.9,1906.6z M3271.4,1885.6c49.8-49.8,99.6-99.6,149.3-149.4h-36c0.5,2.4-1.6,3.5-2.8,4.8
	c-5.8,5.9-11.9,11.5-17.8,17.4c-36.6,36.7-73.1,73.4-109.7,110.1C3260.4,1873.8,3266,1879.5,3271.4,1885.6z M3211.5,1838.1
	c7.5,4.1,14.8,8.6,21.8,13.5c38.5-38.5,76.9-76.9,115.4-115.4h-36c-13.6,15.5-28.8,29.4-43.3,44
	C3250.1,1799.4,3230.8,1818.7,3211.5,1838.1z M3445,1821c11.9,0,23.7,0,35.6,0c15.1-15,30.2-30,45-45.3c12.9-13.3,27-25.5,39.1-39.6
	h-36c-0.4,2.1-1.9,3.4-3.3,4.8c-24.2,24.1-48.5,48.1-72.6,72.3C3450.2,1815.8,3447.6,1818.4,3445,1821z M3687.9,1826.9
	c0.4,0.2,0.8,0.3,1.3,0.5c30.5-30.4,61-60.9,91.5-91.3h-36c0.4,2.9-2,4-3.6,5.5c-26.5,26.6-53,53.2-79.5,79.7
	C3670.6,1821.9,3679.4,1823.6,3687.9,1826.9z M3516.7,1821c11.7,0,23.4,0,35.1,0c28.3-28.3,56.6-56.6,84.9-84.9h-36
	c-1.4,1.8-2.6,3.8-4.2,5.4c-15.5,15.5-31.1,30.9-46.6,46.4C3538.8,1799,3527.8,1810,3516.7,1821z M2579.2,1897.7
	c-10.5,10.5-21.1,21-31.6,31.5c-2.7,4.7-5.3,9.5-8,14.2c-2,3.6-4,7.3-6.2,10.8c-4.7,7.8-2.8,16.2,2.3,21.7
	c21-21.1,41.9-42.2,62.9-63.3c24.4-24.4,49-48.6,73.4-72.9c21.4-21.3,43-42.5,64-64.1c12.9-13.3,27-25.5,39.1-39.6h-36
	c-0.4,2.1-1.9,3.4-3.3,4.8c-24.2,24.1-48.5,48.1-72.6,72.3C2635.2,1841.3,2607.3,1869.6,2579.2,1897.7z M2825.2,1868.1
	c0,11.2,0,22.4,0,33.7c9.7-9.7,19.4-19.4,29.1-29.1c45.6-45.5,91.2-91,136.8-136.5c-12,0-24,0-36,0c0.4,2.9-2,4-3.6,5.5
	c-26.9,27-53.8,54.1-80.8,81C2855.6,1837.8,2840.4,1852.9,2825.2,1868.1z M3730.8,1857.6c2.6-2.6,5.1-5.1,7.7-7.7
	c29.3-29.3,58.8-58.4,87.8-88c8.3-8.4,17.8-15.8,24.4-25.8h-34c-0.7,3.6-3.8,5.3-6,7.5c-32.4,32.4-64.7,64.8-97.1,97.1
	C3720.1,1845.7,3725.9,1851.3,3730.8,1857.6z M2801.8,1821.7c7.8,1.5,14.8,6.2,19.1,12.9c32.8-32.8,65.6-65.6,98.4-98.4
	c-12,0-24,0-36,0c-1.5,1.8-2.8,3.7-4.4,5.3c-26.6,26.6-53.3,53.2-79.9,79.8C2799.8,1821.4,2800.8,1821.5,2801.8,1821.7z
	 M2726.9,1821.3c0.8-0.1,1.6-0.2,2.4-0.2c1-0.1,1.9,0,2.9,0c10,0,20.1,0,30.1,0c28.3-28.3,56.6-56.6,84.8-84.9c-12,0-24,0-36,0
	c-1.4,1.8-2.6,3.8-4.2,5.4c-15.5,15.5-31.1,30.9-46.6,46.4C2749.2,1799.1,2738.1,1810.2,2726.9,1821.3z M2825.2,1939.6
	c0,11.4,0,22.8,0,34.2c20.6-20.7,41.1-41.5,61.7-62.2c20.6-20.6,41.4-41.1,62-61.7c29.3-29.3,58.8-58.4,87.8-88
	c8.3-8.4,17.8-15.8,24.4-25.8h-34c-0.7,3.6-3.8,5.3-6,7.5C2955.9,1809,2890.5,1874.3,2825.2,1939.6z M3107.8,1812.1
	c8.1,0,16.2,0.4,24.1,1.2c44.3-43.9,73.6-72.9,77.9-77.2h-37.7c-8.9,8.9-36.6,36.7-76.1,76.2
	C3100,1812.1,3103.9,1812.1,3107.8,1812.1z M2993.2,1843.7c17.9-10.9,37.4-19.3,58.1-24.6c16.7-16.7,33.3-33.4,50-50.1
	c10.7-10.8,22.4-20.7,31.8-32.8h-34c-0.6,1.2-1,2.5-1.9,3.4c-27.8,28-55.6,55.9-83.6,83.8
	C3006.9,1830.1,3000.1,1836.9,2993.2,1843.7z M3159.8,1818.2c9.1,2.2,18,5,26.6,8.3c30.1-30.1,60.2-60.2,90.3-90.4h-36
	c-1.4,1.8-2.6,3.8-4.2,5.4c-15,15.1-30,30.1-45.1,45.1C3180.9,1797.1,3170.3,1807.7,3159.8,1818.2z M4359,1948.3
	c2.2-0.6,3.3-2.2,4.6-3.6c23.8-24.5,48.7-47.9,72.6-72.4c28.5-29.2,57.9-57.4,86.6-86.3c4.1-4.1,9-7.7,11.5-13.6
	c6.4-15.3,13.3-30.4,19.8-45.7c0.8-1.9,8.4-13.1,6-15.2l-6,6.5c-15.7,15.8-34.2,34.3-49.9,50c-0.1,0.1-0.2,0.2-0.3,0.3
	c-16.1,16-32.3,32.1-48.3,48.1c-28.1,28.1-56,56.5-84.1,84.6c-31.9,31.9-64,63.6-95.9,95.5c-13.8,13.9-27.7,27.7-41.5,41.6
	c-0.7,13.7-2.4,27.2-5.3,40.3c18.5-18.4,37-36.7,55.4-55.2C4309.3,1998.5,4334.1,1973.4,4359,1948.3z M4178.9,2045.2
	c7.1-5.7,10.3-17,2.5-25.9c-20.6,20.6-41.2,41.1-61.8,61.6c18.1-10.8,36.1-21.5,54.1-32.3
	C4175.5,2047.6,4177.3,2046.5,4178.9,2045.2z M4569.9,1634c-3.9,1.2-5.7,3.7-7.8,5.8c-36.8,36.8-73.5,73.6-110.3,110.3
	c-28.1,28-61.1,59.9-87.8,86.6c-45.8,45.8-91.5,91.6-137.3,137.4c0.3,1.1,0.6,2.2,0.9,3.4c2.1,8.3,3.7,16.6,4.8,25.1
	c2.1-2.1,4.2-4.1,6.2-6.2c27.4-27.4,54.6-55.1,82-82.6c16.6-16.6,33.4-33.1,50.1-49.7c2.1-0.7,3.1-2.4,4.3-3.7
	c24-23.9,47.9-47.8,71.8-71.7c39.6-39.6,79.2-79.1,119-118.6c1.8-1.7,3.3-3.2,3.2-5.8C4568.6,1654.3,4571.6,1644.5,4569.9,1634z
	 M3589.1,2198.5c5.3-3.5,8.3-8.3,8.5-14.8c0.1-1.9,0-3.8,0-5.8c0-2.2,0-4.3,0-6.5c-9.2,9.2-18.4,18.4-27.6,27.7
	C3575.8,2202.3,3583.3,2202.3,3589.1,2198.5z M3952.2,2181c20.2-12,40.4-24.1,60.5-36.1c4.5-2.7,9-5.4,13.4-8
	c27.5-27.5,54.9-55.1,82.5-82.6c16.6-16.6,33.3-33.2,49.9-49.8c-6.7-4-13.5-8-20.2-12c-0.3-0.2-0.6-0.4-1-0.6
	c-49.5,49.4-99,98.7-148.5,148.1c-14.8,14.8-29.6,29.6-44.4,44.4c0.9-0.2,1.7-0.4,2.6-0.7C3948.8,2183,3950.5,2182,3952.2,2181z
	 M4013.7,1934.2c3.3-3.3,6.7-6.7,10-10c-7.4-4.4-14.9-8.9-22.3-13.3c-4.4,4.4-8.9,8.8-13.3,13.3c-21.9,21.9-43.7,43.8-65.6,65.7
	c0,11.8,0,23.6,0,35.3C3952.9,1994.8,3983.3,1964.5,4013.7,1934.2z M4217.2,1946c7-7,14.1-14,21.1-21.1
	c42.8-42.7,85.5-85.5,128.2-128.2c36-36,75.9-74.4,111.8-110.4c27.4-27.4,54.6-55.1,82.3-82.2c7.8-7.6,14.8-14.8,15.1-26.6
	c0.1-3.9,2.2-7.6,3.1-11.5c1.3-5.9,4.9-11.1,5.2-18.5c-1.9,1.6-2.9,2.4-3.8,3.3c-68.9,68.9-136.3,134.3-205.2,203.1c0,0,0,0,0,0
	c-2.7,2.6-5.4,5.2-8,7.8c-53.6,53.8-107.2,107.7-160.9,161.4C4210.2,1930.6,4214,1938.2,4217.2,1946z M4058.9,1960.9
	c3.3-3.3,6.6-6.6,9.9-9.9c-7.5-4.5-15.1-9-22.6-13.5c-20.3,20.2-40.6,40.4-60.9,60.7c-21,20.9-41.9,41.9-62.9,62.9
	c0,12,0,24.1,0,36.1C3968,2051.8,4013.5,2006.4,4058.9,1960.9z M4136.1,1848c7,4.6,13.7,9.7,20.1,15.1c5.2-5.2,10.4-10.5,15.6-15.7
	c35.9-36,71.8-71.9,107.8-107.9c-12,0-24,0-36,0c-1.4,1.8-2.6,3.8-4.2,5.4c-15,15.1-30,30.1-45.1,45.1
	C4174.9,1809.4,4155.5,1828.7,4136.1,1848z M3989.6,1813.4c24.6-24.6,49.3-49.2,73.9-73.8h-36c0.5,2.4-1.5,3.5-2.8,4.8
	c-26.3,26.3-52.7,52.5-79,78.7C3960,1818.3,3974.7,1815.2,3989.6,1813.4z M4272.3,1783.5c-32.4,32.5-64.8,64.9-97.3,97.4
	c5.7,6.1,11,12.5,16,19.2c1.4-1.4,2.8-2.8,4.3-4.3c48.9-48.9,105.8-107.4,154.7-156.3l-34.9,1.7l-33.3,32.9l0.2-0.1
	C4278.4,1777.5,4275.1,1780.7,4272.3,1783.5z M4058.7,1816.1c16.9-16.8,33.7-33.7,50.4-50.7c8.3-8.4,17.8-15.8,24.4-25.8h-34
	c-0.2,3.1-2.9,4.3-4.7,6.1c-22.2,22.2-44.5,44.4-66.7,66.6C4038.5,1812.8,4048.7,1814.1,4058.7,1816.1z M3792.5,1903.2
	c-16.2,16.2-32.3,32.3-48.4,48.5c-1,2.5-2.1,4.9-3.3,7.4c-11,22.4-28.2,38.2-51.3,47.3c-12.9,12.9-25.7,25.8-38.6,38.7
	c-0.9,0.9-2,2-3.1,3.1c2,0.8,4.3,1.3,6.9,1.4c7.3,0.3,14.5,1,21.5,2.6c101.4-99.8,184.3-181.5,192.6-189.7
	c34.4-34.3,116.8-114.6,120.9-122.9c-12,0-24,0-36,0C3954.2,1742.8,3844.9,1850.8,3792.5,1903.2z M4113.1,1834.8
	c18.8-18.7,37.7-37.2,56.1-56.3c12.7-13.1,26.5-25,38.4-39h-36c-0.6,1.1-1,2.5-1.9,3.4c-27,27.2-54,54.3-81.2,81.4
	C4096.8,1827.3,4105,1830.8,4113.1,1834.8z M3744.2,1881.9c1.8,4.9,3.3,10,4.5,15.5c0.9,4,1.5,8.1,1.8,12
	c46.8-46.8,93.7-93.6,140.4-140.5c10.7-10.8,22.4-20.7,31.8-32.8h-34c-0.6,1.2-1,2.5-1.9,3.4c-27.8,28-55.6,55.9-83.6,83.8
	C3783.6,1842.9,3763.9,1862.4,3744.2,1881.9z M3623.9,1821c28.3-28.3,56.5-56.6,84.8-84.9h-36c-1.5,1.8-2.8,3.7-4.4,5.3
	c-26.5,26.5-53.1,53-79.7,79.6C3600.4,1821,3612.1,1821,3623.9,1821z M4487.1,2108.4c34.8-34.6,69.7-69.1,104.4-103.8
	c27.7-27.7,55-55.7,82.7-83.3c32.4-32.3,65-64.4,97.4-96.7c27.7-27.6,55-55.6,82.6-83.3c32.4-32.3,65.1-64.3,97.3-96.8
	c34.3-34.6,68.6-69.2,103.3-103.4c2.1-2.1,4.5-4.5,5.2-7.2c3.8-13.4,13.7-20.8,25.3-26.6c3-1.5,5.9-3.1,8.4-5.2
	c7.6-6.4,15-13.1,23.2-20.3c-7.9-6.6-12.5-12.6-17.4-21.5c-8,8.6-14.6,16.2-21.6,23.2c-89.9,90-179.9,180-269.9,270
	c-92.3,92.3-184.7,184.6-277,276.9c-19.5,19.5-39,39-58.4,58.5c-2.5,2.5-6.3,4.7-6.4,8.5c-0.3,9.7,0.1,19.5,0.3,31.1
	C4474.5,2120.9,4480.8,2114.6,4487.1,2108.4z M5088.7,1286.5c-4.2,4.3-8.1,1.8-12.1,0.7c-9.7-2.8-17.9-1-23.8,7.8
	c-0.7,1.1-1.6,2-3.1,3.6C5071.5,1307.9,5077.8,1304.1,5088.7,1286.5z M5007.8,1291.5c4.1-1.7,8.9,0.1,12.3-3.1
	c5.3-4.9,10.8-9.6,15.2-15.8c-5.4-3.8-11.1-5.9-17.3-7.5c-5-1.3-8.1-0.1-11.4,3.3c-9.5,9.7-19.2,19.2-28.7,28.9
	c-1.3,1.4-4.3,2.4-2.6,5.9C4986.2,1299.2,4997.2,1295.8,5007.8,1291.5z M4582,1908.9c-35,35-70.1,70.1-105.1,105.1
	c-3.5,3.5-7.3,6.8-8.5,12c-2.5,10.3-3.4,20.8-2.4,32.1c3.6-3.3,7.3-6.5,10.7-10c24.1-24.2,48.1-48.5,72.3-72.6
	c35.7-35.6,71.5-71,107.1-106.7c26.5-26.5,52.7-53.2,79.2-79.6c33.7-33.7,67.7-67.3,101.4-101.1c26.2-26.2,52.3-52.6,78.5-78.9
	c21.3-21.4,42.7-42.6,64.1-63.9c29.4-29.2,58.7-58.5,88.1-87.7c4.9-4.9,9.9-9.8,14.7-14.8c1.3-1.4,2.7-3.3,0.1-4.9
	c-8-5-26.3-2.7-33.3,4.2c-13.4,13.3-26.8,26.8-40.2,40.1c-38.1,38.1-76.1,76.2-114.2,114.3C4790.4,1700.6,4686.2,1804.7,4582,1908.9
	z M4952.6,1210.3c2.3-15.2,8.2-29.2,13-44.3c-1.5,1.3-3.1,2.5-4.5,3.9c-14.4,14.3-28.7,28.6-43,42.9c-14.3,14.3-28.6,28.7-42.9,43.1
	c-1.7,1.7-4.7,2.8-3.4,6.4c2.7,7.2,4,14.9,8.6,23.5c23-23.4,45.1-45.8,67-68.4C4949.3,1215.4,4952.1,1213.5,4952.6,1210.3z
	 M4985.5,2093.2c-10-0.1-17,4.5-22.4,13.1c4.8,3.4,9.2,6.4,13.5,9.3c2.5,1.7,4.5,1.7,6.9-0.8c6.8-7,14-13.6,22.4-21.7
	C4997.4,2093.2,4991.5,2093.3,4985.5,2093.2z M4921,1314.9c9.3-9.4,18.6-18.9,28-28.3c8.6-8.6,17.4-17,27.4-26.8
	c-8.1-2.1-13.7-5.5-17.9-10.7c-1.9-2.3-3.8-1.7-5.8,0.3c-18.1,18-36.3,35.9-53.3,52.7c4.3,5.4,7.1,9.6,10.5,13.1
	C4914.8,1320.3,4915.9,1320.1,4921,1314.9z M5180.3,1455.3c-3.6,3.9-7.5,7.5-11.2,11.2c-11.8,11.6-23.6,23.1-36.7,36
	c9.1,3.7,16.7,5.6,21.3,13.3c44.8-45,89.5-89.2,134.3-134.5c-6.3-2.9-11.6-4.1-16-6.7c-6.7-3.9-10.4-0.8-14.5,3.3
	c-12.9,12.9-25.6,25.9-38.6,38.6c-4.8,4.7-7.2,9.5-6.7,16.5c0.6,10.4-1.4,12-11.7,12.9C5192.5,1446.6,5185.7,1449.5,5180.3,1455.3z
	 M5074.2,1923.7c22.7-0.6,42.9-6.6,57.5-27.8c-10.6,0-20.1,0-29.6,0c-1.8,0-3.2,0.6-4.5,1.8c-8.3,7.9-16.5,15.9-24.8,23.8
	C5073.2,1922.2,5073.7,1922.9,5074.2,1923.7z M5087.2,1639.9c2,1.6,3,4.5,4.5,4.6c81.9-81.8,163-162.9,244.6-244.4
	c-4.3-1.1-8.5-1.4-11.8-3.3c-7.5-4.5-11.8-0.8-16.8,4.3c-26.6,27-53.3,53.7-80.2,80.4c-47,46.8-94.1,93.6-141.1,140.3
	C5076.6,1631.6,5076.6,1631.6,5087.2,1639.9z M5104.9,1833.8c12.9,5.1,13.8,4.7,22.4-5.7c2.3-2.8,1.9-4.5-0.1-6.8
	c-3.8-4.5-7.6-9-12.1-14.3c-7.4,7.5-14.6,13.6-20.4,20.7c0.4,2.1,1.8,2.4,2.9,2.9C5100.1,1831.7,5102.5,1832.8,5104.9,1833.8z
	 M5302.4,1260.1c-9.6,9.6-19,19.4-28.9,28.7c-3.7,3.5-3.7,6.9-1.6,10.6c1.4,2.6,3.4,5,5.6,6.9c4.6,4.1,8.4,3.9,13-0.6
	c9.7-9.5,19.4-19,27-30.5c10.6-16.1,21.8-31.8,32.6-47.8c4.9-7.2,8.9-14.8,11.4-23.2l0,0c1.3-0.9,1.7-2.3,0.3-3.1
	c-0.5-0.3-1.4,1.1-1.3,2.2c-1.4,0-2.5,0.7-3.5,1.7C5338.8,1223.5,5320.6,1241.8,5302.4,1260.1z M5222.4,1302.1
	c2.2-0.9,2.6-2.8,2.5-4.9c-0.1-2.4-1-4.4-2.2-6.5c-7.4-13.4-9.4-13.7-20.2-1.7c5.4,4.3,11.3,6.8,15.5,11.4
	C5219.3,1301.7,5220.6,1302.8,5222.4,1302.1z M5146.9,1274.9c-3.9,0.8-6.8,2.5-9.4,5c-10.5,10.5-20.8,21.1-32.4,33
	c26.3-3.9,64.4-26,72.2-41.4C5166.8,1270.3,5157,1272.9,5146.9,1274.9z M1893.1,2006.6c0,11.8,0,23.6,0,35.5
	c25.1-25.1,50.1-50.3,75.3-75.4c2.6-10.1,10.4-18.1,20.7-20.7c11.9-11.9,23.8-23.7,35.7-35.6c-7.3-4.2-13.6-10-18.4-17
	c-22.1,22.1-44.3,44.3-66.4,66.4C1924.3,1975.4,1908.7,1991,1893.1,2006.6z M5662.9,1692.9c-94.2,94.2-187.7,187.7-281.6,281.5
	c6.4,2.7,12.1,3,17.1,5.7c7.2,3.8,7.2,3.7,13.1-2.3c72.4-72.4,144.7-144.7,217.1-217.1c14.1-14.1,28.2-28.2,42.2-42.3
	c1.6-1.7,4.7-2.9,2.6-6.5C5670,1706,5666.8,1699.9,5662.9,1692.9z M5713.5,1784c-34.4,34.5-68.7,69-103.1,103.5
	c-28.6,28.6-57.2,57.2-85.8,85.8c-20.6,20.6-41.1,41.4-61.9,61.8c-9.3,9.1-9.5,8.9-2.1,19c6.9,9.4,7.2,9.4,15.3,1.3
	c64-63.9,128-127.8,191.9-191.6c19.5-19.5,39-39,58.4-58.6c2-2,5-3.6,4.9-6.9c-1.7-5.5-5.8-9.1-8.8-13.4
	C5718.5,1779.4,5718,1779.5,5713.5,1784z M5740.6,1830.5c-65.8,65.8-131.6,131.6-197.4,197.4c-17.2,17.2-34.3,34.4-51.6,51.4
	c-3.2,3.1-5.6,6.1-2.6,10.2c3.8,5.1,5.7,11.1,8.5,17.5c19.9-19.7,39.5-39,59-58.4c29.8-29.7,59.6-59.5,89.4-89.3
	c34.7-34.7,69.3-69.4,104-104c10.4-10.4,10.4-10.3,3.4-23.2C5748.3,1822.8,5748.3,1822.8,5740.6,1830.5z M5691,1744.5
	c-2-2.9-4.3-2.7-6.6-0.5c-2.6,2.6-4.8,5.5-7.4,8c-29.6,29.6-59.2,59.2-88.8,88.9c-32.7,32.7-65.3,65.3-98,98
	c-19,19-38.1,38-57.1,57.1c-5.4,5.4-5.5,5.6-0.7,12c2.4,3.1,3.8,7.1,9.7,10.4c8.5-9.1,16.5-18.3,25.2-27
	c74.1-74.3,148.2-148.5,222.4-222.8c11.3-11.3,11.4-11.3,1.9-23.4C5691.4,1745,5691.2,1744.7,5691,1744.5z M5150.8,1658.1
	c-2.4-13.5,2.6-25.4,7.9-37.5c-16.5,14.1-31.3,29.7-46.5,45c-1.6,1.6-2.3,3.3-1.6,5.4c2.5,7,5,13.9,8.4,23.1
	c10.6-11.2,19.9-21,29.3-30.9C5149.9,1661.7,5151.2,1660.4,5150.8,1658.1z M4999.1,875.6c-6,1.7-10.6,2.7-14.8,4.4
	c-19.8,7.9-39.2,16.5-54.6,32c-28,28-55.6,56.4-84.1,83.9c-9.6,9.3-14.5,20.3-17.2,32.7c-1.3,5.9-3.8,11.9-1.4,18.1
	C4884.2,990,4941,933.4,4999.1,875.6z M5503.4,2172.4c2.7-2.5,4.2-3.7,5.5-5c16-15.9,32.1-31.8,48-47.7
	c61.7-61.8,123.4-123.5,185.1-185.3c12.4-12.4,24.8-25,37.3-37.3c2.3-2.3,4.6-4.3,2.7-7.6c-3.4-5.9-5.9-12.4-10.6-17.8
	c-1.2,0.9-2.1,1.4-2.8,2.1c-21.5,21.7-42.8,43.5-64.4,65c-36.6,36.5-73.5,72.9-110.2,109.4c-27,26.9-53.8,54.1-81,80.9
	c-6.1,6-10.7,11.7-8.3,21c0.7,2.7,0.8,6-0.7,8.8C5502.3,2162.6,5503.1,2166.5,5503.4,2172.4z M4825.3,1123
	c84.5-84.7,168-168.4,252-252.6c-8.3-4.2-16.1-1-23-3.4c-5.1-1.8-7.9,0.2-11.3,3.6c-33.2,33.5-66.4,67-99.7,100.4
	c-33.5,33.6-67.1,67-100.5,100.7c-6.3,6.3-15.5,11.2-17.8,19.6c-2.4,8.7-0.6,18.5-0.7,27.8C4824.4,1119.7,4824.7,1120.4,4825.3,1123
	z M5606.1,1532.6c-1.1,0.8-2.3,1.5-3.2,2.4c-18.2,17.9-36.4,35.8-54.4,53.9c-39.3,39.4-78.5,79-117.8,118.4
	c-23.4,23.5-47,46.8-70.5,70.2c-29.4,29.2-58.7,58.5-88.1,87.8c-7.3,7.3-14.2,14.8-21.5,22c-2,2-3,4.4-1,6c5.4,4,8.1,10.5,14,14.2
	c9.6-9.5,19-18.8,28.4-28.2c42.9-42.7,85.8-85.3,128.6-128.1c32.9-32.9,65.7-65.9,98.5-98.9c28.4-28.5,56.8-56.9,85.2-85.4
	c4.3-4.4,11.5-7.7,11.6-14c0.1-6.4-4.2-12.4-7.4-18.3C5608,1533.9,5607,1533.4,5606.1,1532.6z M5624.8,1584.6
	c-4,4.6-6.6,8.1-9.6,11.1c-96.8,96.9-193.7,193.8-290.6,290.7c-15.5,15.5-31.2,30.9-46.6,46.5c-2.1,2.1-6.1,3.8-4.4,8.1
	c2.7,6.9,3.9,14.4,8.8,20.5c1.3-0.9,2.3-1.3,3-1.9c26.6-26.8,53.2-53.6,79.9-80.3c33.7-33.7,67.7-67.3,101.4-101
	c41.4-41.5,82.7-83.1,124.2-124.6c12.4-12.4,25.1-24.6,37.5-37c3.7-3.7,7.2-7.3,3.2-13.6C5628.7,1598.4,5627.6,1592.6,5624.8,1584.6
	z M5206.1,1963c-0.1-0.1-1.1,0.5-1.4,1c-0.3,0.5-0.5,0.8-0.5,1.1c-4.6-1.8-8.2,2.1-11.3,4.1c-8.9,5.6-18,9.3-28.5,10.2
	c-4.9,0.4-9.2,3-12.8,6.8c-9.2,9.5-18.8,18.6-28.2,27.9c-1.2,1.2-3.2,2.5-1.9,5c11.9-2.7,23.8-5.4,35.8-8c4.1-0.9,6.9-3.7,9.8-6.5
	c12.9-12.9,25.9-25.8,38.9-38.6l0.3,0c-0.1-0.1-0.2-0.1-0.3-0.2C5206,1964.9,5207.6,1964.1,5206.1,1963z M5583,1486.6
	c-2.3,2-3.7,3-4.8,4.2c-26.8,26.8-53.5,53.6-80.3,80.4c-30.3,30.3-60.6,60.6-90.9,90.9c-29.6,29.6-59.2,59.2-88.8,88.8
	c-35.2,35.2-70.5,70.4-105.8,105.6c-11.3,11.2-11.3,11.1,2.3,18c4.3,2.2,7.9,3.1,10.9-1.9c1-1.6,2.8-2.8,4.2-4.2
	c62.9-62.9,125.8-125.7,188.7-188.6c54.7-54.7,109.4-109.3,164.1-164c11.8-11.8,11.8-11.8,2.5-26.2
	C5584.7,1488.8,5584.1,1488,5583,1486.6z M5247.4,1976.4c1.6-2.8,0.7-5.1-1.6-7c-2.7-2.4-4.1,0.1-5.6,1.7
	c-8.6,8.6-17.2,17.3-25.7,25.9c12.3-1.4,21.9-8,30.6-16.2C5246.2,1979.7,5246.6,1977.9,5247.4,1976.4z M5645.8,1639.1
	c-2.7,0.2-3.8,1.3-5,2.5c-36.2,36.5-72.3,73-108.7,109.4c-40.3,40.3-80.8,80.4-121.2,120.6c-21.1,21-42.3,42.1-63.4,63.2
	c-19,19-37.7,38.2-56.7,57.1c-2.2,2.2-4.1,4.4-4.2,7.6c-0.2,11.4-5,21.7-8,32.5c-1.8,3.1-3.3,6.4-5.9,9.1
	c-8.4,8.6-17.6,15.3-30.2,17.3c-11.2,1.8-21.2,7.1-29.9,14.7c12.1-0.6,23.2-5.9,35.2-6c2.1,0,3.4-1.9,4.8-3.3
	c9.2-9.4,18.4-18.9,27.6-28.3c2-1.7,4.1-3.4,6-5.2c30.3-30.2,60.6-60.5,90.8-90.7c65.7-65.7,131.3-131.4,197-197.2
	c23.9-23.9,47.9-47.8,71.8-71.8c2-2.1,5.5-3.8,4.8-7.1C5649,1655.3,5648.9,1646.7,5645.8,1639.1z M5214.3,1997.6l0.1-0.7
	c0,0,0,0,0,0c0,0,0,0,0,0l-0.2,0.2c0,0,0,0,0.1-0.1c0,0-0.1,0.1-0.1,0.1C5214.2,1997.1,5214.3,1997.6,5214.3,1997.6z M5017.5,2011.5
	c5.7-6.7,13.2-11.8,18.8-20.3c-7.3-3.2-14.5-5.9-18.2-12.2c-14.8,14.8-29.4,29.4-44.3,44.3c5.9,5.3,13.5,3.7,20.5,4.7
	c4.6,0.6,8.1-0.8,11.3-4.6C5009.2,2019,5013.9,2015.7,5017.5,2011.5z M4113.5,1977.6c-7.4-4.4-14.7-8.8-22.1-13.2
	c-48,48-96.1,95.9-144.1,143.8c-8.3,8.3-16.6,16.6-24.9,24.9c0,9,0,17.9,0,26.9c0,1.8,0,3.5,0,5.3c0,1,0.1,2,0.2,2.9
	c39.7-39.7,79.4-79.3,119.1-119C4065.7,2025.4,4089.6,2001.5,4113.5,1977.6z M4944.3,1403.2c-30.7,30.9-60.8,61.2-91,91.5
	c-41.2,41.3-82.5,82.5-123.8,123.8c-34.2,34.2-68.3,68.6-102.6,102.7c-3,2.9-4.9,6.2-6.4,9.9c-4.9,11.3-9.5,22.6-14.6,33.8
	c-1.6,3.5-4.4,6.5-4.5,9.8c119.4-119.4,239.2-239.2,359.3-359.3C4954.4,1413.7,4950.7,1407.8,4944.3,1403.2z M4557.3,1861
	c-14.7,19.3-30.2,38-42.8,58.8c-4.4,7.2-9.3,14.6-10.3,23.4c0.6,0.5,1.1,1.1,1.7,1.6c20-19.5,40.1-38.8,59.8-58.5
	c32.2-32.2,64-64.7,96.2-96.9c42.8-42.8,85.8-85.3,128.5-128.1c32.4-32.4,64.7-65,97-97.5c35.7-35.8,71.4-71.5,107.1-107.3
	c6.9-6.9,6.8-6.9-1-11.8c-2.2-1.4-4.6-3-6.2-5c-3.3-4.2-5.6-3.9-9.3-0.1c-17.5,17.7-35.3,35-52.9,52.5c-32.2,32-64.3,64.1-96.4,96.3
	c-39.3,39.4-78.4,79-117.7,118.5c-21.7,21.9-43.6,43.7-65.4,65.4c-18.6,18.5-37.3,36.7-55.9,55.2
	C4578.8,1838.5,4566.7,1848.7,4557.3,1861z M4918.3,1389.5c-12.9,3.8-24.2,7.4-35.6,10.3c-6.2,1.6-11.5,3.9-16.2,8.6
	c-65.2,65.4-130.5,130.7-195.9,195.9c-4,4-6.4,8.2-7.1,13.7c-1.2,10-4.6,19.1-9.6,27.9c-2.5,4.4-6.1,8.6-5.8,14
	C4737.8,1570.1,4827.5,1480.3,4918.3,1389.5z M5183.2,875.1c-49.7,49.9-99.7,99.5-149.5,149.3c-57.3,57.3-114.5,114.8-171.7,172.2
	c-5,5.1-14,9-13.5,16c0.4,6.5,6.8,12.5,11.2,20c118.1-118.1,235.2-235.3,353.3-353.3c-7-2.5-12.7-3.7-17.3-6.5
	C5190.1,869.2,5187.1,871.1,5183.2,875.1z M5144.3,856c-7.9-0.5-15.2,1.9-20.9,7.5c-32.6,32.3-65,64.8-97.4,97.2
	c-50.4,50.6-100.8,101.2-151.3,151.8c-14.1,14.1-28.2,28.2-42.3,42.3c-2,2-5,3.8-3.6,7.5c2.5,6.5,1.9,13.8,5,20.6
	c2.5-0.1,3.7-1.3,4.9-2.4c53.2-53.3,106.5-106.6,159.7-159.9c50.5-50.6,101.2-101,151.6-151.7c3.2-3.3,10.2-6.3,8-11
	C5156.2,853.3,5149.1,856.2,5144.3,856z M4819.5,1414.6c-10.9,0.4-20.7,4.5-31,6.6c-6.7,1.4-12.2,4.5-17.1,9.4
	c-29,29.2-58.3,58.1-87.4,87.2c-1.6,1.6-3.8,3.2-4.4,5.3c-4.3,14.1-8.3,28.2-12.4,42.3c0.6,0.4,1.1,0.8,1.7,1.2
	C4719.4,1516.5,4769.7,1466,4819.5,1414.6z M5256.9,900.4c-2.3-1.9-4.8-3.6-7.2-5.3c-8.3-5.9-8.3-5.9-15.5,1
	c-0.2,0.2-0.5,0.4-0.7,0.7c-16.5,18.3-34.5,35.1-51.8,52.5c-25.4,25.4-50.8,50.7-76.3,76c-29.7,29.5-58.9,59.5-88.9,88.7
	c-6.8,6.7-13.1,13.8-19.9,21c1.3,0.3,2,0.8,2.5,0.6c13-5.2,26-10,39.9-12c2.8-0.4,4.6-2.3,6.5-4.2c16.5-16.8,33.1-33.5,49.8-50.1
	c18.5-18.5,37.3-36.8,55.8-55.3c29.6-29.5,59.2-58.9,88.5-88.7c6.8-6.9,14.6-13.1,20.2-21.5C5258.6,902.4,5257.9,901.2,5256.9,900.4
	z M1710.3,1936.6c-7.6,0.7-13.8,5.8-16,13.3c-0.3,1.1-0.5,2.2-0.7,3.4C1699.2,1947.7,1704.7,1942.2,1710.3,1936.6z M3800,2074.2
	c-0.7-3.7-1.4-7.5-1.9-11.2c-0.9-6.2-1.6-12.4-1.9-18.6c-13.4,13.4-26.9,26.9-40.3,40.3c-5.4,5.4-10.9,10.9-16.3,16.3
	c1.9,3.6,3.6,7.3,5.1,11.2c1.7,4.4,3,8.9,4,13.4c8.9-8.9,17.9-17.9,26.8-26.8C3783.6,2090.5,3791.8,2082.4,3800,2074.2z
	 M1821.1,2114c-4.2-7.6-8.4-15.1-12.6-22.7c-35.7,35.7-71.3,71.3-107,107c4.8,3.3,11.1,4,17.2,1.3c2.9-1.3,5.7-2.9,8.4-4.6
	c10.7-6.4,21.4-12.8,32.1-19.2c10.3-10.4,20.6-20.7,31-31C1800.5,2134.5,1810.8,2124.2,1821.1,2114z M1717.5,2001.1
	c8.8-8.7,17.6-17.4,26.3-26.1c-4.3-7.7-8.5-15.3-12.8-23c-2.1,2.1-4.3,4.2-6.4,6.4c-10.4,10.4-20.9,20.9-31.3,31.3
	c0,11.8,0,23.7,0,35.5C1701.4,2017.2,1709.5,2009.2,1717.5,2001.1z M3110.9,2117c41-40.8,82.1-81.5,123.1-122.4c-1.7-1-3.3-2-5-3
	c-5.5-3.3-10.9-6.5-16.4-9.8c-8.8,8.8-17.6,17.6-26.3,26.3c-56.2,56.1-112.4,112-168.6,168.1c0.4,0.6,0.9,1.3,1.4,1.9
	c6.2,7,14.8,8.6,23,4.1c2.8-1.5,5.5-3.2,8.2-4.8C3070.5,2157.3,3090.7,2137.1,3110.9,2117z M2576.1,2222.7
	c16.8-16.6,33.6-33.2,50.3-49.9c22.7-22.6,45.1-45.5,67.7-68.2c-1.4-2.3-2.7-4.7-4.1-7c-2-3.4-3.9-6.9-6.9-9.8c-1-1-2.1-1.9-3.2-2.7
	c-33.8,33.8-67.7,67.7-101.5,101.5c0,7.4,0,14.8,0,22.3c0,3-0.1,6.1-0.8,9.1C2577.2,2219.5,2576.7,2221.1,2576.1,2222.7z
	 M2185.2,2074.7c-10.1,10.1-20.2,20.1-30.2,30.2c-14.7,14.7-29.4,29.4-44,44c0,11.8,0,23.5,0,35.3c24.8-24.7,49.5-49.5,74.3-74.2
	C2185.2,2098.2,2185.2,2086.5,2185.2,2074.7z M5090.7,2127.5c22-3.7,42.4-10.5,56.2-29.8c0.9-1.3,2.6-2.1,3.7-3.3
	c0.9-0.9,1.9-2,0.8-4.2c-8.4-0.3-17.3-0.6-26.1-1c-2.5-0.1-4.4,1-6.1,2.7c-12.1,11.8-24.3,23.5-37.7,36.4
	C5086.4,2129.5,5088.4,2127.8,5090.7,2127.5z M5116.2,1982.1c1.5-1.5,4-2.5,3.3-6.2c-8.2,0-16.4,0-24.6,0c-3,0-4.6,2-6.5,3.9
	c-12.1,12.2-24.6,24.1-36.5,36.5c-3.5,3.7-8.5,6.4-10.5,12.7c9.7,1,18.2-1.4,26.8-1.6c3.6-0.1,5.3-2.5,7.3-4.5
	C5089.1,2009.3,5102.6,1995.7,5116.2,1982.1z M5147.9,1728.3c2.8,3.1,5.5,3.2,8.4,0.3c5.4-5.4,10.8-10.7,16.2-16.1
	c2.4-2.4,2.8-5,1.4-8.1c-2.6-6-5.5-11.8-10.1-17.1c-10,10.1-19.6,19.8-30.2,30.5C5139.8,1720.7,5144.2,1724.1,5147.9,1728.3z
	 M5548.8,1455.2c-3.3-2.7-5.9-2.7-9.3,0.9c-8,8.8-16.7,17-25.1,25.5c-21.6,21.5-43.2,43-64.7,64.6c-28.3,28.4-56.6,56.8-84.9,85.1
	c-28.8,28.8-57.9,57.4-86.7,86.2c-33.7,33.7-67.4,67.5-101,101.3c-8.1,8.1-16.8,15.7-24.3,25.3c5.5,2.2,10.4,4.1,15.2,6.1
	c8,3.3,8,3.3,13.9-2.6c111.9-111.9,223.8-223.8,335.8-335.7c15-15,30.2-29.9,45.2-44.7C5559.7,1460.3,5553.3,1458.8,5548.8,1455.2z
	 M5041.9,2129.8c6-7,12.9-13.3,19.5-19.9c5.3-5.3,10.7-10.6,16-15.9c-0.4-0.6-0.7-1.2-1.1-1.9c-9.9,0-20.3-1.8-29.6,0.6
	c-7.5,2-12.4,10.4-18,16.5c-0.4,0.5-1.2,0.7-1.6,1.2c-5.9,7-13.6,12.3-19,19.9c6.2,3.6,12.6,3.7,18.7,4.8
	C5032.8,2136.2,5037.6,2134.7,5041.9,2129.8z M5029.6,1821.1l-0.2,0c0.2,0.1,0.3,0.3,0.5,0.4c0.1,0.5,0.1,1.4,1,0.5
	c2,0.7,3.9-0.7,5.9-1.2c8-2,16-5.6,24.2-4.5c5.4,0.7,8.6-0.9,12-4.4c7.8-8,15.8-16,23.6-23.9c1.3-1.4,3.6-2.8,2.4-4.9
	c-2.8-4.6-6.7-8.4-12.1-9.6c-4.3-0.9-8.2-1.7-12.4,2.7C5060,1791.5,5044.6,1806.2,5029.6,1821.1z M5483.4,1439
	c-8,8.4-16.4,16.4-24.6,24.6c-25.7,25.9-51.4,51.8-77.2,77.6c-34.2,34.2-68.6,68.3-102.9,102.5c-26.5,26.5-53.1,52.9-79.4,79.5
	c-10.2,10.3-21.3,19.9-30.4,31.3c3,4.7,7.9,6.4,12,9c7.1,4.5,7.1,4.6,12.8-0.9c1-0.9,1.9-1.8,2.9-2.8c30.1-30.1,60.1-60.1,90.2-90.2
	c62.2-62.2,124.5-124.4,186.7-186.6c14-14.1,28-28.2,42.9-43.4c-6.8-1.9-11.9-3.1-16.9-4.8C5493.1,1432.6,5488.1,1434.2,5483.4,1439
	z M4999.2,1922.6c-2.6,3.4-2.3,6.1,1.5,6.3c9.3,0.5,19.6,1.2,27.3-2.9c8.9-4.7,15.9-13.3,21.9-22.5c-5.9,1.6-11.8,2.1-17.6,2.3
	C5018.7,1906.3,5007.7,1911.8,4999.2,1922.6z M5276.2,925.9c-2.5,2.7-5.3,5.1-7.9,7.7c-17.7,18-35.2,36.2-53.1,54
	c-37.6,37.5-75.4,74.8-113.1,112.2c-4.8,4.8-9.4,9.7-14.9,15.4c10.8,0,20,0,29.2,0c2.5,0,4.5-0.8,6.3-2.5c3.4-3.1,7-6.1,10.3-9.4
	c22.1-22,44.2-44.1,66.2-66.2c33.5-33.6,66.8-67.3,101.6-102.3c-7.7-2.6-14-5.4-19.5-9.6C5279.4,923.8,5277.8,924.2,5276.2,925.9z
	 M5422.4,1428.2c-32.9,33.4-66.2,66.5-99.3,99.6c-30.1,30.1-60.2,60.2-90.4,90.3c-3.9,3.9-6.5,7.9-7.1,13.6
	c-1,8.8-2.2,17.7-6.2,25.9c-0.8,1.7-0.8,3.9,0.7,7c78.7-78.7,157.1-157.1,235.5-235.5c-4-4.2-9.3-3.1-13.2-5.3
	C5434.3,1419.3,5428.6,1421.9,5422.4,1428.2z M5346.6,1070.9c-24.6,24.6-49.2,49.2-73.8,73.8c-13.1,13.1-25.7,26.8-39.3,39.4
	c-2,1.9-5.3,4.2-4,7.5c2.8,6.9,4.5,14.5,9.8,20.2c17.9-17.7,35.6-35.2,53.2-52.8c23.8-23.7,47.5-47.4,71.2-71.2
	c1.8-1.8,4.9-3.3,4.9-6.1c0.1-9.4-0.7-18.7-3.2-29.1C5358.4,1059.4,5352.4,1065.1,5346.6,1070.9z M5320.9,954.7
	c-56,56.1-112,112.2-169.3,169.5c6.4,3,11.3,5,15.9,7.6c5.3,3,8.8,1.6,13-2.6c45.2-45.5,90.5-90.7,135.8-136.1
	c5.1-5.1,13.5-9.3,14-16.1c0.5-6.5-4.7-13.4-7.5-20.2C5322.5,956.3,5322,955.9,5320.9,954.7z M5345.8,1004.7
	c-3.1,0.7-4.8,3.3-6.9,5.4c-7.1,7-14,14.1-21,21.1c-35.5,35.4-71,70.8-106.5,106.2c-9.6,9.6-9.6,9.6-0.7,19.4
	c1.5,1.7,2.3,4.2,4.8,4.8c1.5-0.2,2.3-1.2,3.2-2.1c42.3-42.2,84.5-84.3,126.8-126.4c12.9-12.9,12.9-13.1,1.2-27.8
	C5346.5,1005,5346.2,1004.9,5345.8,1004.7z M5367.3,1123.6c-27.2,27.2-54.4,54.5-81.6,81.8c-9.6,9.6-19.4,19.1-28.9,28.8
	c-1.9,2-5.6,3.9-3.8,7.3c3.5,6.7,3.2,14.8,7.8,21.4c21.1-20.8,41.5-41,62-61.3c15.3-15.1,30.4-30.4,45.6-45.6
	c2.1-2.1,5.3-4.4,5.5-6.7c0.6-10,2.7-20.1-0.9-30.9C5370.6,1120.6,5368.9,1122,5367.3,1123.6z M5368.2,1409.1
	c-15.1,15.3-30.4,30.5-45.6,45.7c-26.2,26.3-52.4,52.5-78.5,78.9c-12.1,12.2-25.2,23.5-36.1,36.9c0,0,0,0,0,0
	c-0.7,0.7-2.9,0.8-1.2,2.4c0.6,0.6,1.8-0.2,1.8-1.4c2.9,0.6,5.1-1.4,7.4-2.5c8.3-3.8,15.9-5.4,21.1,4.5
	c21-18.2,157.6-156.5,160.9-162.9c-6.9-3.9-14.7-3.5-22-4.8C5373,1405.4,5370.5,1406.8,5368.2,1409.1z M971.7,2172.7
	c26.7-26.7,53.1-53.7,79.8-80.4c33.3-33.3,66.9-66.3,100.2-99.5c27-26.9,53.7-54.1,80.6-81.1c20.6-20.6,41.4-41.1,62-61.7
	c29.3-29.3,58.8-58.4,87.8-88c7.7-7.8,16.4-14.7,22.9-23.6c0.5-0.7,1-1.5,1.5-2.2h-34c-0.2,0.8-0.4,1.5-0.8,2.2
	c-1.3,2.2-3.5,3.6-5.2,5.3c-89.5,89.6-179,179.1-268.6,268.6c-90,90-180,180-270,270c-35.9,35.9-71.9,71.9-107.9,107.8h34.1
	c38.9-39,77.6-78.1,116.6-117.1C904.3,2239.4,938.2,2206.2,971.7,2172.7z M5058.8,2185.7c2.8-2.8,5.4-5.8,9-9.7
	c-10.6,3.4-20,1.7-29.2,2.9c-5.4,0.7-9.1,2.4-12.8,6.1c-18.3,18.4-36.8,36.4-55.1,54.8c-35.2,35.2-70.4,70.6-105.5,105.9
	c-14.7,14.8-29.5,29.5-44.2,44.4h33.3c32.5-32.5,65.1-65,97.6-97.4C4987.6,2257,5023.2,2221.3,5058.8,2185.7z M4991.4,2179.9
	c1.9-1.9,5.1-3.3,4.6-7.2c-4.9-1.2-9.7-2-14.4-3.6c-8-2.7-13.6-0.1-19.3,5.7c-23.8,24.4-47.9,48.5-72,72.6
	c-20.6,20.6-41.6,40.9-62,61.6c-19.3,19.5-38.6,39.1-58.2,58.3c-7.6,7.4-14.9,15-22.3,22.7h33.5c20.2-20.3,40.5-40.5,60.7-60.7
	C4891.9,2279.5,4941.7,2229.7,4991.4,2179.9z M5089.3,2226.3c14.5-14.1,28.1-29,43.1-42.6c6.4-5.8,13.4-11.4,18.7-20.3
	c-11.4,2.1-21.3,4.4-31.4,5.5c-5.4,0.6-9.1,2.4-12.8,6.2c-53.2,53.4-106.7,106.7-160,160c-18.3,18.3-36.5,36.6-54.7,55h33.2
	c33-33.1,66.1-66.1,99.1-99.1C5046.1,2269.3,5067.4,2247.5,5089.3,2226.3z M4668.8,2216.2c1.4-1.4,3.3-2.8,3.4-4.8
	c0.1-10,0-20.1,0-30.6c-4.4,1.6-6.1,4.2-8.2,6.3c-52.7,52.6-105.3,105.3-158,157.9c-15,15-30,30-44.9,45.1h33.4
	c33.2-33.2,66.5-66.4,99.7-99.6C4619,2265.7,4643.9,2240.9,4668.8,2216.2z M4935.2,2163c-6.3-1.8-11.6-3.5-16.4-6.3
	c-4-2.3-6.7-1-9.6,1.9c-33.6,33.9-67.3,67.8-101,101.5c-28.8,28.8-57.8,57.5-86.7,86.4c-14.5,14.5-28.9,29-43.3,43.5h30.3
	c12.8-12.8,25.6-25.6,38.4-38.4c55.9-55.9,111.7-111.8,167.6-167.6C4921.2,2177.3,4927.8,2170.4,4935.2,2163z M4709,2247.1
	c1.2-1.2,2.2-2.4,1.2-4.8c-2.3-0.1-4.9-0.4-7.5-0.3c-3.2,0.2-5.7-1.3-8.5-2.5c-8.1-3.7-8.1-3.6-14.5,2.7c-31,31-62,61.9-92.9,92.9
	c-18.2,18.3-36.4,36.6-54.6,54.9h33.4c24.3-24.3,48.6-48.7,72.9-73C4662,2293.7,4685.5,2270.4,4709,2247.1z M5283.4,2106.1
	c19.8-19.8,39.5-39.5,59.2-59.3c2.1-2.1,4.8-3.7,4.4-7.4c-0.9-8.4-1.4-16.9-3.3-24.9c-1.9-0.4-2.7-0.1-3.4,0.7
	c-20.1,20.2-40.2,40.3-60.5,60.4c-2.7,2.7-3.7,5.3-2.6,8.9c2.3,7.4,0.3,14.1-5,19.2c-12.5,11.8-24.9,23.6-41.2,30.3
	c-10.7,4.4-20.9,9.7-28.3,19.1c-2.6,3.4-6,6.2-9.1,9.2c-23.8,23.5-47.7,47-71.4,70.6c-28.3,28.1-56.4,56.4-84.6,84.5
	c-24.2,24.2-48.3,48.3-72.4,72.5h33.8c10-9.9,19.6-20.2,29.6-30.1c35.7-35.6,71.7-70.9,107.4-106.5
	C5185.2,2204.4,5234.2,2155.2,5283.4,2106.1z M4784.6,2244.2c3.6-3.6,8.5-6.4,10.5-12.3c-16.3-3.9-29.9-3.6-42.6,10.1
	c-24.1,26-49.9,50.4-75,75.5c-24.1,24.1-48.2,48.2-72.3,72.4h33.8c10-9.8,19.6-20.1,29.5-30C4707.1,2321.4,4746,2283,4784.6,2244.2z
	 M5759,2390h29.6c17.5-17.5,35-35.1,52.6-52.6v-29.9c-12.4,12.5-24.8,25-37.3,37.4C5788.9,2360,5773.9,2374.9,5759,2390z
	 M5708.1,2367.3c-7.5,7.5-14.9,15.1-22.2,22.7h29.4c33.1-33.2,66.3-66.5,99.5-99.7c8.8-8.8,17.6-17.6,26.4-26.4v-29.4
	c-22.8,22.7-45.6,45.4-68.4,68.1C5751.2,2324.2,5729.6,2345.7,5708.1,2367.3z M2587.4,1849.1c0,0.8,0,1.6,0,2.5c0.5-0.5,1-1,1.5-1.5
	c29.3-29.3,58.8-58.5,87.8-88c8.3-8.4,17.8-15.8,24.4-25.8h-34c-0.2,3.1-2.9,4.3-4.7,6.1c-28.5,28.6-57,57.1-85.6,85.7
	C2583.1,1833,2587,1840.5,2587.4,1849.1z M5345.3,2113c1.9-2,5-3.4,5-7c-0.1-8.1,0-16.3,0-26.6c-10.1,9.6-18.6,17.3-26.7,25.4
	c-31.9,32-63.4,64.2-95.4,96c-34.4,34.2-68.4,68.7-103.1,102.5c-29.4,28.6-58.2,57.8-87.2,86.8h30.8c0.1-0.1,0.2-0.2,0.3-0.3
	c74.5-74.7,149.1-149.3,223.7-223.9C5310.2,2148.2,5327.9,2130.7,5345.3,2113z M5427.4,2248.8c-2.6-1.1-4-0.1-5.6,0.2
	c-6.8,1.5-7,1.2-7.4-6c-0.2-4,1-8.3-1-12.2c-3.2,0.6-4.5,2.7-6.1,4.3c-21.3,21.4-42.4,42.9-63.8,64.3c-30.3,30.2-60.7,60.4-91,90.6
	h33.8c38.7-38.6,77.4-77.2,116.1-115.8C5410.6,2265.9,5418.9,2257.4,5427.4,2248.8z M5315.2,2216.2c2.4-2.4,6.6-4.5,5.2-8.9
	c-2.4-7.6-0.6-15.1,0.1-22.6c1.5-3.5,3-6.9,4.5-10.4c-0.3-0.2-0.7-0.5-1-0.7c-1.8,2.1-3.7,4.1-5.5,6.2c-0.8,0.5-1.5,1-2.3,1.5
	c0,0,0.3-0.4,0.3-0.4c-0.6,0.8-1.1,1.7-1.8,2.4c-21.5,21.5-43,43-64.5,64.5c-20.4,20.3-41,40.3-61.2,60.8
	c-19.5,19.8-39,39.5-58.9,58.9c-7.6,7.4-14.9,15-22.2,22.6h33.7c3.1-3,6.3-6,9.4-9.1c32.4-32.3,64.5-64.8,96.8-97.2
	C5270.2,2261.2,5292.8,2238.8,5315.2,2216.2z M5372.1,2231.9c-9-1.4-16.2,0.3-23.3-0.3c-7.6-0.7-12.3,2.6-17.3,7.6
	c-34.9,35.1-69.9,70.1-104.9,105.1c-15.2,15.2-30.5,30.4-45.6,45.7h33.4c11.5-11.3,23-22.6,34.4-34c34.2-34.1,68.5-68.3,102.6-102.5
	C5358.1,2246.9,5364.5,2239.9,5372.1,2231.9z M4868,2160.6c7-7.1,14.4-13,20.3-21.3c-5.5-3.1-10.1-6.7-14.1-11.1
	c-2.1-2.2-4.4-3.2-6.7-0.6c-6.6,7.2-14.6,13.1-20.7,21.7C4855.2,2151.3,4862.4,2154.2,4868,2160.6z M4239.5,2140.3
	c28.2-28.1,56-56.6,84.2-84.7c31.6-31.6,63.6-62.9,95.2-94.6c12.2-12.2,24.3-24.4,36.4-36.6c7.4-23.4,18.1-45.9,31.1-66.8
	c-34.8,34.7-69.5,69.5-104.3,104.2c-58.5,58.6-117,117.2-175.6,175.7c-7.9,14.2-17.2,27.3-28,39.5c-16.6,18.8-35.9,34-57.5,46
	c-55.8,55.7-111.7,111.2-167.4,166.9h36.1c8.8-8.8,17.6-17.6,26.4-26.4c39.7-39.7,79.1-79.7,118.8-119.4
	C4169.7,2209.5,4204.7,2175,4239.5,2140.3z M4344.6,2106.4c1.2-0.5,1.9-1.5,2.7-2.3c18.1-18.1,36.3-36.1,54.4-54.3
	c1.6-1.6,3.7-3.4,4.1-5.5c3.5-14.8,7.5-31.5,12.2-46.2c-9.1,8.6-18,17.7-26.9,27c-58.1,58.1-116.4,116.1-174.5,174.2
	c-63.5,63.5-126.9,127.2-190.4,190.8h34.6c7.8-7.8,15.5-15.5,23.3-23.3c51.4-51.4,103-102.6,154.4-154
	C4273.9,2177.3,4309.2,2141.9,4344.6,2106.4z M4062.4,2245.2c-5.5,1.2-11.1,2.2-16.8,3c-7.8,1.1-15.6,1.8-23.4,2.1
	c-14.3,14.3-28.6,28.6-42.9,42.9c-32.2,32.2-64.4,64.5-96.6,96.8h34.5c16.9-17,33.9-34,50.8-50.9
	C3999.4,2307.7,4030.9,2276.5,4062.4,2245.2z M3957.6,2242.6c-49.1,49.1-98.1,98.2-147.2,147.4h34c47.2-47.2,94.3-94.5,141.5-141.7
	C3976.3,2247,3966.8,2245.1,3957.6,2242.6z M4298.8,2225.8c20.9-20.8,41.9-41.5,62.8-62.2c7.8-7.7,11.9-11.8,14.6-16.6
	c0.1-0.1,0.1-0.1,0.2-0.2c0,0,0-0.1,0-0.1c2.9-5.3,4.1-11.4,6.7-24.2c1.1-5.6,6.3-16.9,5.6-23.2c-2.8,3.4-5.6,6.7-8.4,9.8
	c-32.3,32.5-64.7,65-97.1,97.5c-32.1,32.2-64.7,64-96.9,96.2c-27.7,27.7-54.8,56.1-82.9,83.4c-1.3,1.3-2.6,2.5-3.9,3.8h34.9
	c33-33,66-65.9,99-98.9C4255.2,2269.4,4276.9,2247.5,4298.8,2225.8z M3884.1,2206.8c-3.6-2.7-7.2-5.6-10.7-8.5
	c-2.9-2.5-5.7-5-8.5-7.6c-13.4,13.4-26.8,26.8-40.2,40.3c-43.7,43.8-87.4,87.5-131,131.3c-9.2,9.2-18.4,18.5-27.6,27.7h34.6
	c14.3-14.3,28.6-28.5,42.9-42.8C3790.4,2300.4,3837.2,2253.6,3884.1,2206.8z M3847.3,2172.2c-5.5-6.5-10.6-13.3-15.3-20.5
	c-7.2,7.2-14.3,14.3-21.5,21.5c-53.6,53.6-107.2,107.2-160.8,160.8c-18.7,18.7-37.3,37.3-56,56h35.5c27.3-27.3,54.5-54.6,81.8-81.9
	C3756.4,2262.8,3801.8,2217.5,3847.3,2172.2z M4415.1,2253.8c37.3-36.8,73.9-74.4,110.9-111.4c37-37.1,74.4-73.8,111.4-110.9
	c35.6-35.6,71-71.6,106.7-107.2c39.4-39.4,79-78.6,118.5-117.9c26.6-26.5,53-53,79.5-79.5c21.8-21.8,43.7-43.6,65.5-65.5
	c8.1-8.2,17.3-15.8,16.4-29.1c-0.1-1.6,0.6-3.3,1.1-4.9c4.6-13.9,12.4-18.4,26.6-15c2.1,0.5,3.5,1.2,5.2-0.7
	c8.3-9,17.9-16.8,26-27.3c-10.3,2.3-19.6,4.7-24.1-7.8c-2.5,2.2-4.3,3.7-5.9,5.3c-52,51.9-103.9,103.8-155.8,155.7
	c-65.1,65.1-130.1,130.3-195.2,195.4c-54.8,54.8-109.6,109.4-164.4,164.2c-67.4,67.4-134.7,134.8-202.2,202.1
	c-30.3,30.2-60.7,60.3-91,90.5h34.1C4324,2344.6,4369.3,2298.9,4415.1,2253.8z M4826.3,2123.1c0.1,1.2,0.4,2.5,0.8,5.3
	c9.4-9.5,17.9-18.1,26.4-26.7c1.2-1.3,1.8-2.9,1.3-4.6c-1.9-7.6-3.9-15.1-6.1-23.7c-8.6,8.6-17.8,15.3-23.4,24.3
	C4821,2104.9,4825.7,2114.6,4826.3,2123.1z M4376.6,2218.5c-1.7-0.2-2.4-0.6-2.9-0.4c-1.5,0.6-2.9,1.5-4.4,2.2c-6.1,3.1-6.5,2.8-7-4
	c-0.4-4.7,6.1-16.6,3.6-21.6c-1.7,1.1-14.6,14.5-14.6,14.5c-25.5,25.5-50.9,50.9-76.4,76.4c-34.8,34.8-69.6,69.6-104.4,104.4h34.6
	c48.7-48.6,97.4-97.2,146-145.8C4359.6,2235.8,4367.9,2227.3,4376.6,2218.5z M4572.9,2238.5c34.3-34.3,68.5-68.6,102.8-102.9
	c2.4-2.4,4.8-4.6,6.1-7.8c4.3-10.6,10.9-19.7,17.7-28.8c12.7-17,26.1-33.5,37.1-51.7c10.1-11.9,20.9-23.1,32.6-33.5
	c12.2-8,24.3-16.5,38.3-20.6c13.7-4.1,23.8-12.4,33.2-22.5c12-12.8,25.5-24.2,35.2-39.2c4.2-6.4,10.1-11.6,16.6-15.7
	c6.6-4.1,12.2-9.2,17.6-14.6c34.3-34.3,68.6-68.7,102.9-102.9c11.8-11.7,23.9-23.1,35.9-34.6c-6-7.5-8.7-14.8-11.1-23
	c-2.3,1.6-3.8,2.4-5,3.5c-17.5,17.6-34.8,35.4-52.4,53c-35.9,35.8-71.9,71.4-107.7,107.3c-26.2,26.2-52.4,52.5-78.5,78.9
	c-9.3,9.4-19.4,17.9-27.8,28.2c-4.2,1.7-6.4,5.6-9.2,8.7c-7.3,7.9-16.1,14.4-22.4,23.3c-0.9,0.4-1.9,0.7-2.6,1.3
	c-30.7,30.7-61.3,61.3-92,92c-36.7,36.8-73.3,73.7-110.1,110.4c-20.4,20.4-41.1,40.4-61.4,60.9c-19.6,19.8-39.1,39.6-59,59
	c-7.6,7.4-14.9,15-22.3,22.7h33.5c20-20,40-40,60-60C4511.9,2299.5,4542.4,2269,4572.9,2238.5z M4838.9,2043.6
	c-8.3-0.9-8.4,5.6-10.1,10.4C4832.8,2051.2,4837.7,2049.4,4838.9,2043.6z M4691,2047.4c50.5-50.5,100.9-101,151.4-151.4
	c36.9-36.8,73.8-73.7,110.6-110.5c24.4-24.4,48.7-48.9,73.2-73.2c2.8-2.8,5-5.3,4.1-9.4c-1.4-6.3-1.6-12.9-4.4-18.7
	c-3-0.2-3.8,2-5.1,3.3c-40.4,40.3-80.8,80.6-121.1,120.9c-59.8,59.8-119.6,119.6-179.4,179.4c-60,60-120.1,120.1-180.1,180.1
	c-56.7,56.7-113.5,113.4-170.3,170.2c-17.3,17.3-34.5,34.7-51.8,52.1h30.5c0.1-0.1,0.2-0.2,0.3-0.3
	c56.7-56.9,113.4-113.8,170.2-170.6C4576.4,2161.9,4633.8,2104.6,4691,2047.4z M5614.2,2390h31.9c5.6-5.6,11.2-11.1,16.8-16.7
	c59.4-59.4,118.8-118.7,178.2-178.1v-32.5c-58.9,58.9-117.7,117.8-176.6,176.7C5647.8,2356.3,5631,2373.2,5614.2,2390z M3929.7,2233
	c-7.8-3.3-15.4-7.1-22.7-11.2c-32.7,32.7-65.4,65.4-98.1,98.2c-23.3,23.3-46.5,46.7-69.8,70.1h33.5c1.7-1.7,3.4-3.4,5.1-5.1
	c41.2-41.2,82.3-82.5,123.5-123.6C3910.7,2251.8,3920.2,2242.4,3929.7,2233z M5586,2344.9c-15,15-30.1,30-45,45.1h32.3
	c9.5-9.4,19-18.9,28.4-28.4c56.1-56.1,112.1-112.3,168.2-168.4c23.7-23.8,47.5-47.5,71.2-71.3v-32.1c-24.4,24.4-48.7,48.8-73.1,73.1
	C5707.4,2223.7,5646.7,2284.3,5586,2344.9z M5701.1,717c-35.9,35.9-72,71.4-107.9,107.3c-26.5,26.4-52.7,53.1-79.2,79.6
	c-30.4,30.5-60.9,61-91.5,91.3c-3.8,3.7-4.9,7.3-4,12.4c1.2,6.5,3.6,12.8,2.5,20.1c4.7-0.8,6.3-3.6,8.3-5.6
	c14.1-14,28.1-28.3,42.2-42.4c90.1-90.1,180.1-180.2,270.2-270.2c33.1-33,66.2-66,99.4-98.9v-34.3c-7.5,7.4-14.9,14.8-22.3,22.2
	C5779.5,638,5740.4,677.6,5701.1,717z M5593.9,754c-48.8,48.7-97.5,97.5-146.2,146.3c-13.8,13.8-27.7,27.6-41.4,41.5
	c-2.1,2.1-6,4.1-3.9,8.1c2.8,5.7,2.3,12.3,5.6,19.1c4.6-3.1,7.8-6.5,11-9.7c52.5-52.6,105.1-105.1,157.7-157.7
	c42.5-42.5,84.9-85,127.4-127.4c40.8-40.8,81.8-81.5,122.6-122.3c4.8-4.8,9.7-9.7,14.5-14.5v-30.5c-33.8,33.9-67.6,67.9-101.5,101.7
	C5691.1,657.1,5642.5,705.5,5593.9,754z M5599.4,962.5c-30.2,30.3-60.1,60.8-90.3,91.1c-23.9,24-48,47.7-72,71.6
	c-3.3,3.3-5.6,7.1-5,12.4c0.8,7.5,0.8,15.1,1.3,24.5c3.2-2.8,5.3-4.4,7.1-6.2c40.1-40.1,80.3-80.3,120.3-120.5
	c40-40.2,79.8-80.5,119.8-120.6c22.9-23,46.2-45.7,69.2-68.6c30.5-30.4,60.8-60.9,91.2-91.4v-34c-52.4,52.4-104.8,104.8-157.2,157.2
	C5655.8,906.1,5627.6,934.2,5599.4,962.5z M5463.3,1318c3.4,2.1,6.8,4.1,10.2,6.2c8.5,5.3,8.5,5.3,15.5-1.8
	c24.4-24.4,48.8-48.9,73.3-73.3c42.8-42.7,85.8-85.3,128.5-128.1c32.4-32.4,64.7-65,97-97.5c17.7-17.8,35.5-35.5,53.2-53.3v-31.9
	c-126.4,126.4-252.6,252.4-378.7,378.6C5462.5,1317.1,5462.8,1317.7,5463.3,1318z M5740.1,968.9c-20.5,21.3-41.7,41.9-62.6,62.8
	c-42.8,42.7-85.8,85.3-128.6,128c-39.7,39.7-79.3,79.6-119,119.3c-8.4,8.4-8.4,8.4-0.8,17.2c5.2,6.1,7,6.1,12.7,0.4
	c68.3-68.3,136.7-136.6,205-204.9c64.8-64.8,129.6-129.7,194.4-194.5v-30.2C5807.3,900.8,5773.3,934.5,5740.1,968.9z M5648.7,987.2
	c-35.5,36.2-71.8,71.5-107.7,107.3c-35.9,35.8-71.4,71.9-107.5,107.6c-5.2,5.2-8.8,10.9-10.3,17.7c-1.3,5.9-3.5,11.4-5.4,17
	c-2,5.5-2.4,11-3.5,17.9c3.4-3.1,5.7-5,7.8-7.1c105-105.1,209.9-210.3,314.8-315.4c26.2-26.3,52.6-52.5,78.8-78.7
	c8.5-8.5,17-17,25.5-25.5V794C5777,858.4,5712.3,922.3,5648.7,987.2z M5108.8,729.9c4,3.2-6,14.4,53.5-16.9c2.6-2.1,31.8-31,33.8-33
	c26.4-26.6,52.7-53.3,79.2-79.8c33.5-33.5,67.3-66.7,100.9-100.3c41.7-41.7,83.2-83.7,124.9-125.4c35.6-35.6,71.5-71,107.2-106.6
	c31.4-31.4,62.6-63,94-94.4c28.6-28.6,57.4-57,86-85.6c17.7-17.7,35.3-35.4,52.9-53.2V0L5108.8,729.9z M5665.1,249.2
	c-39.2,39.2-78.5,78.3-117.6,117.5c-57.2,57.3-114.3,114.7-171.5,172c-59.5,59.6-119.1,119.3-178.9,178.7
	c-6.2,6.2-7.2,11.7-4.1,19.3c1.6,4,3.4,7.8,5.6,11.4c2.9-0.5,4.2-2.4,5.8-3.9c70.6-70.6,141.1-141.3,211.7-212
	c64.7-64.8,129.5-129.5,194.3-194.2c33.8-33.8,67.6-67.5,101.4-101.3c22.5-22.5,44.9-45,67.4-67.5c20.7-20.8,41.5-41.5,62.2-62.2
	V72.8c-6.8,6.9-13.7,13.7-20.5,20.6C5768.8,145.3,5716.9,197.3,5665.1,249.2z M5513.2,1337.7c-10.8,10.8-10.9,10.8,0,22
	c5.4,5.5,6.6,5.6,11.9,0.2c7-7.1,13.8-14.3,20.9-21.3c33.3-33.2,66.8-66.3,100.1-99.6c27-26.9,53.7-54.1,80.6-81.1
	c20.8-20.9,41.8-41.7,62.6-62.5c17.3-17.3,34.5-34.5,51.8-51.8v-33.8c-8.4,8.4-16.8,16.9-25.2,25.3
	C5715,1136,5614.1,1236.9,5513.2,1337.7z M5431.5,843.6c-15,15-30.1,30.1-45.1,45.1c-6.9,6.9-7,7-2.4,15.7c2.2,4,3.6,8.6,7.8,12.1
	c9.4-9.2,18.9-18.3,28.2-27.6c30.5-30.5,61-61,91.4-91.5c35.6-35.7,71-71.6,106.7-107.3c39.4-39.4,79-78.6,118.5-117.9
	c21.9-21.8,43.7-43.6,65.5-65.4c13-13.1,26-26.2,39-39.3v-33.5c-83.5,83.4-166.9,166.8-250.4,250.2
	C5537.7,737.4,5484.6,790.5,5431.5,843.6z M5231.8,777.1c6.3,3.8,6.3,3.8,11.7-1.6c18.6-18.5,37.2-37,55.8-55.5
	c70.9-70.9,141.9-141.8,212.8-212.7c58.2-58.3,116.3-116.6,174.6-174.8c51.5-51.5,103-102.9,154.5-154.3v-29.9
	c-207.4,207.1-414.5,414-621.9,621.1C5223.4,771.8,5227.5,774.6,5231.8,777.1z M5348,861.9c5.2,2.8,9.4,9.8,14.8,9
	c5.8-0.9,9.6-7.6,14-12.1c31.2-31.1,62.3-62.4,93.5-93.5c28.6-28.6,57.4-57,86-85.6c31.6-31.6,63.2-63.4,94.8-95
	c28.4-28.4,56.9-56.6,85.2-85c26.5-26.5,52.7-53.2,79.2-79.7c8.5-8.6,17.1-17.1,25.7-25.6v-32.1c-165.9,166-331.3,331.4-496.8,496.9
	C5345.3,859.9,5346.6,861.1,5348,861.9z M5309.9,821.1c-11.2,11.2-11.1,12.3,2.3,21.3c4.1,2.8,6.9,3.2,10.9-0.9
	c17.6-18,35.7-35.5,53.6-53.3c29.8-29.7,59.6-59.5,89.4-89.2c30-30,60-60,90-90c30-30,60-59.9,90-90
	c41.4-41.6,82.6-83.3,124.1-124.8c23.6-23.6,47.4-47.2,71.1-70.7v-33.8c-30.4,30.4-60.8,60.9-91.2,91.3
	C5603.3,527.8,5456.6,674.5,5309.9,821.1z M5275.2,806c5.9,5.1,5.9,5.1,11.7-0.7c53.5-53.5,106.9-107.1,160.4-160.6
	c36.6-36.6,73.2-73.2,109.9-109.7c38.7-38.7,77.5-77.3,116.2-116c38.3-38.2,76.5-76.4,114.8-114.7c17.7-17.7,35.4-35.4,53.1-53.1
	v-34c-192.8,192.8-385.6,385.6-578.4,578.4C5267.5,799.7,5271.4,802.8,5275.2,806z M5588,903.1c-40,39.9-80,79.9-120,119.8
	c-13.4,13.4-26.8,26.8-40.1,40.3c-2.6,2.6-6.1,5.1-4.7,9.2c2.7,7.8,1.3,16.2,4,23.9c0.9,0.3,1.3-0.1,1.8-0.6
	c27.2-27.1,54.5-54.2,81.7-81.4c39.6-39.6,79-79.4,118.6-119c27.4-27.4,55.1-54.6,82.5-82c24.1-24.2,48-48.6,72.1-72.8
	c19-19.1,38.1-38.1,57.2-57.2v-33.3c-54.5,54.6-109.1,109.1-163.6,163.6C5647.7,843.4,5617.9,873.2,5588,903.1z M5793.1,1779.9
	c3.1,7.5,2.2,16.5,8.3,23.6c8.8-8.9,17.4-17.6,26-26.2c4.6-4.6,9.1-9.1,13.7-13.7v-33.8c-14.6,14.6-29.3,29.2-43.9,43.9
	C5795.5,1775.5,5792,1777.4,5793.1,1779.9z M5812.9,1832.7c3.1,7.3,3.7,15.3,5.2,23c0.9,0.5,1.8,0.9,2.7,1.4
	c2.8-3.3,5.4-6.7,8.4-9.8c4-4,8-8,11.9-12v-34c-8.3,8.3-16.6,16.5-24.8,24.9C5814.6,1828,5811.6,1829.5,5812.9,1832.7z
	 M5763.2,1665.9c-4.3,4.4-11.8,7.9-11.7,13.8c0.2,6,4.2,12.3,8.5,17.9c1-0.8,2.2-1.4,3.1-2.3c23.9-23.9,47.9-47.8,71.8-71.8
	c2.1-2.1,4.1-4.2,6.2-6.2v-29.3C5815.2,1613.9,5789.2,1639.9,5763.2,1665.9z M5776.1,1744c1.1,2,2.3,3.9,4.1,6.8
	c3.5-3.2,5.9-5.4,8.3-7.7c17.6-17.6,35.1-35.2,52.7-52.8v-33.5c-20.4,20.4-40.8,40.8-61.2,61.2
	C5768.8,1729.1,5768.7,1730.1,5776.1,1744z M5673.1,2043c-31.8,31.9-63.8,63.6-95.7,95.4c-28.1,28.1-56.1,56.4-84.2,84.5
	c-27.2,27.2-54.4,54.3-81.6,81.4c-21.1,21-42.4,41.9-63.4,63c-7.5,7.5-14.9,15.1-22.2,22.7h33.5c96.7-96.7,193.4-193.4,290.1-290.1
	c59-59,118.1-118,177.1-177c4.8-4.8,9.6-9.7,14.5-14.5v-33.8c-22.8,22.7-45.7,45.5-68.5,68.3
	C5739.4,1976.2,5706.4,2009.7,5673.1,2043z M5524.1,2338c-17.3,17.3-34.6,34.7-51.8,52h29.2c20.5-20.5,41-41,61.5-61.4
	c44.4-44.4,88.8-88.9,133.2-133.3c45.4-45.4,90.7-90.7,136.1-136.1c3-3,6-6,8.9-8.9v-29.1c-53.2,53-106.3,106-159.5,159.1
	C5629.1,2232.7,5576.6,2285.4,5524.1,2338z M5728,1194.5c-35.6,35.7-71.1,71.5-106.7,107.2c-24.4,24.4-49,48.5-73.2,72.9
	c-3.4,3.5-10.3,5.8-8.9,11.6c1.2,4.9,6.9,7.8,11.3,10.9c0.5,0.4,1.1,0.8,1.6,1.2c2.6,2.1,4.7,1.5,6.9-0.8c4.8-5,9.8-9.9,14.7-14.8
	c54.7-54.7,109.4-109.3,164.1-164c34.4-34.4,68.9-68.9,103.3-103.3v-33.8c-13.2,13.4-26.5,26.8-39.8,40.1
	C5777,1146,5752.4,1170.1,5728,1194.5z M5625.1,2163.9c-25.4,25.3-51,50.5-76.4,75.9c-35.2,35.2-70.4,70.6-105.5,105.9
	c-14.7,14.8-29.5,29.5-44.2,44.4h29.2c20.5-20.6,41-41.3,61.7-61.8c52.6-52.5,105.3-104.9,157.9-157.5
	c64.5-64.4,128.9-129,193.3-193.5v-29.3c-26.9,26.9-53.8,53.8-80.7,80.7C5715.3,2073.7,5670.3,2118.8,5625.1,2163.9z M5634.4,1434.6
	c-11.3,11.4-9.2,6.2-1.8,20.2c3,5.7,3.7,7.4,10,1.1c15.4-15.6,30.9-31,46.4-46.5c50.7-50.7,101.5-101.4,152.2-152.1v-29.4
	c-39.8,39.8-79.6,79.6-119.4,119.4C5692.6,1376.4,5663.4,1405.4,5634.4,1434.6z M5598.5,1419c7.8,4,7.8,4,14-2.2
	c48.7-48.6,97.3-97.3,146-145.9c27.5-27.5,55.1-55.1,82.6-82.7v-33c-86,86-171.1,171.2-256.8,257
	C5589.6,1414.8,5594.1,1416.8,5598.5,1419z M5700.1,1437.8c-14.5,14.5-29,29-43.5,43.6c-5,5-5,6.5-0.4,11.5c3.4,3.6,7,7,12.7,12.8
	c7.8-8.7,14.5-16.9,22-24.4c32.2-32.6,64.5-65,96.9-97.5c17.8-17.8,35.6-35.7,53.4-53.5v-33.9c-7.6,7.5-15.1,15-22.6,22.5
	C5779,1358.4,5739.5,1398.1,5700.1,1437.8z M5728.8,1626.7c-5.7,5.1-5.3,6.2-2.1,13.8c2.1,5,5.3,9,8.9,13.3
	c31.2-31.2,62-62,92.8-92.8c4.3-4.3,8.5-8.5,12.8-12.8v-33.8c-29,29-58,58-87,86.9C5745.7,1609.8,5737.7,1618.7,5728.8,1626.7z
	 M5689.6,1521.5c-1.5,1.5-4.2,3.2-2,5.7c4.6,5.2,6.4,12.4,12.7,17.6c8.1-8.3,16-16.6,24.2-24.8c21.7-21.8,43.5-43.5,65.3-65.3
	c17.1-17,34.2-34.1,51.3-51.1v-33.8c-42.3,42.3-84.6,84.5-126.9,126.8C5706,1504.9,5697.8,1513.2,5689.6,1521.5z M5739.6,1543.1
	c-9.1,9.2-18.9,17.7-27.3,27.6c-1.8,2.1-3.9,3.9-3.2,6.9c1.7,7.6,3.6,15.1,5.7,23.7c8.3-8.1,15.7-15.1,22.9-22.4
	c34.5-34.5,69-69.1,103.4-103.6v-34c-7.7,7.7-15.3,15.3-23,23C5792,1490.5,5765.7,1516.7,5739.6,1543.1z M5841.2,2390v-9
	c-3,3-6,6-8.9,9H5841.2z M792.5,2136.8c28.2-28.1,56-56.6,84.2-84.7c31.6-31.6,63.6-62.9,95.2-94.6c37.7-37.8,75.3-75.7,112.9-113.5
	c35.1-35.3,70.4-70.4,105.6-105.7c0.7-0.7,1.5-1.5,2.2-2.2c-12,0-24,0-36,0c-0.6,0.7-1.1,1.5-1.6,2.2c-0.8,1.1-1.6,2.2-2.6,3.2
	c-15.5,15.5-31.1,30.9-46.6,46.4c-56.9,56.8-113.8,113.6-170.6,170.4c-78,78-155.8,156.1-233.9,234
	c-66,65.9-132.1,131.7-198.1,197.6h36.1c9.9-9.9,19.9-19.9,29.8-29.8c39.7-39.7,79.1-79.7,118.8-119.4
	C722.7,2206.1,757.7,2171.6,792.5,2136.8z M657.2,2200.2c23-23,45.7-46.3,68.7-69.3c37.1-37,74.4-73.8,111.4-110.9
	c35.7-35.7,71.1-71.6,106.7-107.3c24.4-24.4,49-48.6,73.4-72.9c21.4-21.3,43-42.5,64-64.1c12.2-12.6,25.5-24.2,37.1-37.4
	c0.7-0.7,1.3-1.5,2-2.2h-36c-0.1,0.9-0.5,1.6-0.9,2.2c-0.7,1-1.6,1.8-2.4,2.6c-24.2,24.1-48.5,48.1-72.6,72.3
	c-28.1,28.1-56,56.5-84.1,84.6c-31.9,31.9-64,63.6-95.9,95.5c-36.8,36.8-73.4,73.9-110.2,110.7c-62,62-124.2,123.9-186.2,185.9
	c-33.4,33.4-66.7,66.8-100,100.2h34.5c18.1-18.2,36.1-36.3,54.3-54.4C566.3,2290.4,611.8,2245.4,657.2,2200.2z M927.5,2145.3
	c46.7-46.7,93.3-93.5,139.9-140.3c44.1-44.2,88.2-88.3,132.3-132.4c44.8-44.8,89.7-89.5,134.6-134.3c0.7-0.7,1.5-1.5,2.2-2.2
	c-12,0-24,0-36,0c0.1,0.9,0,1.6-0.3,2.2c-0.7,1.4-2.2,2.2-3.2,3.3c-26.9,27-53.8,54.1-80.8,81c-54,53.9-108.2,107.7-162.1,161.8
	c-72.7,72.9-145.2,146-217.9,218.8c-32.1,32.2-64.7,64-96.9,96.2c-27.7,27.7-54.8,56.1-82.9,83.4c-2.5,2.4-4.9,4.8-7.4,7.2h33.6
	c34.5-34.5,68.9-68.9,103.4-103.3C833.1,2239.5,880.3,2192.5,927.5,2145.3z M954,2046.5c50.9-50.9,102-101.7,152.9-152.6
	c51.9-51.8,103.6-103.7,155.5-155.6c0.7-0.7,1.5-1.5,2.2-2.2c-12,0-24,0-36,0c-0.6,0.7-1.2,1.5-1.8,2.2c-0.9,1.1-1.7,2.2-2.7,3.1
	c-41.3,41.3-82.7,82.6-124.1,123.9c-49.1,49.1-98,98.3-147.1,147.3c-61.1,61.1-122.3,122-183.4,183.1
	c-64.6,64.7-129.2,129.5-193.8,194.2h34.5c8.9-8.9,17.8-17.8,26.7-26.7c51.4-51.4,103-102.6,154.4-154
	C845.7,2155.1,899.7,2100.7,954,2046.5z M666.8,2117c41.6-41.4,83.3-82.7,124.8-124.1c27.4-27.4,54.6-55.1,82-82.6
	c20.1-20.2,40.5-40.1,60.7-60.2c29.3-29.3,58.8-58.5,87.8-88c7.7-7.8,16.4-14.7,22.9-23.6c0.5-0.7,1-1.5,1.5-2.2h-34
	c-0.1,0.9-0.3,1.6-0.7,2.2c-0.9,1.6-2.7,2.6-4,3.9c-30.3,30.4-60.6,60.7-90.9,91c-58.3,58.3-116.5,116.6-174.8,174.9
	c-73.6,73.5-147.4,146.9-221,220.4c-53.8,53.8-107.5,107.6-161.2,161.4h34c53.9-54,107.8-108,161.7-162
	C592.7,2191,629.7,2153.9,666.8,2117z M437.8,2131.4c58.1-57.9,116.2-115.8,174.1-173.9c37.7-37.8,75.2-75.7,112.9-113.5
	c35.1-35.3,70.4-70.4,105.6-105.7c0.7-0.7,1.5-1.5,2.2-2.2c-12,0-24,0-36,0c-0.6,0.7-1.1,1.5-1.6,2.2c-0.8,1.1-1.6,2.2-2.6,3.2
	c-15,15.1-30,30.1-45.1,45.1c-69.6,69.4-139.3,138.7-208.9,208.1c-58.4,58.3-116.6,116.7-174.9,175
	c-53.6,53.6-107.2,107.2-160.8,160.8c-19.8,19.8-39.6,39.6-59.4,59.4h35.5c28.4-28.4,56.8-56.9,85.2-85.3
	C321.8,2246.9,379.8,2189.2,437.8,2131.4z M550.5,2162.1c37.1-37.1,74-74.3,111.1-111.3c43.2-43.2,86.5-86.2,129.7-129.3
	c61-61,122-122.1,183-183.1c0.7-0.7,1.5-1.5,2.2-2.2h-36c0.2,0.9,0,1.6-0.3,2.2c-0.6,1.1-1.7,1.8-2.5,2.6
	c-5.8,5.9-11.9,11.5-17.8,17.4c-55.3,55.5-110.5,111-165.8,166.4c-70.7,70.7-141.5,141.1-212.3,211.7c-60.1,60-120.1,119.9-180,180
	c-24.4,24.5-48.8,49-73.2,73.5h33.5c2.9-2.9,5.7-5.7,8.6-8.6c41.2-41.2,82.3-82.5,123.5-123.6
	C486.3,2225.9,518.5,2194.1,550.5,2162.1z M594.8,2045.9c51.2-51.1,102.3-102.3,153.5-153.5c51.4-51.4,102.7-102.7,154.1-154.1
	c0.7-0.7,1.5-1.5,2.2-2.2h-36c-0.7,0.7-1.3,1.5-2,2.2c-13.1,14.6-27.5,27.9-41.3,41.8c-58.9,59-117.8,117.9-176.8,176.8
	c-49.4,49.3-98.8,98.6-148.2,147.9c-40.9,40.9-81.8,81.8-122.7,122.7c-43.7,43.8-87.4,87.5-131,131.3c-10.3,10.4-20.7,20.7-31,31.1
	h34.6c15.4-15.4,30.9-30.8,46.3-46.2C396,2244.5,495.4,2145.2,594.8,2045.9z M1456.3,2117c29.4-29.3,59-58.6,88.4-87.9
	c1.9-7.9,4.4-15.6,7.5-23.2c6.5-16.1,15.2-30.8,26.1-44.3c-15.5,15.5-31,31.1-46.6,46.6c-73.6,73.5-147.4,146.9-221,220.4
	c-53.8,53.8-107.5,107.6-161.2,161.4h34c53.9-54,107.8-108,161.7-162C1382.2,2191,1419.2,2153.9,1456.3,2117z M1340,2162.1
	c37.1-37.1,74-74.3,111.1-111.3c43.2-43.2,86.5-86.2,129.7-129.3c14.3-14.3,28.5-28.5,42.8-42.8v1.3c8.6-8.6,17.3-17.3,25.9-25.9
	c39.2-39.3,78.4-78.6,117.6-117.9c-0.4,0-0.7,0-1.1,0h-36c-0.3,0-0.6,0-0.9,0c0.2,1.9-0.5,3.3-1.4,4.4c-0.2,0.1-0.3,0.3-0.5,0.4
	c-0.3,0.3-0.5,0.5-0.8,0.8c-1.1,0.9-2.4,1.8-3.4,2.8c-33.1,33.2-66.3,66.4-99.4,99.6v0.4c-26.7,26.8-53.3,53.5-80,80.2
	c-70.7,70.7-141.5,141.1-212.3,211.7c-60.1,60-120.1,119.9-180,180c-24.4,24.5-48.8,49-73.2,73.5h33.5c2.9-2.9,5.7-5.7,8.6-8.6
	c41.2-41.2,82.3-82.5,123.5-123.6C1275.8,2225.9,1308,2194.1,1340,2162.1z M1446.7,2200.2c23-23,45.7-46.3,68.7-69.3
	c9.3-9.3,18.6-18.5,27.9-27.8c-0.4-1.9-0.8-3.9-1.1-5.9c-1.4-8.5-2.1-17-2.2-25.5c-10.7,10.7-21.4,21.4-32.1,32.1
	c-62,62-124.2,123.9-186.2,185.9c-33.4,33.4-66.7,66.8-100,100.2h34.5c18.1-18.2,36.1-36.3,54.3-54.4
	C1355.8,2290.4,1401.4,2245.4,1446.7,2200.2z M1384.3,2045.9c51.2-51.1,102.3-102.3,153.5-153.5c28.6-28.6,57.2-57.2,85.9-85.9v0.9
	c20.4-20.5,40.9-41,61.3-61.5c2.7-2.7,5.9-4.8,7.6-8.2c0.5-0.5,1-1,1.5-1.5h-0.9h-35.1c-0.3,0-0.6,0-0.9,0c0.1,0.3,0.1,0.6,0.1,0.9
	c-0.4,0.4-0.8,0.9-1.2,1.3c-13.1,14.6-27.5,27.9-41.3,41.8c-58.9,59-117.8,117.9-176.8,176.8c-49.4,49.3-98.8,98.6-148.2,147.9
	c-40.9,40.9-81.8,81.8-122.7,122.7c-43.7,43.8-87.4,87.5-131,131.3c-10.3,10.4-20.7,20.7-31,31.1h34.6
	c15.4-15.4,30.9-30.8,46.3-46.2C1185.5,2244.5,1284.9,2145.2,1384.3,2045.9z M1555.3,1736.1h-37.7c-0.6,0.6-1.4,1.4-2.2,2.2
	c-56,56.1-542.7,543.2-651.1,651.7h30.2c135.9-134.6,617.8-611.1,658.6-651.7C1554,1737.3,1554.8,1736.6,1555.3,1736.1z
	 M1227.3,2131.4c58.1-57.9,116.2-115.8,174.1-173.9c37.7-37.8,75.2-75.7,112.9-113.5c35.1-35.3,70.4-70.4,105.6-105.7
	c0.7-0.7,1.5-1.5,2.2-2.2h-36c-0.6,0.7-1.1,1.5-1.6,2.2c-0.8,1.1-1.6,2.2-2.6,3.2c-15,15.1-30,30.1-45.1,45.1
	c-69.6,69.4-139.3,138.7-208.9,208.1c-58.4,58.3-116.6,116.7-174.9,175c-53.6,53.6-107.2,107.2-160.8,160.8
	c-19.8,19.8-39.6,39.6-59.4,59.4h35.5c28.4-28.4,56.8-56.9,85.2-85.3C1111.3,2246.9,1169.4,2189.2,1227.3,2131.4z M1019.2,2196.5
	c33.5-33.5,66.9-67,100.5-100.5c30.8-30.8,61.6-61.4,92.4-92.2c28.9-28.9,57.7-57.8,86.6-86.7c49.4-49.4,98.8-98.6,148-148.2
	c10.1-10.1,20.9-19.5,30-30.6c0.6-0.7,1.2-1.5,1.8-2.2h-34c-0.4,0.7-0.7,1.5-1.1,2.2c-0.2,0.4-0.5,0.9-0.8,1.2
	c-27.8,28-55.6,55.9-83.6,83.8c-26.7,26.7-53.7,53.1-80.4,79.8c-37.1,37-74,74.3-111,111.3c-27.4,27.4-55.1,54.7-82.5,82.1
	c-35.9,36-71.6,72.1-107.5,108.1c-51.1,51.3-102.4,102.4-153.5,153.7c-10.5,10.5-21.1,21.1-31.6,31.7h33.6c2.8-2.8,5.7-5.6,8.5-8.4
	c31.9-31.9,63.5-63.9,95.3-95.8C959.7,2256,989.5,2226.3,1019.2,2196.5z M1739.9,1871.8c-8.6,8.6-17.2,17.2-25.8,25.8
	c11.8,0,23.5,0,35.3,0c1.2-1.2,2.4-2.4,3.5-3.5c22.6-22.6,45.2-45.2,67.7-67.8c16.5-16.3,32.9-32.7,49.1-49.3
	c2.9-2.9,5.9-5.9,8.8-8.8c7.3-7.2,14.7-14.2,21.8-21.5c0.3-0.3,0.6-0.6,0.9-0.9c2.4-2.5,4.7-5,7-7.5c0.7-0.7,1.3-1.5,2-2.2h-0.9h-34
	h-1.1c-0.1,0.8-0.5,1.5-0.9,2.1c-1.2,1.3-2.4,2.6-3.7,3.9c-23.8,23.7-47.6,47.3-71.3,71C1778.7,1832.7,1759.3,1852.3,1739.9,1871.8z
	 M2137.8,1903.2c-14.8,14.8-29.5,29.5-44.3,44.3c2.5,1.1,4.8,2.5,7,4.4c5.5,4.8,8.9,10.6,9.9,17.6c4-4,8-7.9,11.9-11.9
	c20.9-21,41.8-42,62.7-63c0-0.2,0-0.4,0-0.6c0-11.2,5-19.7,14.3-25.5c9.9-6.3,20-12.3,30-18.4c2-2,3.9-3.9,5.9-5.9
	c35.9-36,71.8-71.9,107.8-107.9c-0.7,0-1.3,0-2,0c0,0,0,0,0-0.1h-34c0,0,0,0,0,0.1c0,0,0,0,0,0c-0.9,1.1-1.7,2.3-2.5,3.4
	c-1.9,0-3.8,0-5.7,0C2299.6,1742.8,2190.3,1850.8,2137.8,1903.2z M2103.4,1831.9c25.3-25.3,50.6-50.6,75.8-76.1
	c6.2-6.3,13.8-11.5,17.9-19.7c-0.4,0-0.7,0-1.1,0h-34c-0.3,0-0.6,0-0.9,0c0.2,1.2,0,2.1-0.4,2.9c-1.3,1.8-3.2,3.1-4.8,4.6
	c-23.2,23.2-46.4,46.5-69.7,69.7C2093.3,1818.2,2099.2,1824.6,2103.4,1831.9z M2110.9,1860.8c0.1,27.8-22.7,56.7-57.4,57.1
	c-9,9-18,18-26.9,27c11.8,0,23.6,0,35.5,0c69.7-69.6,139.4-139.2,209.1-208.8c-1,0-2.1,0-3.1,0h-32.9h-1.1c-0.6,1.2-1,2.5-1.9,3.4
	c-27.8,28-55.6,55.9-83.6,83.8C2136.1,1835.8,2123.5,1848.3,2110.9,1860.8z M2325,1827.1c17.3-17.2,34.8-34.4,51.8-52
	c12.7-13.1,26.5-25,38.4-39h-36c-0.6,1.1-1,2.5-1.9,3.4c0,0,0,0,0,0h-4.3c0.5,2.4-1.5,3.5-2.8,4.8c-22.6,22.6-45.3,45.2-68,67.7
	C2311.7,1812.8,2320.4,1818.6,2325,1827.1z M2328.7,1857.1c0,5.7,0,11.4,0,17c0,1.4,0.1,2.9,0,4.3c-0.3,4.2,1.3,8.6,4.3,12.1
	c15.4-15.6,30.9-31.1,46.4-46.7c35.9-36,71.8-71.9,107.8-107.9c-12,0-24,0-36,0c-0.9,1.1-1.7,2.3-2.6,3.4h-3.7
	c-0.2,3.1-2.9,4.3-4.7,6.1c-36.7,36.7-73.4,73.3-110,109.9C2329.7,1856.1,2329.2,1856.6,2328.7,1857.1z M2546.4,1821
	c28.3-28.3,56.5-56.6,84.8-84.9h-36c0.5,2.4-1.6,3.5-2.8,4.8c-5.8,5.9-11.9,11.5-17.8,17.4c-20.8,20.9-41.6,41.8-62.4,62.7
	C2523.6,1821,2535,1821,2546.4,1821z M2362.4,1897.6c7.5,0,15,0,22.6,0c3.7,0,7.3,0.7,10.6,2c2.4-2.4,4.9-4.9,7.3-7.3
	c17.6-17.6,35.3-35.3,52.9-52.9c3-7.5,8.8-13.3,16.3-16.3c29-29,58.1-58.1,87.1-87.1h-36c-13.6,15.5-28.8,29.4-43.3,44
	C2440.8,1819.3,2401.6,1858.5,2362.4,1897.6z M1939.9,1888.2c-15.6,15.6-31.2,31.1-46.8,46.7c0,3,0,6.1,0,9.1c0,8.6,0,17.1,0,25.7
	c10.5-10.6,21-21.1,31.6-31.7c23.8-23.8,47.6-47.6,71.4-71.4c-0.3-2.2-0.5-4.5-0.5-6.8c1-36,30.2-57.5,57.8-57.3
	c2.1,0,4.3,0.2,6.4,0.4c20-20,40-40,60-60c1.7-1.7,3.9-3.2,5-5.4c0.5-0.5,1-1,1.4-1.4h-0.9h-34h-1.1c0.1,0.5,0.1,0.9,0,1.3
	c-1.4,1.6-2.7,3.3-4.2,4.8c-4.8,4.9-9.7,9.7-14.5,14.6c-24.2,24.3-48.5,48.5-72.7,72.8C1979.1,1849.2,1959.5,1868.7,1939.9,1888.2z
	 M1604.1,1935.8c7-5.6,14.4-10.7,22.3-15.2c14.8-8.5,30.4-14.7,46.8-18.5c19.8-19.7,39.6-39.5,59.4-59.2
	c27.8-27.7,55.7-55.4,83.2-83.4c7.4-7.5,16.1-13.9,21.4-23.3c-0.4,0-0.7,0-1.1,0h-34c-0.3,0-0.6,0-0.9,0c0.1,1.4-0.2,2.5-0.8,3.5
	c-0.9,0.9-2.1,1.7-3,2.6c-30.3,30.4-60.6,60.7-90.9,91C1672.4,1867.4,1638.2,1901.6,1604.1,1935.8z M410.7,2086.2
	c52-51.9,104-103.6,156-155.5c31-30.9,61.9-62,92.9-92.9c20.9-20.9,42.1-41.5,62.6-62.7c12-12.4,25-23.8,36.4-36.8
	c0.6-0.7,1.3-1.5,1.9-2.2h-36c-0.4,0.7-0.7,1.5-1.1,2.2c-0.2,0.4-0.5,0.9-0.8,1.2c-27.8,28-55.6,55.9-83.6,83.8
	c-32.6,32.5-65.4,64.8-98,97.3c-62.8,62.8-125.5,125.7-188.2,188.5c-93.6,93.6-187.1,187.3-280.7,280.9h34.5
	c9.4-9.4,18.8-18.9,28.3-28.3c40.2-40.2,80.5-80.2,120.8-120.4C307.3,2189.7,359,2137.9,410.7,2086.2z M1563.1,2155.6
	c-1.2-2.1-2.4-4.2-3.5-6.3c-3.1-5.8-5.7-11.7-8.1-17.7c-20.2,20.3-40.5,40.5-60.7,60.8c-66,65.9-132.1,131.7-198.1,197.6h36.1
	c9.9-9.9,19.9-19.9,29.8-29.8c39.7-39.7,79.1-79.7,118.8-119.4C1505.9,2212.3,1534.6,2184,1563.1,2155.6z M328.4,2095.3
	c53.9-53.9,107.8-107.8,161.7-161.7c28-28,56.2-55.7,84.2-83.7c29.3-29.3,58.8-58.4,87.8-88c7.7-7.8,16.4-14.7,22.9-23.6
	c0.5-0.7,1-1.5,1.5-2.2h-34c-0.1,0.9-0.3,1.6-0.7,2.2c-1,1.6-2.7,2.6-4,3.9c-36.7,36.7-73.4,73.3-110,109.9
	c-76.3,76.3-152.7,152.7-229,229c-103,103-205.9,205.9-308.8,308.9h33.7c31.9-31.9,63.8-63.8,95.7-95.7
	C195.8,2228,262.1,2161.6,328.4,2095.3z M1785.4,1897.7c11.9,0,23.7,0,35.6,0c51.1-51.1,102.1-102.1,153.2-153.2
	c2.2-2.2,4.8-3.9,6.3-6.7c0.5-0.5,1-1,1.6-1.6h-0.9h-34h-1.1c-1.4,1.8-2.6,3.8-4.2,5.4c-0.6,0.6-1.3,1.3-1.9,1.9
	c-14.9,14.8-29.8,29.6-44.6,44.5C1858.6,1824.5,1822,1861.1,1785.4,1897.7z M1939.9,1815.1c-16.8,16.8-33.6,33.5-50.3,50.3
	c-10.7,10.7-21.4,21.5-32.2,32.2c1.4,0,2.9,0,4.3,0c6.1,0,11.8,1,17,4.2c2.2,1.4,4.2,2.9,6,4.6c10.9-10.9,21.7-21.8,32.6-32.7
	c40-40,80.1-79.8,119.9-120c5.1-5.1,11.3-9.3,15-15.7c0.6-0.6,1.2-1.2,1.9-1.9h-0.9h-35.1c-0.3,0-0.6,0-0.9,0
	c0.1,0.3,0.2,0.6,0.2,0.9c-1.2,1.5-2.4,3.1-3.7,4.4C1989.1,1766,1964.5,1790.6,1939.9,1815.1z M3237.2,2207.7
	c-20.6,15.2-44,26.9-69.4,34.1c-49.3,49.4-98.5,98.8-147.8,148.1h34.6c8.9-8.9,17.8-17.8,26.7-26.7c51.4-51.4,103-102.6,154.4-154
	C3236.1,2208.8,3236.6,2208.3,3237.2,2207.7z M3003.5,2224.3c-7.3-3.9-14.3-8.2-21-12.9c-5.7,5.7-11.5,11.4-17.2,17.2
	c-53.8,53.8-107.5,107.6-161.2,161.4h34c53.9-54,107.8-108,161.7-162C3001,2226.8,3002.3,2225.6,3003.5,2224.3z M3056.8,2244.5
	c-9.2-2.2-18.2-4.9-26.9-8.2c-17.9,17.8-35.7,35.6-53.5,53.5c-33.4,33.4-66.7,66.8-100,100.2h34.5c18.1-18.2,36.1-36.3,54.3-54.4
	C2995.6,2305.2,3026.2,2274.9,3056.8,2244.5z M2961.6,2195c-6-5.4-11.7-11.1-17.1-17c-46.2,46.2-92.4,92.3-138.5,138.6
	c-24.4,24.5-48.8,49-73.2,73.5h33.5c2.9-2.9,5.7-5.7,8.6-8.6c41.2-41.2,82.3-82.5,123.5-123.6
	C2919.4,2236.8,2940.5,2215.9,2961.6,2195z M2927.7,2156.9c-4.9-7-9.4-14.3-13.5-21.8c-29.7,29.7-59.4,59.4-89.1,89.2
	c-1,12.3-10.7,23.9-25.2,25.8c-0.2,0-0.4,0-0.6,0.1c-36.2,36.3-72.4,72.5-108.6,108.8c-10.3,10.4-20.7,20.7-31,31.1h34.6
	c15.4-15.4,30.9-30.8,46.3-46.2C2803,2281.5,2865.4,2219.2,2927.7,2156.9z M3106.4,2250.3c-6.1,0-12.2-0.3-18.1-0.8
	c-47,46.9-94,93.7-141,140.6h36.1c9.9-9.9,19.9-19.9,29.8-29.8c36.8-36.8,73.3-73.7,110-110.5
	C3117.6,2250.1,3112,2250.3,3106.4,2250.3z M2673.8,2196.5c15.6-15.6,31.1-31.2,46.7-46.8c-4.2-7.1-8.3-14.2-12.5-21.3
	c-25.2,25.4-50.5,50.8-75.8,76.2c-51.1,51.3-102.4,102.4-153.5,153.7c-10.5,10.5-21.1,21.1-31.6,31.7h33.6c2.8-2.8,5.7-5.6,8.5-8.4
	c31.9-31.9,63.5-63.9,95.3-95.8C2614.3,2256,2644.1,2226.3,2673.8,2196.5z M2773.7,2239.3c-1.1-1.4-2.2-2.8-3.1-4.4
	c-3.5-5.9-6.9-11.8-10.4-17.7c-37.8,37.8-75.6,75.6-113.4,113.4c-19.8,19.8-39.6,39.6-59.4,59.4h35.5c28.4-28.4,56.8-56.9,85.2-85.3
	C2729.9,2282.9,2751.8,2261.1,2773.7,2239.3z M2734.8,2174c-95,95.1-178.2,178.4-215.9,216.1h30.2
	c41.3-40.9,114.6-113.4,197.7-195.7C2742.8,2187.6,2738.8,2180.8,2734.8,2174z M3561.8,2240.9c-11.2,0-22.4,0-33.5,0
	c-22.9,22.8-45.8,45.6-68.7,68.4c-26.6,26.6-53.1,53.2-79.6,79.9c-0.3,0.3-0.6,0.6-0.8,0.8h33.7c45.7-45.8,91.5-91.6,137.2-137.4
	C3553.9,2248.7,3557.8,2244.8,3561.8,2240.9z M3633.3,2240.9c-11.2,0-22.5,0-33.7,0c-49.7,49.7-99.4,99.4-149.1,149.1h33.7
	c30.8-30.8,61.5-61.5,92.3-92.3C3595.4,2278.8,3614.4,2259.8,3633.3,2240.9z M3453.3,2240.9c-56.8,56.2-113.1,111.9-150.6,149.1
	h30.3c38.1-37.5,92.2-90.8,151.5-149.1C3474.1,2240.9,3463.7,2240.9,3453.3,2240.9z M1594.9,2195.3c-6.2-5.7-11.9-11.8-17.1-18.3
	c-6.3,6.3-12.5,12.5-18.8,18.8c-64.6,64.7-129.2,129.5-193.8,194.2h34.6c8.9-8.9,17.8-17.8,26.7-26.7c51.4-51.4,103-102.6,154.4-154
	C1585.6,2204.7,1590.3,2200,1594.9,2195.3z M3371.6,2145.3c5.6-5.6,11.2-11.2,16.8-16.9c0-1.2,0-2.3,0-3.5c0-10.1,0-20.2,0-30.3
	c-36,36.2-72.1,72.4-108.1,108.6c-32.1,32.2-64.7,64-96.9,96.2c-27.7,27.7-54.8,56.1-82.9,83.4c-2.5,2.4-4.9,4.8-7.4,7.2h33.6
	c34.4-34.5,68.9-68.9,103.4-103.3C3277.2,2239.5,3324.5,2192.5,3371.6,2145.3z M3818.7,2128.7c-0.3-0.6-0.6-1.2-0.9-1.8
	c-3.6-7.4-6.8-15-9.5-22.7c-2.8,2.8-5.6,5.6-8.4,8.4c-17,17-34,34-50.9,51c-2.8,15-9,28.8-18.8,41.1c-14.9,18.7-34,30.1-56.8,34.6
	c-50.2,50.3-100.5,100.5-150.7,150.8h34.5c8.3-8.3,16.5-16.6,24.8-24.9c40.2-40.2,80.5-80.2,120.8-120.4
	C3741.3,2206.1,3780,2167.4,3818.7,2128.7z M3388.4,2200c0-11.4,0-22.7,0-34.1c-38.8,38.8-77.5,77.6-116.3,116.3
	c-35.9,35.9-71.9,71.9-107.9,107.8h34.1c38.9-39,77.6-78.1,116.6-117.1C3339.3,2248.6,3363.9,2224.3,3388.4,2200z M3419,2240.9
	c-0.2,0-0.3,0-0.5,0c-5.8,0-11.1-1.3-16-4.3c-2.7-1.6-5-3.6-6.8-5.8c-42.4,42.5-84.9,85-127.4,127.5c-10.5,10.5-21.1,21.1-31.6,31.7
	h33.7c2.8-2.8,5.6-5.6,8.4-8.4c31.9-31.9,63.5-63.9,95.3-95.8C3389.1,2270.8,3404,2255.9,3419,2240.9z M2054.2,2240.9
	c-11.7,0-23.4,0-35.2,0c-39.3,39.3-78.5,78.7-117.8,118c-10.3,10.4-20.7,20.7-31,31.1h34.6c15.4-15.4,30.9-30.8,46.3-46.2
	C1985.5,2309.5,2019.8,2275.2,2054.2,2240.9z M1984.8,2238.6c-8.4-3.7-15-11.5-16.9-20.7c-9.3,9.3-18.7,18.7-28,28
	c-48,48-96,96-144.1,144.1h2h31.7h3.8c28.4-28.4,56.8-56.9,85.2-85.3C1940.7,2282.7,1962.7,2260.6,1984.8,2238.6z M1731.7,2307.1
	c-32,31.7-61.2,60.6-83.7,82.9h6.6h23.8h10c1.1-1.1,2.2-2.2,3.4-3.4h1.1c20.2-20.2,40.4-40.4,60.6-60.7
	C1743.8,2324.1,1735.3,2316.4,1731.7,2307.1z M1799.2,2324.9c-3.7,0.7-7.5,1.2-11.3,1.5c-20.9,20.9-41.7,41.8-62.5,62.7
	c-0.3,0.3-0.6,0.6-0.8,0.8h2.3h31.4h3.1c9.4-9.4,18.8-18.9,28.3-28.3c19.4-19.4,38.8-38.7,58.2-58.1
	C1833.6,2314.4,1817.4,2321.4,1799.2,2324.9z M1623.7,2238.5v1c4.9-4.9,9.8-9.8,14.8-14.8c-0.5-0.2-1-0.4-1.5-0.7
	c-7.2-3.4-14-7.3-20.5-11.7c-29.1,29.1-58.6,57.9-87.7,87c-27.7,27.7-54.8,56.1-82.9,83.4c-2.5,2.4-4.9,4.8-7.4,7.2h33.6
	c34.4-34.5,68.9-68.9,103.4-103.3C1591.5,2270.6,1607.6,2254.6,1623.7,2238.5z M2559.6,2239c-3.2,1.2-6.6,1.9-10.2,1.9
	c-8.5,0-16.9,0-25.4,0c-13.8,13.8-27.6,27.6-41.4,41.4c-35.9,35.9-71.9,71.9-107.9,107.8h34.1c38.9-39,77.6-78.1,116.6-117.1
	C2536.8,2261.6,2548.2,2250.3,2559.6,2239z M1729.6,2277.2c0-4.5,0-9,0-13.4c0-1.4-0.1-2.9,0-4.3c0.3-5.1-1.5-9.4-4.5-12.6
	c-37.1,37.2-74.3,74.3-111.4,111.5c-10.5,10.5-21.1,21.1-31.6,31.7h33.7c2.6-2.6,5.3-5.2,7.9-7.9v1.1
	C1659,2347.9,1694.3,2312.6,1729.6,2277.2z M1623.7,2311.6c22.2-22.1,44.3-44.3,66.5-66.5c1.6-1.6,3.3-3.3,4.9-4.9
	c-10.2-0.9-20.2-2.8-30-5.6c-15.9,15.9-31.7,31.7-47.6,47.6c-35.9,35.9-71.9,71.9-107.9,107.8h34.1c26.7-26.7,53.3-53.5,79.9-80.3
	V2311.6z M2453.4,2202c0-11.8,0-23.6,0-35.3c-9.7,9.7-19.5,19.5-29.2,29.2c-64.6,64.7-129.2,129.5-193.8,194.2h34.5
	c8.9-8.9,17.8-17.8,26.7-26.7c51.4-51.4,103-102.6,154.4-154C2448.5,2206.9,2450.9,2204.4,2453.4,2202z M2192,2175.2
	c-2.6-7.2-4.5-14.8-5.8-22.6c-0.3-1.7-0.5-3.5-0.6-5.2c-25.9,25.9-51.8,51.8-77.7,77.6c-2.5,5-7,9.8-12.8,12.8
	c-26.2,26.2-52.4,52.4-78.6,78.7c-24.4,24.5-48.8,49-73.2,73.5h33.5c2.9-2.9,5.7-5.7,8.6-8.6c41.2-41.2,82.3-82.5,123.5-123.6
	C2136.5,2230.2,2164.3,2202.8,2192,2175.2z M2447.1,2136.8c2.1-2.1,4.2-4.2,6.3-6.3c0-11.9,0-23.8,0-35.6
	c-32.5,32.5-65,65-97.5,97.5c-9.1,9.1-18.1,18.1-27.2,27.1c0,2.5-0.1,4.9-0.7,7.3c-2.9,13.5-14.1,23-27.9,23.4c-0.8,0-1.5,0-2.3,0
	c-46.7,46.6-93.4,93.1-140.1,139.7h36.1c9.9-9.9,19.9-19.9,29.8-29.8c39.7-39.7,79.1-79.7,118.8-119.4
	C2377.3,2206.1,2412.3,2171.6,2447.1,2136.8z M2486.4,2240.9c-1.2,0-2.5,0-3.7,0c-7.6,0-15.3-3.1-20.9-8.8
	c-22.6,22.4-45.3,44.8-67.9,67.3c-27.7,27.7-54.8,56.1-82.9,83.4c-2.5,2.4-4.9,4.8-7.4,7.2h33.6c34.5-34.5,68.9-68.9,103.4-103.3
	C2455.8,2271.4,2471.1,2256.2,2486.4,2240.9z M2220.1,2218.2c-1.9-1.8-3.8-3.8-5.6-5.8c-3.7-4-6.9-8.2-9.9-12.6
	c-9.6,9.6-19.2,19.2-28.8,28.8c-53.8,53.8-107.5,107.6-161.2,161.4h34c53.9-54,107.8-108,161.7-162
	C2213.5,2224.8,2216.8,2221.5,2220.1,2218.2z M2266.4,2245.3c-8.7-2.6-16.8-6.1-24.5-10.6c-18.4,18.3-36.7,36.7-55.1,55
	c-33.4,33.4-66.7,66.8-100,100.2h34.5c18.1-18.2,36.1-36.3,54.3-54.4C2205.8,2305.5,2236.1,2275.4,2266.4,2245.3z"/>
<g>
</g>
<g>
</g>
<g>
</g>
<g>
</g>
<g>
</g>
<g>
</g>
<g>
</g>
<g>
</g>
<g>
</g>
<g>
</g>
<g>
</g>
<g>
</g>
<g>
</g>
<g>
</g>
<g>
</g>
</svg>
