<?xml version="1.0" encoding="utf-8"?>
<!-- Generator: Adobe Illustrator 18.0.0, SVG Export Plug-In . SVG Version: 6.00 Build 0)  -->
<!DOCTYPE svg PUBLIC "-//W3C//DTD SVG 1.1//EN" "http://www.w3.org/Graphics/SVG/1.1/DTD/svg11.dtd">
<svg version="1.1" id="Layer_1" xmlns="http://www.w3.org/2000/svg" xmlns:xlink="http://www.w3.org/1999/xlink" x="0px" y="0px"
	 viewBox="0 0 966.3 1071.6" style="enable-background:new 0 0 966.3 1071.6;" xml:space="preserve">
<style type="text/css">
	.st0{fill:#FBC411;}
	.st1{fill:#090606;}
</style>
<g>
	<rect x="94.4" y="0" class="st0" width="871.9" height="1071.6"/>
	<path class="st1" d="M146.5,897.1c21-20.9,42.1-41.7,63-62.6c16.7-16.7,33.2-33.6,49.9-50.3c19.5-19.5,39.2-38.9,58.8-58.4
		c16.7-16.7,33.2-33.6,49.9-50.3c19.5-19.5,39.3-38.8,58.7-58.4c20.7-20.9,41.4-41.8,62.4-62.4c1.3-1.2,2.7-2.7,3.2-4.3
		c2.3-8.1,8.2-12.5,15.3-16c1.8-0.9,3.6-1.9,5.1-3.2c4.6-3.9,9.1-7.9,14-12.3c-4.8-4-7.6-7.6-10.5-13c-4.8,5.2-8.8,9.8-13,14
		c-54.3,54.4-108.6,108.7-163,163c-55.7,55.7-111.5,111.5-167.2,167.2c-11.8,11.8-23.5,23.5-35.3,35.3c-1.5,1.5-3.8,2.8-3.9,5.1
		c-0.2,5.9,0.1,11.8,0.2,18.8C138.9,904.7,142.7,900.9,146.5,897.1z M509.7,401c-2.5,2.6-4.9,1.1-7.3,0.4
		c-5.9-1.7-10.8-0.6-14.4,4.7c-0.4,0.6-1,1.2-1.8,2.2C499.3,413.9,503.1,411.6,509.7,401z M460.9,404c2.5-1,5.4,0,7.4-1.9
		c3.2-3,6.5-5.8,9.2-9.6c-3.3-2.3-6.7-3.5-10.4-4.5c-3-0.8-4.9,0-6.9,2c-5.7,5.9-11.6,11.6-17.3,17.4c-0.8,0.8-2.6,1.4-1.6,3.5
		C447.8,408.7,454.5,406.6,460.9,404z M203.8,776.7c-21.2,21.1-42.3,42.3-63.4,63.5c-2.1,2.1-4.4,4.1-5.2,7.2
		c-1.5,6.2-2.1,12.5-1.4,19.4c2.2-2,4.4-3.9,6.5-6c14.6-14.6,29-29.3,43.6-43.8c21.5-21.5,43.1-42.9,64.7-64.4
		c16-16,31.8-32.1,47.8-48.1c20.4-20.4,40.8-40.6,61.2-61c15.8-15.8,31.6-31.8,47.4-47.6c12.9-12.9,25.8-25.7,38.7-38.6
		c17.7-17.7,35.5-35.3,53.2-53c3-3,6-5.9,8.8-9c0.8-0.8,1.6-2,0.1-3c-4.8-3-15.9-1.7-20.1,2.5c-8.1,8.1-16.2,16.1-24.3,24.2
		c-23,23-45.9,46-68.9,69C329.7,651,266.7,713.8,203.8,776.7z M427.5,355c1.4-9.2,4.9-17.7,7.9-26.8c-0.9,0.8-1.9,1.5-2.7,2.3
		c-8.7,8.6-17.3,17.3-26,25.9c-8.7,8.7-17.3,17.3-25.9,26c-1,1-2.8,1.7-2,3.9c1.6,4.4,2.4,9,5.2,14.2c13.9-14.2,27.2-27.7,40.4-41.3
		C425.6,358,427.2,356.9,427.5,355z M447.4,888c-6-0.1-10.3,2.7-13.5,7.9c2.9,2,5.5,3.8,8.2,5.6c1.5,1,2.7,1,4.2-0.5
		c4.1-4.2,8.5-8.2,13.5-13.1C454.6,888,451,888,447.4,888z M408.5,418.1c5.6-5.7,11.2-11.4,16.9-17.1c5.2-5.2,10.5-10.3,16.5-16.2
		c-4.9-1.3-8.2-3.3-10.8-6.5c-1.2-1.4-2.3-1-3.5,0.2c-10.9,10.9-21.9,21.7-32.2,31.8c2.6,3.2,4.3,5.8,6.4,7.9
		C404.7,421.4,405.4,421.3,408.5,418.1z M565,502.9c-2.2,2.3-4.5,4.5-6.8,6.8c-7.1,7-14.2,14-22.2,21.7c5.5,2.2,10.1,3.4,12.9,8.1
		c27.1-27.2,54-53.8,81.1-81.2c-3.8-1.7-7-2.5-9.6-4c-4-2.3-6.3-0.5-8.7,2c-7.8,7.8-15.5,15.6-23.3,23.3c-2.9,2.8-4.3,5.7-4.1,9.9
		c0.4,6.3-0.8,7.2-7.1,7.8C572.4,497.6,568.3,499.3,565,502.9z M500.9,785.6c13.7-0.4,25.9-4,34.7-16.8c-6.4,0-12.2,0-17.9,0
		c-1.1,0-1.9,0.4-2.7,1.1c-5,4.8-10,9.6-15,14.4C500.4,784.8,500.7,785.2,500.9,785.6z M508.8,614.3c1.2,0.9,1.8,2.7,2.7,2.8
		c49.4-49.4,98.4-98.3,147.6-147.5c-2.6-0.7-5.2-0.8-7.1-2c-4.5-2.7-7.1-0.5-10.2,2.6c-16,16.3-32.2,32.4-48.4,48.6
		c-28.4,28.3-56.8,56.5-85.2,84.7C502.4,609.3,502.4,609.3,508.8,614.3z M519.5,731.4c7.8,3.1,8.3,2.8,13.5-3.4
		c1.4-1.7,1.1-2.7,0-4.1c-2.3-2.7-4.6-5.4-7.3-8.6c-4.5,4.5-8.8,8.2-12.3,12.5c0.3,1.2,1.1,1.4,1.8,1.8
		C516.6,730.1,518.1,730.8,519.5,731.4z M638.7,385c-5.8,5.8-11.5,11.7-17.4,17.3c-2.2,2.1-2.2,4.2-1,6.4c0.9,1.6,2.1,3,3.4,4.2
		c2.8,2.5,5.1,2.4,7.9-0.3c5.8-5.8,11.7-11.4,16.3-18.4c6.4-9.7,13.2-19.2,19.7-28.8c2.9-4.3,5.4-8.9,6.9-14l0,0
		c0.8-0.6,1-1.4,0.2-1.9c-0.3-0.2-0.8,0.7-0.8,1.3c-0.9,0-1.5,0.4-2.1,1C660.7,362.9,649.7,374,638.7,385z M590.4,410.4
		c1.3-0.5,1.6-1.7,1.5-3c0-1.4-0.6-2.6-1.3-3.9c-4.5-8.1-5.7-8.3-12.2-1c3.3,2.6,6.8,4.1,9.4,6.9
		C588.5,410.2,589.4,410.8,590.4,410.4z M544.9,394c-2.4,0.5-4.1,1.5-5.7,3c-6.3,6.3-12.5,12.7-19.6,19.9
		c15.9-2.3,38.9-15.7,43.6-25C556.9,391.2,550.9,392.8,544.9,394z M856.4,646.3c-56.9,56.9-113.3,113.3-170,170
		c3.8,1.6,7.3,1.8,10.3,3.5c4.3,2.3,4.3,2.2,7.9-1.4c43.7-43.7,87.4-87.4,131.1-131.1c8.5-8.5,17-17,25.5-25.6c1-1,2.8-1.8,1.6-3.9
		C860.6,654.2,858.7,650.6,856.4,646.3z M886.9,701.3c-20.8,20.8-41.5,41.7-62.3,62.5c-17.2,17.3-34.5,34.5-51.8,51.8
		c-12.4,12.4-24.8,25-37.4,37.3c-5.6,5.5-5.7,5.4-1.3,11.5c4.2,5.7,4.3,5.7,9.2,0.8c38.6-38.6,77.2-77.1,115.9-115.7
		c11.8-11.8,23.6-23.5,35.3-35.4c1.2-1.2,3-2.1,3-4.2c-1-3.3-3.5-5.5-5.3-8.1C889.9,698.5,889.6,698.6,886.9,701.3z M903.3,729.4
		c-39.7,39.7-79.5,79.4-119.2,119.2c-10.4,10.4-20.7,20.8-31.1,31c-1.9,1.9-3.4,3.7-1.5,6.1c2.3,3.1,3.5,6.7,5.1,10.6
		c12-11.9,23.9-23.6,35.6-35.3c18-17.9,36-35.9,54-53.9c20.9-20.9,41.9-41.9,62.8-62.8c6.3-6.2,6.3-6.2,2.1-14
		C907.9,724.8,907.9,724.7,903.3,729.4z M873.3,677.4c-1.2-1.8-2.6-1.7-4-0.3c-1.6,1.6-2.9,3.3-4.5,4.9
		c-17.9,17.9-35.7,35.8-53.6,53.6c-19.7,19.7-39.4,39.4-59.2,59.2c-11.5,11.5-23,23-34.5,34.5c-3.3,3.3-3.3,3.4-0.4,7.2
		c1.4,1.9,2.3,4.3,5.9,6.3c5.1-5.5,10-11.1,15.2-16.3c44.7-44.9,89.5-89.7,134.3-134.5c6.8-6.8,6.9-6.8,1.2-14.1
		C873.6,677.8,873.4,677.6,873.3,677.4z M547.2,625.3c-1.4-8.2,1.5-15.4,4.8-22.6c-9.9,8.5-18.9,17.9-28.1,27.2
		c-0.9,0.9-1.4,2-0.9,3.3c1.5,4.2,3,8.4,5.1,14c6.4-6.7,12-12.7,17.7-18.6C546.7,627.5,547.5,626.7,547.2,625.3z M455.6,152.9
		c-3.6,1.1-6.4,1.6-8.9,2.6c-11.9,4.8-23.7,10-33,19.3c-16.9,16.9-33.6,34-50.8,50.7c-5.8,5.6-8.7,12.3-10.4,19.8
		c-0.8,3.6-2.3,7.2-0.8,10.9C386.2,222,420.6,187.8,455.6,152.9z M760.1,935.8c1.6-1.5,2.5-2.2,3.3-3c9.7-9.6,19.4-19.2,29-28.8
		c37.3-37.3,74.5-74.6,111.7-111.9c7.5-7.5,15-15.1,22.5-22.5c1.4-1.4,2.8-2.6,1.6-4.6c-2.1-3.6-3.5-7.5-6.4-10.8
		c-0.8,0.6-1.3,0.9-1.7,1.3c-13,13.1-25.9,26.2-38.9,39.3c-22.1,22.1-44.4,44-66.5,66c-16.3,16.2-32.5,32.6-48.9,48.8
		c-3.7,3.6-6.5,7.1-5,12.7c0.4,1.6,0.5,3.6-0.4,5.3C759.4,929.9,759.9,932.2,760.1,935.8z M350.7,302.3
		c51-51.1,101.4-101.7,152.1-152.5c-5-2.5-9.7-0.6-13.9-2c-3.1-1.1-4.8,0.1-6.8,2.2c-20,20.2-40.1,40.4-60.2,60.6
		c-20.2,20.3-40.5,40.4-60.7,60.8c-3.8,3.8-9.3,6.7-10.7,11.8c-1.4,5.2-0.4,11.2-0.4,16.8C350.2,300.3,350.3,300.7,350.7,302.3z
		 M822.1,549.5c-0.7,0.5-1.4,0.9-1.9,1.4c-11,10.8-22,21.6-32.9,32.5c-23.7,23.8-47.4,47.7-71.1,71.5
		c-14.1,14.2-28.4,28.2-42.6,42.4c-17.7,17.7-35.5,35.3-53.2,53c-4.4,4.4-8.6,8.9-13,13.3c-1.2,1.2-1.8,2.7-0.6,3.6
		c3.2,2.4,4.9,6.4,8.4,8.6c5.8-5.7,11.5-11.3,17.1-17c25.9-25.8,51.8-51.5,77.6-77.3c19.9-19.8,39.7-39.8,59.5-59.7
		c17.1-17.2,34.3-34.3,51.4-51.6c2.6-2.6,7-4.6,7-8.5c0-3.8-2.6-7.5-4.5-11C823.2,550.3,822.6,550,822.1,549.5z M833.4,581
		c-2.4,2.8-4,4.9-5.8,6.7c-58.5,58.5-116.9,117-175.4,175.5c-9.4,9.4-18.8,18.7-28.1,28.1c-1.3,1.3-3.7,2.3-2.7,4.9
		c1.6,4.1,2.3,8.7,5.3,12.4c0.8-0.5,1.4-0.8,1.8-1.2c16.1-16.2,32.1-32.4,48.2-48.5c20.4-20.4,40.9-40.6,61.2-61
		c25-25,50-50.2,75-75.2c7.5-7.5,15.1-14.8,22.6-22.3c2.3-2.2,4.3-4.4,2-8.2C835.7,589.3,835.1,585.7,833.4,581z M580.6,809.3
		c-0.1-0.1-0.7,0.3-0.8,0.6c-0.2,0.3-0.3,0.5-0.3,0.7c-2.7-1.1-4.9,1.3-6.8,2.5c-5.4,3.4-10.9,5.6-17.2,6.2c-3,0.3-5.5,1.8-7.8,4.1
		c-5.6,5.7-11.4,11.2-17,16.9c-0.8,0.7-1.9,1.5-1.2,3c7.2-1.6,14.4-3.2,21.6-4.8c2.5-0.5,4.2-2.2,5.9-3.9
		c7.8-7.8,15.6-15.5,23.5-23.3l0.2,0c-0.1,0-0.1-0.1-0.2-0.1C580.5,810.5,581.5,810,580.6,809.3z M808.2,521.7
		c-1.4,1.2-2.2,1.8-2.9,2.5c-16.2,16.2-32.3,32.4-48.4,48.5c-18.3,18.3-36.6,36.6-54.9,54.9c-17.9,17.9-35.7,35.8-53.6,53.6
		c-21.3,21.3-42.6,42.5-63.9,63.8c-6.8,6.8-6.8,6.7,1.4,10.9c2.6,1.3,4.7,1.9,6.6-1.1c0.6-1,1.7-1.7,2.6-2.5
		c38-37.9,75.9-75.9,113.9-113.8c33-33,66-66,99-99c7.1-7.1,7.1-7.1,1.5-15.8C809.1,523.1,808.8,522.6,808.2,521.7z M605.5,817.5
		c0.9-1.7,0.4-3.1-1-4.2c-1.7-1.4-2.5,0.1-3.4,1c-5.2,5.2-10.4,10.4-15.5,15.6c7.4-0.8,13.2-4.8,18.5-9.8
		C604.8,819.4,605,818.3,605.5,817.5z M846.1,613.8c-1.6,0.1-2.3,0.8-3,1.5c-21.9,22-43.7,44.1-65.6,66
		c-24.3,24.3-48.8,48.5-73.1,72.8c-12.8,12.7-25.5,25.4-38.3,38.2c-11.4,11.5-22.8,23-34.2,34.5c-1.3,1.3-2.5,2.7-2.5,4.6
		c-0.1,6.9-3,13.1-4.8,19.6c-1.1,1.9-2,3.9-3.6,5.5c-5.1,5.2-10.6,9.3-18.2,10.5c-6.8,1.1-12.8,4.3-18,8.9c7.3-0.4,14-3.6,21.2-3.6
		c1.3,0,2.1-1.1,2.9-2c5.5-5.7,11.1-11.4,16.7-17.1c1.2-1,2.5-2,3.6-3.2c18.3-18.2,36.6-36.5,54.8-54.8
		c39.6-39.7,79.3-79.4,118.9-119c14.4-14.4,28.9-28.9,43.3-43.3c1.2-1.2,3.3-2.3,2.9-4.3C848,623.6,847.9,618.4,846.1,613.8z
		 M585.6,830.3l0-0.4c0,0,0,0,0,0c0,0,0,0,0,0l-0.1,0.1c0,0,0,0,0,0c0,0,0,0,0,0C585.5,830,585.6,830.3,585.6,830.3z M466.8,838.6
		c3.5-4,7.9-7.1,11.3-12.2c-4.4-2-8.8-3.6-11-7.4c-8.9,8.9-17.8,17.8-26.7,26.7c3.6,3.2,8.2,2.2,12.4,2.8c2.8,0.4,4.9-0.5,6.8-2.8
		C461.7,843.2,464.6,841.2,466.8,838.6z M422.6,471.4c-18.5,18.6-36.7,36.9-54.9,55.2c-24.9,24.9-49.8,49.8-74.7,74.7
		c-20.6,20.7-41.2,41.4-61.9,62c-1.8,1.8-2.9,3.8-3.9,5.9c-2.9,6.8-5.7,13.6-8.8,20.4c-1,2.1-2.6,3.9-2.7,5.9
		c72.1-72.1,144.4-144.4,216.9-216.9C428.6,477.8,426.4,474.2,422.6,471.4z M188.9,747.8c-8.9,11.6-18.2,23-25.8,35.5
		c-2.7,4.4-5.6,8.8-6.2,14.1c0.3,0.3,0.7,0.6,1,1c12-11.8,24.2-23.4,36.1-35.3c19.4-19.4,38.7-39.1,58.1-58.5
		c25.8-25.8,51.8-51.5,77.6-77.3c19.6-19.6,39-39.3,58.6-58.9c21.5-21.6,43.1-43.2,64.7-64.8c4.2-4.2,4.1-4.2-0.6-7.1
		c-1.3-0.8-2.8-1.8-3.7-3c-2-2.5-3.4-2.4-5.6-0.1c-10.5,10.7-21.3,21.1-32,31.7c-19.4,19.3-38.8,38.7-58.2,58.1
		c-23.7,23.8-47.4,47.7-71.1,71.5c-13.1,13.2-26.3,26.4-39.5,39.5c-11.2,11.1-22.5,22.2-33.7,33.3
		C201.9,734.2,194.6,740.4,188.9,747.8z M406.8,463.1c-7.8,2.3-14.6,4.5-21.5,6.2c-3.8,0.9-6.9,2.3-9.8,5.2
		c-39.3,39.5-78.8,78.9-118.3,118.3c-2.4,2.4-3.9,4.9-4.3,8.3c-0.7,6-2.8,11.5-5.8,16.9c-1.5,2.6-3.7,5.2-3.5,8.5
		C297.9,572.2,352.1,518,406.8,463.1z M566.7,152.6c-30,30.1-60.2,60.1-90.3,90.1c-34.6,34.6-69.1,69.3-103.7,104
		c-3,3.1-8.4,5.5-8.2,9.6c0.2,3.9,4.1,7.6,6.8,12.1c71.3-71.3,142-142,213.3-213.3c-4.2-1.5-7.7-2.2-10.4-3.9
		C570.9,149.1,569.2,150.2,566.7,152.6z M543.3,141c-4.8-0.3-9.2,1.2-12.6,4.5c-19.7,19.5-39.2,39.1-58.8,58.7
		c-30.5,30.5-60.9,61.1-91.3,91.6c-8.5,8.5-17,17-25.5,25.5c-1.2,1.2-3,2.3-2.1,4.5c1.5,3.9,1.1,8.3,3,12.4c1.5-0.1,2.2-0.8,3-1.5
		c32.1-32.2,64.3-64.4,96.4-96.5c30.5-30.5,61.1-61,91.5-91.6c2-2,6.2-3.8,4.8-6.6C550.4,139.4,546.2,141.2,543.3,141z M347.2,478.3
		c-6.6,0.3-12.5,2.7-18.7,4c-4.1,0.8-7.4,2.7-10.3,5.7c-17.5,17.6-35.2,35.1-52.8,52.6c-1,1-2.3,2-2.7,3.2c-2.6,8.5-5,17-7.5,25.6
		c0.3,0.2,0.7,0.5,1,0.7C286.8,539.8,317.1,509.3,347.2,478.3z M611.3,167.9c-1.4-1.1-2.9-2.2-4.4-3.2c-5-3.5-5-3.5-9.3,0.6
		c-0.1,0.1-0.3,0.3-0.4,0.4c-9.9,11-20.8,21.2-31.3,31.7c-15.3,15.3-30.7,30.6-46.1,45.9c-17.9,17.8-35.6,35.9-53.6,53.6
		c-4.1,4-7.9,8.3-12,12.7c0.8,0.2,1.2,0.5,1.5,0.4c7.8-3.1,15.7-6,24.1-7.2c1.7-0.2,2.8-1.4,3.9-2.6c10-10.1,20-20.2,30.1-30.2
		c11.2-11.2,22.5-22.2,33.7-33.4c17.8-17.8,35.7-35.6,53.4-53.5c4.1-4.2,8.8-7.9,12.2-13C612.3,169.1,611.9,168.4,611.3,167.9z
		 M510.9,908.7c13.3-2.2,25.6-6.3,33.9-18c0.6-0.8,1.5-1.3,2.2-2c0.5-0.6,1.1-1.2,0.5-2.5c-5.1-0.2-10.4-0.4-15.8-0.6
		c-1.5-0.1-2.6,0.6-3.7,1.6c-7.3,7.1-14.7,14.2-22.8,22C508.4,909.9,509.6,908.9,510.9,908.7z M526.3,820.9c0.9-0.9,2.4-1.5,2-3.8
		c-4.9,0-9.9,0-14.8,0c-1.8,0-2.8,1.2-3.9,2.4c-7.3,7.3-14.8,14.5-22,22c-2.1,2.2-5.1,3.8-6.3,7.7c5.9,0.6,11-0.8,16.2-0.9
		c2.1,0,3.2-1.5,4.4-2.7C510,837.3,518.1,829.1,526.3,820.9z M545.5,667.7c1.7,1.9,3.3,1.9,5.1,0.2c3.3-3.2,6.5-6.5,9.8-9.7
		c1.5-1.4,1.7-3,0.9-4.9c-1.6-3.6-3.3-7.1-6.1-10.3c-6,6.1-11.8,11.9-18.2,18.4C540.5,663.1,543.2,665.1,545.5,667.7z M787.5,502.8
		c-2-1.6-3.6-1.7-5.6,0.5c-4.9,5.3-10.1,10.3-15.2,15.4c-13,13-26.1,26-39.1,39c-17.1,17.1-34.2,34.3-51.3,51.4
		c-17.4,17.4-34.9,34.6-52.3,52c-20.4,20.4-40.7,40.8-61,61.2c-4.9,4.9-10.2,9.4-14.7,15.3c3.3,1.3,6.3,2.5,9.2,3.7
		c4.8,2,4.8,2,8.4-1.6c67.6-67.6,135.1-135.1,202.7-202.6c9.1-9.1,18.2-18,27.3-27C794.1,505.9,790.2,505,787.5,502.8z M481.4,910.1
		c3.6-4.2,7.8-8,11.8-12c3.2-3.2,6.5-6.4,9.7-9.6c-0.2-0.4-0.4-0.7-0.6-1.1c-6,0-12.3-1.1-17.9,0.3c-4.5,1.2-7.5,6.3-10.9,9.9
		c-0.3,0.3-0.7,0.4-1,0.7c-3.6,4.2-8.2,7.4-11.4,12c3.7,2.2,7.6,2.2,11.3,2.9C476,913.9,478.9,913,481.4,910.1z M474,723.7l-0.1,0
		c0.1,0.1,0.2,0.2,0.3,0.2c0.1,0.3,0.1,0.8,0.6,0.3c1.2,0.4,2.4-0.4,3.6-0.7c4.8-1.2,9.6-3.4,14.6-2.7c3.3,0.4,5.2-0.5,7.2-2.6
		c4.7-4.9,9.5-9.6,14.3-14.5c0.8-0.8,2.2-1.7,1.4-3c-1.7-2.8-4-5.1-7.3-5.8c-2.6-0.6-4.9-1-7.5,1.6
		C492.4,705.9,483.1,714.7,474,723.7z M748,493c-4.9,5-9.9,9.9-14.8,14.9c-15.5,15.6-31,31.3-46.6,46.9
		c-20.7,20.7-41.4,41.2-62.1,61.9c-16,16-32,31.9-47.9,48c-6.2,6.2-12.9,12-18.4,18.9c1.8,2.8,4.8,3.8,7.3,5.4
		c4.3,2.7,4.3,2.8,7.8-0.5c0.6-0.6,1.2-1.1,1.7-1.7c18.1-18.1,36.3-36.3,54.4-54.4c37.6-37.6,75.1-75.1,112.7-112.7
		c8.5-8.5,16.9-17.1,25.9-26.2c-4.1-1.2-7.2-1.9-10.2-2.9C753.9,489.2,750.8,490.1,748,493z M455.7,785c-1.6,2-1.4,3.7,0.9,3.8
		c5.6,0.3,11.8,0.7,16.5-1.7c5.4-2.8,9.6-8,13.2-13.6c-3.6,0.9-7.1,1.3-10.6,1.4C467.5,775.1,460.8,778.5,455.7,785z M622.9,183.3
		c-1.5,1.6-3.2,3.1-4.7,4.6c-10.7,10.9-21.3,21.8-32.1,32.6c-22.7,22.6-45.5,45.1-68.3,67.7c-2.9,2.9-5.7,5.9-9,9.3
		c6.5,0,12.1,0,17.6,0c1.5,0,2.7-0.5,3.8-1.5c2.1-1.9,4.2-3.7,6.2-5.7c13.4-13.3,26.7-26.6,40-40c20.2-20.3,40.4-40.6,61.3-61.8
		c-4.6-1.6-8.5-3.3-11.8-5.8C624.9,182,623.9,182.2,622.9,183.3z M711.2,486.5c-19.9,20.2-40,40.1-60,60.2
		c-18.2,18.2-36.3,36.4-54.6,54.5c-2.3,2.3-3.9,4.7-4.3,8.2c-0.6,5.3-1.3,10.7-3.7,15.6c-0.5,1-0.5,2.4,0.4,4.2
		c47.5-47.5,94.8-94.8,142.2-142.2c-2.4-2.6-5.6-1.9-7.9-3.2C718.3,481.1,714.9,482.7,711.2,486.5z M665.4,270.8
		c-14.9,14.8-29.7,29.7-44.6,44.5c-7.9,7.9-15.5,16.2-23.8,23.8c-1.2,1.1-3.2,2.5-2.4,4.5c1.7,4.2,2.7,8.8,5.9,12.2
		c10.8-10.7,21.5-21.3,32.1-31.9c14.3-14.3,28.7-28.6,43-43c1.1-1.1,2.9-2,3-3.7c0.1-5.7-0.5-11.3-2-17.6
		C672.5,263.9,668.9,267.3,665.4,270.8z M649.9,200.7c-33.8,33.9-67.6,67.7-102.2,102.3c3.8,1.8,6.8,3,9.6,4.6
		c3.2,1.8,5.3,1,7.8-1.6c27.3-27.5,54.7-54.8,82-82.2c3.1-3.1,8.1-5.6,8.4-9.7c0.3-3.9-2.8-8.1-4.5-12.2
		C650.9,201.6,650.5,201.4,649.9,200.7z M664.9,230.8c-1.9,0.4-2.9,2-4.2,3.2c-4.3,4.2-8.5,8.5-12.7,12.8
		c-21.4,21.4-42.9,42.7-64.3,64.1c-5.8,5.8-5.8,5.8-0.5,11.7c0.9,1,1.4,2.5,2.9,2.9c0.9-0.1,1.4-0.7,2-1.3
		c25.5-25.4,51-50.9,76.6-76.3c7.8-7.8,7.8-7.9,0.7-16.8C665.4,231,665.1,231,664.9,230.8z M677.9,302.6
		c-16.4,16.4-32.8,32.9-49.2,49.4c-5.8,5.8-11.7,11.5-17.4,17.4c-1.2,1.2-3.4,2.3-2.3,4.4c2.1,4.1,2,9,4.7,12.9
		c12.7-12.6,25.1-24.8,37.4-37c9.2-9.1,18.4-18.3,27.5-27.5c1.3-1.3,3.2-2.6,3.3-4.1c0.4-6,1.6-12.1-0.5-18.6
		C679.9,300.8,678.9,301.7,677.9,302.6z M678.5,475c-9.1,9.2-18.3,18.4-27.5,27.6c-15.8,15.9-31.6,31.7-47.4,47.6
		c-7.3,7.4-15.2,14.2-21.8,22.3c0,0,0,0,0,0c-0.4,0.4-1.7,0.5-0.7,1.4c0.4,0.3,1.1-0.1,1.1-0.8c1.8,0.3,3.1-0.8,4.5-1.5
		c5-2.3,9.6-3.2,12.8,2.7c12.7-11,95.2-94.5,97.2-98.4c-4.1-2.3-8.8-2.1-13.3-2.9C681.4,472.7,679.8,473.6,678.5,475z M491.7,943.8
		c1.7-1.7,3.3-3.5,5.5-5.9c-6.4,2.1-12.1,1-17.6,1.8c-3.3,0.4-5.5,1.5-7.7,3.7c-11,11.1-22.2,22-33.3,33.1
		c-21.3,21.3-42.5,42.6-63.7,63.9c-8.9,8.9-17.8,17.8-26.7,26.8h20.1c19.6-19.6,39.3-39.2,58.9-58.8
		C448.7,986.8,470.2,965.3,491.7,943.8z M451,940.3c1.2-1.2,3.1-2,2.8-4.4c-2.9-0.7-5.9-1.2-8.7-2.1c-4.8-1.6-8.2-0.1-11.6,3.5
		c-14.4,14.7-28.9,29.3-43.5,43.8c-12.4,12.4-25.1,24.7-37.5,37.2c-11.7,11.8-23.3,23.6-35.2,35.2c-4.6,4.5-9,9.1-13.5,13.7h20.2
		c12.2-12.2,24.4-24.4,36.6-36.7C390.9,1000.5,421,970.4,451,940.3z M510.1,968.3c8.8-8.5,17-17.5,26-25.7
		c3.9-3.5,8.1-6.9,11.3-12.2c-6.9,1.2-12.9,2.7-19,3.3c-3.3,0.3-5.5,1.5-7.7,3.7c-32.1,32.2-64.4,64.4-96.6,96.6
		c-11,11-22,22.1-33,33.2h20c19.9-20,39.9-39.9,59.8-59.8C484,994.3,496.9,981.1,510.1,968.3z M256.2,962.2c0.9-0.9,2-1.7,2-2.9
		c0.1-6.1,0-12.1,0-18.5c-2.6,1-3.7,2.5-5,3.8c-31.8,31.8-63.6,63.5-95.4,95.3c-9.1,9.1-18.1,18.1-27.1,27.2h20.1
		c20-20.1,40.1-40.1,60.2-60.1C226.1,992.1,241.2,977.2,256.2,962.2z M417,930.1c-3.8-1.1-7-2.1-9.9-3.8c-2.4-1.4-4-0.6-5.8,1.2
		c-20.3,20.5-40.6,40.9-61,61.3c-17.4,17.4-34.9,34.7-52.3,52.1c-8.7,8.7-17.4,17.5-26.1,26.3h18.3c7.7-7.7,15.5-15.4,23.2-23.2
		c33.7-33.7,67.4-67.5,101.2-101.2C408.6,938.7,412.6,934.6,417,930.1z M280.5,980.9c0.7-0.7,1.3-1.5,0.7-2.9
		c-1.4-0.1-3-0.3-4.5-0.2c-1.9,0.1-3.5-0.8-5.1-1.5c-4.9-2.2-4.9-2.2-8.7,1.6c-18.7,18.7-37.4,37.4-56.1,56.1
		c-11,11-22,22.1-33,33.1h20.1c14.7-14.7,29.3-29.4,44-44C252.1,1009,266.3,994.9,280.5,980.9z M627.2,895.8
		c11.9-11.9,23.8-23.9,35.8-35.8c1.2-1.2,2.9-2.3,2.6-4.4c-0.6-5.1-0.8-10.2-2-15c-1.1-0.2-1.6,0-2.1,0.4
		c-12.2,12.2-24.3,24.4-36.5,36.5c-1.6,1.6-2.2,3.2-1.6,5.4c1.4,4.5,0.2,8.5-3,11.6c-7.5,7.1-15.1,14.2-24.9,18.3
		c-6.4,2.7-12.6,5.8-17.1,11.6c-1.6,2-3.6,3.7-5.5,5.6c-14.4,14.2-28.8,28.4-43.1,42.6c-17.1,17-34.1,34-51.1,51
		c-14.6,14.6-29.2,29.2-43.7,43.8h20.4c6.1-5.9,11.8-12.2,17.8-18.2c21.6-21.5,43.3-42.8,64.8-64.3
		C568,955.1,597.6,925.4,627.2,895.8z M326.1,979.2c2.2-2.2,5.1-3.9,6.3-7.4c-9.8-2.3-18.1-2.2-25.7,6.1
		c-14.5,15.7-30.1,30.4-45.3,45.6c-14.6,14.6-29.1,29.1-43.6,43.7h20.4c6-5.9,11.8-12.1,17.8-18.1
		C279.4,1025.7,302.8,1002.5,326.1,979.2z M914.4,1067.2h17.8c10.6-10.6,21.2-21.2,31.7-31.8v-18c-7.5,7.5-15,15.1-22.5,22.6
		C932.4,1049,923.4,1058.1,914.4,1067.2z M883.7,1053.4c-4.5,4.5-9,9.1-13.4,13.7H888c20-20.1,40-40.1,60.1-60.2
		c5.3-5.3,10.6-10.6,16-15.9v-17.7c-13.8,13.7-27.5,27.4-41.3,41.1C909.7,1027.4,896.6,1040.4,883.7,1053.4z M664.6,899.9
		c1.2-1.2,3-2.1,3-4.2c0-4.9,0-9.8,0-16.1c-6.1,5.8-11.2,10.4-16.1,15.3c-19.2,19.3-38.3,38.8-57.6,58
		c-20.7,20.6-41.3,41.5-62.3,61.9c-17.7,17.2-35.1,34.9-52.6,52.4h18.6c0.1-0.1,0.1-0.1,0.2-0.2c45-45.1,90-90.1,135-135.2
		C643.4,921.2,654.1,910.6,664.6,899.9z M714.2,981.9c-1.5-0.7-2.4-0.1-3.4,0.1c-4.1,0.9-4.2,0.7-4.5-3.6c-0.1-2.4,0.6-5-0.6-7.3
		c-1.9,0.4-2.7,1.6-3.7,2.6c-12.8,12.9-25.6,25.9-38.5,38.8c-18.3,18.3-36.7,36.4-55,54.7h20.4c23.4-23.3,46.7-46.6,70.1-69.9
		C704.1,992.2,709,987.1,714.2,981.9z M646.5,962.2c1.5-1.5,4-2.7,3.2-5.4c-1.4-4.6-0.4-9.1,0.1-13.6c0.9-2.1,1.8-4.2,2.7-6.3
		c-0.2-0.1-0.4-0.3-0.6-0.4c-1.1,1.2-2.2,2.5-3.3,3.7c-0.5,0.3-0.9,0.6-1.4,0.9c0,0,0.2-0.2,0.2-0.2c-0.4,0.5-0.7,1-1.1,1.4
		c-13,13-25.9,26-39,38.9c-12.3,12.3-24.8,24.3-37,36.7c-11.8,11.9-23.5,23.8-35.5,35.6c-4.6,4.5-9,9-13.4,13.6h20.4
		c1.9-1.8,3.8-3.6,5.7-5.5c19.5-19.5,39-39.1,58.5-58.7C619.3,989.4,632.9,975.9,646.5,962.2z M680.8,971.7c-5.4-0.8-9.8,0.2-14-0.2
		c-4.6-0.4-7.4,1.6-10.4,4.6c-21,21.2-42.2,42.3-63.3,63.4c-9.2,9.2-18.4,18.3-27.5,27.6h20.2c6.9-6.8,13.9-13.7,20.7-20.5
		c20.7-20.6,41.3-41.2,62-61.9C672.4,980.8,676.2,976.5,680.8,971.7z M376.5,928.7c4.2-4.3,8.7-7.9,12.3-12.8
		c-3.3-1.9-6.1-4.1-8.5-6.7c-1.2-1.4-2.6-1.9-4.1-0.4c-4,4.4-8.8,7.9-12.5,13.1C368.7,923.1,373.1,924.8,376.5,928.7z M103,985
		c22.5-22.2,44.6-44.9,67-67.3c22.4-22.4,44.9-44.6,67.3-66.9c21.5-21.5,42.9-43.2,64.4-64.7c23.8-23.8,47.7-47.4,71.5-71.2
		c16-16,32-32,48-48c13.2-13.2,26.4-26.3,39.6-39.5c4.9-4.9,10.4-9.5,9.9-17.6c-0.1-1,0.3-2,0.7-2.9c2.7-8.4,7.5-11.1,16.1-9
		c1.3,0.3,2.1,0.7,3.1-0.4c5-5.4,10.8-10.2,15.7-16.5c-6.2,1.4-11.8,2.9-14.6-4.7c-1.5,1.4-2.6,2.2-3.6,3.2
		c-31.4,31.3-62.7,62.7-94.1,94c-39.3,39.3-78.5,78.6-117.8,117.9c-33.1,33.1-66.2,66.1-99.2,99.1c-40.7,40.7-81.3,81.4-122.1,122
		c-18.3,18.3-36.6,36.4-54.9,54.6h20.6C48.1,1039.7,75.4,1012.2,103,985z M351.3,906c0.1,0.7,0.2,1.5,0.5,3.2
		c5.7-5.7,10.8-10.9,16-16.1c0.7-0.8,1.1-1.7,0.8-2.8c-1.2-4.6-2.4-9.1-3.7-14.3c-5.2,5.2-10.8,9.2-14.1,14.7
		C348.1,895,351,900.9,351.3,906z M198.4,975.7c20.7-20.7,41.4-41.4,62.1-62.1c1.4-1.4,2.9-2.8,3.7-4.7c2.6-6.4,6.6-11.9,10.7-17.4
		c7.7-10.3,15.7-20.3,22.4-31.2c6.1-7.2,12.6-14,19.7-20.2c7.4-4.8,14.7-10,23.1-12.5c8.3-2.4,14.4-7.5,20-13.6
		c7.2-7.8,15.4-14.6,21.3-23.7c2.5-3.9,6.1-7,10-9.5c4-2.5,7.4-5.5,10.6-8.8c20.7-20.7,41.4-41.5,62.1-62.1
		c7.1-7.1,14.4-13.9,21.7-20.9c-3.6-4.5-5.2-8.9-6.7-13.9c-1.4,1-2.3,1.5-3,2.1c-10.6,10.6-21,21.4-31.6,32
		c-21.6,21.6-43.4,43.1-65,64.8c-15.8,15.8-31.6,31.7-47.4,47.6c-5.6,5.7-11.7,10.8-16.8,17c-2.5,1-3.9,3.4-5.5,5.2
		c-4.4,4.8-9.7,8.7-13.5,14.1c-0.5,0.3-1.2,0.4-1.6,0.8c-18.5,18.5-37,37-55.5,55.6c-22.2,22.2-44.3,44.5-66.5,66.7
		c-12.3,12.3-24.8,24.4-37,36.8c-11.8,11.9-23.6,23.9-35.6,35.6c-4.6,4.5-9,9.1-13.4,13.7h20.2c12.1-12.1,24.1-24.2,36.2-36.2
		C161.5,1012.5,179.9,994.1,198.4,975.7z M358.9,858c-5-0.5-5,3.4-6.1,6.3C355.2,862.6,358.2,861.5,358.9,858z M269.6,860.3
		c30.5-30.5,60.9-61,91.4-91.4c22.2-22.2,44.5-44.5,66.8-66.7c14.7-14.7,29.4-29.5,44.2-44.2c1.7-1.7,3-3.2,2.5-5.7
		c-0.8-3.8-1-7.8-2.7-11.3c-1.8-0.1-2.3,1.2-3.1,2c-24.4,24.3-48.8,48.6-73.1,73c-36.1,36.1-72.2,72.2-108.3,108.3
		c-36.2,36.2-72.5,72.5-108.7,108.7c-34.3,34.2-68.5,68.5-102.8,102.7c-10.4,10.5-20.8,21-31.3,31.5H63c0.1-0.1,0.1-0.1,0.2-0.2
		c34.2-34.4,68.5-68.7,102.8-103C200.5,929.4,235.1,894.9,269.6,860.3z M827,1067.2h19.3c3.4-3.4,6.8-6.7,10.2-10.1
		c35.9-35.8,71.7-71.7,107.6-107.5V930c-35.5,35.6-71.1,71.1-106.6,106.7C847.2,1046.8,837.1,1057,827,1067.2z M809.9,1039.9
		c-9.1,9.1-18.2,18.1-27.1,27.2h19.5c5.7-5.7,11.4-11.4,17.2-17.1c33.9-33.9,67.7-67.8,101.5-101.7c14.3-14.3,28.7-28.7,43-43V886
		c-14.7,14.7-29.4,29.4-44.1,44.1C883.2,966.7,846.6,1003.3,809.9,1039.9z M862.5,857.6c-19.2,19.2-38.5,38.4-57.8,57.6
		c-17,17-33.9,34-50.9,51c-16.4,16.4-32.8,32.8-49.3,49.1c-12.8,12.7-25.6,25.3-38.3,38.1c-4.5,4.5-9,9.1-13.4,13.7h20.2
		c58.4-58.4,116.8-116.8,175.2-175.2c35.6-35.6,71.3-71.2,106.9-106.9c2.9-2.9,5.8-5.8,8.7-8.7V756c-13.8,13.7-27.6,27.5-41.4,41.2
		C902.6,817.3,882.6,837.5,862.5,857.6z M772.5,1035.8c-10.4,10.5-20.9,20.9-31.3,31.4h17.6c12.4-12.4,24.8-24.7,37.1-37.1
		c26.8-26.8,53.6-53.6,80.4-80.5c27.4-27.4,54.8-54.8,82.1-82.2c1.8-1.8,3.6-3.6,5.4-5.4v-17.6c-32.1,32-64.2,64-96.3,96
		C836,972.2,804.3,1004,772.5,1035.8z M833.6,930.6c-15.3,15.3-30.8,30.5-46.1,45.8c-21.3,21.3-42.5,42.6-63.7,63.9
		c-8.9,8.9-17.8,17.8-26.7,26.8h17.7c12.4-12.5,24.8-24.9,37.2-37.3c31.8-31.7,63.6-63.3,95.3-95.1c38.9-38.9,77.8-77.9,116.7-116.8
		v-17.7c-16.2,16.2-32.5,32.5-48.7,48.7C888,876.2,860.8,903.5,833.6,930.6z M964,1067.2v-5.4c-1.8,1.8-3.6,3.6-5.4,5.4H964z"/>
</g>
<g>
</g>
<g>
</g>
<g>
</g>
<g>
</g>
<g>
</g>
<g>
</g>
<g>
</g>
<g>
</g>
<g>
</g>
<g>
</g>
<g>
</g>
<g>
</g>
<g>
</g>
<g>
</g>
<g>
</g>
</svg>
