<?xml version="1.0" encoding="utf-8"?>
<!-- Generator: Adobe Illustrator 18.0.0, SVG Export Plug-In . SVG Version: 6.00 Build 0)  -->
<!DOCTYPE svg PUBLIC "-//W3C//DTD SVG 1.1//EN" "http://www.w3.org/Graphics/SVG/1.1/DTD/svg11.dtd">
<svg version="1.1" id="Layer_1" xmlns="http://www.w3.org/2000/svg" xmlns:xlink="http://www.w3.org/1999/xlink" x="0px" y="0px"
	 viewBox="0 0 1663 680.5" style="enable-background:new 0 0 1663 680.5;" xml:space="preserve">
<style type="text/css">
	.st0{fill:#FBC411;}
	.st1{fill:#090606;}
</style>
<g>
	<rect x="1.3" y="1.1" class="st0" width="1660.3" height="678.3"/>
	<path class="st1" d="M964.7,534.7c0,3.3,0,6.6,0,9.8c0,0-0.1,0.1-0.1,0.1c-6.4,6.4-12.8,12.9-19.3,19.4c-0.6-2.6-1.4-5.2-2.3-7.7
		c5.3-5.3,10.7-10.6,16-15.9C961,538.4,962.9,536.5,964.7,534.7z M908,560.2c-2-1.2-4-2.4-6-3.6c-14.5,14.5-29,28.9-43.5,43.4
		c0,3.2,0,6.5,0,9.7c8.6-8.6,17.2-17.3,25.9-25.9C892.1,576,900,568.1,908,560.2z M1060.3,582.2c-1.8,1.8-3.6,3.6-5.5,5.5
		c2,1.2,3.8,2.6,5.3,4.2c7-7,13.9-13.9,20.9-20.9c0.5-4.2,1.4-8.4,2.7-12.4c-0.3,0.3-0.6,0.6-0.9,0.9
		C1075.4,567,1067.9,574.6,1060.3,582.2z M882.4,545c-2.1-1.3-4.3-2.5-6.4-3.8c-5.9,5.8-11.7,11.7-17.6,17.5c0,3.4,0,6.9,0,10.3
		c3.9-3.9,7.8-7.8,11.7-11.7C874.2,553.2,878.3,549.1,882.4,545z M1000.8,600.9c1.2,2,2.4,4.1,3.5,6.1c3.4-3.4,6.8-6.9,10.3-10.3
		c3.2-3.2,6.4-6.4,9.6-9.6c0-3,0-5.9,0-8.9c0-0.2,0-0.5,0-0.7c-6.5,6.4-13,12.9-19.4,19.3C1003.5,598.3,1002.2,599.6,1000.8,600.9z
		 M1020.3,529.9c-1.3-0.4-2.7-0.2-4,0.6c-1.4,0.8-2.8,1.6-4.2,2.4c-3.8,2.2-7.5,4.3-11.3,6.5c-7.5,7.6-15.1,15.1-22.6,22.7
		c1.2,2.1,2.4,4.2,3.7,6.3c9.7-9.7,19.4-19.4,29.1-29.1C1014.1,536.1,1017.2,533,1020.3,529.9z M964.7,585.4c0-2.4,0-4.8,0-7.2
		c0-0.9,0-1.8,0-2.7c-6.7,6.7-13.4,13.4-20.2,20.1c-2.1,7.2-5.4,13.9-9.7,19.7C944.8,605.4,954.7,595.4,964.7,585.4z M1024.3,606.3
		c0-3,0-6,0-9c-4.8,4.7-10.3,10.2-16.2,16c1.1,1.9,2.2,3.8,3.3,5.6C1015.6,614.8,1020,610.5,1024.3,606.3z M1023.8,567.4
		c0.2-0.2,0.3-0.3,0.5-0.5c0-3.3,0-6.5,0-9.8c-5.3,5.3-10.5,10.5-15.8,15.8c-5,5-10.1,10.1-15.1,15.1c1.2,2,2.3,4,3.5,6.1
		C1005.8,585.2,1014.8,576.3,1023.8,567.4z M1120.9,551.5c3.8-3.8,7.7-7.7,11.6-11.5c-1-0.6-1.9-1.1-2.9-1.7
		c-1.1-0.6-2.1-1.3-3.2-1.9c-3.2,3.2-6.5,6.5-9.7,9.7c0,3.2,0,6.4,0,9.6C1118.2,554.3,1119.6,552.9,1120.9,551.5z M826.5,600.9
		c-1-2.5-1.8-5.1-2.5-7.8c-6.5,6.6-13.1,13.1-19.6,19.7c0,3.4,0,6.8,0,10.2c5.4-5.4,10.8-10.7,16.1-16.1
		C822.5,604.8,824.5,602.9,826.5,600.9z M920.5,588.9c4.2-4.1,8.3-8.3,12.5-12.4c-0.4-0.9-1-1.8-2-2.5c-0.4-0.3-0.8-0.5-1.3-0.8
		c-0.7-0.4-1.5-0.9-2.2-1.3c-9,9-18,18.1-27,27.2c-1.5,1.5-3.1,3.1-4.6,4.6c2.3-1.4,4.5-2.7,6.8-4.1
		C908.6,596,914.5,592.4,920.5,588.9z M622.1,560c0-3.6,0-7.2,0-10.8c-3.4,3.4-6.9,6.8-10.3,10.3c-3.6,3.6-7.2,7.3-10.9,10.9
		c0,3.6,0,7.1,0,10.7C608,574,615.1,567,622.1,560z M999.8,570.9c8.2-8.2,16.3-16.3,24.5-24.5c0-3.2,0-6.4,0-9.6
		c-9.4,9.4-18.9,18.8-28.3,28.2c-3.4,3.4-6.7,6.8-10.1,10.2c1.2,2,2.4,4.1,3.5,6.1C992.9,577.8,996.3,574.3,999.8,570.9z
		 M946.8,572.9c0.2,1.8,0.2,3.7,0.2,5.5c0,1.5-0.1,3-0.2,4.4c5.9-5.9,11.9-11.8,17.9-17.8c0-3.4,0-6.8,0-10.2
		c-0.9,0.9-1.7,1.7-2.6,2.6C957,562.7,951.9,567.8,946.8,572.9z M499.4,600.5c3.9-3.9,7.8-7.8,11.7-11.8c-1.2-2.1-2.4-4.3-3.6-6.4
		c-2,2-3.9,3.9-5.9,5.9c-6,6-12.1,12.1-18.1,18.1c-0.5,0.5-1,1-1.5,1.5c0,3.3,0,6.6,0,10C487.9,612,493.7,606.2,499.4,600.5z
		 M543.9,638.1c5.4-5.4,10.8-10.8,16.3-16.3c0-3.5,0-7,0-10.6c-2.6,2.6-5.2,5.2-7.8,7.8c-4.5,4.5-8.9,9-13.4,13.4
		c-0.1,1.5-0.3,2.9-0.6,4.3c-1.1,4.7-3,9-6,12.8C536.1,645.8,540,642,543.9,638.1z M560.1,601.4c0-3.7,0-7.3,0-11
		c-2.3,2.3-4.9,4.9-7.8,7.8c-4,4-8.5,8.4-13.3,13.2c0,3.7,0,7.4,0,11.1c5.2-5.2,10.5-10.5,15.7-15.7
		C556.5,605,558.3,603.2,560.1,601.4z M482.1,597.2c0.6-0.6,1.2-1.2,1.9-1.9c6.6-6.6,13.2-13.2,19.9-19.8c-0.4-0.8-0.8-1.5-1.3-2.3
		c-0.8-1.4-1.6-2.9-2.4-4.3c-1.4,1.4-2.7,2.7-4.1,4.1c-4.7,4.7-9.3,9.3-14,14c0,0.7,0,1.4,0,2.1
		C482.1,591.8,482.1,594.5,482.1,597.2z M822.5,584.7c-0.2-2.2-0.4-4.5-0.3-6.8c0-0.9,0-1.8,0.1-2.6c-5.9,5.9-11.9,11.9-17.9,17.9
		c0,3.2,0,6.3,0,9.5C810.4,596.7,816.5,590.7,822.5,584.7z M663,571.9c0,2.8,0,5.6,0,8.5c11.1-11.1,22.3-22.2,33.4-33.3
		c0.7-0.7,1.4-1.4,2.1-2.1c0-3.2,0-6.5,0-9.7c-3.8,3.8-7.6,7.6-11.4,11.4c0,0,0,0.1,0,0.1c0.9,3.6-0.7,7.4-4,9.2
		c-1.1,0.6-2.2,1.2-3.4,1.8c-2.8,1.5-5.6,3-8.4,4.6c-2.8,2.8-5.6,5.6-8.4,8.4C663,571.1,663,571.5,663,571.9z M601,596
		c0,1.9,0,3.7,0,5.6c7-7,14.1-14.1,21.1-21.1c0-2,0-3.9,0-5.9c0-1.7,0-3.3,0-5c-7,7-14.1,14.1-21.1,21.1
		C601,592.5,601,594.2,601,596z M560.1,580.6c0-3.3,0-6.7,0-10c-1,1-1.9,1.9-2.9,2.9c-1.6,1.6-3.3,3.3-4.9,4.9
		c-4.4,4.4-8.9,8.8-13.3,13.3c0,3.4,0,6.7,0,10.1c1.7-1.7,3.3-3.3,5-5C549.4,591.4,554.7,586,560.1,580.6z M753.8,592.1
		c-3.2,0-6.4,0-9.6,0c-3.4,3.4-6.8,6.8-10.2,10.2c0,3.2,0,6.4,0,9.6c0.4-0.4,0.7-0.7,1.1-1.1C741.4,604.5,747.6,598.3,753.8,592.1z
		 M858.4,539.4c0,0.6,0,1.3,0,1.9c0,2.6,0,5.3,0,7.9c4-4,7.9-7.9,11.7-11.6c-1-0.6-2.1-1.2-3.1-1.8c-0.6-0.3-1.2-0.7-1.8-0.9
		c-0.8-0.3-1.6-0.3-2.4-0.2c-1.4,1.4-2.8,2.8-4.3,4.3C858.4,539.1,858.4,539.3,858.4,539.4z M804.4,579.6c0,0.9,0,1.8,0,2.7
		c3.9-3.9,7.9-7.9,11.8-11.8c2.7-2.7,5.3-5.4,8-8c1.6-6,4-11.7,7.2-16.9c-9,9-18,18.1-27.1,27.1C804.4,575,804.4,577.3,804.4,579.6z
		 M696.5,567.4c0.7-0.7,1.4-1.4,2-2c0-3.2,0-6.5,0-9.7c-5.4,5.4-10.7,10.7-16.1,16.1c-6.5,6.4-12.9,12.9-19.4,19.3
		c0,3.2,0,6.4,0,9.6C674.2,589.6,685.3,578.5,696.5,567.4z M698.5,586c0-3.3,0-6.7,0-10c-7.6,7.7-15.2,15.3-22.9,23
		c-4.2,4.2-8.4,8.4-12.6,12.6c0,3.3,0,6.6,0,10c4.9-5,9.8-10,14.7-14.9C684.7,599.8,691.6,592.9,698.5,586z M751.1,564.3
		c3.3,0,6.6,0,10,0c2.6-2.6,5.3-5.3,7.9-7.9c0-3.3,0-6.7,0-10C763,552.4,757,558.4,751.1,564.3z M737.3,557.6
		c-2.3,2.3-4.5,4.5-6.8,6.8c3.4,0,6.8,0,10.2,0c2.3-2.3,4.7-4.7,7-7c7.1-7.1,14.1-14.2,21.2-21.3c0-2.9,0-5.7,0-8.6
		c0-0.5,0-1,0.1-1.6C758.4,536.5,747.9,547,737.3,557.6z M895.1,552.6c-2.1-1.2-4.2-2.5-6.3-3.7c-2.8,2.8-5.5,5.5-8.3,8.3
		c-7.4,7.4-14.7,14.7-22.1,22.1c0,3.4,0,6.7,0,10.1c2.3-2.3,4.6-4.6,6.8-6.8C875.2,572.5,885.2,562.6,895.1,552.6z M936.1,542.8
		c1.3,1.9,2.5,3.9,3.6,6c1.6-1.6,3.3-3.3,4.9-4.9c5.7-5.7,11.5-11.4,17.3-17.2c1.3-1.3,2.6-2.6,3.9-3.9c0.7-1.3,1.9-2.5,3.3-3.2
		c6-5.9,11.9-11.9,17.8-17.9c2.4-2.4,5.1-4.5,7-7.4h-9.7c-0.1,0.9-0.8,1.2-1.3,1.7c-8.6,8.6-17.2,17.3-25.9,25.9
		C950,528.9,943,535.9,936.1,542.8z M931.4,536.8c14.2-14.2,28.3-28.4,42.5-42.5h-10.2c0.1,0.7-0.4,1-0.8,1.4
		c-1.7,1.7-3.4,3.3-5.1,5c-10.4,10.4-20.8,20.9-31.2,31.3C928.3,533.5,929.9,535.1,931.4,536.8z M914.4,523.3
		c2.1,1.2,4.2,2.4,6.2,3.8c11-11,21.9-21.9,32.9-32.9h-10.2c-3.9,4.4-8.2,8.4-12.3,12.5C925.3,512.3,919.8,517.8,914.4,523.3z
		 M980.8,518.5c3.4,0,6.8,0,10.1,0c4.3-4.3,8.6-8.5,12.8-12.9c3.7-3.8,7.7-7.3,11.1-11.3h-10.2c-0.1,0.6-0.6,1-1,1.4
		c-6.9,6.9-13.8,13.7-20.7,20.6C982.3,517,981.6,517.7,980.8,518.5z M1050,520.1c0.1,0,0.2,0.1,0.4,0.1c8.7-8.7,17.4-17.3,26.1-26
		h-10.2c0.1,0.8-0.6,1.1-1,1.6c-7.5,7.6-15.1,15.1-22.6,22.7C1045.1,518.7,1047.6,519.2,1050,520.1z M1001.3,518.5c3.3,0,6.7,0,10,0
		c8-8.1,16.1-16.1,24.2-24.2h-10.2c-0.4,0.5-0.8,1.1-1.2,1.5c-4.4,4.4-8.8,8.8-13.3,13.2C1007.5,512.2,1004.4,515.3,1001.3,518.5z
		 M734.3,540.3c-3,3-6,6-9,9c-0.8,1.4-1.5,2.7-2.3,4.1c-0.6,1-1.1,2.1-1.8,3.1c-1.3,2.2-0.8,4.6,0.7,6.2c6-6,11.9-12,17.9-18
		c6.9-6.9,13.9-13.8,20.9-20.7c6.1-6.1,12.2-12.1,18.2-18.3c3.7-3.8,7.7-7.3,11.1-11.3h-10.2c-0.1,0.6-0.6,1-1,1.4
		c-6.9,6.9-13.8,13.7-20.7,20.6C750.3,524.2,742.3,532.3,734.3,540.3z M804.4,531.9c0,3.2,0,6.4,0,9.6c2.8-2.8,5.5-5.5,8.3-8.3
		c13-13,26-25.9,39-38.9c-3.4,0-6.8,0-10.2,0c0.1,0.8-0.6,1.1-1,1.6c-7.7,7.7-15.3,15.4-23,23.1C813,523.2,808.7,527.5,804.4,531.9z
		 M1062.2,528.9c0.7-0.7,1.5-1.5,2.2-2.2c8.3-8.3,16.7-16.6,25-25.1c2.4-2.4,5.1-4.5,7-7.3h-9.7c-0.2,1-1.1,1.5-1.7,2.1
		c-9.2,9.2-18.4,18.4-27.6,27.7C1059.2,525.5,1060.8,527.1,1062.2,528.9z M797.7,518.7c2.2,0.4,4.2,1.8,5.4,3.7
		c9.3-9.3,18.7-18.7,28-28c-3.4,0-6.8,0-10.2,0c-0.4,0.5-0.8,1.1-1.3,1.5c-7.6,7.6-15.2,15.1-22.7,22.7
		C797.1,518.6,797.4,518.6,797.7,518.7z M776.4,518.5c0.2,0,0.4,0,0.7-0.1c0.3,0,0.5,0,0.8,0c2.9,0,5.7,0,8.6,0
		c8-8.1,16.1-16.1,24.2-24.2c-3.4,0-6.8,0-10.2,0c-0.4,0.5-0.8,1.1-1.2,1.5c-4.4,4.4-8.8,8.8-13.3,13.2
		C782.7,512.2,779.6,515.4,776.4,518.5z M804.4,552.2c0,3.2,0,6.5,0,9.7c5.9-5.9,11.7-11.8,17.6-17.7c5.9-5.9,11.8-11.7,17.7-17.6
		c8.3-8.3,16.7-16.6,25-25.1c2.4-2.4,5.1-4.5,7-7.3h-9.7c-0.2,1-1.1,1.5-1.7,2.1C841.6,515,823,533.6,804.4,552.2z M884.8,515.9
		c2.3,0,4.6,0.1,6.9,0.3c12.6-12.5,21-20.7,22.2-22h-10.7c-2.5,2.5-10.4,10.4-21.7,21.7C882.6,515.9,883.7,515.9,884.8,515.9z
		 M852.2,524.9c5.1-3.1,10.7-5.5,16.5-7c4.7-4.8,9.5-9.5,14.2-14.3c3.1-3.1,6.4-5.9,9.1-9.3h-9.7c-0.2,0.3-0.3,0.7-0.5,1
		c-7.9,8-15.8,15.9-23.8,23.9C856.1,521.1,854.2,523,852.2,524.9z M899.6,517.6c2.6,0.6,5.1,1.4,7.6,2.4
		c8.6-8.6,17.1-17.1,25.7-25.7h-10.2c-0.4,0.5-0.8,1.1-1.2,1.5c-4.3,4.3-8.5,8.6-12.8,12.8C905.6,511.7,902.6,514.7,899.6,517.6z
		 M1241.1,554.7c0.6-0.2,0.9-0.6,1.3-1c6.8-7,13.9-13.6,20.7-20.6c8.1-8.3,16.5-16.3,24.7-24.6c1.2-1.2,2.6-2.2,3.3-3.9
		c1.8-4.4,3.8-8.7,5.6-13c0.2-0.5,2.4-3.7,1.7-4.3l-1.7,1.9c-4.5,4.5-9.7,9.8-14.2,14.2c0,0-0.1,0.1-0.1,0.1
		c-4.6,4.6-9.2,9.1-13.8,13.7c-8,8-15.9,16.1-23.9,24.1c-9.1,9.1-18.2,18.1-27.3,27.2c-3.9,3.9-7.9,7.9-11.8,11.9
		c-0.2,3.9-0.7,7.7-1.5,11.5c5.3-5.2,10.5-10.5,15.8-15.7C1226.9,569,1234,561.8,1241.1,554.7z M1189.8,582.3c2-1.6,2.9-4.8,0.7-7.4
		c-5.9,5.9-11.7,11.7-17.6,17.6c5.1-3.1,10.3-6.1,15.4-9.2C1188.8,583,1189.3,582.7,1189.8,582.3z M1301.1,465.2
		c-1.1,0.3-1.6,1.1-2.2,1.6c-10.5,10.5-20.9,20.9-31.4,31.4c-8,8-17.4,17.1-25,24.7c-13,13-26.1,26.1-39.1,39.1
		c0.1,0.3,0.2,0.6,0.2,1c0.6,2.4,1.1,4.7,1.4,7.1c0.6-0.6,1.2-1.2,1.8-1.8c7.8-7.8,15.5-15.7,23.3-23.5c4.7-4.7,9.5-9.4,14.3-14.1
		c0.6-0.2,0.9-0.7,1.2-1c6.8-6.8,13.6-13.6,20.4-20.4c11.3-11.3,22.6-22.5,33.9-33.8c0.5-0.5,0.9-0.9,0.9-1.7
		C1300.7,471,1301.6,468.2,1301.1,465.2z M1021.8,625.9c1.5-1,2.4-2.4,2.4-4.2c0-0.5,0-1.1,0-1.6c0-0.6,0-1.2,0-1.9
		c-2.6,2.6-5.2,5.3-7.9,7.9C1018.1,627,1020.2,627,1021.8,625.9z M1125.2,621c5.7-3.4,11.5-6.9,17.2-10.3c1.3-0.8,2.5-1.5,3.8-2.3
		c7.8-7.8,15.6-15.7,23.5-23.5c4.7-4.7,9.5-9.4,14.2-14.2c-1.9-1.1-3.8-2.3-5.8-3.4c-0.1-0.1-0.2-0.1-0.3-0.2
		c-14.1,14.1-28.2,28.1-42.3,42.2c-4.2,4.2-8.4,8.4-12.6,12.6c0.2,0,0.5-0.1,0.7-0.2C1124.3,621.5,1124.8,621.2,1125.2,621z
		 M1142.8,550.7c1-1,1.9-1.9,2.9-2.9c-2.1-1.3-4.2-2.5-6.4-3.8c-1.3,1.3-2.5,2.5-3.8,3.8c-6.2,6.2-12.5,12.5-18.7,18.7
		c0,3.4,0,6.7,0,10.1C1125.4,567.9,1134.1,559.3,1142.8,550.7z M1200.7,554c2-2,4-4,6-6c12.2-12.2,24.3-24.3,36.5-36.5
		c10.3-10.3,21.6-21.2,31.8-31.4c7.8-7.8,15.6-15.7,23.4-23.4c2.2-2.2,4.2-4.2,4.3-7.6c0-1.1,0.6-2.2,0.9-3.3
		c0.4-1.7,1.4-3.2,1.5-5.3c-0.5,0.5-0.8,0.7-1.1,1c-19.6,19.6-38.8,38.2-58.4,57.8c0,0,0,0,0,0c-0.8,0.7-1.5,1.5-2.3,2.2
		c-15.3,15.3-30.5,30.7-45.8,46C1198.7,549.7,1199.8,551.8,1200.7,554z M1155.6,558.3c0.9-0.9,1.9-1.9,2.8-2.8
		c-2.1-1.3-4.3-2.6-6.4-3.8c-5.8,5.8-11.6,11.5-17.3,17.3c-6,6-11.9,11.9-17.9,17.9c0,3.4,0,6.9,0,10.3
		C1129.7,584.2,1142.7,571.2,1155.6,558.3z M1177.6,526.2c2,1.3,3.9,2.8,5.7,4.3c1.5-1.5,3-3,4.4-4.5c10.2-10.2,20.5-20.5,30.7-30.7
		c-3.4,0-6.8,0-10.2,0c-0.4,0.5-0.8,1.1-1.2,1.5c-4.3,4.3-8.5,8.6-12.8,12.8C1188.6,515.2,1183.1,520.7,1177.6,526.2z M1135.9,516.3
		c7-7,14-14,21.1-21h-10.2c0.1,0.7-0.4,1-0.8,1.4c-7.5,7.5-15,14.9-22.5,22.4C1127.5,517.7,1131.6,516.8,1135.9,516.3z
		 M1216.4,507.8c-9.2,9.2-18.5,18.5-27.7,27.7c1.6,1.7,3.1,3.6,4.6,5.5c0.4-0.4,0.8-0.8,1.2-1.2c13.9-13.9,30.1-30.6,44-44.5
		l-10,0.5l-9.5,9.4l0.1,0C1218.1,506.1,1217.2,507,1216.4,507.8z M1155.6,517.1c4.8-4.8,9.6-9.6,14.4-14.4c2.4-2.4,5.1-4.5,7-7.4
		h-9.7c-0.1,0.9-0.8,1.2-1.3,1.7c-6.3,6.3-12.7,12.7-19,19C1149.8,516.1,1152.7,516.5,1155.6,517.1z M1079.8,541.9
		c-4.6,4.6-9.2,9.2-13.8,13.8c-0.3,0.7-0.6,1.4-0.9,2.1c-3.1,6.4-8,10.9-14.6,13.5c-3.7,3.7-7.3,7.3-11,11c-0.3,0.3-0.6,0.6-0.9,0.9
		c0.6,0.2,1.2,0.4,2,0.4c2.1,0.1,4.1,0.3,6.1,0.7c28.9-28.4,52.5-51.7,54.8-54c9.8-9.8,33.2-32.6,34.4-35c-3.4,0-6.8,0-10.2,0
		C1125.8,496.2,1094.7,526.9,1079.8,541.9z M1171,522.4c5.3-5.3,10.7-10.6,16-16c3.6-3.7,7.6-7.1,10.9-11.1h-10.2
		c-0.2,0.3-0.3,0.7-0.5,1c-7.7,7.7-15.4,15.5-23.1,23.2C1166.4,520.3,1168.7,521.3,1171,522.4z M1066,535.8c0.5,1.4,0.9,2.9,1.3,4.4
		c0.2,1.1,0.4,2.3,0.5,3.4c13.3-13.3,26.7-26.6,40-40c3.1-3.1,6.4-5.9,9.1-9.3h-9.7c-0.2,0.3-0.3,0.7-0.5,1
		c-7.9,8-15.8,15.9-23.8,23.9C1077.2,524.7,1071.6,530.2,1066,535.8z M1031.8,518.5c8.1-8.1,16.1-16.1,24.2-24.2h-10.2
		c-0.4,0.5-0.8,1.1-1.3,1.5c-7.6,7.6-15.1,15.1-22.7,22.7C1025.1,518.5,1028.4,518.5,1031.8,518.5z M1277.5,600.3
		c9.9-9.8,19.8-19.7,29.7-29.5c7.9-7.9,15.7-15.8,23.5-23.7c9.2-9.2,18.5-18.3,27.7-27.5c7.9-7.9,15.7-15.8,23.5-23.7
		c9.2-9.2,18.5-18.3,27.7-27.5c9.8-9.9,19.5-19.7,29.4-29.4c0.6-0.6,1.3-1.3,1.5-2c1.1-3.8,3.9-5.9,7.2-7.6c0.8-0.4,1.7-0.9,2.4-1.5
		c2.2-1.8,4.3-3.7,6.6-5.8c-2.3-1.9-3.6-3.6-4.9-6.1c-2.3,2.5-4.1,4.6-6.1,6.6c-25.6,25.6-51.2,51.3-76.9,76.9
		c-26.3,26.3-52.6,52.6-78.9,78.8c-5.6,5.6-11.1,11.1-16.6,16.7c-0.7,0.7-1.8,1.3-1.8,2.4c-0.1,2.8,0,5.5,0.1,8.8
		C1273.9,603.8,1275.7,602.1,1277.5,600.3z M1448.8,366.3c-1.2,1.2-2.3,0.5-3.4,0.2c-2.8-0.8-5.1-0.3-6.8,2.2
		c-0.2,0.3-0.5,0.6-0.9,1C1443.9,372.4,1445.7,371.3,1448.8,366.3z M1425.8,367.7c1.2-0.5,2.5,0,3.5-0.9c1.5-1.4,3.1-2.7,4.3-4.5
		c-1.5-1.1-3.2-1.7-4.9-2.1c-1.4-0.4-2.3,0-3.3,0.9c-2.7,2.8-5.5,5.5-8.2,8.2c-0.4,0.4-1.2,0.7-0.7,1.7
		C1419.6,369.9,1422.8,368.9,1425.8,367.7z M1304.5,543.5c-10,10-19.9,19.9-29.9,29.9c-1,1-2.1,1.9-2.4,3.4c-0.7,2.9-1,5.9-0.7,9.1
		c1-0.9,2.1-1.9,3.1-2.8c6.9-6.9,13.7-13.8,20.6-20.7c10.2-10.1,20.3-20.2,30.5-30.4c7.5-7.5,15-15.1,22.5-22.7
		c9.6-9.6,19.3-19.2,28.9-28.8c7.5-7.5,14.9-15,22.4-22.5c6.1-6.1,12.2-12.1,18.3-18.2c8.4-8.3,16.7-16.6,25.1-25
		c1.4-1.4,2.8-2.8,4.2-4.2c0.4-0.4,0.8-0.9,0-1.4c-2.3-1.4-7.5-0.8-9.5,1.2c-3.8,3.8-7.6,7.6-11.4,11.4
		c-10.8,10.8-21.7,21.7-32.5,32.5C1363.9,484.2,1334.2,513.8,1304.5,543.5z M1410,344.6c0.7-4.3,2.3-8.3,3.7-12.6
		c-0.4,0.4-0.9,0.7-1.3,1.1c-4.1,4.1-8.2,8.1-12.3,12.2c-4.1,4.1-8.2,8.2-12.2,12.3c-0.5,0.5-1.3,0.8-1,1.8c0.8,2.1,1.2,4.2,2.4,6.7
		c6.5-6.7,12.8-13,19.1-19.5C1409.1,346,1409.9,345.5,1410,344.6z M1419.4,595.9c-2.8,0-4.9,1.3-6.4,3.7c1.4,1,2.6,1.8,3.8,2.7
		c0.7,0.5,1.3,0.5,2-0.2c1.9-2,4-3.9,6.4-6.2C1422.8,596,1421.1,596,1419.4,595.9z M1401.1,374.4c2.7-2.7,5.3-5.4,8-8.1
		c2.5-2.4,4.9-4.9,7.8-7.6c-2.3-0.6-3.9-1.6-5.1-3.1c-0.5-0.7-1.1-0.5-1.7,0.1c-5.2,5.1-10.3,10.2-15.2,15c1.2,1.5,2,2.7,3,3.7
		C1399.3,375.9,1399.6,375.9,1401.1,374.4z M1474.9,414.3c-1,1.1-2.1,2.1-3.2,3.2c-3.4,3.3-6.7,6.6-10.5,10.2c2.6,1,4.7,1.6,6.1,3.8
		c12.8-12.8,25.5-25.4,38.2-38.3c-1.8-0.8-3.3-1.2-4.5-1.9c-1.9-1.1-3-0.2-4.1,0.9c-3.7,3.7-7.3,7.4-11,11c-1.4,1.3-2,2.7-1.9,4.7
		c0.2,3-0.4,3.4-3.3,3.7C1478.4,411.9,1476.4,412.7,1474.9,414.3z M1444.7,547.7c6.5-0.2,12.2-1.9,16.4-7.9c-3,0-5.7,0-8.4,0
		c-0.5,0-0.9,0.2-1.3,0.5c-2.4,2.3-4.7,4.5-7.1,6.8C1444.4,547.3,1444.5,547.5,1444.7,547.7z M1448.4,466.9c0.6,0.4,0.9,1.3,1.3,1.3
		c23.3-23.3,46.4-46.4,69.6-69.6c-1.2-0.3-2.4-0.4-3.4-0.9c-2.1-1.3-3.4-0.2-4.8,1.2c-7.6,7.7-15.2,15.3-22.8,22.9
		c-13.4,13.3-26.8,26.6-40.2,40C1445.4,464.5,1445.3,464.5,1448.4,466.9z M1453.4,522.1c3.7,1.5,3.9,1.3,6.4-1.6
		c0.7-0.8,0.5-1.3,0-1.9c-1.1-1.3-2.2-2.6-3.5-4.1c-2.1,2.1-4.2,3.9-5.8,5.9c0.1,0.6,0.5,0.7,0.8,0.8
		C1452.1,521.5,1452.7,521.8,1453.4,522.1z M1509.6,358.8c-2.7,2.7-5.4,5.5-8.2,8.2c-1,1-1.1,2-0.5,3c0.4,0.7,1,1.4,1.6,2
		c1.3,1.2,2.4,1.1,3.7-0.2c2.8-2.7,5.5-5.4,7.7-8.7c3-4.6,6.2-9.1,9.3-13.6c1.4-2,2.5-4.2,3.2-6.6l0,0c0.4-0.3,0.5-0.6,0.1-0.9
		c-0.1-0.1-0.4,0.3-0.4,0.6c-0.4,0-0.7,0.2-1,0.5C1520,348.3,1514.8,353.5,1509.6,358.8z M1486.9,370.7c0.6-0.2,0.7-0.8,0.7-1.4
		c0-0.7-0.3-1.2-0.6-1.8c-2.1-3.8-2.7-3.9-5.7-0.5c1.5,1.2,3.2,1.9,4.4,3.2C1486,370.6,1486.4,370.9,1486.9,370.7z M1465.4,363
		c-1.1,0.2-1.9,0.7-2.7,1.4c-3,3-5.9,6-9.2,9.4c7.5-1.1,18.3-7.4,20.5-11.8C1471,361.7,1468.2,362.4,1465.4,363z M539,571.3
		c0,3.4,0,6.7,0,10.1c7.1-7.1,14.3-14.3,21.4-21.5c0.7-2.9,3-5.1,5.9-5.9c3.4-3.4,6.8-6.8,10.2-10.1c-2.1-1.2-3.9-2.8-5.3-4.8
		c-6.3,6.3-12.6,12.6-18.9,18.9C547.9,562.4,543.4,566.9,539,571.3z M1612.3,482c-26.8,26.8-53.5,53.4-80.2,80.2
		c1.8,0.8,3.4,0.9,4.9,1.6c2,1.1,2,1,3.7-0.6c20.6-20.6,41.2-41.2,61.8-61.8c4-4,8-8,12-12.1c0.5-0.5,1.3-0.8,0.7-1.9
		C1614.3,485.7,1613.4,484,1612.3,482z M1626.7,507.9c-9.8,9.8-19.6,19.7-29.4,29.5c-8.1,8.1-16.3,16.3-24.4,24.4
		c-5.9,5.9-11.7,11.8-17.6,17.6c-2.6,2.6-2.7,2.5-0.6,5.4c2,2.7,2,2.7,4.3,0.4c18.2-18.2,36.4-36.4,54.6-54.6
		c5.6-5.6,11.1-11.1,16.6-16.7c0.6-0.6,1.4-1,1.4-2c-0.5-1.6-1.7-2.6-2.5-3.8C1628.1,506.6,1628,506.6,1626.7,507.9z M1634.4,521.2
		c-18.7,18.7-37.5,37.5-56.2,56.2c-4.9,4.9-9.8,9.8-14.7,14.6c-0.9,0.9-1.6,1.7-0.7,2.9c1.1,1.5,1.6,3.2,2.4,5
		c5.7-5.6,11.3-11.1,16.8-16.6c8.5-8.5,17-16.9,25.4-25.4c9.9-9.9,19.7-19.7,29.6-29.6c2.9-2.9,3-2.9,1-6.6
		C1636.6,519,1636.6,519,1634.4,521.2z M1620.3,496.7c-0.6-0.8-1.2-0.8-1.9-0.1c-0.7,0.7-1.4,1.6-2.1,2.3
		c-8.4,8.4-16.9,16.9-25.3,25.3c-9.3,9.3-18.6,18.6-27.9,27.9c-5.4,5.4-10.8,10.8-16.3,16.3c-1.5,1.6-1.6,1.6-0.2,3.4
		c0.7,0.9,1.1,2,2.8,3c2.4-2.6,4.7-5.2,7.2-7.7c21.1-21.2,42.2-42.3,63.3-63.4c3.2-3.2,3.2-3.2,0.5-6.7
		C1620.4,496.8,1620.3,496.7,1620.3,496.7z M1466.5,472.1c-0.7-3.9,0.7-7.2,2.3-10.7c-4.7,4-8.9,8.5-13.2,12.8
		c-0.4,0.4-0.7,1-0.4,1.5c0.7,2,1.4,4,2.4,6.6c3-3.2,5.7-6,8.4-8.8C1466.2,473.1,1466.6,472.7,1466.5,472.1z M1423.3,249.3
		c-1.7,0.5-3,0.8-4.2,1.2c-5.6,2.3-11.2,4.7-15.5,9.1c-8,8-15.8,16.1-23.9,23.9c-2.7,2.7-4.1,5.8-4.9,9.3c-0.4,1.7-1.1,3.4-0.4,5.2
		C1390.6,281.9,1406.8,265.7,1423.3,249.3z M1566.9,618.5c0.8-0.7,1.2-1.1,1.6-1.4c4.6-4.5,9.1-9,13.7-13.6
		c17.6-17.6,35.1-35.2,52.7-52.8c3.5-3.5,7.1-7.1,10.6-10.6c0.7-0.6,1.3-1.2,0.8-2.2c-1-1.7-1.7-3.5-3-5.1c-0.4,0.3-0.6,0.4-0.8,0.6
		c-6.1,6.2-12.2,12.4-18.3,18.5c-10.4,10.4-20.9,20.8-31.4,31.1c-7.7,7.7-15.3,15.4-23.1,23c-1.7,1.7-3.1,3.3-2.4,6
		c0.2,0.8,0.2,1.7-0.2,2.5C1566.6,615.7,1566.8,616.8,1566.9,618.5z M1373.8,319.7c24-24.1,47.8-47.9,71.7-71.9
		c-2.4-1.2-4.6-0.3-6.5-1c-1.4-0.5-2.3,0.1-3.2,1c-9.4,9.5-18.9,19.1-28.4,28.6c-9.5,9.6-19.1,19.1-28.6,28.7
		c-1.8,1.8-4.4,3.2-5.1,5.6c-0.7,2.5-0.2,5.3-0.2,7.9C1373.6,318.8,1373.6,319,1373.8,319.7z M1596.1,436.4
		c-0.3,0.2-0.7,0.4-0.9,0.7c-5.2,5.1-10.4,10.2-15.5,15.3c-11.2,11.2-22.3,22.5-33.5,33.7c-6.7,6.7-13.4,13.3-20.1,20
		c-8.4,8.3-16.7,16.7-25.1,25c-2.1,2.1-4.1,4.2-6.1,6.3c-0.6,0.6-0.9,1.3-0.3,1.7c1.5,1.1,2.3,3,4,4.1c2.7-2.7,5.4-5.4,8.1-8
		c12.2-12.1,24.4-24.3,36.6-36.5c9.4-9.4,18.7-18.8,28.1-28.1c8.1-8.1,16.2-16.2,24.2-24.3c1.2-1.2,3.3-2.2,3.3-4
		c0-1.8-1.2-3.5-2.1-5.2C1596.7,436.7,1596.4,436.6,1596.1,436.4z M1601.4,451.2c-1.1,1.3-1.9,2.3-2.7,3.2
		c-27.6,27.6-55.1,55.2-82.7,82.8c-4.4,4.4-8.9,8.8-13.3,13.2c-0.6,0.6-1.7,1.1-1.3,2.3c0.8,2,1.1,4.1,2.5,5.8
		c0.4-0.2,0.7-0.4,0.8-0.6c7.6-7.6,15.1-15.3,22.7-22.9c9.6-9.6,19.3-19.2,28.9-28.8c11.8-11.8,23.6-23.7,35.4-35.5
		c3.5-3.5,7.1-7,10.7-10.5c1.1-1.1,2-2.1,0.9-3.9C1602.5,455.1,1602.2,453.4,1601.4,451.2z M1482.2,558.9c0,0-0.3,0.1-0.4,0.3
		c-0.1,0.1-0.1,0.2-0.1,0.3c-1.3-0.5-2.3,0.6-3.2,1.2c-2.5,1.6-5.1,2.7-8.1,2.9c-1.4,0.1-2.6,0.9-3.7,1.9c-2.6,2.7-5.4,5.3-8,7.9
		c-0.4,0.4-0.9,0.7-0.5,1.4c3.4-0.8,6.8-1.5,10.2-2.3c1.2-0.3,2-1,2.8-1.9c3.7-3.7,7.4-7.3,11.1-11l0.1,0c0,0-0.1,0-0.1-0.1
		C1482.2,559.4,1482.6,559.2,1482.2,558.9z M1589.5,423.2c-0.7,0.6-1,0.9-1.4,1.2c-7.6,7.6-15.2,15.3-22.8,22.9
		c-8.6,8.6-17.3,17.2-25.9,25.9c-8.4,8.4-16.8,16.9-25.3,25.3c-10,10-20.1,20.1-30.1,30.1c-3.2,3.2-3.2,3.2,0.7,5.1
		c1.2,0.6,2.2,0.9,3.1-0.5c0.3-0.5,0.8-0.8,1.2-1.2c17.9-17.9,35.8-35.8,53.7-53.7c15.6-15.6,31.1-31.1,46.7-46.7
		c3.4-3.4,3.4-3.4,0.7-7.5C1590,423.9,1589.8,423.7,1589.5,423.2z M1494,562.7c0.4-0.8,0.2-1.4-0.5-2c-0.8-0.7-1.2,0-1.6,0.5
		c-2.4,2.5-4.9,4.9-7.3,7.4c3.5-0.4,6.2-2.3,8.7-4.6C1493.6,563.6,1493.8,563.1,1494,562.7z M1607.4,466.7c-0.8,0-1.1,0.4-1.4,0.7
		c-10.3,10.4-20.6,20.8-30.9,31.1c-11.5,11.5-23,22.9-34.5,34.3c-6,6-12,12-18,18c-5.4,5.4-10.7,10.9-16.2,16.3
		c-0.6,0.6-1.2,1.3-1.2,2.2c-0.1,3.3-1.4,6.2-2.3,9.2c-0.5,0.9-0.9,1.8-1.7,2.6c-2.4,2.5-5,4.4-8.6,4.9c-3.2,0.5-6,2-8.5,4.2
		c3.4-0.2,6.6-1.7,10-1.7c0.6,0,1-0.5,1.4-0.9c2.6-2.7,5.2-5.4,7.9-8.1c0.6-0.5,1.2-1,1.7-1.5c8.6-8.6,17.2-17.2,25.9-25.8
		c18.7-18.7,37.4-37.4,56.1-56.1c6.8-6.8,13.6-13.6,20.4-20.4c0.6-0.6,1.6-1.1,1.4-2C1608.3,471.3,1608.3,468.8,1607.4,466.7z
		 M1484.6,568.7l0-0.2c0,0,0,0,0,0c0,0,0,0,0,0l0,0c0,0,0,0,0,0c0,0,0,0,0,0C1484.5,568.6,1484.6,568.7,1484.6,568.7z M1428.5,572.7
		c1.6-1.9,3.7-3.4,5.3-5.8c-2.1-0.9-4.1-1.7-5.2-3.5c-4.2,4.2-8.4,8.4-12.6,12.6c1.7,1.5,3.9,1.1,5.8,1.3c1.3,0.2,2.3-0.2,3.2-1.3
		C1426.2,574.8,1427.5,573.9,1428.5,572.7z M1171.2,563.1c-2.1-1.2-4.2-2.5-6.3-3.7c-13.7,13.7-27.4,27.3-41,40.9
		c-2.4,2.4-4.7,4.7-7.1,7.1c0,2.6,0,5.1,0,7.7c0,0.5,0,1,0,1.5c0,0.3,0,0.6,0.1,0.8c11.3-11.3,22.6-22.6,33.9-33.9
		C1157.6,576.7,1164.4,569.9,1171.2,563.1z M1407.7,399.5c-8.7,8.8-17.3,17.4-25.9,26c-11.7,11.8-23.5,23.5-35.2,35.2
		c-9.7,9.8-19.4,19.5-29.2,29.3c-0.8,0.8-1.4,1.8-1.8,2.8c-1.4,3.2-2.7,6.4-4.1,9.6c-0.5,1-1.2,1.9-1.3,2.8
		c34-34,68.1-68.1,102.3-102.3C1410.6,402.5,1409.5,400.8,1407.7,399.5z M1297.5,529.8c-4.2,5.5-8.6,10.8-12.2,16.7
		c-1.3,2.1-2.6,4.1-2.9,6.7c0.2,0.2,0.3,0.3,0.5,0.5c5.7-5.6,11.4-11.1,17-16.7c9.2-9.2,18.2-18.4,27.4-27.6
		c12.2-12.2,24.4-24.3,36.6-36.5c9.2-9.2,18.4-18.5,27.6-27.8c10.2-10.2,20.3-20.4,30.5-30.5c2-2,1.9-2-0.3-3.4
		c-0.6-0.4-1.3-0.8-1.8-1.4c-0.9-1.2-1.6-1.1-2.7,0c-5,5-10.1,10-15.1,14.9c-9.2,9.1-18.3,18.3-27.4,27.4
		c-11.2,11.2-22.3,22.5-33.5,33.7c-6.2,6.2-12.4,12.4-18.6,18.6c-5.3,5.3-10.6,10.5-15.9,15.7
		C1303.6,523.4,1300.2,526.3,1297.5,529.8z M1400.3,395.6c-3.7,1.1-6.9,2.1-10.1,2.9c-1.8,0.4-3.3,1.1-4.6,2.4
		c-18.6,18.6-37.2,37.2-55.8,55.8c-1.1,1.1-1.8,2.3-2,3.9c-0.3,2.8-1.3,5.4-2.7,8c-0.7,1.2-1.7,2.5-1.7,4
		C1348.9,447,1374.5,421.5,1400.3,395.6z M1475.7,249.2c-14.2,14.2-28.4,28.3-42.6,42.5c-16.3,16.3-32.6,32.7-48.9,49
		c-1.4,1.4-4,2.6-3.9,4.5c0.1,1.8,1.9,3.6,3.2,5.7c33.6-33.6,67-67,100.6-100.6c-2-0.7-3.6-1-4.9-1.9
		C1477.7,247.5,1476.8,248,1475.7,249.2z M1464.6,243.7c-2.3-0.1-4.3,0.5-5.9,2.1c-9.3,9.2-18.5,18.4-27.7,27.7
		c-14.4,14.4-28.7,28.8-43.1,43.2c-4,4-8,8-12,12c-0.6,0.6-1.4,1.1-1,2.1c0.7,1.9,0.5,3.9,1.4,5.9c0.7,0,1.1-0.4,1.4-0.7
		c15.2-15.2,30.3-30.4,45.5-45.5c14.4-14.4,28.8-28.8,43.2-43.2c0.9-0.9,2.9-1.8,2.3-3.1C1468,242.9,1466,243.8,1464.6,243.7z
		 M1372.2,402.8c-3.1,0.1-5.9,1.3-8.8,1.9c-1.9,0.4-3.5,1.3-4.9,2.7c-8.3,8.3-16.6,16.6-24.9,24.8c-0.5,0.5-1.1,0.9-1.3,1.5
		c-1.2,4-2.4,8-3.5,12.1c0.2,0.1,0.3,0.2,0.5,0.4C1343.7,431.8,1358,417.4,1372.2,402.8z M1496.7,256.4c-0.7-0.5-1.4-1-2.1-1.5
		c-2.4-1.7-2.4-1.7-4.4,0.3c-0.1,0.1-0.1,0.1-0.2,0.2c-4.7,5.2-9.8,10-14.8,14.9c-7.2,7.2-14.5,14.4-21.7,21.6
		c-8.4,8.4-16.8,16.9-25.3,25.3c-1.9,1.9-3.7,3.9-5.7,6c0.4,0.1,0.6,0.2,0.7,0.2c3.7-1.5,7.4-2.8,11.4-3.4c0.8-0.1,1.3-0.7,1.8-1.2
		c4.7-4.8,9.4-9.5,14.2-14.3c5.3-5.3,10.6-10.5,15.9-15.7c8.4-8.4,16.8-16.8,25.2-25.2c1.9-2,4.2-3.7,5.8-6.1
		C1497.2,256.9,1497,256.6,1496.7,256.4z M486.9,551.4c-2.1,0.2-3.9,1.7-4.6,3.8c-0.1,0.3-0.2,0.6-0.2,1
		C483.8,554.5,485.4,553,486.9,551.4z M1081.9,590.5c-0.2-1.1-0.4-2.1-0.6-3.2c-0.3-1.8-0.5-3.5-0.5-5.3c-3.8,3.8-7.7,7.7-11.5,11.5
		c-1.5,1.5-3.1,3.1-4.6,4.6c0.5,1,1,2.1,1.4,3.2c0.5,1.3,0.9,2.5,1.1,3.8c2.5-2.5,5.1-5.1,7.6-7.6
		C1077.2,595.2,1079.6,592.9,1081.9,590.5z M518.5,601.9c-1.2-2.2-2.4-4.3-3.6-6.5c-10.2,10.2-20.3,20.3-30.5,30.5
		c1.4,0.9,3.2,1.2,4.9,0.4c0.8-0.4,1.6-0.8,2.4-1.3c3.1-1.8,6.1-3.6,9.2-5.5c2.9-2.9,5.9-5.9,8.8-8.8
		C512.6,607.7,515.6,604.8,518.5,601.9z M489,569.7c2.5-2.5,5-5,7.5-7.4c-1.2-2.2-2.4-4.4-3.6-6.6c-0.6,0.6-1.2,1.2-1.8,1.8
		c-3,3-5.9,5.9-8.9,8.9c0,3.4,0,6.7,0,10.1C484.4,574.3,486.7,572,489,569.7z M885.7,602.7c11.7-11.6,23.4-23.2,35-34.9
		c-0.5-0.3-0.9-0.6-1.4-0.8c-1.6-0.9-3.1-1.9-4.7-2.8c-2.5,2.5-5,5-7.5,7.5c-16,16-32,31.9-48,47.9c0.1,0.2,0.3,0.4,0.4,0.5
		c1.8,2,4.2,2.4,6.5,1.2c0.8-0.4,1.6-0.9,2.3-1.4C874.2,614.2,880,608.5,885.7,602.7z M733.4,632.8c4.8-4.7,9.6-9.5,14.3-14.2
		c6.5-6.4,12.8-13,19.3-19.4c-0.4-0.7-0.8-1.3-1.2-2c-0.6-1-1.1-2-2-2.8c-0.3-0.3-0.6-0.5-0.9-0.8c-9.6,9.6-19.3,19.3-28.9,28.9
		c0,2.1,0,4.2,0,6.3c0,0.9,0,1.7-0.2,2.6C733.7,631.9,733.6,632.4,733.4,632.8z M622.1,590.7c-2.9,2.9-5.7,5.7-8.6,8.6
		c-4.2,4.2-8.4,8.4-12.5,12.5c0,3.4,0,6.7,0,10.1c7-7,14.1-14.1,21.1-21.1C622.1,597.4,622.1,594,622.1,590.7z M1449.4,605.7
		c6.3-1,12.1-3,16-8.5c0.3-0.4,0.7-0.6,1.1-0.9c0.3-0.3,0.5-0.6,0.2-1.2c-2.4-0.1-4.9-0.2-7.4-0.3c-0.7,0-1.2,0.3-1.7,0.8
		c-3.5,3.3-6.9,6.7-10.7,10.4C1448.2,606.3,1448.7,605.8,1449.4,605.7z M1456.6,564.3c0.4-0.4,1.1-0.7,0.9-1.8c-2.3,0-4.7,0-7,0
		c-0.9,0-1.3,0.6-1.9,1.1c-3.5,3.5-7,6.8-10.4,10.4c-1,1-2.4,1.8-3,3.6c2.8,0.3,5.2-0.4,7.6-0.4c1,0,1.5-0.7,2.1-1.3
		C1448.9,572.1,1452.8,568.2,1456.6,564.3z M1465.7,492.1c0.8,0.9,1.6,0.9,2.4,0.1c1.5-1.5,3.1-3.1,4.6-4.6c0.7-0.7,0.8-1.4,0.4-2.3
		c-0.7-1.7-1.6-3.4-2.9-4.9c-2.8,2.9-5.6,5.6-8.6,8.7C1463.3,489.9,1464.6,490.9,1465.7,492.1z M1579.8,414.3
		c-0.9-0.8-1.7-0.8-2.6,0.3c-2.3,2.5-4.7,4.9-7.2,7.2c-6.1,6.1-12.3,12.3-18.4,18.4c-8.1,8.1-16.1,16.2-24.2,24.2
		c-8.2,8.2-16.5,16.3-24.7,24.5c-9.6,9.6-19.2,19.2-28.8,28.9c-2.3,2.3-4.8,4.5-6.9,7.2c1.6,0.6,3,1.2,4.3,1.7
		c2.3,0.9,2.3,0.9,4-0.7c31.9-31.9,63.7-63.7,95.6-95.6c4.3-4.3,8.6-8.5,12.9-12.7C1582.9,415.8,1581.1,415.3,1579.8,414.3z
		 M1435.5,606.4c1.7-2,3.7-3.8,5.6-5.7c1.5-1.5,3-3,4.6-4.5c-0.1-0.2-0.2-0.4-0.3-0.5c-2.8,0-5.8-0.5-8.4,0.2
		c-2.1,0.6-3.5,3-5.1,4.7c-0.1,0.1-0.3,0.2-0.4,0.3c-1.7,2-3.9,3.5-5.4,5.7c1.8,1,3.6,1,5.3,1.4
		C1432.9,608.2,1434.3,607.8,1435.5,606.4z M1432,518.5L1432,518.5c0,0,0,0.1,0.1,0.1c0,0.2,0,0.4,0.3,0.1c0.6,0.2,1.1-0.2,1.7-0.3
		c2.3-0.6,4.5-1.6,6.9-1.3c1.5,0.2,2.5-0.3,3.4-1.2c2.2-2.3,4.5-4.5,6.7-6.8c0.4-0.4,1-0.8,0.7-1.4c-0.8-1.3-1.9-2.4-3.4-2.7
		c-1.2-0.3-2.3-0.5-3.5,0.8C1440.6,510.1,1436.3,514.2,1432,518.5z M1561.2,409.7c-2.3,2.4-4.7,4.7-7,7c-7.3,7.4-14.6,14.8-22,22.1
		c-9.7,9.7-19.5,19.4-29.3,29.2c-7.6,7.5-15.1,15.1-22.6,22.6c-2.9,2.9-6.1,5.7-8.7,8.9c0.9,1.3,2.2,1.8,3.4,2.6
		c2,1.3,2,1.3,3.7-0.2c0.3-0.3,0.5-0.5,0.8-0.8c8.6-8.6,17.1-17.1,25.7-25.7c17.7-17.7,35.4-35.4,53.1-53.1c4-4,8-8,12.2-12.3
		c-1.9-0.5-3.4-0.9-4.8-1.4C1563.9,407.9,1562.5,408.3,1561.2,409.7z M1423.3,547.4c-0.8,1-0.6,1.7,0.4,1.8c2.6,0.1,5.6,0.3,7.8-0.8
		c2.5-1.3,4.5-3.8,6.2-6.4c-1.7,0.4-3.4,0.6-5,0.7C1428.9,542.7,1425.7,544.3,1423.3,547.4z M1502.2,263.6c-0.7,0.8-1.5,1.4-2.2,2.2
		c-5,5.1-10,10.3-15.1,15.4c-10.7,10.7-21.5,21.3-32.2,31.9c-1.4,1.4-2.7,2.8-4.2,4.4c3.1,0,5.7,0,8.3,0c0.7,0,1.3-0.2,1.8-0.7
		c1-0.9,2-1.7,2.9-2.7c6.3-6.3,12.6-12.5,18.9-18.8c9.5-9.6,19-19.2,28.9-29.1c-2.2-0.7-4-1.5-5.6-2.7
		C1503.1,263,1502.6,263.1,1502.2,263.6z M1543.8,406.6c-9.4,9.5-18.8,18.9-28.3,28.4c-8.6,8.6-17.1,17.1-25.7,25.7
		c-1.1,1.1-1.8,2.2-2,3.9c-0.3,2.5-0.6,5-1.8,7.4c-0.2,0.5-0.2,1.1,0.2,2c22.4-22.4,44.7-44.7,67.1-67c-1.1-1.2-2.6-0.9-3.7-1.5
		C1547.2,404.1,1545.6,404.8,1543.8,406.6z M1522.2,304.9c-7,7-14,14-21,21c-3.7,3.7-7.3,7.6-11.2,11.2c-0.6,0.5-1.5,1.2-1.1,2.1
		c0.8,2,1.3,4.1,2.8,5.7c5.1-5,10.1-10,15.1-15c6.8-6.7,13.5-13.5,20.3-20.3c0.5-0.5,1.4-0.9,1.4-1.7c0-2.7-0.2-5.3-0.9-8.3
		C1525.6,301.6,1523.9,303.2,1522.2,304.9z M1514.9,271.8c-16,16-31.9,31.9-48.2,48.3c1.8,0.9,3.2,1.4,4.5,2.2
		c1.5,0.8,2.5,0.5,3.7-0.7c12.9-12.9,25.8-25.8,38.7-38.8c1.5-1.5,3.8-2.7,4-4.6c0.1-1.9-1.3-3.8-2.1-5.7
		C1515.4,272.3,1515.2,272.2,1514.9,271.8z M1522,286c-0.9,0.2-1.4,0.9-2,1.5c-2,2-4,4-6,6c-10.1,10.1-20.2,20.2-30.3,30.2
		c-2.7,2.7-2.7,2.7-0.2,5.5c0.4,0.5,0.6,1.2,1.4,1.4c0.4-0.1,0.7-0.3,0.9-0.6c12-12,24.1-24,36.1-36c3.7-3.7,3.7-3.7,0.3-7.9
		C1522.2,286.1,1522.1,286.1,1522,286z M1528.1,319.9c-7.7,7.8-15.5,15.5-23.2,23.3c-2.7,2.7-5.5,5.4-8.2,8.2
		c-0.6,0.6-1.6,1.1-1.1,2.1c1,1.9,0.9,4.2,2.2,6.1c6-5.9,11.8-11.7,17.6-17.4c4.3-4.3,8.7-8.6,13-13c0.6-0.6,1.5-1.2,1.6-1.9
		c0.2-2.8,0.8-5.7-0.2-8.8C1529.1,319,1528.6,319.5,1528.1,319.9z M1528.4,401.2c-4.3,4.4-8.7,8.7-13,13c-7.5,7.5-14.9,15-22.3,22.5
		c-3.4,3.5-7.2,6.7-10.3,10.5c0,0,0,0,0,0c-0.2,0.2-0.8,0.2-0.3,0.7c0.2,0.2,0.5,0,0.5-0.4c0.8,0.2,1.5-0.4,2.1-0.7
		c2.4-1.1,4.5-1.5,6,1.3c6-5.2,44.9-44.6,45.8-46.4c-2-1.1-4.2-1-6.3-1.4C1529.8,400.1,1529,400.5,1528.4,401.2z M276.7,618.6
		c7.6-7.6,15.1-15.3,22.7-22.9c9.5-9.5,19-18.9,28.5-28.3c7.7-7.7,15.3-15.4,22.9-23.1c5.9-5.9,11.8-11.7,17.7-17.6
		c8.3-8.3,16.7-16.6,25-25.1c2.2-2.2,4.7-4.2,6.5-6.7c0.1-0.2,0.3-0.4,0.4-0.6h-9.7c0,0.2-0.1,0.4-0.2,0.6c-0.4,0.6-1,1-1.5,1.5
		c-25.5,25.5-51,51-76.5,76.5c-25.6,25.6-51.2,51.3-76.9,76.9c-10.2,10.2-20.5,20.5-30.7,30.7h9.7c11.1-11.1,22.1-22.2,33.2-33.3
		C257.5,637.6,267.1,628.1,276.7,618.6z M1440.3,622.3c0.8-0.8,1.5-1.7,2.6-2.8c-3,1-5.7,0.5-8.3,0.8c-1.5,0.2-2.6,0.7-3.6,1.7
		c-5.2,5.2-10.5,10.4-15.7,15.6c-10,10-20,20.1-30,30.1c-4.2,4.2-8.4,8.4-12.6,12.6h9.5c9.3-9.3,18.5-18.5,27.8-27.7
		C1420,642.6,1430.2,632.4,1440.3,622.3z M1421.1,620.6c0.6-0.6,1.4-0.9,1.3-2.1c-1.4-0.3-2.8-0.6-4.1-1c-2.3-0.8-3.9,0-5.5,1.6
		c-6.8,7-13.6,13.8-20.5,20.7c-5.9,5.9-11.8,11.6-17.7,17.5c-5.5,5.6-11,11.1-16.6,16.6c-2.2,2.1-4.3,4.3-6.3,6.5h9.5
		c5.8-5.8,11.5-11.5,17.3-17.3C1392.8,649,1406.9,634.8,1421.1,620.6z M1449,633.8c4.1-4,8-8.3,12.3-12.1c1.8-1.6,3.8-3.2,5.3-5.8
		c-3.2,0.6-6.1,1.3-9,1.6c-1.5,0.2-2.6,0.7-3.7,1.8c-15.2,15.2-30.4,30.4-45.5,45.5c-5.2,5.2-10.4,10.4-15.6,15.7h9.4
		c9.4-9.4,18.8-18.8,28.2-28.2C1436.7,646.1,1442.7,639.9,1449,633.8z M1329.3,631c0.4-0.4,1-0.8,1-1.4c0-2.9,0-5.7,0-8.7
		c-1.2,0.5-1.7,1.2-2.3,1.8c-15,15-30,30-45,45c-4.3,4.3-8.6,8.5-12.8,12.8h9.5c9.5-9.5,18.9-18.9,28.4-28.3
		C1315.1,645.1,1322.2,638,1329.3,631z M1405.1,615.8c-1.8-0.5-3.3-1-4.7-1.8c-1.1-0.7-1.9-0.3-2.7,0.5
		c-9.6,9.7-19.2,19.3-28.8,28.9c-8.2,8.2-16.5,16.4-24.7,24.6c-4.1,4.1-8.2,8.3-12.3,12.4h8.6c3.6-3.6,7.3-7.3,10.9-10.9
		c15.9-15.9,31.8-31.8,47.7-47.7C1401.1,619.9,1403,617.9,1405.1,615.8z M1340.7,639.8c0.3-0.3,0.6-0.7,0.3-1.4
		c-0.7,0-1.4-0.1-2.1-0.1c-0.9,0.1-1.6-0.4-2.4-0.7c-2.3-1-2.3-1-4.1,0.8c-8.8,8.8-17.6,17.6-26.5,26.5
		c-5.2,5.2-10.4,10.4-15.6,15.6h9.5c6.9-6.9,13.8-13.9,20.8-20.8C1327.3,653,1334,646.4,1340.7,639.8z M1504.2,599.6
		c5.6-5.6,11.2-11.3,16.9-16.9c0.6-0.6,1.4-1.1,1.2-2.1c-0.3-2.4-0.4-4.8-0.9-7.1c-0.5-0.1-0.8,0-1,0.2
		c-5.7,5.7-11.5,11.5-17.2,17.2c-0.8,0.8-1,1.5-0.7,2.5c0.7,2.1,0.1,4-1.4,5.5c-3.5,3.4-7.1,6.7-11.7,8.6c-3,1.3-6,2.8-8.1,5.4
		c-0.7,1-1.7,1.8-2.6,2.6c-6.8,6.7-13.6,13.4-20.3,20.1c-8,8-16.1,16-24.1,24.1c-6.9,6.9-13.8,13.8-20.6,20.7h9.6
		c2.9-2.8,5.6-5.7,8.4-8.6c10.2-10.1,20.4-20.2,30.6-30.3C1476.3,627.6,1490.2,613.6,1504.2,599.6z M1362.2,639c1-1,2.4-1.8,3-3.5
		c-4.6-1.1-8.5-1-12.1,2.9c-6.9,7.4-14.2,14.4-21.4,21.5c-6.9,6.9-13.7,13.7-20.6,20.6h9.6c2.9-2.8,5.6-5.7,8.4-8.5
		C1340.2,660.9,1351.2,650,1362.2,639z M1639.7,680.5h8.4c5-5,10-10,15-15V657c-3.5,3.6-7.1,7.1-10.6,10.7
		C1648.2,671.9,1643.9,676.2,1639.7,680.5z M1625.2,674c-2.1,2.1-4.2,4.3-6.3,6.5h8.4c9.4-9.5,18.9-18.9,28.3-28.4
		c2.5-2.5,5-5,7.5-7.5v-8.4c-6.5,6.5-13,12.9-19.5,19.4C1637.4,661.7,1631.3,667.8,1625.2,674z M736.7,526.4c0,0.2,0,0.5,0,0.7
		c0.1-0.1,0.3-0.3,0.4-0.4c8.4-8.3,16.7-16.6,25-25.1c2.4-2.4,5.1-4.5,7-7.4h-9.7c-0.1,0.9-0.8,1.2-1.3,1.7
		c-8.1,8.1-16.2,16.3-24.4,24.4C735.4,521.9,736.5,524,736.7,526.4z M1521.9,601.6c0.6-0.6,1.4-1,1.4-2c0-2.3,0-4.6,0-7.6
		c-2.9,2.7-5.3,4.9-7.6,7.2c-9.1,9.1-18.1,18.3-27.2,27.3c-9.8,9.7-19.5,19.6-29.4,29.2c-8.4,8.1-16.6,16.4-24.8,24.7h8.8
		c0,0,0.1-0.1,0.1-0.1c21.2-21.3,42.4-42.5,63.7-63.8C1511.9,611.6,1516.9,606.6,1521.9,601.6z M1545.2,640.2
		c-0.7-0.3-1.2,0-1.6,0.1c-1.9,0.4-2,0.4-2.1-1.7c-0.1-1.2,0.3-2.4-0.3-3.5c-0.9,0.2-1.3,0.8-1.7,1.2c-6.1,6.1-12.1,12.2-18.2,18.3
		c-8.6,8.6-17.3,17.2-25.9,25.8h9.6c11-11,22-22,33.1-33C1540.5,645.1,1542.8,642.7,1545.2,640.2z M1513.3,631
		c0.7-0.7,1.9-1.3,1.5-2.5c-0.7-2.2-0.2-4.3,0-6.4c0.4-1,0.9-2,1.3-3c-0.1-0.1-0.2-0.1-0.3-0.2c-0.5,0.6-1,1.2-1.6,1.8
		c-0.2,0.1-0.4,0.3-0.7,0.4c0,0,0.1-0.1,0.1-0.1c-0.2,0.2-0.3,0.5-0.5,0.7c-6.1,6.1-12.2,12.3-18.4,18.4
		c-5.8,5.8-11.7,11.5-17.4,17.3c-5.6,5.6-11.1,11.2-16.8,16.8c-2.2,2.1-4.2,4.3-6.3,6.4h9.6c0.9-0.9,1.8-1.7,2.7-2.6
		c9.2-9.2,18.4-18.5,27.6-27.7C1500.5,643.8,1506.9,637.4,1513.3,631z M1529.5,635.5c-2.6-0.4-4.6,0.1-6.6-0.1
		c-2.2-0.2-3.5,0.7-4.9,2.2c-9.9,10-19.9,20-29.9,29.9c-4.3,4.3-8.7,8.7-13,13h9.5c3.3-3.2,6.5-6.4,9.8-9.7
		c9.8-9.7,19.5-19.4,29.2-29.2C1525.5,639.7,1527.3,637.7,1529.5,635.5z M1386,615.1c2-2,4.1-3.7,5.8-6.1c-1.6-0.9-2.9-1.9-4-3.2
		c-0.6-0.6-1.2-0.9-1.9-0.2c-1.9,2.1-4.1,3.7-5.9,6.2C1382.3,612.5,1384.4,613.3,1386,615.1z M1207,609.4c8-8,15.9-16.1,24-24.1
		c9-9,18.1-17.9,27.1-26.9c3.5-3.5,6.9-6.9,10.4-10.4c2.1-6.7,5.1-13.1,8.9-19c-9.9,9.9-19.8,19.8-29.7,29.7
		c-16.7,16.7-33.3,33.4-50,50c-2.2,4-4.9,7.8-8,11.3c-4.7,5.3-10.2,9.7-16.4,13.1c-15.9,15.8-31.8,31.7-47.7,47.5h10.3
		c2.5-2.5,5-5,7.5-7.5c11.3-11.3,22.5-22.7,33.8-34C1187.2,629.1,1197.1,619.2,1207,609.4z M1236.9,599.7c0.3-0.1,0.5-0.4,0.8-0.7
		c5.2-5.1,10.3-10.3,15.5-15.5c0.5-0.5,1-1,1.2-1.6c1-4.2,2.1-9,3.5-13.2c-2.6,2.5-5.1,5-7.7,7.7c-16.6,16.5-33.1,33-49.7,49.6
		c-18.1,18.1-36.1,36.2-54.2,54.3h9.8c2.2-2.2,4.4-4.4,6.6-6.6c14.6-14.6,29.3-29.2,44-43.8C1216.8,619.9,1226.9,609.8,1236.9,599.7
		z M1156.6,639.2c-1.6,0.3-3.2,0.6-4.8,0.9c-2.2,0.3-4.4,0.5-6.7,0.6c-4.1,4.1-8.2,8.1-12.2,12.2c-9.2,9.2-18.3,18.4-27.5,27.6h9.8
		c4.8-4.8,9.6-9.7,14.5-14.5C1138.7,657,1147.6,648.1,1156.6,639.2z M1126.8,638.5c-14,14-27.9,28-41.9,42h9.7
		c13.4-13.4,26.8-26.9,40.3-40.3C1132.1,639.8,1129.4,639.2,1126.8,638.5z M1223.9,633.7c5.9-5.9,11.9-11.8,17.9-17.7
		c2.2-2.2,3.4-3.4,4.2-4.7c0,0,0,0,0,0c0,0,0,0,0,0c0.8-1.5,1.2-3.2,1.9-6.9c0.3-1.6,1.8-4.8,1.6-6.6c-0.8,1-1.6,1.9-2.4,2.8
		c-9.2,9.3-18.4,18.5-27.6,27.8c-9.2,9.2-18.4,18.2-27.6,27.4c-7.9,7.9-15.6,16-23.6,23.7c-0.4,0.4-0.7,0.7-1.1,1.1h9.9
		c9.4-9.4,18.8-18.8,28.2-28.1C1211.5,646.1,1217.7,639.9,1223.9,633.7z M1105.8,628.3c-1-0.8-2.1-1.6-3.1-2.4
		c-0.8-0.7-1.6-1.4-2.4-2.2c-3.8,3.8-7.6,7.6-11.5,11.5c-12.4,12.5-24.9,24.9-37.3,37.4c-2.6,2.6-5.2,5.3-7.8,7.9h9.9
		c4.1-4.1,8.1-8.1,12.2-12.2C1079.2,655,1092.5,641.6,1105.8,628.3z M1095.4,618.4c-1.6-1.9-3-3.8-4.4-5.8c-2,2-4.1,4.1-6.1,6.1
		c-15.3,15.3-30.5,30.5-45.8,45.8c-5.3,5.3-10.6,10.6-15.9,15.9h10.1c7.8-7.8,15.5-15.5,23.3-23.3
		C1069.5,644.2,1082.4,631.3,1095.4,618.4z M1257,641.7c10.6-10.5,21-21.2,31.6-31.7c10.5-10.6,21.2-21,31.7-31.6
		c10.1-10.1,20.2-20.4,30.4-30.5c11.2-11.2,22.5-22.4,33.7-33.6c7.6-7.5,15.1-15.1,22.6-22.6c6.2-6.2,12.4-12.4,18.7-18.6
		c2.3-2.3,4.9-4.5,4.7-8.3c0-0.5,0.2-0.9,0.3-1.4c1.3-4,3.5-5.2,7.6-4.3c0.6,0.1,1,0.3,1.5-0.2c2.4-2.6,5.1-4.8,7.4-7.8
		c-2.9,0.7-5.6,1.3-6.9-2.2c-0.7,0.6-1.2,1-1.7,1.5c-14.8,14.8-29.6,29.6-44.4,44.3c-18.5,18.5-37,37.1-55.6,55.6
		c-15.6,15.6-31.2,31.2-46.8,46.7c-19.2,19.2-38.4,38.4-57.6,57.5c-8.6,8.6-17.3,17.2-25.9,25.8h9.7
		C1231.1,667.5,1244,654.5,1257,641.7z M1374.1,604.5c0,0.4,0.1,0.7,0.2,1.5c2.7-2.7,5.1-5.1,7.5-7.6c0.4-0.4,0.5-0.8,0.4-1.3
		c-0.5-2.2-1.1-4.3-1.7-6.8c-2.4,2.4-5.1,4.4-6.7,6.9C1372.6,599.3,1373.9,602,1374.1,604.5z M1246.1,631.6
		c-0.5-0.1-0.7-0.2-0.8-0.1c-0.4,0.2-0.8,0.4-1.2,0.6c-1.7,0.9-1.8,0.8-2-1.1c-0.1-1.3,1.7-4.7,1-6.1c-0.5,0.3-4.1,4.1-4.1,4.1
		c-7.2,7.3-14.5,14.5-21.7,21.8c-9.9,9.9-19.8,19.8-29.7,29.7h9.9c13.9-13.8,27.7-27.7,41.6-41.5
		C1241.2,636.6,1243.6,634.1,1246.1,631.6z M1302,637.3c9.8-9.8,19.5-19.5,29.3-29.3c0.7-0.7,1.4-1.3,1.7-2.2c1.2-3,3.1-5.6,5-8.2
		c3.6-4.8,7.4-9.6,10.6-14.7c2.9-3.4,6-6.6,9.3-9.5c3.5-2.3,6.9-4.7,10.9-5.9c3.9-1.2,6.8-3.5,9.5-6.4c3.4-3.7,7.3-6.9,10-11.2
		c1.2-1.8,2.9-3.3,4.7-4.5c1.9-1.2,3.5-2.6,5-4.2c9.8-9.8,19.5-19.6,29.3-29.3c3.3-3.3,6.8-6.6,10.2-9.8c-1.7-2.1-2.5-4.2-3.2-6.5
		c-0.7,0.5-1.1,0.7-1.4,1c-5,5-9.9,10.1-14.9,15.1c-10.2,10.2-20.5,20.3-30.7,30.5c-7.5,7.5-14.9,15-22.3,22.5
		c-2.6,2.7-5.5,5.1-7.9,8c-1.2,0.5-1.8,1.6-2.6,2.5c-2.1,2.3-4.6,4.1-6.4,6.6c-0.2,0.1-0.6,0.2-0.7,0.4
		c-8.7,8.7-17.5,17.5-26.2,26.2c-10.5,10.5-20.9,21-31.3,31.4c-5.8,5.8-11.7,11.5-17.5,17.3c-5.6,5.6-11.1,11.3-16.8,16.8
		c-2.2,2.1-4.3,4.3-6.3,6.5h9.5c5.7-5.7,11.4-11.4,17.1-17.1C1284.6,654.7,1293.3,646,1302,637.3z M1377.7,581.8
		c-2.4-0.2-2.4,1.6-2.9,2.9C1375.9,584,1377.3,583.5,1377.7,581.8z M1335.6,582.9c14.4-14.4,28.7-28.7,43.1-43.1
		c10.5-10.5,21-21,31.5-31.5c6.9-6.9,13.9-13.9,20.8-20.8c0.8-0.8,1.4-1.5,1.2-2.7c-0.4-1.8-0.5-3.7-1.3-5.3
		c-0.8-0.1-1.1,0.6-1.5,0.9c-11.5,11.5-23,22.9-34.5,34.4c-17,17-34,34-51.1,51.1c-17.1,17.1-34.2,34.2-51.3,51.3
		c-16.2,16.2-32.3,32.3-48.5,48.5c-4.9,4.9-9.8,9.9-14.7,14.8h8.7c0,0,0.1-0.1,0.1-0.1c16.1-16.2,32.3-32.4,48.5-48.6
		C1303,615.5,1319.3,599.2,1335.6,582.9z M1598.4,680.5h9.1c1.6-1.6,3.2-3.2,4.8-4.8c16.9-16.9,33.8-33.8,50.7-50.7v-9.3
		c-16.8,16.8-33.5,33.5-50.3,50.3C1608,670.9,1603.2,675.7,1598.4,680.5z M1118.8,635.8c-2.2-0.9-4.4-2-6.5-3.2
		c-9.3,9.3-18.6,18.6-27.9,27.9c-6.6,6.6-13.2,13.3-19.9,20h9.5c0.5-0.5,1-1,1.5-1.5c11.7-11.7,23.4-23.5,35.2-35.2
		C1113.4,641.1,1116.1,638.4,1118.8,635.8z M1590.4,667.6c-4.3,4.3-8.6,8.5-12.8,12.8h9.2c2.7-2.7,5.4-5.4,8.1-8.1
		c16-16,31.9-32,47.9-47.9c6.8-6.8,13.5-13.5,20.3-20.3V595c-6.9,6.9-13.9,13.9-20.8,20.8C1625,633.1,1607.7,650.4,1590.4,667.6z
		 M1623.1,204.1c-10.2,10.2-20.5,20.3-30.7,30.5c-7.5,7.5-15,15.1-22.5,22.7c-8.7,8.7-17.3,17.4-26.1,26c-1.1,1.1-1.4,2.1-1.1,3.5
		c0.3,1.8,1,3.6,0.7,5.7c1.3-0.2,1.8-1,2.4-1.6c4-4,8-8,12-12.1c25.6-25.6,51.3-51.3,76.9-76.9c9.4-9.4,18.9-18.8,28.3-28.2v-9.8
		c-2.1,2.1-4.2,4.2-6.4,6.3C1645.5,181.6,1634.4,192.9,1623.1,204.1z M1592.7,214.7c-13.9,13.9-27.8,27.8-41.6,41.6
		c-3.9,3.9-7.9,7.9-11.8,11.8c-0.6,0.6-1.7,1.2-1.1,2.3c0.8,1.6,0.7,3.5,1.6,5.4c1.3-0.9,2.2-1.8,3.1-2.8c15-15,29.9-29.9,44.9-44.9
		c12.1-12.1,24.2-24.2,36.3-36.3c11.6-11.6,23.3-23.2,34.9-34.8c1.4-1.4,2.8-2.8,4.1-4.1v-8.7c-9.6,9.7-19.2,19.3-28.9,29
		C1620.3,187.1,1606.5,200.9,1592.7,214.7z M1594.2,274c-8.6,8.6-17.1,17.3-25.7,25.9c-6.8,6.8-13.7,13.6-20.5,20.4
		c-0.9,0.9-1.6,2-1.4,3.5c0.2,2.1,0.2,4.3,0.4,7c0.9-0.8,1.5-1.2,2-1.8c11.4-11.4,22.9-22.8,34.3-34.3
		c11.4-11.4,22.7-22.9,34.1-34.3c6.5-6.5,13.2-13,19.7-19.5c8.7-8.7,17.3-17.3,26-26v-9.7c-14.9,14.9-29.8,29.8-44.7,44.7
		C1610.3,258,1602.2,266,1594.2,274z M1555.5,375.3c1,0.6,1.9,1.2,2.9,1.8c2.4,1.5,2.4,1.5,4.4-0.5c7-7,13.9-13.9,20.9-20.9
		c12.2-12.2,24.4-24.3,36.6-36.5c9.2-9.2,18.4-18.5,27.6-27.8c5-5.1,10.1-10.1,15.2-15.2v-9.1c-36,36-71.9,71.9-107.8,107.8
		C1555.2,375,1555.3,375.2,1555.5,375.3z M1634.3,275.8c-5.8,6.1-11.9,11.9-17.8,17.9c-12.2,12.2-24.4,24.3-36.6,36.5
		c-11.3,11.3-22.6,22.6-33.9,34c-2.4,2.4-2.4,2.4-0.2,4.9c1.5,1.7,2,1.7,3.6,0.1c19.5-19.4,38.9-38.9,58.4-58.3
		c18.5-18.5,36.9-36.9,55.4-55.4v-8.6C1653.4,256.5,1643.7,266,1634.3,275.8z M1608.2,281.1c-10.1,10.3-20.5,20.4-30.7,30.6
		c-10.2,10.2-20.3,20.5-30.6,30.6c-1.5,1.5-2.5,3.1-2.9,5c-0.4,1.7-1,3.3-1.5,4.8c-0.6,1.6-0.7,3.1-1,5.1c1-0.9,1.6-1.4,2.2-2
		c29.9-29.9,59.8-59.9,89.6-89.8c7.5-7.5,15-14.9,22.4-22.4c2.4-2.4,4.8-4.8,7.3-7.3v-9.7C1644.8,244.4,1626.3,262.6,1608.2,281.1z
		 M1454.5,207.8c1.1,0.9-1.7,4.1,15.2-4.8c0.8-0.6,9.1-8.8,9.6-9.4c7.5-7.6,15-15.2,22.5-22.7c9.5-9.5,19.2-19,28.7-28.5
		c11.9-11.9,23.7-23.8,35.6-35.7c10.1-10.1,20.4-20.2,30.5-30.4c8.9-8.9,17.8-17.9,26.8-26.9c8.1-8.1,16.3-16.2,24.5-24.4
		c5-5,10.1-10.1,15.1-15.1V0L1454.5,207.8z M1612.9,70.9c-11.2,11.2-22.3,22.3-33.5,33.5c-16.3,16.3-32.5,32.6-48.8,49
		c-17,17-33.9,34-50.9,50.9c-1.8,1.8-2.1,3.3-1.2,5.5c0.5,1.1,1,2.2,1.6,3.2c0.8-0.1,1.2-0.7,1.7-1.1c20.1-20.1,40.2-40.2,60.3-60.3
		c18.4-18.4,36.9-36.9,55.3-55.3c9.6-9.6,19.2-19.2,28.9-28.8c6.4-6.4,12.8-12.8,19.2-19.2c5.9-5.9,11.8-11.8,17.7-17.7v-9.7
		c-1.9,2-3.9,3.9-5.8,5.9C1642.4,41.4,1627.7,56.2,1612.9,70.9z M1569.7,380.9c-3.1,3.1-3.1,3.1,0,6.3c1.5,1.6,1.9,1.6,3.4,0.1
		c2-2,3.9-4.1,5.9-6.1c9.5-9.5,19-18.9,28.5-28.4c7.7-7.7,15.3-15.4,23-23.1c5.9-5.9,11.9-11.9,17.8-17.8c4.9-4.9,9.8-9.8,14.8-14.7
		v-9.6c-2.4,2.4-4.8,4.8-7.2,7.2C1627.1,323.4,1598.4,352.1,1569.7,380.9z M1546.4,240.2c-4.3,4.3-8.6,8.6-12.8,12.8
		c-2,2-2,2-0.7,4.5c0.6,1.1,1,2.5,2.2,3.4c2.7-2.6,5.4-5.2,8-7.8c8.7-8.7,17.4-17.4,26-26.1c10.1-10.2,20.2-20.4,30.4-30.5
		c11.2-11.2,22.5-22.4,33.7-33.6c6.2-6.2,12.4-12.4,18.6-18.6c3.7-3.7,7.4-7.5,11.1-11.2v-9.5c-23.8,23.7-47.5,47.5-71.3,71.2
		C1576.6,209.9,1561.5,225.1,1546.4,240.2z M1489.5,221.3c1.8,1.1,1.8,1.1,3.3-0.5c5.3-5.3,10.6-10.5,15.9-15.8
		c20.2-20.2,40.4-40.4,60.6-60.6c16.6-16.6,33.1-33.2,49.7-49.8c14.7-14.7,29.3-29.3,44-43.9v-8.5c-59,59-118,117.9-177.1,176.8
		C1487.1,219.8,1488.3,220.5,1489.5,221.3z M1522.6,245.4c1.5,0.8,2.7,2.8,4.2,2.6c1.6-0.3,2.7-2.2,4-3.4
		c8.9-8.9,17.7-17.8,26.6-26.6c8.1-8.1,16.3-16.2,24.5-24.4c9-9,18-18,27-27c8.1-8.1,16.2-16.1,24.3-24.2c7.5-7.5,15-15.1,22.5-22.7
		c2.4-2.4,4.9-4.9,7.3-7.3v-9.1c-47.2,47.3-94.3,94.3-141.4,141.5C1521.9,244.8,1522.2,245.2,1522.6,245.4z M1511.8,233.8
		c-3.2,3.2-3.2,3.5,0.7,6.1c1.2,0.8,2,0.9,3.1-0.3c5-5.1,10.2-10.1,15.3-15.2c8.5-8.5,17-16.9,25.4-25.4
		c8.5-8.5,17.1-17.1,25.6-25.6c8.5-8.5,17.1-17.1,25.6-25.6c11.8-11.8,23.5-23.7,35.3-35.5c6.7-6.7,13.5-13.4,20.2-20.1v-9.6
		c-8.7,8.7-17.3,17.3-26,26C1595.3,150.3,1553.5,192,1511.8,233.8z M1501.9,229.5c1.7,1.5,1.7,1.5,3.3-0.2
		c15.2-15.2,30.4-30.5,45.7-45.7c10.4-10.4,20.9-20.8,31.3-31.2c11-11,22.1-22,33.1-33c10.9-10.9,21.8-21.8,32.7-32.6
		c5-5,10.1-10.1,15.1-15.1v-9.7c-54.9,54.9-109.8,109.8-164.7,164.7C1499.7,227.7,1500.8,228.6,1501.9,229.5z M1591,257.1
		c-11.4,11.4-22.8,22.7-34.2,34.1c-3.8,3.8-7.6,7.6-11.4,11.5c-0.7,0.7-1.7,1.4-1.3,2.6c0.8,2.2,0.4,4.6,1.2,6.8
		c0.3,0.1,0.4,0,0.5-0.2c7.7-7.7,15.5-15.4,23.3-23.2c11.3-11.3,22.5-22.6,33.8-33.9c7.8-7.8,15.7-15.5,23.5-23.4
		c6.9-6.9,13.7-13.8,20.5-20.7c5.4-5.4,10.9-10.9,16.3-16.3V185c-15.5,15.5-31.1,31.1-46.6,46.6C1608,240.1,1599.5,248.6,1591,257.1
		z M1649.4,506.8c0.9,2.1,0.6,4.7,2.4,6.7c2.5-2.5,4.9-5,7.4-7.5c1.3-1.3,2.6-2.6,3.9-3.9v-9.6c-4.2,4.2-8.3,8.3-12.5,12.5
		C1650,505.5,1649,506,1649.4,506.8z M1655,521.8c0.9,2.1,1.1,4.3,1.5,6.5c0.3,0.1,0.5,0.3,0.8,0.4c0.8-0.9,1.5-1.9,2.4-2.8
		c1.1-1.1,2.3-2.3,3.4-3.4v-9.7c-2.4,2.4-4.7,4.7-7.1,7.1C1655.5,520.5,1654.6,520.9,1655,521.8z M1640.8,474.3
		c-1.2,1.2-3.4,2.3-3.3,3.9c0,1.7,1.2,3.5,2.4,5.1c0.3-0.2,0.6-0.4,0.9-0.7c6.8-6.8,13.6-13.6,20.4-20.4c0.6-0.6,1.2-1.2,1.8-1.8
		v-8.3C1655.6,459.5,1648.2,466.9,1640.8,474.3z M1644.5,496.5c0.3,0.6,0.7,1.1,1.2,1.9c1-0.9,1.7-1.5,2.4-2.2c5-5,10-10,15-15v-9.5
		c-5.8,5.8-11.6,11.6-17.4,17.4C1642.4,492.3,1642.4,492.6,1644.5,496.5z M1615.2,581.7c-9.1,9.1-18.2,18.1-27.2,27.2
		c-8,8-16,16-24,24.1c-7.7,7.7-15.5,15.4-23.2,23.2c-6,6-12.1,11.9-18.1,17.9c-2.1,2.1-4.2,4.3-6.3,6.5h9.5
		c27.5-27.5,55.1-55.1,82.6-82.6c16.8-16.8,33.6-33.6,50.4-50.4c1.4-1.4,2.7-2.8,4.1-4.1v-9.6c-6.5,6.5-13,12.9-19.5,19.4
		C1634.1,562.6,1624.7,572.2,1615.2,581.7z M1572.8,665.7c-4.9,4.9-9.8,9.9-14.8,14.8h8.3c5.8-5.8,11.7-11.7,17.5-17.5
		c12.6-12.6,25.3-25.3,37.9-37.9c12.9-12.9,25.8-25.8,38.7-38.7c0.8-0.8,1.7-1.7,2.5-2.5v-8.3c-15.1,15.1-30.3,30.2-45.4,45.3
		C1602.7,635.7,1587.7,650.7,1572.8,665.7z M1630.8,340.1c-10.1,10.2-20.2,20.4-30.4,30.5c-6.9,6.9-13.9,13.8-20.9,20.8
		c-1,1-2.9,1.7-2.5,3.3c0.4,1.4,2,2.2,3.2,3.1c0.2,0.1,0.3,0.2,0.4,0.3c0.7,0.6,1.3,0.4,2-0.2c1.4-1.4,2.8-2.8,4.2-4.2
		c15.6-15.6,31.2-31.1,46.7-46.7c9.8-9.8,19.6-19.6,29.4-29.4v-9.6c-3.8,3.8-7.5,7.6-11.3,11.4
		C1644.8,326.3,1637.8,333.1,1630.8,340.1z M1601.5,616.1c-7.2,7.2-14.5,14.4-21.7,21.6c-10,10-20,20.1-30,30.1
		c-4.2,4.2-8.4,8.4-12.6,12.6h8.3c5.8-5.9,11.7-11.8,17.6-17.6c15-15,30-29.9,45-44.8c18.4-18.3,36.7-36.7,55-55.1v-8.3
		c-7.7,7.7-15.3,15.3-23,23C1627.2,590.4,1614.4,603.3,1601.5,616.1z M1604.2,408.5c-3.2,3.2-2.6,1.8-0.5,5.7
		c0.9,1.6,1.1,2.1,2.8,0.3c4.4-4.4,8.8-8.8,13.2-13.2c14.4-14.4,28.9-28.9,43.3-43.3v-8.4c-11.3,11.3-22.7,22.7-34,34
		C1620.7,391.9,1612.4,400.1,1604.2,408.5z M1594,404c2.2,1.1,2.2,1.1,4-0.6c13.9-13.8,27.7-27.7,41.6-41.5
		c7.8-7.8,15.7-15.7,23.5-23.5v-9.4c-24.5,24.5-48.7,48.8-73.1,73.2C1591.4,402.8,1592.7,403.4,1594,404z M1622.9,409.3
		c-4.1,4.1-8.3,8.3-12.4,12.4c-1.4,1.4-1.4,1.8-0.1,3.3c1,1,2,2,3.6,3.6c2.2-2.5,4.1-4.8,6.3-7c9.2-9.3,18.4-18.5,27.6-27.8
		c5.1-5.1,10.1-10.2,15.2-15.2v-9.7c-2.2,2.1-4.3,4.3-6.4,6.4C1645.3,386.8,1634.1,398.1,1622.9,409.3z M1631.1,463.1
		c-1.6,1.5-1.5,1.8-0.6,3.9c0.6,1.4,1.5,2.6,2.5,3.8c8.9-8.9,17.6-17.6,26.4-26.4c1.2-1.2,2.4-2.4,3.6-3.6v-9.6
		c-8.3,8.2-16.5,16.5-24.8,24.7C1635.9,458.3,1633.6,460.9,1631.1,463.1z M1619.9,433.2c-0.4,0.4-1.2,0.9-0.6,1.6
		c1.3,1.5,1.8,3.5,3.6,5c2.3-2.4,4.6-4.7,6.9-7.1c6.2-6.2,12.4-12.4,18.6-18.6c4.9-4.9,9.7-9.7,14.6-14.5V390
		c-12,12-24.1,24.1-36.1,36.1C1624.6,428.5,1622.2,430.8,1619.9,433.2z M1634.1,439.3c-2.6,2.6-5.4,5-7.8,7.9
		c-0.5,0.6-1.1,1.1-0.9,2c0.5,2.2,1,4.3,1.6,6.7c2.3-2.3,4.5-4.3,6.5-6.4c9.8-9.8,19.6-19.7,29.4-29.5v-9.7
		c-2.2,2.2-4.4,4.4-6.5,6.6C1649,424.4,1641.5,431.8,1634.1,439.3z M1663,680.5v-2.6c-0.8,0.9-1.7,1.7-2.5,2.6H1663z M225.6,608.4
		c8-8,15.9-16.1,24-24.1c9-9,18.1-17.9,27.1-26.9c10.7-10.7,21.4-21.6,32.2-32.3c10-10,20-20.1,30.1-30.1c0.2-0.2,0.4-0.4,0.6-0.6
		c-3.4,0-6.8,0-10.2,0c-0.2,0.2-0.3,0.4-0.5,0.6c-0.2,0.3-0.5,0.6-0.7,0.9c-4.4,4.4-8.8,8.8-13.3,13.2
		c-16.2,16.2-32.4,32.3-48.6,48.5c-22.2,22.2-44.4,44.4-66.6,66.6c-18.8,18.8-37.6,37.5-56.4,56.3h10.3c2.8-2.8,5.7-5.7,8.5-8.5
		c11.3-11.3,22.5-22.7,33.8-34C205.8,628.1,215.7,618.3,225.6,608.4z M187.1,626.4c6.6-6.5,13-13.2,19.6-19.7
		c10.6-10.5,21.2-21,31.7-31.6c10.2-10.2,20.2-20.4,30.4-30.5c6.9-6.9,13.9-13.8,20.9-20.7c6.1-6.1,12.2-12.1,18.2-18.3
		c3.5-3.6,7.3-6.9,10.6-10.7c0.2-0.2,0.4-0.4,0.6-0.6h-10.2c0,0.2-0.1,0.4-0.3,0.6c-0.2,0.3-0.4,0.5-0.7,0.7
		c-6.9,6.9-13.8,13.7-20.7,20.6c-8,8-15.9,16.1-23.9,24.1c-9.1,9.1-18.2,18.1-27.3,27.2c-10.5,10.5-20.9,21-31.4,31.5
		c-17.7,17.7-35.3,35.3-53,52.9c-9.5,9.5-19,19-28.5,28.5h9.8c5.1-5.2,10.3-10.3,15.4-15.5C161.2,652.1,174.2,639.3,187.1,626.4z
		 M264.1,610.8c13.3-13.3,26.5-26.6,39.8-39.9c12.6-12.6,25.1-25.1,37.7-37.7c12.8-12.8,25.6-25.5,38.3-38.2
		c0.2-0.2,0.4-0.4,0.6-0.6c-3.4,0-6.8,0-10.2,0c0,0.3,0,0.5-0.1,0.6c-0.2,0.4-0.6,0.6-0.9,0.9c-7.7,7.7-15.3,15.4-23,23.1
		c-15.4,15.4-30.8,30.7-46.1,46.1c-20.7,20.7-41.3,41.6-62,62.3c-9.2,9.2-18.4,18.2-27.6,27.4c-7.9,7.9-15.6,16-23.6,23.7
		c-0.7,0.7-1.4,1.4-2.1,2.1h9.6c9.8-9.8,19.6-19.6,29.4-29.4C237.2,637.6,250.6,624.2,264.1,610.8z M271.6,582.7
		c14.5-14.5,29-29,43.5-43.5c14.8-14.8,29.5-29.5,44.3-44.3c0.2-0.2,0.4-0.4,0.6-0.6c-3.4,0-6.8,0-10.2,0c-0.2,0.2-0.3,0.4-0.5,0.6
		c-0.2,0.3-0.5,0.6-0.8,0.9c-11.8,11.8-23.6,23.5-35.3,35.3c-14,14-27.9,28-41.9,42c-17.4,17.4-34.8,34.7-52.2,52.1
		c-18.4,18.4-36.8,36.9-55.2,55.3h9.8c2.5-2.5,5.1-5.1,7.6-7.6c14.6-14.6,29.3-29.2,44-43.8C240.8,613.6,256.2,598.1,271.6,582.7z
		 M189.8,602.7c11.8-11.8,23.7-23.5,35.5-35.3c7.8-7.8,15.5-15.7,23.3-23.5c5.7-5.7,11.5-11.4,17.3-17.2c8.4-8.3,16.7-16.6,25-25.1
		c2.2-2.2,4.7-4.2,6.5-6.7c0.2-0.2,0.3-0.4,0.4-0.6h-9.7c0,0.2-0.1,0.4-0.2,0.6c-0.3,0.5-0.8,0.7-1.1,1.1
		c-8.6,8.6-17.2,17.3-25.9,25.9c-16.6,16.6-33.2,33.2-49.8,49.8c-21,20.9-42,41.8-62.9,62.8c-15.3,15.3-30.6,30.6-45.9,46h9.7
		c15.4-15.4,30.7-30.7,46-46.1C168.7,623.8,179.3,613.2,189.8,602.7z M124.6,606.8c16.5-16.5,33.1-33,49.6-49.5
		c10.7-10.7,21.4-21.6,32.1-32.3c10-10,20-20.1,30.1-30.1c0.2-0.2,0.4-0.4,0.6-0.6c-3.4,0-6.8,0-10.2,0c-0.2,0.2-0.3,0.4-0.5,0.6
		c-0.2,0.3-0.5,0.6-0.7,0.9c-4.3,4.3-8.5,8.6-12.8,12.8c-19.8,19.8-39.7,39.5-59.5,59.3c-16.6,16.6-33.2,33.2-49.8,49.8
		C88.2,633,73,648.3,57.7,663.5c-5.6,5.6-11.3,11.3-16.9,16.9h10.1c8.1-8.1,16.2-16.2,24.3-24.3C91.6,639.7,108.1,623.3,124.6,606.8
		z M156.7,615.6c10.6-10.5,21.1-21.1,31.6-31.7c12.3-12.3,24.6-24.5,36.9-36.8c17.4-17.4,34.7-34.8,52.1-52.1
		c0.2-0.2,0.4-0.4,0.6-0.6h-10.2c0.1,0.3,0,0.5-0.1,0.6c-0.2,0.3-0.5,0.5-0.7,0.7c-1.7,1.7-3.4,3.3-5.1,5
		c-15.7,15.8-31.5,31.6-47.2,47.4c-20.1,20.1-40.3,40.2-60.4,60.3c-17.1,17.1-34.2,34.1-51.3,51.3c-7,7-13.9,14-20.8,20.9h9.5
		c0.8-0.8,1.6-1.6,2.4-2.4c11.7-11.7,23.4-23.5,35.2-35.2C138.4,633.7,147.6,624.7,156.7,615.6z M169.3,582.5
		c14.6-14.6,29.1-29.1,43.7-43.7c14.6-14.6,29.2-29.2,43.9-43.9c0.2-0.2,0.4-0.4,0.6-0.6h-10.2c-0.2,0.2-0.4,0.4-0.6,0.6
		c-3.7,4.2-7.8,7.9-11.8,11.9c-16.8,16.8-33.5,33.6-50.3,50.3c-14.1,14-28.1,28.1-42.2,42.1c-11.6,11.6-23.3,23.3-34.9,34.9
		c-12.4,12.5-24.9,24.9-37.3,37.4c-2.9,3-5.9,5.9-8.8,8.9h9.8c4.4-4.4,8.8-8.8,13.2-13.2C112.7,639,141,610.8,169.3,582.5z
		 M414.6,602.7c8.4-8.4,16.8-16.7,25.2-25c0.5-2.2,1.3-4.4,2.1-6.6c1.8-4.6,4.3-8.8,7.4-12.6c-4.4,4.4-8.8,8.8-13.3,13.3
		c-21,20.9-42,41.8-62.9,62.8c-15.3,15.3-30.6,30.6-45.9,46h9.7c15.4-15.4,30.7-30.7,46-46.1C393.5,623.8,404.1,613.2,414.6,602.7z
		 M381.5,615.6c10.6-10.5,21.1-21.1,31.6-31.7c12.3-12.3,24.6-24.5,36.9-36.8c4.1-4.1,8.1-8.1,12.2-12.2v0.4
		c2.5-2.5,4.9-4.9,7.4-7.4c11.2-11.2,22.3-22.4,33.5-33.6c-0.1,0-0.2,0-0.3,0h-10.2c-0.1,0-0.2,0-0.3,0c0,0.5-0.1,0.9-0.4,1.2
		c0,0-0.1,0.1-0.1,0.1c-0.1,0.1-0.2,0.2-0.2,0.2c-0.3,0.3-0.7,0.5-1,0.8c-9.4,9.5-18.9,18.9-28.3,28.4v0.1
		c-7.6,7.6-15.2,15.2-22.8,22.8c-20.1,20.1-40.3,40.2-60.4,60.3c-17.1,17.1-34.2,34.1-51.3,51.3c-7,7-13.9,14-20.8,20.9h9.5
		c0.8-0.8,1.6-1.6,2.4-2.4c11.7-11.7,23.4-23.5,35.2-35.2C363.2,633.7,372.4,624.7,381.5,615.6z M411.9,626.4
		c6.6-6.5,13-13.2,19.6-19.7c2.6-2.6,5.3-5.3,7.9-7.9c-0.1-0.6-0.2-1.1-0.3-1.7c-0.4-2.4-0.6-4.8-0.6-7.3c-3,3.1-6.1,6.1-9.1,9.2
		c-17.7,17.7-35.3,35.3-53,52.9c-9.5,9.5-19,19-28.5,28.5h9.8c5.1-5.2,10.3-10.3,15.4-15.5C386,652.1,399,639.3,411.9,626.4z
		 M394.1,582.5c14.6-14.6,29.1-29.1,43.7-43.7c8.1-8.1,16.3-16.3,24.4-24.4v0.2c5.8-5.8,11.6-11.7,17.4-17.5
		c0.8-0.8,1.7-1.4,2.2-2.3c0.1-0.1,0.3-0.3,0.4-0.4h-0.3h-10c-0.1,0-0.2,0-0.3,0c0,0.1,0,0.2,0,0.3c-0.1,0.1-0.2,0.2-0.3,0.4
		c-3.7,4.2-7.8,7.9-11.8,11.9c-16.8,16.8-33.5,33.6-50.3,50.3c-14.1,14-28.1,28.1-42.2,42.1c-11.6,11.6-23.3,23.3-34.9,34.9
		c-12.4,12.5-24.9,24.9-37.3,37.4c-2.9,3-5.9,5.9-8.8,8.9h9.8c4.4-4.4,8.8-8.8,13.2-13.2C337.5,639,365.8,610.8,394.1,582.5z
		 M442.8,494.3h-10.7c-0.2,0.2-0.4,0.4-0.6,0.6c-15.9,16-154.5,154.7-185.4,185.5h8.6c38.7-38.3,175.9-174,187.5-185.5
		C442.5,494.6,442.7,494.4,442.8,494.3z M349.4,606.8c16.5-16.5,33.1-33,49.6-49.5c10.7-10.7,21.4-21.6,32.1-32.3
		c10-10,20-20.1,30.1-30.1c0.2-0.2,0.4-0.4,0.6-0.6h-10.2c-0.2,0.2-0.3,0.4-0.5,0.6c-0.2,0.3-0.5,0.6-0.7,0.9
		c-4.3,4.3-8.5,8.6-12.8,12.8c-19.8,19.8-39.7,39.5-59.5,59.3c-16.6,16.6-33.2,33.2-49.8,49.8c-15.3,15.3-30.5,30.5-45.8,45.8
		c-5.6,5.6-11.3,11.3-16.9,16.9h10.1c8.1-8.1,16.2-16.2,24.3-24.3C316.4,639.7,332.9,623.3,349.4,606.8z M290.2,625.4
		c9.5-9.5,19.1-19.1,28.6-28.6c8.8-8.8,17.5-17.5,26.3-26.3c8.2-8.2,16.4-16.5,24.7-24.7c14.1-14.1,28.1-28.1,42.1-42.2
		c2.9-2.9,6-5.5,8.6-8.7c0.2-0.2,0.3-0.4,0.5-0.6h-9.7c-0.1,0.2-0.2,0.4-0.3,0.6c-0.1,0.1-0.1,0.2-0.2,0.3
		c-7.9,8-15.8,15.9-23.8,23.9c-7.6,7.6-15.3,15.1-22.9,22.7c-10.6,10.5-21.1,21.1-31.6,31.7c-7.8,7.8-15.7,15.6-23.5,23.4
		c-10.2,10.2-20.4,20.5-30.6,30.8c-14.6,14.6-29.1,29.2-43.7,43.8c-3,3-6,6-9,9h9.6c0.8-0.8,1.6-1.6,2.4-2.4
		c9.1-9.1,18.1-18.2,27.1-27.3C273.2,642.3,281.7,633.8,290.2,625.4z M495.4,532.9c-2.5,2.5-4.9,4.9-7.4,7.4c3.3,0,6.7,0,10,0
		c0.3-0.3,0.7-0.7,1-1c6.4-6.4,12.9-12.9,19.3-19.3c4.7-4.7,9.4-9.3,14-14c0.8-0.8,1.7-1.7,2.5-2.5c2.1-2,4.2-4,6.2-6.1
		c0.1-0.1,0.2-0.2,0.2-0.3c0.7-0.7,1.3-1.4,2-2.1c0.2-0.2,0.4-0.4,0.6-0.6h-0.3h-9.7h-0.3c0,0.2-0.1,0.4-0.3,0.6
		c-0.3,0.4-0.7,0.7-1.1,1.1c-6.8,6.7-13.6,13.5-20.3,20.2C506.4,521.8,500.9,527.4,495.4,532.9z M608.7,541.9
		c-4.2,4.2-8.4,8.4-12.6,12.6c0.7,0.3,1.4,0.7,2,1.2c1.6,1.4,2.5,3,2.8,5c1.1-1.1,2.3-2.3,3.4-3.4c6-6,11.9-12,17.9-17.9
		c0-0.1,0-0.1,0-0.2c0-3.2,1.4-5.6,4.1-7.3c2.8-1.8,5.7-3.5,8.5-5.2c0.6-0.6,1.1-1.1,1.7-1.7c10.2-10.2,20.5-20.5,30.7-30.7
		c-0.2,0-0.4,0-0.6,0c0,0,0,0,0,0h-9.7c0,0,0,0,0,0c0,0,0,0,0,0c-0.2,0.3-0.5,0.6-0.7,1c-0.5,0-1.1,0-1.6,0
		C654.7,496.2,623.6,526.9,608.7,541.9z M598.9,521.6c7.2-7.2,14.4-14.4,21.6-21.7c1.8-1.8,3.9-3.3,5.1-5.6c-0.1,0-0.2,0-0.3,0h-9.7
		c-0.1,0-0.2,0-0.3,0c0.1,0.3,0,0.6-0.1,0.8c-0.4,0.5-0.9,0.9-1.4,1.3c-6.6,6.6-13.2,13.2-19.8,19.8
		C596,517.7,597.7,519.5,598.9,521.6z M601,529.8c0,7.9-6.5,16.2-16.3,16.3c-2.6,2.6-5.1,5.1-7.7,7.7c3.4,0,6.7,0,10.1,0
		c19.8-19.8,39.7-39.6,59.5-59.4c-0.3,0-0.6,0-0.9,0h-9.4h-0.3c-0.2,0.3-0.3,0.7-0.5,1c-7.9,8-15.8,15.9-23.8,23.9
		C608.2,522.7,604.6,526.2,601,529.8z M662,520.2c4.9-4.9,9.9-9.8,14.7-14.8c3.6-3.7,7.6-7.1,10.9-11.1h-10.2
		c-0.2,0.3-0.3,0.7-0.5,1c0,0,0,0,0,0h-1.2c0.1,0.7-0.4,1-0.8,1.4c-6.4,6.4-12.9,12.9-19.4,19.3C658.2,516.1,660.6,517.8,662,520.2z
		 M663,528.7c0,1.6,0,3.2,0,4.9c0,0.4,0,0.8,0,1.2c-0.1,1.2,0.4,2.5,1.2,3.5c4.4-4.4,8.8-8.9,13.2-13.3
		c10.2-10.2,20.5-20.5,30.7-30.7c-3.4,0-6.8,0-10.2,0c-0.2,0.3-0.5,0.7-0.7,1h-1c-0.1,0.9-0.8,1.2-1.3,1.7
		c-10.4,10.4-20.9,20.9-31.3,31.3C663.3,528.5,663.2,528.6,663,528.7z M725,518.5c8-8.1,16.1-16.1,24.1-24.2h-10.2
		c0.1,0.7-0.4,1-0.8,1.4c-1.7,1.7-3.4,3.3-5.1,5c-5.9,5.9-11.9,11.9-17.8,17.8C718.5,518.5,721.7,518.5,725,518.5z M672.6,540.3
		c2.1,0,4.3,0,6.4,0c1.1,0,2.1,0.2,3,0.6c0.7-0.7,1.4-1.4,2.1-2.1c5-5,10-10,15.1-15.1c0.9-2.1,2.5-3.8,4.6-4.6
		c8.3-8.3,16.5-16.5,24.8-24.8h-10.2c-3.9,4.4-8.2,8.4-12.3,12.5C694.9,518,683.8,529.1,672.6,540.3z M552.3,537.6
		c-4.4,4.4-8.9,8.9-13.3,13.3c0,0.9,0,1.7,0,2.6c0,2.4,0,4.9,0,7.3c3-3,6-6,9-9c6.8-6.8,13.5-13.6,20.3-20.3
		c-0.1-0.6-0.1-1.3-0.2-1.9c0.3-10.3,8.6-16.4,16.5-16.3c0.6,0,1.2,0,1.8,0.1c5.7-5.7,11.4-11.4,17.1-17.1c0.5-0.5,1.1-0.9,1.4-1.5
		c0.1-0.1,0.3-0.3,0.4-0.4h-0.3h-9.7h-0.3c0,0.1,0,0.3,0,0.4c-0.4,0.5-0.8,0.9-1.2,1.4c-1.4,1.4-2.8,2.8-4.1,4.2
		c-6.9,6.9-13.8,13.8-20.7,20.7C563.5,526.5,557.9,532,552.3,537.6z M456.7,551.1c2-1.6,4.1-3,6.3-4.3c4.2-2.4,8.6-4.2,13.3-5.3
		c5.6-5.6,11.3-11.2,16.9-16.9c7.9-7.9,15.9-15.8,23.7-23.7c2.1-2.1,4.6-3.9,6.1-6.6c-0.1,0-0.2,0-0.3,0h-9.7c-0.1,0-0.2,0-0.3,0
		c0,0.4-0.1,0.7-0.2,1c-0.3,0.3-0.6,0.5-0.8,0.8c-8.6,8.6-17.2,17.3-25.9,25.9C476.1,531.7,466.4,541.4,456.7,551.1z M116.9,594
		c14.8-14.8,29.6-29.5,44.4-44.3c8.8-8.8,17.6-17.6,26.4-26.5c5.9-5.9,12-11.8,17.8-17.9c3.4-3.5,7.1-6.8,10.4-10.5
		c0.2-0.2,0.4-0.4,0.6-0.6h-10.2c-0.1,0.2-0.2,0.4-0.3,0.6c-0.1,0.1-0.1,0.2-0.2,0.3c-7.9,8-15.8,15.9-23.8,23.9
		c-9.3,9.3-18.6,18.4-27.9,27.7c-17.9,17.9-35.7,35.8-53.6,53.7c-26.6,26.7-53.3,53.3-79.9,80h9.8c2.7-2.7,5.4-5.4,8-8.1
		c11.4-11.4,22.9-22.8,34.4-34.3C87.5,623.4,102.2,608.7,116.9,594z M445,613.7c-0.3-0.6-0.7-1.2-1-1.8c-0.9-1.6-1.6-3.3-2.3-5
		c-5.8,5.8-11.5,11.5-17.3,17.3c-18.8,18.8-37.6,37.5-56.4,56.3h10.3c2.8-2.8,5.7-5.7,8.5-8.5c11.3-11.3,22.5-22.7,33.8-34
		C428.7,629.9,436.9,621.8,445,613.7z M93.5,596.6c15.3-15.3,30.7-30.7,46-46c8-8,16-15.9,24-23.8c8.4-8.3,16.7-16.6,25-25.1
		c2.2-2.2,4.7-4.2,6.5-6.7c0.1-0.2,0.3-0.4,0.4-0.6h-9.7c0,0.2-0.1,0.4-0.2,0.6c-0.3,0.5-0.8,0.7-1.1,1.1
		c-10.4,10.4-20.9,20.9-31.3,31.3c-21.7,21.7-43.5,43.5-65.2,65.2C58.6,621.8,29.3,651.2,0,680.5h9.6c9.1-9.1,18.2-18.2,27.2-27.2
		C55.7,634.3,74.6,615.4,93.5,596.6z M508.3,540.3c3.4,0,6.8,0,10.1,0c14.5-14.5,29.1-29.1,43.6-43.6c0.6-0.6,1.4-1.1,1.8-1.9
		c0.1-0.1,0.3-0.3,0.4-0.4h-0.3h-9.7h-0.3c-0.4,0.5-0.8,1.1-1.2,1.5c-0.2,0.2-0.4,0.4-0.6,0.6c-4.2,4.2-8.5,8.4-12.7,12.7
		C529.2,519.5,518.7,529.9,508.3,540.3z M552.3,516.8c-4.8,4.8-9.6,9.5-14.3,14.3c-3.1,3.1-6.1,6.1-9.2,9.2c0.4,0,0.8,0,1.2,0
		c1.7,0,3.4,0.3,4.8,1.2c0.6,0.4,1.2,0.8,1.7,1.3c3.1-3.1,6.2-6.2,9.3-9.3c11.4-11.4,22.8-22.7,34.1-34.2c1.4-1.5,3.2-2.6,4.3-4.5
		c0.2-0.2,0.4-0.4,0.5-0.5h-0.3h-10c-0.1,0-0.2,0-0.3,0c0,0.1,0,0.2,0,0.3c-0.3,0.4-0.7,0.9-1.1,1.3
		C566.3,502.8,559.3,509.8,552.3,516.8z M921.7,628.6c-5.9,4.3-12.5,7.7-19.8,9.7c-14,14.1-28.1,28.1-42.1,42.2h9.8
		c2.5-2.5,5.1-5.1,7.6-7.6c14.6-14.6,29.3-29.2,44-43.8C921.4,628.9,921.5,628.7,921.7,628.6z M855.1,633.3c-2.1-1.1-4.1-2.3-6-3.7
		c-1.6,1.6-3.3,3.3-4.9,4.9c-15.3,15.3-30.6,30.6-45.9,46h9.7c15.4-15.4,30.7-30.7,46-46.1C854.4,634,854.8,633.6,855.1,633.3z
		 M870.3,639c-2.6-0.6-5.2-1.4-7.7-2.3c-5.1,5.1-10.2,10.1-15.2,15.2c-9.5,9.5-19,19-28.5,28.5h9.8c5.1-5.2,10.3-10.3,15.4-15.5
		C852.9,656.3,861.6,647.7,870.3,639z M843.2,624.9c-1.7-1.5-3.3-3.1-4.9-4.9c-13.2,13.1-26.3,26.3-39.4,39.4
		c-7,7-13.9,14-20.8,20.9h9.5c0.8-0.8,1.6-1.6,2.4-2.4c11.7-11.7,23.4-23.5,35.2-35.2C831.2,636.9,837.2,630.9,843.2,624.9z
		 M833.6,614.1c-1.4-2-2.7-4.1-3.8-6.2c-8.5,8.5-16.9,16.9-25.4,25.4c-0.3,3.5-3.1,6.8-7.2,7.3c-0.1,0-0.1,0-0.2,0
		c-10.3,10.3-20.6,20.6-30.9,31c-2.9,3-5.9,5.9-8.8,8.9h9.8c4.4-4.4,8.8-8.8,13.2-13.2C798,649.6,815.8,631.8,833.6,614.1z
		 M884.4,640.7c-1.7,0-3.5-0.1-5.2-0.2c-13.4,13.3-26.8,26.7-40.1,40h10.3c2.8-2.8,5.7-5.7,8.5-8.5c10.5-10.5,20.9-21,31.3-31.5
		C887.6,640.6,886,640.7,884.4,640.7z M761.3,625.4c4.4-4.4,8.9-8.9,13.3-13.3c-1.2-2-2.4-4-3.6-6.1c-7.2,7.2-14.4,14.5-21.6,21.7
		c-14.6,14.6-29.1,29.2-43.7,43.8c-3,3-6,6-9,9h9.6c0.8-0.8,1.6-1.6,2.4-2.4c9.1-9.1,18.1-18.2,27.1-27.3
		C744.3,642.3,752.8,633.8,761.3,625.4z M789.7,637.5c-0.3-0.4-0.6-0.8-0.9-1.3c-1-1.7-2-3.4-3-5c-10.8,10.8-21.5,21.5-32.3,32.3
		c-5.6,5.6-11.3,11.3-16.9,16.9h10.1c8.1-8.1,16.2-16.2,24.3-24.3C777.2,650,783.5,643.8,789.7,637.5z M778.6,618.9
		c-27,27.1-50.7,50.8-61.5,61.5h8.6c11.8-11.6,32.6-32.3,56.3-55.7C780.9,622.8,779.8,620.9,778.6,618.9z M1014.1,638
		c-3.2,0-6.4,0-9.6,0c-6.5,6.5-13,13-19.5,19.5c-7.6,7.6-15.1,15.2-22.7,22.7c-0.1,0.1-0.2,0.2-0.2,0.2h9.6c13-13,26-26.1,39.1-39.1
		C1011.8,640.2,1013,639.1,1014.1,638z M1034.4,638c-3.2,0-6.4,0-9.6,0c-14.2,14.2-28.3,28.3-42.5,42.5h9.6
		c8.8-8.8,17.5-17.5,26.3-26.3C1023.6,648.8,1029,643.4,1034.4,638z M983.2,638c-16.2,16-32.2,31.9-42.9,42.5h8.6
		c10.8-10.7,26.2-25.8,43.1-42.5C989.1,638,986.1,638,983.2,638z M454.1,625c-1.8-1.6-3.4-3.4-4.9-5.2c-1.8,1.8-3.6,3.6-5.3,5.3
		c-18.4,18.4-36.8,36.9-55.2,55.3h9.8c2.5-2.5,5.1-5.1,7.6-7.6c14.6-14.6,29.3-29.2,44-43.8C451.4,627.7,452.8,626.4,454.1,625z
		 M959.9,610.8c1.6-1.6,3.2-3.2,4.8-4.8c0-0.3,0-0.7,0-1c0-2.9,0-5.8,0-8.6c-10.3,10.3-20.5,20.6-30.8,30.9
		c-9.2,9.2-18.4,18.2-27.6,27.4c-7.9,7.9-15.6,16-23.6,23.7c-0.7,0.7-1.4,1.4-2.1,2.1h9.6c9.8-9.8,19.6-19.6,29.4-29.4
		C933.1,637.6,946.5,624.2,959.9,610.8z M1087.2,606.1c-0.1-0.2-0.2-0.3-0.3-0.5c-1-2.1-1.9-4.3-2.7-6.5c-0.8,0.8-1.6,1.6-2.4,2.4
		c-4.8,4.8-9.7,9.7-14.5,14.5c-0.8,4.3-2.6,8.2-5.3,11.7c-4.3,5.3-9.7,8.6-16.2,9.8c-14.3,14.3-28.6,28.6-42.9,42.9h9.8
		c2.4-2.4,4.7-4.7,7.1-7.1c11.4-11.4,22.9-22.8,34.4-34.3C1065.2,628.1,1076.2,617.1,1087.2,606.1z M964.7,626.4c0-3.2,0-6.5,0-9.7
		c-11,11-22.1,22.1-33.1,33.1c-10.2,10.2-20.5,20.5-30.7,30.7h9.7c11.1-11.1,22.1-22.2,33.2-33.3
		C950.7,640.2,957.7,633.3,964.7,626.4z M973.4,638c0,0-0.1,0-0.1,0c-1.6,0-3.2-0.4-4.6-1.2c-0.8-0.5-1.4-1-2-1.6
		c-12.1,12.1-24.2,24.2-36.3,36.3c-3,3-6,6-9,9h9.6c0.8-0.8,1.6-1.6,2.4-2.4c9.1-9.1,18.1-18.2,27.1-27.3
		C964.9,646.5,969.2,642.3,973.4,638z M584.8,638c-3.3,0-6.7,0-10,0c-11.2,11.2-22.4,22.4-33.5,33.6c-2.9,3-5.9,5.9-8.8,8.9h9.8
		c4.4-4.4,8.8-8.8,13.2-13.2C565.3,657.5,575.1,647.8,584.8,638z M565.1,637.3c-2.4-1.1-4.3-3.3-4.8-5.9c-2.7,2.7-5.3,5.3-8,8
		c-13.7,13.7-27.3,27.3-41,41h0.6h9h1.1c8.1-8.1,16.2-16.2,24.3-24.3C552.5,649.9,558.8,643.6,565.1,637.3z M493,656.9
		c-9.1,9-17.4,17.3-23.8,23.6h1.9h6.8h2.8c0.3-0.3,0.6-0.6,1-1h0.3c5.8-5.8,11.5-11.5,17.3-17.3C496.5,661.7,494,659.5,493,656.9z
		 M512.2,661.9c-1.1,0.2-2.1,0.3-3.2,0.4c-5.9,5.9-11.9,11.9-17.8,17.9c-0.1,0.1-0.2,0.2-0.2,0.2h0.7h8.9h0.9c2.7-2.7,5.4-5.4,8-8.1
		c5.5-5.5,11-11,16.6-16.5C522,658.9,517.4,660.9,512.2,661.9z M462.3,637.3v0.3c1.4-1.4,2.8-2.8,4.2-4.2c-0.1-0.1-0.3-0.1-0.4-0.2
		c-2-1-4-2.1-5.8-3.3c-8.3,8.3-16.7,16.5-25,24.8c-7.9,7.9-15.6,16-23.6,23.7c-0.7,0.7-1.4,1.4-2.1,2.1h9.6
		c9.8-9.8,19.6-19.6,29.4-29.4C453.1,646.5,457.7,641.9,462.3,637.3z M728.7,637.5c-0.9,0.3-1.9,0.5-2.9,0.5c-2.4,0-4.8,0-7.2,0
		c-3.9,3.9-7.9,7.9-11.8,11.8c-10.2,10.2-20.5,20.5-30.7,30.7h9.7c11.1-11.1,22.1-22.2,33.2-33.3
		C722.2,643.9,725.5,640.7,728.7,637.5z M492.4,648.4c0-1.3,0-2.6,0-3.8c0-0.4,0-0.8,0-1.2c0.1-1.4-0.4-2.7-1.3-3.6
		c-10.6,10.6-21.1,21.2-31.7,31.7c-3,3-6,6-9,9h9.6c0.8-0.7,1.5-1.5,2.2-2.2v0.3C472.3,668.5,482.4,658.4,492.4,648.4z M462.3,658.1
		c6.3-6.3,12.6-12.6,18.9-18.9c0.5-0.5,0.9-0.9,1.4-1.4c-2.9-0.3-5.8-0.8-8.5-1.6c-4.5,4.5-9,9-13.5,13.5
		c-10.2,10.2-20.5,20.5-30.7,30.7h9.7c7.6-7.6,15.2-15.2,22.8-22.9V658.1z M698.5,626.9c0-3.4,0-6.7,0-10.1
		c-2.8,2.8-5.5,5.5-8.3,8.3c-18.4,18.4-36.8,36.9-55.2,55.3h9.8c2.5-2.5,5.1-5.1,7.6-7.6c14.6-14.6,29.3-29.2,44-43.8
		C697.1,628.3,697.8,627.6,698.5,626.9z M624.1,619.3c-0.7-2.1-1.3-4.2-1.6-6.4c-0.1-0.5-0.1-1-0.2-1.5
		c-7.4,7.4-14.8,14.7-22.1,22.1c-0.7,1.4-2,2.8-3.7,3.7c-7.5,7.5-14.9,14.9-22.4,22.4c-7,7-13.9,14-20.8,20.9h9.5
		c0.8-0.8,1.6-1.6,2.4-2.4c11.7-11.7,23.4-23.5,35.2-35.2C608.3,635,616.2,627.2,624.1,619.3z M696.7,608.4c0.6-0.6,1.2-1.2,1.8-1.8
		c0-3.4,0-6.8,0-10.1c-9.2,9.3-18.5,18.5-27.8,27.8c-2.6,2.6-5.2,5.2-7.7,7.7c0,0.7,0,1.4-0.2,2.1c-0.8,3.9-4,6.5-7.9,6.7
		c-0.2,0-0.4,0-0.6,0c-13.3,13.3-26.6,26.5-39.9,39.8h10.3c2.8-2.8,5.7-5.7,8.5-8.5c11.3-11.3,22.5-22.7,33.8-34
		C676.8,628.1,686.8,618.3,696.7,608.4z M707.9,638c-0.4,0-0.7,0-1.1,0c-2.2,0-4.4-0.9-5.9-2.5c-6.4,6.4-12.9,12.8-19.3,19.2
		c-7.9,7.9-15.6,16-23.6,23.7c-0.7,0.7-1.4,1.4-2.1,2.1h9.6c9.8-9.8,19.6-19.6,29.4-29.4C699.2,646.7,703.5,642.4,707.9,638z
		 M632.1,631.5c-0.5-0.5-1.1-1.1-1.6-1.6c-1-1.1-2-2.3-2.8-3.6c-2.7,2.7-5.5,5.5-8.2,8.2c-15.3,15.3-30.6,30.6-45.9,46h9.7
		c15.4-15.4,30.7-30.7,46-46.1C630.2,633.4,631.2,632.5,632.1,631.5z M645.3,639.3c-2.5-0.7-4.8-1.7-7-3
		c-5.2,5.2-10.5,10.4-15.7,15.7c-9.5,9.5-19,19-28.5,28.5h9.8c5.1-5.2,10.3-10.3,15.4-15.5C628,656.4,636.6,647.8,645.3,639.3z"/>
</g>
<g>
</g>
<g>
</g>
<g>
</g>
<g>
</g>
<g>
</g>
<g>
</g>
<g>
</g>
<g>
</g>
<g>
</g>
<g>
</g>
<g>
</g>
<g>
</g>
<g>
</g>
<g>
</g>
<g>
</g>
</svg>
