<?xml version="1.0" encoding="utf-8"?>
<!-- Generator: Adobe Illustrator 17.0.0, SVG Export Plug-In . SVG Version: 6.00 Build 0)  -->
<!DOCTYPE svg PUBLIC "-//W3C//DTD SVG 1.1//EN" "http://www.w3.org/Graphics/SVG/1.1/DTD/svg11.dtd">
<svg version="1.1" id="Layer_1" xmlns="http://www.w3.org/2000/svg" xmlns:xlink="http://www.w3.org/1999/xlink" x="0px" y="0px"
	 width="2756.8px" height="2453.1px" viewBox="0 0 2756.8 2453.1" style="enable-background:new 0 0 2756.8 2453.1;"
	 xml:space="preserve">
<g>
	<path style="fill:none;stroke:#090606;stroke-width:20;stroke-miterlimit:10;" d="M1316.5,2151.8c0,60,0,120,0,180
		c0,1.9-0.1,3.8,0,5.8c0.4,13.3-9.7,26.6-25.3,28.6c-9.7,1.3-17.9-2.2-24.7-9.1c-1.8-1.8-3.3-3.9-4.6-6.1
		c-12.6-21.4-25.2-42.7-37.7-64.1c-14.3-24.4-28.7-48.8-43-73.3c-2-3.4-3.9-6.9-6.9-9.8c-5.4-5.2-11.8-8.2-19.4-8.2
		c-22.2,0-44.5,0-66.7,0c-5.8,0-10.5,2.2-14.4,6.5c-2.4,2.7-3.9,5.9-4.1,9.5c-0.1,2.1-0.1,4.2-0.1,6.2c0,35.7,0,71.4,0,107
		c0,3-0.1,6.1-0.8,9.1c-3,13.5-14.3,22.9-28.2,23c-22.2,0.1-44.5-0.1-66.7,0.1c-13,0.1-26.3-9.2-28.7-24.7c-0.5-3.2-0.6-6.4-0.6-9.6
		c0-65.4,0-130.9,0-196.3c0-51.8,0-103.7,0-155.5c0-2.9,0.1-5.7,0.5-8.6c2.3-14.2,13.5-24.3,28-25.1c1.1-0.1,2.2,0,3.4,0
		c23.5,0,47,0,70.6,0c2.6,0,5.1,0.1,7.6,0.6c13.7,2.7,23.3,13.6,24,27.4c0.3,6.2-1.6,12-4.6,17.4c-4.2,7.5-8.5,15-12.7,22.6
		c-10.2,18.1-20.3,36.3-30.5,54.4c-2,3.6-4,7.3-6.2,10.8c-7.9,13.1,2.8,27.8,15.9,27.8c1.4,0,2.9,0,4.3,0c41.6,0,83.2,0,124.8,0
		c1.4,0,2.9,0,4.3,0c9.8-0.3,17.2-7.2,18-17.1c0.2-1.9,0.1-3.8,0.1-5.8c0-35.5,0-71,0-106.6c0-3.2,0-6.4,0.9-9.5
		c3.5-12.9,14-21.3,27.6-22.1c1-0.1,1.9,0,2.9,0c20.8,0,41.6,0,62.4,0c2.4,0,4.8,0.2,7.2,0.7c12.9,2.4,23.7,14,23.5,28.2
		c0,2.6,0,5.1,0,7.7C1316.5,2033.1,1316.5,2092.4,1316.5,2151.8z M1879.7,2241.1c0,27.5,0,55,0,82.5c0,3.2,0.1,6.4,0.7,9.6
		c1.6,8.4,5.9,15.1,13.3,19.6c4.9,3,10.2,4.3,16,4.3c30.7-0.1,61.4,0,92.1,0c48,0,96,0,144,0c3.5,0,7.1,0.1,10.5-0.3
		c26.5-3.3,48.3-15,65-35.9c11.9-14.9,18.5-32.1,20.1-51c1.3-14.2-0.5-28.1-5.7-41.5c-10.7-27.7-30-46.7-58-56.9
		c-10.3-3.8-21.1-5.1-32-5.6c-8.1-0.3-13.5-4.4-16.6-11.7c-5-12,3.3-21.7,11-24c2.2-0.6,4.4-0.7,6.6-0.8c10.8-0.5,21.3-2,31.5-5.8
		c24.2-9,42.2-25.1,53.6-48.2c9.6-19.5,12.5-40.3,7.9-61.7c-7.4-34.4-28-57.9-60.8-70.5c-11-4.2-22.6-5.9-34.3-5.9
		c-77.6,0-155.2,0-232.8,0c-1.1,0-2.2,0-3.4,0c-15.8,0.7-26.9,12.1-28.6,25.6c-0.3,2.9-0.4,5.7-0.4,8.6c0,58.5,0,117.1,0,175.6
		C1879.7,2178.4,1879.7,2209.7,1879.7,2241.1z M2088.8,2294.2c0,1.9,0,3.8,0,5.8c-0.2,6.4-3.2,11.3-8.5,14.8
		c-8.3,5.4-20,3.1-25.6-5.1c-1.6-2.4-3-4.9-4.4-7.4c-15.4-26.5-30.9-53.1-46.3-79.7c-18.3-31.5-36.6-63.1-54.9-94.6
		c-8.4-14.5-16.9-29-25.3-43.6c-1-1.8-2.1-3.6-2.9-5.5c-3.8-8.7-1.1-18,6.9-23.1c5.1-3.2,10.5-6.1,15.8-9.1
		c34.3-19.7,68.5-39.3,102.8-59c4.9-2.8,9.7-5.6,14.6-8.3c5.7-3.2,11.6-3.5,17.5-0.6c6.2,3,9.7,8.2,10.4,15.1
		c0.2,2.1,0.1,4.2,0.1,6.2c0,49.1,0,98.2,0,147.3C2088.8,2196.3,2088.8,2245.2,2088.8,2294.2z M1379.1,2145.9
		c-0.6,119.2,95.4,220,218.6,220.5c122.6,0.5,219.4-98.4,219.8-218.6c0.5-124-100.1-220.3-218.4-219.6
		C1478.7,1927.1,1379.6,2025.1,1379.1,2145.9z M1506.2,2017.4c0-2.2-0.1-4.5,0.1-6.7c0.9-11.4,12.8-19.3,23.7-15.7
		c2.3,0.8,4.4,2,6.4,3.2c18.1,10.8,36.3,21.6,54.4,32.4c43.1,25.7,86.3,51.4,129.4,77.1c12.1,7.2,24.2,14.4,36.3,21.6
		c1.5,0.9,3,1.8,4.5,2.8c10.9,7.2,10.6,22.1,0.6,29.8c-1.1,0.9-2.4,1.6-3.6,2.3c-32.1,19.2-64.2,38.4-96.4,57.6
		c-39.8,23.8-79.6,47.6-119.5,71.4c-2.9,1.7-5.7,3.5-8.7,5.1c-8.2,4.4-16.8,2.9-23-4.1c-2.4-2.7-3.9-5.9-4.1-9.5
		c-0.1-2.2-0.1-4.5-0.1-6.7c0-43.7,0-87.3,0-131C1506.2,2103.8,1506.2,2060.6,1506.2,2017.4z M2483.8,1929.2
		c-17.9,1.9-35.3,5.8-52.2,11.9c-35.6,13-65.9,33.6-90.9,62.2c-14.5,16.7-26.2,35-35.2,55.2c-12.4,28.1-18.2,57.5-18.8,88.1
		c-0.1,3.3,0.5,6.7,0.5,10.1c0.1,7.5,0.9,15,2,22.4c3.2,22.3,9.8,43.7,19.7,63.9c13.5,27.7,32.1,51.5,55.6,71.4
		c17.5,14.8,36.8,26.6,57.9,35.4c23.6,9.8,48.2,15,73.6,16.5c13.6,0.8,27.2,0,40.7-1.9c21.7-3,42.5-9.1,62.3-18.4
		c27.1-12.8,50.7-30.2,70.6-52.7c14.2-16,25.9-33.7,35-53.1c12.8-27.2,19.2-55.8,20.6-85.7c0.5-9.8-0.2-19.5-1-29.2
		c-1-10.7-2.9-21.2-5.5-31.6c-6.4-25.9-17.3-49.8-32.5-71.7c-9.4-13.4-20-25.7-32.2-36.7c-13-11.8-27.1-22-42.5-30.3
		c-32.9-17.8-67.9-26.9-104.6-26.6C2498.9,1928.4,2491.4,1928.4,2483.8,1929.2z M2413.7,2016.6c0-2.7,0.1-5.4,0.7-8.1
		c2.6-11.6,16.3-18.2,26.8-12.2c6,3.4,11.9,7,17.8,10.5c25.3,15.1,50.5,30.2,75.8,45.2c31.6,18.8,63.2,37.7,94.8,56.5
		c12.2,7.3,24.4,14.6,36.7,21.8c1.9,1.1,3.8,2.4,5.4,4c9.1,9,6,21.1-1.4,27c-1.6,1.3-3.4,2.4-5.2,3.5
		c-30.9,18.5-61.8,36.9-92.7,55.3c-22.8,13.6-45.6,27.3-68.3,40.9c-20.2,12.1-40.4,24.1-60.5,36.1c-1.6,1-3.3,1.9-5.1,2.5
		c-10.1,3.5-20.5-1.9-23.6-12.1c-0.6-2-1-4-1-6.1c0-1.8,0-3.5,0-5.3c0-42.9,0-85.7,0-128.6C2413.7,2104,2413.7,2060.3,2413.7,2016.6
		z M384.3,2060.2c0-5.8,0-11.5,0-17.3c0-1.9-0.1-3.9-0.4-5.7c-1.7-8.5-6.6-14.8-13.9-19.2c-5.2-3.2-10.9-4.2-17-4.2
		c-50.2,0.1-100.4,0.1-150.7,0c-8.2,0-16.3,0.7-24.4,1.9c-21.4,3.2-41.5,10.2-60.3,21.1c-18.3,10.6-34.3,24-47.6,40.5
		c-11.1,13.6-19.9,28.6-26.5,44.9c-6.5,16.1-10.5,32.9-11.8,50.2c-1,13.7-0.6,27.5,1.7,41.1c3.1,18.3,8.8,35.7,17.5,52.1
		c9.7,18.3,22.2,34.3,37.6,48.1c12,10.7,25.2,19.7,39.7,26.6c22.8,10.8,46.9,16.8,72.3,16.8c1.1,0,2.2,0,3.4,0.1
		c9.8,1,17.5,8.2,17,18.5c-0.1,1.4,0,2.9,0,4.3c0,9.6,0,19.2,0,28.8c0,3.1,0.2,6.1,0.7,9.1c1.7,11.7,11.9,22.3,23.5,24.4
		c3,0.6,6,0.9,9.1,0.9c4.8-0.1,9.6,0.1,14.4,0c7.4-0.1,14.7-0.7,21.9-2.1c26.5-5.1,48.8-17.7,66.5-38.2
		c12.5-14.5,20.7-31.1,24.9-49.7c1.9-8.5,2.6-17,2.6-25.7c-0.1-46.1,0-92.1,0-138.2C384.3,2146.2,384.3,2103.2,384.3,2060.2z
		 M184.6,2075.1c0-3,0.1-6.1,0.9-9c2.5-8.3,9.8-13.6,18.3-13.4c5.5,0.1,9.8,2.8,13.1,6.9c1.4,1.7,2.5,3.7,3.6,5.6
		c12,21.5,23.9,43.1,35.9,64.6c12,21.5,24,43,35.9,64.5c6.8,12.2,13.5,24.3,20.3,36.5c0.6,1.1,1.2,2.3,1.8,3.4
		c4.6,9.4,0,19.7-6.7,23.6c-7.1,4.1-14,8.4-21,12.6c-22.8,13.6-45.6,27.2-68.4,40.8c-2.7,1.6-5.5,3.3-8.4,4.6
		c-10.8,4.8-22.2-1.2-24.7-12.8c-0.6-2.7-0.6-5.4-0.6-8.1c0-36.5,0-72.9,0-109.4C184.6,2148.6,184.6,2111.9,184.6,2075.1z
		 M676.4,2250.5c0,6.1,0.1,12.1,1,18.2c3.5,22.8,12.8,42.8,28.3,59.9c17.2,19,38.5,30.9,63.7,35.8c7.2,1.4,14.5,2.3,21.9,2.1
		c13.9-0.4,25-9.9,27.9-23.4c0.6-3,0.7-6,0.7-9.1c0-69.8,0-139.5,0-209.3c0-2.1-0.1-4.2,0-6.2c0.3-6.7,3.2-11.9,8.8-15.7
		c1.3-0.9,2.7-1.7,4.1-2.5c15.3-8.4,30.6-16.7,45.9-25.1c3.9-2.1,7.9-4.2,11.8-6.4c11.5-6.5,17.1-19.5,14.1-32.3
		c-3.2-13.4-14.7-22.6-28.5-22.7c-11.2-0.1-22.4,0-33.6,0c-1.6,0-3.2,0.1-4.8-0.1c-11.3-1.1-18.4-10.4-17.9-19c0.1-1.4,0-2.9,0-4.3
		c0-10.6,0-21.1,0-31.7c0-2.7-0.2-5.4-0.8-8.1c-3.1-13-15.1-22.7-28.2-22.4c-6.3,0.2-11.9,2.1-17.2,5.4
		c-17.4,10.7-34.9,21.4-52.4,32.1c-10.2,6.3-20.5,12.4-30.7,18.8c-9.3,5.9-14.4,14.3-14.3,25.5c0,1.8,0,3.5,0,5.3
		c0,39.7,0,79.4,0,119C676.4,2173.1,676.4,2211.8,676.4,2250.5z M602.2,2094.2c0-1.9,0.1-3.8-0.1-5.8c-0.6-8.2-4-15-10.2-20.4
		c-6-5.2-13.2-7-20.9-7c-27,0-54.1,0-81.1,0c-2.6,0-5.1,0.3-7.6,0.7c-13.4,2.5-23.2,14-23.6,27.7c0,1.6,0,3.2,0,4.8
		c0,76.6,0,153.2,0,229.9c0,1.6,0,3.2,0,4.8c0,15.2,13.4,28.3,28.3,28.1c5,0,9.9,0,14.9,0c24,0,48,0,72,0c13.8,0,24-10.4,26.9-19.7
		c1.1-3.6,1.5-7.2,1.5-10.9c0-39,0-78.1,0-117.1C602.2,2171,602.2,2132.6,602.2,2094.2z M544.5,1918.7
		c-27.6-0.2-56.8,21.3-57.8,57.3c0.9,33,26.1,58.2,57.7,58c35.2-0.2,58.2-29.8,57.7-57.9C602.5,1944.5,575.3,1918.9,544.5,1918.7z"
		/>
	<g>
		<rect x="0" y="62" style="fill:none;" width="2756.8" height="557.4"/>
		<path style="fill:#090606;" d="M283.7,192.8c-1.2,20.3-2.3,42.8-2.3,77v162.7c0,64.3-12.7,103.6-40,128
			c-27.2,25.5-66.6,33.6-101.9,33.6c-33.6,0-70.6-8.1-93.2-23.2l12.7-38.8c18.5,11.6,47.5,22,82.2,22c52.1,0,90.3-27.2,90.3-97.9
			V425h-1.2c-15.6,26.1-45.7,46.9-89.2,46.9C71.8,471.9,22,412.8,22,335.2c0-95,62-148.8,126.2-148.8c48.6,0,75.3,25.5,87.4,48.6
			h1.2l2.3-42.3H283.7z M231,303.4c0-8.7-0.6-16.2-2.9-23.2c-9.3-29.5-34.2-53.8-71.2-53.8c-48.6,0-83.4,41.1-83.4,106
			c0,55,27.8,100.7,82.8,100.7c31.3,0,59.6-19.7,70.6-52.1c2.9-8.7,4.1-18.5,4.1-27.2V303.4z"/>
		<path style="fill:#090606;" d="M419.2,114.1c0.6,17.4-12.2,31.3-32.4,31.3c-17.9,0-30.7-13.9-30.7-31.3
			c0-17.9,13.3-31.8,31.8-31.8C407,82.2,419.2,96.1,419.2,114.1z M362.4,473V192.8h51V473H362.4z"/>
		<path style="fill:#090606;" d="M559.3,112.3v80.5h73v38.8h-73v151.1c0,34.7,9.8,54.4,38.2,54.4c13.3,0,23.2-1.7,29.5-3.5l2.3,38.2
			c-9.8,4.1-25.5,6.9-45.2,6.9c-23.7,0-42.8-7.5-55-21.4c-14.5-15.1-19.7-40-19.7-73V231.6h-43.4v-38.8h43.4v-67.2L559.3,112.3z"/>
		<path style="fill:#090606;" d="M741.7,82.8v163.3h188.8V82.8h51V473h-51v-183H741.7v183h-50.4V82.8H741.7z"/>
		<path style="fill:#090606;" d="M1402.3,273.9c0,134.3-81.6,205.5-181.2,205.5c-103.1,0-175.4-79.9-175.4-198
			c0-123.9,77-205,181.2-205C1333.4,76.4,1402.3,158.1,1402.3,273.9z M1099.5,280.2c0,83.4,45.2,158.1,124.5,158.1
			c79.9,0,125.1-73.5,125.1-162.1c0-77.6-40.5-158.6-124.5-158.6C1141.2,117.5,1099.5,194.5,1099.5,280.2z"/>
		<path style="fill:#090606;" d="M1467.7,88c22-4.6,56.7-8.1,92.1-8.1c50.4,0,82.8,8.7,107.1,28.4c20.3,15.1,32.4,38.2,32.4,68.9
			c0,37.6-24.9,70.6-66,85.7v1.2c37.1,9.3,80.5,40,80.5,97.9c0,33.6-13.3,59.1-33,78.2c-27.2,24.9-71.2,36.5-134.9,36.5
			c-34.7,0-61.4-2.3-78.2-4.6V88z M1518.1,247.8h45.7c53.3,0,84.5-27.8,84.5-65.4c0-45.7-34.7-63.7-85.7-63.7
			c-23.2,0-36.5,1.7-44.6,3.5V247.8z M1518.1,434.8c9.8,1.7,24.3,2.3,42.3,2.3c52.1,0,100.2-19.1,100.2-75.8
			c0-53.3-45.7-75.3-100.7-75.3h-41.7V434.8z"/>
		<path style="fill:#090606;" d="M2115.1,273.9c0,134.3-81.6,205.5-181.2,205.5c-103.1,0-175.4-79.9-175.4-198
			c0-123.9,77-205,181.2-205C2046.2,76.4,2115.1,158.1,2115.1,273.9z M1812.2,280.2c0,83.4,45.2,158.1,124.5,158.1
			c79.9,0,125.1-73.5,125.1-162.1c0-77.6-40.5-158.6-124.5-158.6C1853.9,117.5,1812.2,194.5,1812.2,280.2z"/>
	</g>
	<path style="fill:#090606;stroke:#FBC411;stroke-width:20;stroke-miterlimit:10;" d="M1316.5,1240.8c0,60,0,120,0,180
		c0,1.9-0.1,3.8,0,5.8c0.4,13.3-9.7,26.6-25.3,28.6c-9.7,1.3-17.9-2.2-24.7-9.1c-1.8-1.8-3.3-3.9-4.6-6.1
		c-12.6-21.4-25.2-42.7-37.7-64.1c-14.3-24.4-28.7-48.8-43-73.3c-2-3.4-3.9-6.9-6.9-9.8c-5.4-5.2-11.8-8.2-19.4-8.2
		c-22.2,0-44.5,0-66.7,0c-5.8,0-10.5,2.2-14.4,6.5c-2.4,2.7-3.9,5.9-4.1,9.5c-0.1,2.1-0.1,4.2-0.1,6.2c0,35.7,0,71.4,0,107
		c0,3-0.1,6.1-0.8,9.1c-3,13.5-14.3,22.9-28.2,23c-22.2,0.1-44.5-0.1-66.7,0.1c-13,0.1-26.3-9.2-28.7-24.7c-0.5-3.2-0.6-6.4-0.6-9.6
		c0-65.4,0-130.9,0-196.3c0-51.8,0-103.7,0-155.5c0-2.9,0.1-5.7,0.5-8.6c2.3-14.2,13.5-24.3,28-25.1c1.1-0.1,2.2,0,3.4,0
		c23.5,0,47,0,70.6,0c2.6,0,5.1,0.1,7.6,0.6c13.7,2.7,23.3,13.6,24,27.4c0.3,6.2-1.6,12-4.6,17.4c-4.2,7.5-8.5,15-12.7,22.6
		c-10.2,18.1-20.3,36.3-30.5,54.4c-2,3.6-4,7.3-6.2,10.8c-7.9,13.1,2.8,27.8,15.9,27.8c1.4,0,2.9,0,4.3,0c41.6,0,83.2,0,124.8,0
		c1.4,0,2.9,0,4.3,0c9.8-0.3,17.2-7.2,18-17.1c0.2-1.9,0.1-3.8,0.1-5.8c0-35.5,0-71,0-106.6c0-3.2,0-6.4,0.9-9.5
		c3.5-12.9,14-21.3,27.6-22.1c1-0.1,1.9,0,2.9,0c20.8,0,41.6,0,62.4,0c2.4,0,4.8,0.2,7.2,0.7c12.9,2.4,23.7,14,23.5,28.2
		c0,2.6,0,5.1,0,7.7C1316.5,1122.1,1316.5,1181.4,1316.5,1240.8z M1879.7,1330.1c0,27.5,0,55,0,82.5c0,3.2,0.1,6.4,0.7,9.5
		c1.6,8.4,5.9,15.1,13.3,19.6c4.9,3,10.2,4.3,16,4.3c30.7-0.1,61.4,0,92.1,0c48,0,96,0,144,0c3.5,0,7.1,0.1,10.5-0.3
		c26.5-3.3,48.3-15,65-35.9c11.9-14.9,18.5-32.1,20.1-51c1.3-14.2-0.5-28.1-5.7-41.5c-10.7-27.7-30-46.7-58-56.9
		c-10.3-3.8-21.1-5.1-32-5.6c-8.1-0.3-13.5-4.4-16.6-11.7c-5-12,3.3-21.7,11-24c2.2-0.6,4.4-0.7,6.6-0.8c10.8-0.5,21.3-2,31.5-5.8
		c24.2-9,42.2-25.1,53.6-48.2c9.6-19.5,12.5-40.3,7.9-61.7c-7.4-34.4-28-57.9-60.8-70.5c-11-4.2-22.6-5.9-34.3-5.9
		c-77.6,0-155.2,0-232.8,0c-1.1,0-2.2,0-3.4,0c-15.8,0.7-26.9,12.1-28.6,25.6c-0.3,2.9-0.4,5.7-0.4,8.6c0,58.5,0,117.1,0,175.6
		C1879.7,1267.4,1879.7,1298.7,1879.7,1330.1z M2088.8,1383.1c0,1.9,0,3.8,0,5.8c-0.2,6.4-3.2,11.3-8.5,14.8
		c-8.3,5.4-20,3.1-25.6-5.1c-1.6-2.4-3-4.9-4.4-7.4c-15.4-26.5-30.9-53.1-46.3-79.7c-18.3-31.5-36.6-63.1-54.9-94.6
		c-8.4-14.5-16.9-29-25.3-43.6c-1-1.8-2.1-3.6-2.9-5.5c-3.8-8.7-1.1-18,6.9-23.1c5.1-3.2,10.5-6.1,15.8-9.1
		c34.3-19.7,68.5-39.3,102.8-59c4.9-2.8,9.7-5.6,14.6-8.3c5.7-3.2,11.6-3.5,17.5-0.6c6.2,3,9.7,8.2,10.4,15.1
		c0.2,2.1,0.1,4.2,0.1,6.2c0,49.1,0,98.2,0,147.3C2088.8,1285.2,2088.8,1334.2,2088.8,1383.1z M1379.1,1234.9
		c-0.6,119.2,95.4,220,218.6,220.5c122.6,0.5,219.4-98.4,219.8-218.6c0.5-124-100.1-220.3-218.4-219.6
		C1478.7,1016.1,1379.6,1114.1,1379.1,1234.9z M1506.2,1106.4c0-2.2-0.1-4.5,0.1-6.7c0.9-11.4,12.8-19.3,23.7-15.7
		c2.3,0.8,4.4,2,6.4,3.2c18.1,10.8,36.3,21.6,54.4,32.4c43.1,25.7,86.3,51.4,129.4,77.1c12.1,7.2,24.2,14.4,36.3,21.6
		c1.5,0.9,3,1.8,4.5,2.8c10.9,7.2,10.6,22.1,0.6,29.8c-1.1,0.9-2.4,1.6-3.6,2.3c-32.1,19.2-64.2,38.4-96.4,57.6
		c-39.8,23.8-79.6,47.6-119.5,71.4c-2.9,1.7-5.7,3.5-8.7,5.1c-8.2,4.4-16.8,2.9-23-4.1c-2.4-2.7-3.9-5.9-4.1-9.5
		c-0.1-2.2-0.1-4.5-0.1-6.7c0-43.7,0-87.3,0-131C1506.2,1192.8,1506.2,1149.6,1506.2,1106.4z M2483.8,1018.1
		c-17.9,1.9-35.3,5.8-52.2,11.9c-35.6,13-65.9,33.6-90.9,62.2c-14.5,16.7-26.2,35-35.2,55.2c-12.4,28.1-18.2,57.5-18.8,88.1
		c-0.1,3.3,0.5,6.7,0.5,10.1c0.1,7.5,0.9,15,2,22.4c3.2,22.3,9.8,43.7,19.7,63.9c13.5,27.7,32.1,51.5,55.6,71.4
		c17.5,14.8,36.8,26.6,57.9,35.4c23.6,9.8,48.2,15,73.6,16.5c13.6,0.8,27.2,0,40.7-1.9c21.7-3,42.5-9.1,62.3-18.4
		c27.1-12.8,50.7-30.2,70.6-52.7c14.2-16,25.9-33.7,35-53.1c12.8-27.2,19.2-55.8,20.6-85.7c0.5-9.8-0.2-19.5-1-29.2
		c-1-10.7-2.9-21.2-5.5-31.6c-6.4-25.9-17.3-49.8-32.5-71.7c-9.4-13.4-20-25.7-32.2-36.7c-13-11.8-27.1-22-42.5-30.3
		c-32.9-17.8-67.9-26.9-104.6-26.6C2498.9,1017.4,2491.4,1017.3,2483.8,1018.1z M2413.7,1105.6c0-2.7,0.1-5.4,0.7-8.1
		c2.6-11.6,16.3-18.2,26.8-12.2c6,3.4,11.9,7,17.8,10.5c25.3,15.1,50.5,30.2,75.8,45.2c31.6,18.8,63.2,37.7,94.8,56.5
		c12.2,7.3,24.4,14.6,36.7,21.8c1.9,1.1,3.8,2.4,5.4,4c9.1,9,6,21.1-1.4,27c-1.6,1.3-3.4,2.4-5.2,3.5
		c-30.9,18.5-61.8,36.9-92.7,55.3c-22.8,13.6-45.6,27.3-68.3,40.9c-20.2,12.1-40.4,24.1-60.5,36.1c-1.6,1-3.3,1.9-5.1,2.5
		c-10.1,3.5-20.5-1.9-23.6-12.1c-0.6-2-1-4-1-6.1c0-1.8,0-3.5,0-5.3c0-42.9,0-85.7,0-128.6
		C2413.7,1192.9,2413.7,1149.3,2413.7,1105.6z M384.3,1149.2c0-5.8,0-11.5,0-17.3c0-1.9-0.1-3.9-0.4-5.7
		c-1.7-8.5-6.6-14.8-13.9-19.2c-5.2-3.2-10.9-4.2-17-4.2c-50.2,0.1-100.4,0.1-150.7,0c-8.2,0-16.3,0.7-24.4,1.9
		c-21.4,3.2-41.5,10.2-60.3,21.1c-18.3,10.6-34.3,24-47.6,40.5c-11.1,13.6-19.9,28.6-26.5,44.9c-6.5,16.1-10.5,32.9-11.8,50.2
		c-1,13.7-0.6,27.5,1.7,41.1c3.1,18.3,8.8,35.7,17.5,52.1c9.7,18.3,22.2,34.3,37.6,48.1c12,10.7,25.2,19.7,39.7,26.6
		c22.8,10.8,46.9,16.8,72.3,16.8c1.1,0,2.2,0,3.4,0.1c9.8,1,17.5,8.2,17,18.5c-0.1,1.4,0,2.9,0,4.3c0,9.6,0,19.2,0,28.8
		c0,3.1,0.2,6.1,0.7,9.1c1.7,11.7,11.9,22.3,23.5,24.4c3,0.6,6,0.9,9.1,0.9c4.8-0.1,9.6,0.1,14.4,0c7.4-0.1,14.7-0.7,21.9-2.1
		c26.5-5.1,48.8-17.7,66.5-38.2c12.5-14.5,20.7-31.1,24.9-49.7c1.9-8.5,2.6-17,2.6-25.7c-0.1-46.1,0-92.1,0-138.2
		C384.3,1235.2,384.3,1192.2,384.3,1149.2z M184.6,1164.1c0-3,0.1-6.1,0.9-9c2.5-8.3,9.8-13.6,18.3-13.4c5.5,0.1,9.8,2.8,13.1,6.9
		c1.4,1.7,2.5,3.7,3.6,5.6c12,21.5,23.9,43.1,35.9,64.6c12,21.5,24,43,35.9,64.5c6.8,12.2,13.5,24.3,20.3,36.5
		c0.6,1.1,1.2,2.3,1.8,3.4c4.6,9.4,0,19.7-6.7,23.6c-7.1,4.1-14,8.4-21,12.6c-22.8,13.6-45.6,27.2-68.4,40.8
		c-2.7,1.6-5.5,3.3-8.4,4.6c-10.8,4.8-22.2-1.2-24.7-12.8c-0.6-2.7-0.6-5.4-0.6-8.1c0-36.5,0-72.9,0-109.4
		C184.6,1237.6,184.6,1200.8,184.6,1164.1z M676.4,1339.5c0,6.1,0.1,12.1,1,18.2c3.5,22.8,12.8,42.8,28.3,59.9
		c17.2,19,38.5,30.9,63.7,35.8c7.2,1.4,14.5,2.3,21.9,2.1c13.9-0.4,25-9.9,27.9-23.4c0.6-3,0.7-6,0.7-9.1c0-69.8,0-139.5,0-209.3
		c0-2.1-0.1-4.2,0-6.2c0.3-6.7,3.2-11.9,8.8-15.7c1.3-0.9,2.7-1.7,4.1-2.5c15.3-8.4,30.6-16.7,45.9-25.1c3.9-2.1,7.9-4.2,11.8-6.4
		c11.5-6.5,17.1-19.5,14.1-32.3c-3.2-13.4-14.7-22.6-28.5-22.7c-11.2-0.1-22.4,0-33.6,0c-1.6,0-3.2,0.1-4.8-0.1
		c-11.3-1.1-18.4-10.4-17.9-19c0.1-1.4,0-2.9,0-4.3c0-10.6,0-21.1,0-31.7c0-2.7-0.2-5.4-0.8-8.1c-3.1-13-15.1-22.7-28.2-22.4
		c-6.3,0.2-11.9,2.1-17.2,5.4c-17.4,10.7-34.9,21.4-52.4,32.1c-10.2,6.3-20.5,12.4-30.7,18.8c-9.3,5.9-14.4,14.3-14.3,25.5
		c0,1.8,0,3.5,0,5.3c0,39.7,0,79.4,0,119C676.4,1262.1,676.4,1300.8,676.4,1339.5z M602.2,1183.2c0-1.9,0.1-3.8-0.1-5.8
		c-0.6-8.2-4-15-10.2-20.4c-6-5.2-13.2-7-20.9-7c-27,0-54.1,0-81.1,0c-2.6,0-5.1,0.3-7.6,0.7c-13.4,2.5-23.2,14-23.6,27.7
		c0,1.6,0,3.2,0,4.8c0,76.6,0,153.2,0,229.9c0,1.6,0,3.2,0,4.8c0,15.2,13.4,28.3,28.3,28.1c5,0,9.9,0,14.9,0c24,0,48,0,72,0
		c13.8,0,24-10.4,26.9-19.7c1.1-3.6,1.5-7.2,1.5-10.9c0-39,0-78.1,0-117.1C602.2,1260,602.2,1221.6,602.2,1183.2z M544.5,1007.7
		c-27.6-0.2-56.8,21.3-57.8,57.3c0.9,33,26.1,58.2,57.7,58c35.2-0.2,58.2-29.8,57.7-57.9C602.5,1033.5,575.3,1007.9,544.5,1007.7z"
		/>
</g>
<g>
</g>
<g>
</g>
<g>
</g>
<g>
</g>
<g>
</g>
<g>
</g>
<g>
</g>
<g>
</g>
<g>
</g>
<g>
</g>
<g>
</g>
<g>
</g>
<g>
</g>
<g>
</g>
<g>
</g>
</svg>
